<svg width="100" height="100" viewBox="0 0 100 100" fill="none" xmlns="http://www.w3.org/2000/svg">
<path d="M87.5494 0H12.4505C5.5743 0 0 5.5743 0 12.4505V87.5494C0 94.4257 5.5743 100 12.4505 100H87.5494C94.4257 100 100 94.4257 100 87.5494V12.4505C100 5.5743 94.4257 0 87.5494 0Z" fill="#583EF4"/>
<mask id="mask0" mask-type="alpha" maskUnits="userSpaceOnUse" x="0" y="0" width="100" height="100">
<path d="M87.5494 0H12.4505C5.5743 0 0 5.5743 0 12.4505V87.5494C0 94.4257 5.5743 100 12.4505 100H87.5494C94.4257 100 100 94.4257 100 87.5494V12.4505C100 5.5743 94.4257 0 87.5494 0Z" fill="#583EF4"/>
</mask>
<g mask="url(#mask0)">
<path d="M59.5994 70.5476C71.2699 78.3344 80.1535 89.6397 84.9591 102.821L61.5835 112.618L41.6647 108.184L59.5994 70.5476Z" fill="white" stroke="#060905" stroke-miterlimit="10"/>
<path d="M83.8275 141.078C81.5023 97.4266 65.3192 63.5723 45.6949 63.5723C26.0705 63.5723 9.88742 97.3801 7.56226 141.078H83.8275Z" fill="white" stroke="#060905" stroke-miterlimit="10"/>
<path d="M-12 104.557C-8.91808 98.6542 -4.91511 93.2803 -0.141686 88.6375C7.70185 81.0575 15.0494 74.5625 24.288 69.9122C33.5266 65.2619 37.7739 64.9518 37.7739 64.9518L39.324 67.9591C39.324 67.9591 31.2635 82.9796 29.5894 87.1029C27.9152 91.2262 19.2191 112.308 19.2191 112.308C19.2191 112.308 8.04287 121.856 6.44626 121.066C4.84966 120.275 -12 104.557 -12 104.557Z" fill="white"/>
<path d="M31.2635 82.902L15.0029 119.717" stroke="#060905" stroke-miterlimit="10"/>
<path d="M36.9215 64.9518C36.9215 64.9518 9.53117 70.9663 -10.4497 101.968" stroke="#060905" stroke-miterlimit="10"/>
<path d="M77.3637 49.9003C76.8676 42.3668 71.8763 42.6613 71.8763 42.6613C71.8763 42.6613 73.3024 40.1501 70.7602 36.2904C67.877 31.9656 62.8546 31.5315 60.514 31.6401C58.7314 27.1292 56.5767 23.8895 54.3136 23.8895C47.4001 23.6415 39.7426 38.0265 33.9762 37.9335C28.2098 37.8405 8.49242 56.3952 24.2105 61.1851C41.3392 66.4244 64.0637 61.7586 64.0637 61.7586C69.7681 60.7976 77.9062 56.9068 77.3637 49.9003Z" fill="#060905"/>
<path d="M35.6503 66.2849C35.6503 69.3851 40.1456 71.8032 45.695 71.8032C51.2443 71.8032 55.7397 69.3386 55.7397 66.2849C55.7397 63.2312 51.2443 60.7665 45.695 60.7665C40.1456 60.7665 35.6503 63.2312 35.6503 66.2849Z" fill="white" stroke="#060905" stroke-width="0.75" stroke-miterlimit="10"/>
<path d="M57.2277 19.4408H48.9347C43.4163 19.4408 38.9055 24.5871 38.9055 30.8651V43.731C38.9055 44.103 38.9055 44.4595 38.9055 44.816C38.8105 45.2015 38.7636 45.5972 38.766 45.9941V62.1617C38.77 63.5295 39.3152 64.84 40.2823 65.8072C41.2495 66.7743 42.5601 67.3195 43.9278 67.3236H47.214C47.8965 67.3297 48.5735 67.2008 49.206 66.9444C49.8385 66.6879 50.4141 66.3089 50.8996 65.8292C51.3851 65.3494 51.7709 64.7784 52.0349 64.149C52.2989 63.5196 52.4359 62.8443 52.4379 62.1617V55.1552H57.2277C62.7461 55.1552 67.2569 50.0089 67.2569 43.731V30.8651C67.2569 24.5871 62.7461 19.4408 57.2277 19.4408Z" fill="white" stroke="#060905" stroke-width="0.75" stroke-miterlimit="10"/>
<path d="M34.3481 43.9323C34.3481 43.9323 26.7526 38.786 25.7605 30.1519C25.7605 30.1519 25.435 16.976 36.4873 12.0931C44.821 8.46449 54.1948 8.01235 62.8391 10.8221C71.0236 13.9223 74.4959 18.7741 71.3337 25.4706C68.9775 30.4619 57.2432 27.8422 53.1819 24.7265C53.1819 24.7265 52.4689 30.0124 42.3312 31.485L38.8744 45.4359L38.6574 49.9932L34.3481 43.9323Z" fill="#060905"/>
<path d="M50.6551 35.0658C50.652 35.4374 50.7594 35.8015 50.9636 36.112C51.1679 36.4225 51.4597 36.6653 51.8021 36.8096C52.1446 36.954 52.5222 36.9933 52.887 36.9227C53.2519 36.8521 53.5875 36.6747 53.8514 36.413C54.1153 36.1513 54.2955 35.8172 54.3691 35.4529C54.4427 35.0887 54.4065 34.7107 54.265 34.3671C54.1235 34.0235 53.8831 33.7296 53.5744 33.5228C53.2656 33.316 52.9023 33.2056 52.5307 33.2056C52.036 33.2056 51.5612 33.4011 51.2099 33.7495C50.8586 34.0979 50.6592 34.571 50.6551 35.0658Z" fill="#060905"/>
<path d="M62.9011 34.8023C62.9011 35.1089 62.992 35.4086 63.1624 35.6635C63.3327 35.9184 63.5748 36.1171 63.858 36.2344C64.1413 36.3517 64.4529 36.3824 64.7536 36.3226C65.0543 36.2628 65.3305 36.1152 65.5473 35.8984C65.7641 35.6816 65.9117 35.4054 65.9715 35.1047C66.0314 34.804 66.0007 34.4923 65.8833 34.2091C65.766 33.9259 65.5673 33.6838 65.3124 33.5134C65.0575 33.3431 64.7578 33.2522 64.4512 33.2522C64.0401 33.2522 63.6458 33.4155 63.3551 33.7062C63.0644 33.9969 62.9011 34.3912 62.9011 34.8023Z" fill="#060905"/>
<path d="M61.1186 42.4599C61.1186 42.4599 60.173 45.1881 58.1889 45.3741C56.2048 45.5601 54.6391 43.3589 54.5306 41.6538L61.1186 42.4599Z" fill="white"/>
<path d="M60.5604 42.3048C60.291 43.1848 59.748 43.9559 59.0103 44.506C57.1191 45.6686 55.352 43.3434 55.166 41.6538L54.577 42.2273L61.1649 43.0334C61.909 43.1264 61.8935 41.9638 61.1649 41.8708L54.577 41.0648C54.4234 41.0688 54.2776 41.1326 54.1704 41.2427C54.0633 41.3527 54.0034 41.5002 54.0034 41.6538C54.2359 43.8084 55.9565 46.3041 58.3902 45.9476C59.1923 45.7394 59.9241 45.3207 60.5101 44.7347C61.096 44.1488 61.5147 43.4169 61.7229 42.6149C61.9245 41.9018 60.8549 41.5918 60.5604 42.3048Z" fill="#060905"/>
<path d="M44.4239 41.6847C44.4178 42.5488 44.6688 43.3952 45.1451 44.1163C45.6213 44.8373 46.3013 45.4004 47.0985 45.7339C47.8956 46.0674 48.774 46.1563 49.6218 45.9892C50.4696 45.8221 51.2486 45.4066 51.8596 44.7956C52.4707 44.1846 52.8861 43.4056 53.0532 42.5578C53.2203 41.71 53.1314 40.8316 52.7979 40.0344C52.4644 39.2373 51.9013 38.5573 51.1803 38.0811C50.4592 37.6048 49.6128 37.3538 48.7487 37.3599C47.6042 37.368 46.5089 37.8263 45.6996 38.6356C44.8903 39.4449 44.4321 40.5402 44.4239 41.6847Z" fill="#FF809F"/>
<path d="M66.079 38.569C66.3312 38.5379 66.5863 38.5379 66.8386 38.569V43.0953C66.8576 43.7501 66.8056 44.4049 66.6836 45.0485C66.4824 45.0653 66.2802 45.0653 66.079 45.0485C65.6254 45.0795 65.1702 45.017 64.7417 44.8647C64.3132 44.7125 63.9206 44.4738 63.5883 44.1634C63.256 43.8531 62.991 43.4777 62.8098 43.0606C62.6286 42.6436 62.5352 42.1937 62.5352 41.739C62.5352 41.2843 62.6286 40.8344 62.8098 40.4173C62.991 40.0003 63.256 39.6249 63.5883 39.3145C63.9206 39.0042 64.3132 38.7655 64.7417 38.6132C65.1702 38.461 65.6254 38.3984 66.079 38.4295V38.569Z" fill="#FF809F"/>
<path d="M58.4524 33.2056L58.0803 39.5766L61.1185 37.7319L58.4524 33.2056Z" fill="#FF809F"/>
<path d="M10.3215 43.5603C8.69386 50.8613 13.8092 57.2323 21.6217 60.317C36.8593 66.3314 41.0136 50.0553 37.2313 39.7471C33.4491 29.4389 21.8543 28.2918 19.6996 36.3678C19.6996 36.3213 12.2746 34.7557 10.3215 43.5603Z" fill="#060905"/>
<path d="M28.4422 39.7781C28.4269 41.091 28.8023 42.3789 29.5209 43.4779C30.2395 44.5768 31.2687 45.4373 32.4776 45.9497C33.6866 46.4621 35.0206 46.6034 36.31 46.3556C37.5995 46.1077 38.7861 45.482 39.7189 44.5579C40.6517 43.6338 41.2887 42.4532 41.5486 41.1661C41.8086 39.8791 41.6799 38.5438 41.1789 37.3301C40.6779 36.1164 39.8273 35.0791 38.7351 34.3502C37.643 33.6213 36.3587 33.2337 35.0457 33.2366C34.1826 33.2326 33.3271 33.3985 32.5281 33.7251C31.7292 34.0516 31.0023 34.5323 30.3892 35.1397C29.776 35.7472 29.2884 36.4694 28.9544 37.2653C28.6203 38.0611 28.4463 38.915 28.4422 39.7781Z" fill="white"/>
<path d="M39.2621 40.6462C39.3115 39.7439 39.1188 38.8448 38.704 38.042C38.2679 37.3056 37.6166 36.7206 36.8377 36.3658C36.0589 36.011 35.19 35.9035 34.3482 36.0578C33.5267 36.0578 33.5267 37.4064 34.3482 37.3289C34.9971 37.1769 35.6782 37.247 36.2825 37.528C36.8867 37.8091 37.3792 38.2848 37.681 38.879C37.9147 39.4376 38.0207 40.0414 37.991 40.6462C37.991 41.4677 39.2156 41.4677 39.2621 40.6462Z" fill="#060905"/>
<path d="M41.6647 39.7782C41.6587 38.9088 41.4788 38.0494 41.1353 37.2507C40.7919 36.452 40.292 35.7302 39.665 35.1279" stroke="#060905" stroke-width="0.75" stroke-miterlimit="10"/>
<path d="M39.665 35.0967C38.8033 34.2451 37.7225 33.6488 36.5425 33.3741C35.3625 33.0994 34.1295 33.157 32.9802 33.5406C31.831 33.9241 30.8105 34.6185 30.0319 35.5468C29.2534 36.4751 28.7472 37.6009 28.5697 38.7994C28.3921 39.9979 28.5501 41.2221 29.0261 42.3362C29.502 43.4504 30.2774 44.4109 31.2661 45.1111C32.2548 45.8114 33.4181 46.224 34.6271 46.3032C35.836 46.3825 37.0433 46.1252 38.1149 45.5599C38.6651 45.2666 39.1845 44.9187 39.665 44.5214" stroke="#060905" stroke-width="0.75" stroke-miterlimit="10"/>
</g>
</svg>

