<svg width="100" height="100" viewBox="0 0 100 100" fill="none" xmlns="http://www.w3.org/2000/svg">
<path d="M87.5494 0H12.4505C5.5743 0 0 5.5743 0 12.4505V87.5495C0 94.4257 5.5743 100 12.4505 100H87.5494C94.4257 100 100 94.4257 100 87.5495V12.4505C100 5.5743 94.4257 0 87.5494 0Z" fill="#FF80A4"/>
<mask id="mask0" mask-type="alpha" maskUnits="userSpaceOnUse" x="0" y="0" width="100" height="100">
<path d="M87.5494 0H12.4505C5.5743 0 0 5.5743 0 12.4505V87.5495C0 94.4257 5.5743 100 12.4505 100H87.5494C94.4257 100 100 94.4257 100 87.5495V12.4505C100 5.5743 94.4257 0 87.5494 0Z" fill="#FF80A4"/>
</mask>
<g mask="url(#mask0)">
<path d="M18.8314 59.7134L29.1069 40.6305L44.4533 42.1833C46.6729 42.3602 48.9014 42.3966 51.1256 42.2925C52.3995 42.0256 58.8656 40.861 59.7997 41.4433C60.7338 42.0256 80.5325 50.7725 80.5325 50.7725C80.8174 51.2017 81.0107 51.6849 81.1004 52.1921C81.1902 52.6993 81.1744 53.2196 81.0542 53.7204C80.7752 55.7828 78.7492 69.9767 78.7492 69.9767L72.186 71.1899C72.186 71.1899 71.7857 71.5417 71.8463 72.767C71.907 73.9923 71.2762 74.89 69.8932 75.8727C69.0465 76.4589 68.0353 76.7605 67.0058 76.734C67.0058 76.734 67.5396 80.9679 65.1012 81.5139C64.4745 81.7146 63.805 81.7416 63.1641 81.5921C62.5233 81.4425 61.9349 81.122 61.4617 80.6646C61.6132 81.5587 61.4048 82.4764 60.8821 83.2174C60.3593 83.9584 59.5646 84.4624 58.6715 84.6195C55.3353 85.3838 53.3457 81.9506 53.3457 81.9506C53.3457 81.9506 53.7824 85.5901 50.4948 85.5901C49.4922 85.5756 48.5121 85.2907 47.6579 84.7654C46.8038 84.2401 46.1074 83.494 45.6422 82.6057C45.6422 82.6057 43.7133 85.032 41.3719 84.753C39.0305 84.4739 38.0478 83.1516 38.4724 81.4047C38.897 79.6577 38.6301 80.5797 38.6301 80.5797C37.9338 80.7028 37.2171 80.6358 36.5556 80.3856C35.2697 79.961 34.008 79.3059 33.8382 78.2505C33.7496 77.4697 33.7823 76.6799 33.9352 75.9091C33.385 76.1839 32.7579 76.2639 32.1563 76.1361C31.5547 76.0083 31.0143 75.6802 30.6233 75.2054C29.9821 74.4752 29.4989 73.6202 29.2039 72.6942L29.4708 71.2627C29.4708 71.2627 25.9526 71.2627 25.6736 70.5833C25.3946 69.9039 24.0723 67.9629 24.7274 66.9438C25.0402 66.4178 25.4017 65.9223 25.8071 65.4638C25.8071 65.4638 28.0393 64.8572 26.3287 63.5349C24.6182 62.2125 20.6754 58.8278 20.6754 58.8278C20.3132 58.7465 19.9342 58.7897 19.5996 58.9504C19.265 59.1111 18.9944 59.3799 18.8314 59.7134Z" fill="white"/>
<path d="M80.0594 69.7463L71.1791 71.4447C71.4596 71.7828 71.6706 72.173 71.7999 72.5929C71.9292 73.0128 71.9742 73.4541 71.9325 73.8914C71.8908 74.3288 71.7632 74.7536 71.5568 75.1415C71.3505 75.5294 71.0696 75.8727 70.7302 76.1517C70.0475 76.7166 69.1688 76.9878 68.2865 76.9059C67.4042 76.824 66.5903 76.3958 66.0232 75.715L61.1706 69.8312L56.3179 64.0323" stroke="#2B2B2B" stroke-linecap="round" stroke-linejoin="round"/>
<path d="M57.9072 41.2491C60.7702 41.3462 81.7699 51.3911 81.7699 51.3911" stroke="#2B2B2B" stroke-linecap="round" stroke-linejoin="round"/>
<path d="M27.2992 64.2627L19.7534 58.4274" stroke="#2B2B2B" stroke-linecap="round" stroke-linejoin="round"/>
<path d="M66.6419 76.4549C66.9246 76.7916 67.1378 77.1811 67.269 77.6007C67.4001 78.0203 67.4468 78.4618 67.4061 78.8996C67.3655 79.3374 67.2385 79.7628 67.0323 80.1511C66.8262 80.5395 66.545 80.883 66.2052 81.162V81.162C65.8678 81.4432 65.4782 81.655 65.0587 81.7853C64.6393 81.9156 64.1983 81.9617 63.7609 81.9212C63.3236 81.8806 62.8986 81.7541 62.5103 81.5488C62.122 81.3436 61.778 81.0637 61.4981 80.7252L56.6455 74.8414L50.5797 67.5625" stroke="#2B2B2B" stroke-linecap="round" stroke-linejoin="round"/>
<path d="M60.467 79.4515C61.0318 80.1342 61.303 81.013 61.2211 81.8953C61.1393 82.7775 60.711 83.5914 60.0302 84.1585C59.3455 84.7241 58.4648 84.9956 57.5805 84.9138C56.6963 84.8319 55.8803 84.4034 55.311 83.7218L50.4584 77.8259L45.2176 71.5175" stroke="#2B2B2B" stroke-linecap="round" stroke-linejoin="round"/>
<path d="M52.545 80.4099C53.1156 81.0865 53.395 81.9615 53.3223 82.8435C53.2495 83.7256 52.8305 84.5429 52.1568 85.1169V85.1169C51.4721 85.6825 50.5914 85.954 49.7072 85.8721C48.8229 85.7903 48.0069 85.3618 47.4377 84.6802L45.7271 82.6785" stroke="#2B2B2B" stroke-linecap="round" stroke-linejoin="round"/>
<path d="M25.4674 70.0131C25.1979 69.6898 24.9949 69.3165 24.8698 68.9147C24.7446 68.5128 24.7 68.0903 24.7383 67.6711C24.7766 67.252 24.8971 66.8445 25.093 66.472C25.2889 66.0995 25.5563 65.7693 25.8799 65.5002L29.677 62.346C30.3328 61.8063 31.1755 61.548 32.0211 61.6275C32.8666 61.7071 33.6464 62.118 34.19 62.7706V62.7706C34.4642 63.0947 34.6715 63.47 34.7999 63.8748C34.9283 64.2795 34.9752 64.7057 34.938 65.1287C34.9008 65.5516 34.7801 65.9631 34.583 66.3392C34.3859 66.7153 34.1163 67.0486 33.7896 67.3199L29.9925 70.4741C29.6658 70.7427 29.2892 70.9439 28.8844 71.0661C28.4796 71.1884 28.0546 71.2292 27.6339 71.1864C27.2132 71.1435 26.8051 71.0178 26.4333 70.8164C26.0615 70.615 25.7332 70.342 25.4674 70.0131Z" stroke="#2B2B2B" stroke-linecap="round" stroke-linejoin="round"/>
<path d="M30.0168 74.6717C29.475 74.0154 29.2143 73.1717 29.2916 72.3242C29.3688 71.4767 29.7777 70.6941 30.4293 70.1466L34.2264 67.0045C34.5498 66.7351 34.923 66.532 35.3249 66.4069C35.7267 66.2817 36.1493 66.2371 36.5684 66.2754C36.9875 66.3137 37.395 66.4342 37.7675 66.6301C38.14 66.826 38.4703 67.0934 38.7394 67.417C39.0088 67.7403 39.2119 68.1135 39.337 68.5154C39.4621 68.9172 39.5068 69.3398 39.4685 69.7589C39.4302 70.1781 39.3097 70.5855 39.1138 70.958C38.9179 71.3306 38.6505 71.6608 38.3269 71.9299L34.5297 75.0841C33.8755 75.6252 33.0337 75.8855 32.1882 75.8083C31.3427 75.731 30.5621 75.3224 30.0168 74.6717V74.6717Z" stroke="#2B2B2B" stroke-linecap="round" stroke-linejoin="round"/>
<path d="M34.469 79.3059C33.9293 78.6502 33.671 77.8075 33.7506 76.9619C33.8302 76.1163 34.2411 75.3366 34.8936 74.793L38.6908 71.6509C39.0141 71.3815 39.3873 71.1784 39.7892 71.0533C40.191 70.9282 40.6136 70.8835 41.0327 70.9218C41.4519 70.9601 41.8593 71.0807 42.2318 71.2765C42.6044 71.4724 42.9346 71.7398 43.2037 72.0634V72.0634C43.7448 72.7177 44.0051 73.5594 43.9279 74.4049C43.8506 75.2504 43.442 76.031 42.7912 76.5763L38.9941 79.7305C38.3376 80.274 37.4922 80.5346 36.6436 80.455C35.7951 80.3753 35.0129 79.9621 34.469 79.3059V79.3059Z" stroke="#2B2B2B" stroke-linecap="round" stroke-linejoin="round"/>
<path d="M39.2852 83.6733C38.7455 83.0175 38.4873 82.1748 38.5668 81.3293C38.6464 80.4837 39.0573 79.704 39.7098 79.1604L43.507 76.0062C44.1628 75.4665 45.0055 75.2082 45.851 75.2878C46.6966 75.3673 47.4763 75.7782 48.0199 76.4308V76.4308C48.2887 76.7548 48.4909 77.1287 48.6151 77.531C48.7392 77.9333 48.7828 78.3561 48.7433 78.7753C48.7039 79.1944 48.5822 79.6017 48.3852 79.9738C48.1882 80.3459 47.9198 80.6755 47.5953 80.9437L43.8103 84.0979C43.1538 84.6414 42.3084 84.902 41.4599 84.8223C40.6113 84.7427 39.8291 84.3294 39.2852 83.6733V83.6733Z" stroke="#2B2B2B" stroke-linecap="round" stroke-linejoin="round"/>
<path d="M71.1791 71.4447L52.3873 51.7915L44.7929 54.2178C42.3666 55.0185 39.3216 54.4605 37.9265 52.2647C37.4825 51.5776 37.2829 50.761 37.36 49.9467C37.437 49.1323 37.7861 48.3676 38.3511 47.776C39.4308 46.3566 41.9905 43.0689 57.5675 41.322C60.4184 40.9944 48.7478 42.6201 48.7478 42.6201L28.5488 40.6305" stroke="#2B2B2B" stroke-linecap="round" stroke-linejoin="round"/>
<path d="M116.139 47.5941C104.868 47.5941 92.9916 48.9892 81.6122 49.6686L78.5672 72.027C78.5672 72.027 102.515 81.1257 117 87.9436L116.139 47.5941Z" fill="white"/>
<path d="M116.454 47.3392C104.517 47.9094 93.7195 49.1226 81.6122 49.6685L78.5672 72.027C78.5672 72.027 102.515 81.1256 117 87.9436" stroke="#2B2B2B" stroke-miterlimit="10"/>
<path d="M94.5203 48.5767L90.4198 76.6612" stroke="#2B2B2B" stroke-miterlimit="10"/>
<path d="M85.555 69.9039C85.5305 70.1605 85.4309 70.4041 85.2686 70.6043C85.1064 70.8046 84.8887 70.9525 84.6428 71.0296C84.3969 71.1067 84.1337 71.1096 83.8862 71.0379C83.6387 70.9662 83.4178 70.8231 83.2511 70.6265C83.0845 70.4299 82.9796 70.1885 82.9495 69.9326C82.9193 69.6767 82.9654 69.4175 83.0818 69.1876C83.1982 68.9577 83.3798 68.7672 83.604 68.64C83.8281 68.5128 84.0847 68.4545 84.3418 68.4724C84.5163 68.4846 84.6865 68.5315 84.8425 68.6105C84.9986 68.6895 85.1372 68.799 85.2503 68.9324C85.3633 69.0658 85.4485 69.2205 85.5009 69.3873C85.5532 69.5542 85.5716 69.7299 85.555 69.9039Z" fill="#2B2B2B"/>
<path d="M24.7153 33.3879L30.5142 37.173L18.237 60.8781L11.6617 58.2576L24.7153 33.3879Z" fill="white" stroke="#2B2B2B" stroke-miterlimit="10"/>
<path d="M-18 49.4502C-2.22897 54.9579 11.6617 59.7377 11.6617 59.7377L26.1468 32.648L-0.0938168 12.9099L-18 49.4502Z" fill="white"/>
<path d="M-1.30697 12L26.1468 32.6237L11.6617 59.7377C11.6617 59.7377 -2.28963 54.9579 -18 49.4501" stroke="#2B2B2B" stroke-miterlimit="10"/>
<path d="M8.25267 55.4189C7.83376 55.1347 7.54067 54.6998 7.43445 54.2049C7.32823 53.7099 7.41708 53.1931 7.68249 52.762C7.89481 52.4363 8.19901 52.1808 8.55659 52.028C8.91416 51.8751 9.30904 51.8318 9.69124 51.9035C10.0734 51.9752 10.4258 52.1586 10.7037 52.4306C10.9816 52.7026 11.1726 53.051 11.2524 53.4316C11.3323 53.8121 11.2974 54.2078 11.1523 54.5686C11.0072 54.9294 10.7583 55.239 10.4371 55.4582C10.1159 55.6775 9.73696 55.7966 9.34812 55.8003C8.95927 55.8041 8.57804 55.6925 8.25267 55.4795V55.4189Z" fill="white" stroke="black" stroke-miterlimit="10"/>
<path d="M2.63576 53.866C2.30998 53.6536 2.0545 53.3494 1.90167 52.9919C1.74884 52.6343 1.70553 52.2394 1.77721 51.8572C1.84889 51.475 2.03234 51.1226 2.30434 50.8447C2.57635 50.5668 2.92469 50.3759 3.30527 50.296C3.68585 50.2162 4.08156 50.251 4.44233 50.3962C4.8031 50.5413 5.1127 50.7902 5.33196 51.1113C5.55122 51.4325 5.67028 51.8115 5.67406 52.2003C5.67785 52.5892 5.56619 52.9704 5.35323 53.2958C5.06814 53.7313 4.62189 54.036 4.11242 54.1429C3.60295 54.2498 3.07188 54.1502 2.63576 53.866Z" fill="white" stroke="black" stroke-miterlimit="10"/>
<path d="M-2.82339 52.0584C-3.14187 51.84 -3.38849 51.5322 -3.53207 51.1737C-3.67565 50.8153 -3.70976 50.4223 -3.63009 50.0444C-3.55042 49.6666 -3.36053 49.3209 -3.08444 49.0509C-2.80834 48.7809 -2.45842 48.5989 -2.07889 48.5277C-1.69936 48.4566 -1.30725 48.4995 -0.952105 48.6511C-0.596964 48.8027 -0.29473 49.0562 -0.0835919 49.3795C0.127547 49.7028 0.238115 50.0814 0.23414 50.4675C0.230166 50.8537 0.111828 51.23 -0.105921 51.5489C-0.250735 51.7609 -0.435951 51.9424 -0.650968 52.0828C-0.865984 52.2232 -1.10658 52.3198 -1.35899 52.3672C-1.6114 52.4145 -1.87066 52.4116 -2.12194 52.3586C-2.37322 52.3056 -2.61158 52.2036 -2.82339 52.0584Z" fill="white" stroke="black" stroke-miterlimit="10"/>
</g>
</svg>

