<svg width="111" height="100" viewBox="0 0 111 100" fill="none" xmlns="http://www.w3.org/2000/svg">
<rect x="11" width="100" height="100" rx="15" fill="#583EF4"/>
<mask id="mask0" mask-type="alpha" maskUnits="userSpaceOnUse" x="11" y="0" width="100" height="100">
<rect x="11" width="100" height="100" rx="15" fill="#FF9D00"/>
</mask>
<g mask="url(#mask0)">
<path d="M86.1711 71.4123C86.3414 73.6532 85.8494 75.8947 84.7561 77.8581C83.6628 79.8215 82.0166 81.4203 80.022 82.4557C78.0275 83.4911 75.7726 83.9175 73.5377 83.6817C71.3028 83.4459 69.1865 82.5585 67.4519 81.1297C65.7173 79.7009 64.4409 77.7938 63.7814 75.6454C63.1219 73.4971 63.1083 71.2023 63.7425 69.0463C64.3767 66.8904 65.6305 64.9683 67.3482 63.5192C69.0659 62.0701 71.1716 61.1578 73.4035 60.8957C76.4891 60.6075 79.5634 61.5516 81.9554 63.5219C84.3474 65.4922 85.8629 68.3287 86.1711 71.4123Z" fill="#060905"/>
<path d="M58.3358 70.2807C58.76 73.3564 57.9466 76.4748 56.0741 78.9515C54.2016 81.4282 51.423 83.0608 48.3482 83.491C45.2885 83.6827 42.2717 82.6942 39.9188 80.7289C37.5659 78.7636 36.056 75.971 35.6998 72.9261C35.3436 69.8812 36.1683 66.8155 38.0041 64.3602C39.8398 61.905 42.547 60.2468 45.5683 59.7272C48.6597 59.4394 51.7391 60.3884 54.1322 62.3665C56.5252 64.3446 58.0368 67.1904 58.3358 70.2807Z" fill="#060905"/>
<path d="M96.6384 102.433C93.6495 99.0625 88.5204 90.8707 82.973 86.6517C71.743 78.0416 61.4355 78.4844 61.4355 78.4844C54.0994 78.9014 47.019 81.3268 40.9681 85.4955C36.6261 88.6197 27.2288 97.6111 24.8057 101.855L30.759 104.315H91.9521L96.6384 102.433Z" fill="white" stroke="#060905" stroke-miterlimit="10"/>
<path d="M90.8943 104.291C83.1452 88.3004 72.8008 78.4603 61.4355 78.4603C50.0701 78.4603 39.7257 88.3004 31.9152 104.291H90.8943Z" fill="white"/>
<path d="M40.1931 90.8711C36.9579 95.0254 34.1939 99.5261 31.952 104.291H90.8696C88.7066 99.7326 86.0811 95.409 83.0344 91.3877" stroke="#060905" stroke-miterlimit="10"/>
<path d="M71.497 82.0642C71.497 84.9424 66.9583 87.2795 61.3617 87.2795C55.7651 87.2795 51.2633 84.9424 51.2633 82.0642C51.2633 79.186 55.7528 76.8859 61.3617 76.8859C66.9706 76.8859 71.497 79.186 71.497 82.0642Z" fill="white" stroke="#060905" stroke-miterlimit="10"/>
<path d="M62.2227 66.2709H60.5006C57.6203 66.2709 55.2854 68.6058 55.2854 71.4861V77.5255C55.2854 80.4058 57.6203 82.7407 60.5006 82.7407H62.2227C65.103 82.7407 67.4379 80.4058 67.4379 77.5255V71.4861C67.4379 68.6058 65.103 66.2709 62.2227 66.2709Z" fill="white" stroke="#060905" stroke-miterlimit="10"/>
<path d="M43.8832 54.881C41.4561 50.1398 40.501 44.7815 41.1403 39.4936C42.8008 24.5735 59.7627 26.5415 61.8168 26.5784C69.3937 26.7383 81.6077 28.1775 81.497 36.3447C81.2362 43.8739 80.4429 51.3753 79.1231 58.7925C78.8525 60.207 49.4798 64.7457 43.8832 54.881Z" fill="#060905"/>
<path d="M38.0161 57.3533C37.9774 58.3012 38.2215 59.2392 38.7172 60.0481C39.2129 60.857 39.9378 61.5003 40.8 61.8962C41.6621 62.2921 42.6225 62.4228 43.5591 62.2717C44.4956 62.1206 45.3662 61.6944 46.06 61.0474C46.7538 60.4004 47.2397 59.5618 47.4558 58.638C47.6719 57.7142 47.6085 56.7471 47.2737 55.8594C46.9389 54.9718 46.3478 54.2037 45.5754 53.6528C44.8031 53.1018 43.8844 52.7929 42.9361 52.7653C41.6773 52.7287 40.4547 53.1898 39.5337 54.0487C38.6126 54.9076 38.0673 56.095 38.0161 57.3533Z" fill="white" stroke="#060905" stroke-miterlimit="10"/>
<path d="M45.0025 58.2143C45.0087 58.1119 45.0087 58.0092 45.0025 57.9068C45.0086 57.7962 45.0086 57.6853 45.0025 57.5747C45.0025 57.5747 45.0025 57.4517 45.0025 57.5747C45.0148 57.543 45.0148 57.5079 45.0025 57.4763V57.2549C44.9648 57.1091 44.9196 56.9655 44.8672 56.8244V56.726L44.7319 56.4923L44.6581 56.3939C44.6581 56.3078 44.6581 56.3939 44.6581 56.3939L44.4613 56.1848L44.3629 56.111H44.3014L43.8832 55.8403L43.7233 55.7788L43.342 55.6927C43.342 55.6927 43.2313 55.6927 43.342 55.6927H42.4933C42.3954 55.6927 42.3015 55.6539 42.2323 55.5847C42.1631 55.5155 42.1243 55.4216 42.1243 55.3237C42.1243 55.2259 42.1631 55.132 42.2323 55.0628C42.3015 54.9936 42.3954 54.9547 42.4933 54.9547C42.9797 54.9043 43.4711 54.9707 43.9268 55.1482C44.3824 55.3258 44.7891 55.6094 45.1132 55.9757C45.4983 56.5245 45.7123 57.175 45.7282 57.8453C45.7405 57.9844 45.7405 58.1243 45.7282 58.2635C45.7251 58.3604 45.6853 58.4524 45.6167 58.521C45.5482 58.5895 45.4561 58.6294 45.3592 58.6325C45.2613 58.6325 45.1675 58.5936 45.0983 58.5244C45.0291 58.4552 44.9902 58.3613 44.9902 58.2635L45.0025 58.2143Z" fill="#060905"/>
<path d="M84.9411 58.0298C84.9138 58.9761 84.6065 59.8931 84.058 60.6646C83.5095 61.4362 82.7444 62.0277 81.8596 62.3643C80.9748 62.701 80.01 62.7675 79.0874 62.5557C78.1647 62.3438 77.3256 61.863 76.6763 61.174C76.027 60.4851 75.5967 59.6191 75.4397 58.6855C75.2828 57.7519 75.4063 56.7928 75.7947 55.9294C76.1831 55.0661 76.8188 54.3373 77.6215 53.8354C78.4241 53.3335 79.3577 53.0809 80.3039 53.1098C80.9318 53.1273 81.55 53.2685 82.1232 53.5255C82.6963 53.7824 83.2131 54.15 83.644 54.6071C84.0748 55.0641 84.4111 55.6018 84.6337 56.1891C84.8563 56.7765 84.9607 57.402 84.9411 58.0298Z" fill="white" stroke="#060905" stroke-miterlimit="10"/>
<path d="M77.1796 58.4357C77.1423 57.8207 77.2899 57.2086 77.6033 56.6781C77.9168 56.1476 78.3818 55.7231 78.9385 55.4591C79.531 55.2539 80.166 55.2031 80.7836 55.3115C80.8305 55.3243 80.8744 55.3462 80.9128 55.3761C80.9512 55.4059 80.9833 55.443 81.0073 55.4853C81.0313 55.5276 81.0467 55.5743 81.0527 55.6225C81.0586 55.6708 81.0549 55.7198 81.0419 55.7666C81.0108 55.8579 80.9473 55.9347 80.8634 55.9823C80.7795 56.0299 80.6811 56.0451 80.5868 56.0249C80.1263 55.9459 79.6537 55.9797 79.2091 56.1233H79.123L79 56.1848C78.9114 56.2293 78.8251 56.2786 78.7417 56.3324C78.6556 56.3324 78.7417 56.3324 78.7417 56.3324L78.6433 56.4062L78.4588 56.603C78.5203 56.5292 78.4588 56.603 78.4588 56.603L78.3973 56.7014C78.3478 56.7724 78.3026 56.8463 78.262 56.9228C78.262 56.9228 78.262 56.9843 78.262 57.0212C78.262 57.0581 78.262 57.1688 78.262 57.0212L78.1882 57.2426C78.1441 57.3717 78.1071 57.5031 78.0775 57.6362C78.0715 57.6976 78.0715 57.7594 78.0775 57.8207C78.0707 57.849 78.0707 57.8785 78.0775 57.9068C78.0775 58.0298 78.0775 58.1528 78.0775 58.2758C78.0775 58.7555 77.3641 58.7555 77.3395 58.2758L77.1796 58.4357Z" fill="#060905"/>
<path d="M46.5228 44.7835L46.3808 58.8172C46.3081 65.9972 52.0697 71.8767 59.2497 71.9494L63.4807 71.9922C70.6607 72.0649 76.5402 66.3032 76.6129 59.1232L76.755 45.0895C76.8277 37.9095 71.066 32.03 63.886 31.9573L59.655 31.9145C52.475 31.8418 46.5955 37.6035 46.5228 44.7835Z" fill="white" stroke="#060905" stroke-miterlimit="10"/>
<path d="M61.4355 48.8539L59.7135 55.7666L63.342 55.7297L61.4355 48.8539Z" fill="#FF80A4"/>
<path d="M54.5597 58.7432C54.496 59.495 54.2107 60.2111 53.7399 60.8007C53.2691 61.3903 52.6339 61.8269 51.9148 62.0554C51.1957 62.2838 50.4249 62.2938 49.7002 62.084C48.9754 61.8742 48.3291 61.4541 47.8432 60.8769C47.3573 60.2997 47.0536 59.5912 46.9705 58.8413C46.8874 58.0914 47.0286 57.3336 47.3764 56.664C47.7241 55.9944 48.2627 55.443 48.9239 55.0796C49.5852 54.7162 50.3394 54.5572 51.0911 54.6227C52.097 54.7103 53.0271 55.1933 53.6774 55.9657C54.3277 56.7382 54.645 57.7371 54.5597 58.7432Z" fill="#FF80A4"/>
<path d="M75.4084 58.7432C75.3447 59.495 75.0594 60.2111 74.5885 60.8007C74.1177 61.3903 73.4825 61.8269 72.7634 62.0554C72.0443 62.2838 71.2736 62.2938 70.5488 62.084C69.824 61.8742 69.1778 61.4541 68.6919 60.8769C68.2059 60.2997 67.9022 59.5912 67.8191 58.8413C67.736 58.0914 67.8772 57.3336 68.225 56.664C68.5727 55.9944 69.1113 55.443 69.7726 55.0796C70.4338 54.7162 71.1881 54.5572 71.9397 54.6227C72.9444 54.7134 73.8725 55.1973 74.5222 55.969C75.1718 56.7407 75.4903 57.7378 75.4084 58.7432Z" fill="#FF80A4"/>
<path d="M59.0615 60.8958C59.1431 61.6265 59.4912 62.3016 60.0392 62.7918C60.5872 63.2821 61.2967 63.5531 62.032 63.5531C62.7673 63.5531 63.4768 63.2821 64.0248 62.7918C64.5728 62.3016 64.9209 61.6265 65.0025 60.8958H59.0615Z" fill="white" stroke="#060905" stroke-miterlimit="10"/>
<path d="M53.5142 51.5599C53.4993 51.9049 53.3825 52.2378 53.1785 52.5164C52.9745 52.795 52.6925 53.007 52.3681 53.1254C52.0438 53.2438 51.6916 53.2634 51.3561 53.1817C51.0205 53.1 50.7168 52.9207 50.4831 52.6665C50.2495 52.4122 50.0964 52.0944 50.0433 51.7532C49.9903 51.412 50.0395 51.0627 50.1849 50.7494C50.3302 50.4362 50.5652 50.1731 50.86 49.9933C51.1548 49.8136 51.4964 49.7253 51.8414 49.7395C52.0713 49.7474 52.2974 49.8009 52.5065 49.8971C52.7156 49.9932 52.9034 50.1299 53.0591 50.2993C53.2148 50.4688 53.3352 50.6675 53.4133 50.8839C53.4915 51.1003 53.5258 51.3301 53.5142 51.5599Z" fill="#060905"/>
<path d="M72.0505 51.56C71.9997 52.0016 71.7837 52.4076 71.4458 52.6964C71.1079 52.9851 70.6731 53.1353 70.229 53.1166C69.7849 53.0979 69.3644 52.9117 69.0519 52.5956C68.7395 52.2794 68.5584 51.8567 68.5449 51.4124C68.5957 50.9708 68.8117 50.5648 69.1496 50.276C69.4875 49.9872 69.9222 49.8371 70.3663 49.8558C70.8104 49.8745 71.231 50.0607 71.5434 50.3768C71.8559 50.693 72.037 51.1157 72.0505 51.56Z" fill="#060905"/>
<path d="M36.7983 41.1048C37.2411 49.4074 54.2891 51.4616 68.5449 41.1048C68.5449 41.1048 74.1415 48.2635 79.1722 49.7149C79.1722 49.7149 82.3579 34.4505 75.9988 29.4443C69.6396 24.4382 55.3961 25.4222 50.0332 26.9228C40.0086 29.7026 36.5031 35.496 36.7983 41.1048Z" fill="#060905"/>
<path d="M91.5954 22.5194C86.8067 16.5405 80.3527 12.1159 73.0494 9.8048C65.7462 7.49376 57.9216 7.40012 50.5652 9.53574C43.2087 11.6714 36.6507 15.9403 31.7203 21.8029C26.7899 27.6654 23.7085 34.8583 22.8658 42.472C22.0231 50.0856 23.4569 57.7783 26.9859 64.5771C30.5148 71.376 35.9805 76.9758 42.6919 80.6685C49.4033 84.3612 57.0589 85.981 64.6907 85.323C72.3226 84.6651 79.588 81.7589 85.5683 76.972C89.5401 73.7928 92.8467 69.8623 95.2992 65.405C97.7517 60.9476 99.3021 56.0508 99.8618 50.9942C100.421 45.9376 99.9795 40.8203 98.5611 35.9345C97.1428 31.0487 94.7758 26.4902 91.5954 22.5194ZM49.246 76.3816C43.4051 73.9739 38.4082 69.8902 34.8857 64.6456C31.3632 59.401 29.473 53.2306 29.4536 46.9129C29.4342 40.5953 31.2865 34.4134 34.7767 29.1473C38.2669 23.8812 43.2387 19.7668 49.0647 17.3233C54.8908 14.8798 61.31 14.2166 67.5125 15.4175C73.7151 16.6183 79.423 19.6294 83.916 24.0708C88.4091 28.5121 91.4861 34.1848 92.7586 40.373C94.0312 46.5612 93.4424 52.9877 91.0665 58.8416C89.4816 62.7466 87.1405 66.2998 84.1778 69.297C81.2151 72.2942 77.6892 74.6762 73.8029 76.3062C69.9165 77.9362 65.7463 78.782 61.532 78.7949C57.3177 78.8079 53.1423 77.9877 49.246 76.3816Z" fill="white" stroke="#060905" stroke-linecap="round" stroke-linejoin="round"/>
<path d="M21.128 74.389L28.8894 68.1652L33.342 73.7248L25.6544 79.8749L21.128 74.389Z" fill="white" stroke="#060905" stroke-linecap="round" stroke-linejoin="round"/>
</g>
<path d="M24.8609 78.2378L22.8392 75.7125C21.5953 74.1587 19.3272 73.9075 17.7734 75.1514L2.81342 87.1281C1.25961 88.372 1.00842 90.64 2.25236 92.1938L4.2741 94.7192C5.51804 96.273 7.78605 96.5242 9.33986 95.2802L24.2999 83.3036C25.8537 82.0596 26.1049 79.7916 24.8609 78.2378Z" fill="white" stroke="#060905" stroke-linecap="round" stroke-linejoin="round"/>
</svg>

