<svg width="100" height="100" viewBox="0 0 100 100" fill="none" xmlns="http://www.w3.org/2000/svg">
<rect width="100" height="100" rx="15" fill="#FF80A4"/>
<mask id="mask0" mask-type="alpha" maskUnits="userSpaceOnUse" x="0" y="0" width="100" height="100">
<path d="M87.5494 0H12.4505C5.5743 0 0 5.5743 0 12.4505V87.5495C0 94.4257 5.5743 100 12.4505 100H87.5494C94.4257 100 100 94.4257 100 87.5495V12.4505C100 5.5743 94.4257 0 87.5494 0Z" fill="#FF80A4"/>
</mask>
<g mask="url(#mask0)">
<path d="M31.2503 76.1649C30.8189 74.7041 29.8736 73.4487 28.589 72.6303C26.4267 71.2477 27.1024 68.9502 26.4475 66.8503C25.7926 64.7503 23.5783 62.5049 21.7694 63.9603C19.9605 65.4157 21.0105 70.2913 21.2288 74.1065C21.4471 77.9218 3.82632 89.8769 3.82632 89.8769C3.82632 89.8769 12.6003 102.539 13.879 102.352C15.1577 102.165 33.5582 91.8417 38.8704 86.4879C44.1826 81.1341 47.6444 75.5619 47.187 74.6263C46.7296 73.6907 38.4546 64.5112 36.3027 63.534C34.1507 62.5568 27.6742 71.3828 27.6742 71.3828" fill="white"/>
<path d="M31.2503 76.1649C30.8189 74.7041 29.8736 73.4487 28.589 72.6303C26.4267 71.2477 27.1024 68.9502 26.4475 66.8503C25.7926 64.7503 23.5783 62.5049 21.7694 63.9603C19.9605 65.4157 21.0105 70.2913 21.2288 74.1065C21.4471 77.9218 3.82632 89.8769 3.82632 89.8769C3.82632 89.8769 12.6003 102.539 13.879 102.352C15.1577 102.165 33.5582 91.8417 38.8704 86.4879C44.1826 81.1341 47.6444 75.5619 47.187 74.6263C46.7296 73.6907 38.4546 64.5112 36.3027 63.534C34.1507 62.5568 27.6742 71.3828 27.6742 71.3828" stroke="#060905" stroke-miterlimit="10"/>
<path d="M36.4482 65.977C36.4482 65.977 41.3446 58.7728 39.7748 56.6832C38.2051 54.5937 36.1363 55.6436 34.078 58.5856C32.0196 61.5276 28.8801 66.7359 29.3999 67.7443C29.9197 68.7527 34.6913 68.8878 36.4482 65.977Z" fill="white" stroke="#060905" stroke-miterlimit="10"/>
<path d="M11.8103 81.9137L15.1473 79.7514L27.8613 95.5737L24.4411 98.9108L11.8103 81.9137Z" fill="white" stroke="#060905" stroke-miterlimit="10"/>
<path d="M10.9266 115.596C19.5759 106.385 27.1752 98.1415 27.1752 98.1415L12.7979 79.7514L-9.03323 91.9352L10.9266 115.596Z" fill="white"/>
<path d="M-10 92.4966L12.7979 79.7514L27.1752 98.1415C27.1752 98.1415 19.5759 106.385 10.9266 115.596" stroke="#060905" stroke-miterlimit="10"/>
<path d="M23.1416 99.1914C22.9777 99.3172 22.7894 99.4076 22.5888 99.4571C22.3882 99.5065 22.1795 99.5139 21.9758 99.4787C21.7722 99.4436 21.5781 99.3666 21.4056 99.2527C21.2332 99.1389 21.0862 98.9905 20.9739 98.817C20.8616 98.6436 20.7865 98.4487 20.7532 98.2448C20.7199 98.0408 20.7292 97.8322 20.7805 97.632C20.8317 97.4319 20.9239 97.2445 21.0512 97.0817C21.1784 96.9188 21.338 96.7842 21.5199 96.686C21.8512 96.5074 22.2376 96.46 22.6021 96.5534C22.9667 96.6469 23.2828 96.8742 23.4873 97.1901C23.6918 97.5061 23.7698 97.8875 23.7058 98.2584C23.6417 98.6292 23.4403 98.9624 23.1416 99.1914Z" fill="#FF9D00" stroke="#060905" stroke-miterlimit="10"/>
<path d="M20.3348 102.622C20.0867 102.783 19.7966 102.866 19.501 102.863C19.2054 102.859 18.9175 102.767 18.6738 102.6C18.43 102.433 18.2413 102.197 18.1313 101.923C18.0213 101.648 17.995 101.347 18.0558 101.058C18.1166 100.769 18.2616 100.504 18.4727 100.297C18.6838 100.09 18.9514 99.95 19.2418 99.8949C19.5323 99.8398 19.8326 99.872 20.1048 99.9873C20.377 100.103 20.6089 100.296 20.7714 100.543C20.88 100.708 20.9548 100.893 20.9916 101.087C21.0284 101.281 21.0265 101.48 20.9859 101.673C20.9453 101.867 20.8669 102.05 20.7551 102.213C20.6434 102.376 20.5005 102.515 20.3348 102.622Z" fill="#FF9D00" stroke="#060905" stroke-miterlimit="10"/>
<path d="M33.974 60.4985L24.0565 66.4553C21.4396 68.0349 18.3035 68.5137 15.3345 67.787C12.3654 67.0603 9.80498 65.1873 8.21336 62.5777C7.42282 61.2774 6.89676 59.8339 6.66537 58.3299C6.43398 56.8259 6.50181 55.291 6.86497 53.8132C7.22812 52.3355 7.87946 50.944 8.78162 49.7186C9.68377 48.4931 10.819 47.4579 12.1222 46.6722L21.9773 40.7466L33.974 60.4985Z" fill="white" stroke="#060905" stroke-linecap="round" stroke-linejoin="round"/>
<path d="M41.5941 14.7885L22.0189 40.6947L33.974 60.4778L66.0137 55.1968" fill="white"/>
<path d="M41.5941 14.7885L22.0189 40.6947L33.974 60.4778L66.0137 55.1968" stroke="#060905" stroke-linecap="round" stroke-linejoin="round"/>
<path d="M43.1223 89.4716C41.0432 90.7191 38.0804 89.6275 36.5106 87.0182L24.0565 66.4554L31.5726 61.9124L44.0475 82.4648C45.6069 85.0742 45.2015 88.2137 43.1223 89.4716Z" fill="white" stroke="#060905" stroke-linecap="round" stroke-linejoin="round"/>
<path d="M72.8853 23.4585L79.9856 19.165" stroke="#060905" stroke-linecap="round" stroke-linejoin="round"/>
<path d="M64.5687 15.0483L68.9557 8" stroke="#060905" stroke-linecap="round" stroke-linejoin="round"/>
<path d="M76.4615 34.7275L84.7469 34.1349" stroke="#060905" stroke-linecap="round" stroke-linejoin="round"/>
<path d="M51.0854 18.219L67.3964 45.248C68.9099 42.4425 69.6656 39.2908 69.5887 36.1041C69.5119 32.9173 68.6052 29.8057 66.9582 27.0764C65.3112 24.3472 62.9809 22.0947 60.1972 20.5413C57.4136 18.988 54.273 18.1876 51.0854 18.219Z" fill="white" stroke="#060905" stroke-linecap="round" stroke-linejoin="round"/>
<path d="M70.3591 56.2675C70.0071 56.49 69.6141 56.6397 69.2033 56.7079C68.7925 56.7761 68.3721 56.7613 67.9671 56.6644C67.5621 56.5675 67.1806 56.3905 66.8451 56.1437C66.5096 55.897 66.2269 55.5856 66.0137 55.2279L41.5941 14.7572C41.3716 14.4052 41.2218 14.0122 41.1536 13.6013C41.0855 13.1905 41.1003 12.7702 41.1972 12.3652C41.2941 11.9602 41.4711 11.5787 41.7178 11.2432C41.9645 10.9077 42.2759 10.625 42.6337 10.4118C42.9857 10.1893 43.3787 10.0395 43.7895 9.97133C44.2004 9.90316 44.6207 9.91796 45.0257 10.0149C45.4307 10.1117 45.8122 10.2888 46.1477 10.5355C46.4832 10.7822 46.7659 11.0936 46.9791 11.4514L71.4299 51.922C71.6511 52.2759 71.799 52.6706 71.8649 53.0827C71.9308 53.4948 71.9133 53.916 71.8134 54.3212C71.7136 54.7264 71.5334 55.1074 71.2836 55.4417C71.0338 55.7761 70.7194 56.0568 70.3591 56.2675Z" fill="white" stroke="#060905" stroke-linecap="round" stroke-linejoin="round"/>
<path d="M45.0559 68.7424C45.2338 68.6835 45.4195 68.652 45.6069 68.6489C46.2514 68.6489 47.3014 68.888 48.0603 70.5097C49.2142 72.9943 46.0643 76.3209 43.4965 77.6204C40.9288 78.9199 38.7457 76.9239 39.9204 74.3457C41.0951 71.7676 45.0559 68.7424 45.0559 68.7424Z" fill="white" stroke="#060905" stroke-miterlimit="10"/>
<path d="M42.9248 65.3534C42.9248 65.3534 41.5525 64.7193 38.361 68.6697C35.1695 72.6201 37.1239 74.0755 37.914 74.4185C38.4635 74.6555 39.0717 74.7218 39.6593 74.6087C40.247 74.4956 40.7871 74.2084 41.2095 73.7844C42.6337 72.6409 46.241 68.9608 45.3678 67.1415C45.1667 66.646 44.8317 66.2163 44.4002 65.9005C43.9687 65.5847 43.4578 65.3953 42.9248 65.3534Z" fill="white" stroke="#060905" stroke-miterlimit="10"/>
<path d="M41.7293 64.2202C41.6099 63.4686 41.234 62.7815 40.6655 62.2755C40.097 61.7695 39.3709 61.4759 38.6105 61.4446C35.9388 61.2366 32.2067 67.682 32.6434 69.5636C32.7502 69.9209 32.9297 70.2523 33.1708 70.5368C33.4119 70.8214 33.7092 71.0529 34.0441 71.217C34.3791 71.381 34.7443 71.474 35.1169 71.49C35.4895 71.506 35.8613 71.4448 36.2091 71.3101C37.1031 70.8943 41.7293 66.5489 41.7293 64.2202Z" fill="white" stroke="#060905" stroke-miterlimit="10"/>
</g>
</svg>
