<svg width="511" height="470" viewBox="0 0 511 470" fill="none" xmlns="http://www.w3.org/2000/svg">
<circle cx="276" cy="235" r="235" fill="#FFECF2"/>
<path d="M135.326 33H7.67449C3.98827 33 1 35.9883 1 39.6745V219.124C1 222.811 3.98827 225.799 7.67449 225.799H135.326C139.012 225.799 142 222.811 142 219.124V39.6745C142 35.9883 139.012 33 135.326 33Z" fill="white" stroke="#060905" stroke-linecap="round" stroke-linejoin="round"/>
<path d="M1 56.1704H142" stroke="#060905" stroke-linecap="round" stroke-linejoin="round"/>
<path d="M14.5611 48.8346C16.6281 48.8346 18.3038 47.159 18.3038 45.0919C18.3038 43.0249 16.6281 41.3492 14.5611 41.3492C12.494 41.3492 10.8184 43.0249 10.8184 45.0919C10.8184 47.159 12.494 48.8346 14.5611 48.8346Z" fill="#FF9D00" stroke="#060905" stroke-linecap="round" stroke-linejoin="round"/>
<path d="M29.3697 48.8346C31.4367 48.8346 33.1124 47.159 33.1124 45.0919C33.1124 43.0249 31.4367 41.3492 29.3697 41.3492C27.3026 41.3492 25.627 43.0249 25.627 45.0919C25.627 47.159 27.3026 48.8346 29.3697 48.8346Z" fill="#FF9D00" stroke="#060905" stroke-linecap="round" stroke-linejoin="round"/>
<path d="M44.1907 48.8346C46.2577 48.8346 47.9334 47.159 47.9334 45.0919C47.9334 43.0249 46.2577 41.3492 44.1907 41.3492C42.1237 41.3492 40.448 43.0249 40.448 45.0919C40.448 47.159 42.1237 48.8346 44.1907 48.8346Z" fill="#FF9D00" stroke="#060905" stroke-linecap="round" stroke-linejoin="round"/>
<path d="M61.0453 67.3236H15.7212V121.805H61.0453V67.3236Z" fill="#FADEEE"/>
<path opacity="0.5" d="M75.0806 90.6157H127.279" stroke="#060905" stroke-linecap="round" stroke-linejoin="round"/>
<path opacity="0.5" d="M75.0806 101.008H127.279" stroke="#060905" stroke-linecap="round" stroke-linejoin="round"/>
<path opacity="0.5" d="M75.0806 111.4H127.279" stroke="#060905" stroke-linecap="round" stroke-linejoin="round"/>
<path opacity="0.5" d="M75.0806 121.805H127.279" stroke="#060905" stroke-linecap="round" stroke-linejoin="round"/>
<path d="M78.76 73.14H77.68V75H75.7V68H78.9C79.5333 68 80.0833 68.1067 80.55 68.32C81.0167 68.5267 81.3767 68.8267 81.63 69.22C81.8833 69.6067 82.01 70.0633 82.01 70.59C82.01 71.0967 81.89 71.54 81.65 71.92C81.4167 72.2933 81.08 72.5867 80.64 72.8L82.15 75H80.03L78.76 73.14ZM80.01 70.59C80.01 70.2633 79.9067 70.01 79.7 69.83C79.4933 69.65 79.1867 69.56 78.78 69.56H77.68V71.61H78.78C79.1867 71.61 79.4933 71.5233 79.7 71.35C79.9067 71.17 80.01 70.9167 80.01 70.59ZM88.7223 73.47V75H83.1023V68H88.5923V69.53H85.0623V70.71H88.1723V72.19H85.0623V73.47H88.7223ZM92.2811 75.14C91.7144 75.14 91.1644 75.07 90.6311 74.93C90.0978 74.79 89.6644 74.6033 89.3311 74.37L89.9811 72.91C90.2944 73.1167 90.6578 73.2833 91.0711 73.41C91.4844 73.5367 91.8911 73.6 92.2911 73.6C93.0511 73.6 93.4311 73.41 93.4311 73.03C93.4311 72.83 93.3211 72.6833 93.1011 72.59C92.8878 72.49 92.5411 72.3867 92.0611 72.28C91.5344 72.1667 91.0944 72.0467 90.7411 71.92C90.3878 71.7867 90.0844 71.5767 89.8311 71.29C89.5778 71.0033 89.4511 70.6167 89.4511 70.13C89.4511 69.7033 89.5678 69.32 89.8011 68.98C90.0344 68.6333 90.3811 68.36 90.8411 68.16C91.3078 67.96 91.8778 67.86 92.5511 67.86C93.0111 67.86 93.4644 67.9133 93.9111 68.02C94.3578 68.12 94.7511 68.27 95.0911 68.47L94.4811 69.94C93.8144 69.58 93.1678 69.4 92.5411 69.4C92.1478 69.4 91.8611 69.46 91.6811 69.58C91.5011 69.6933 91.4111 69.8433 91.4111 70.03C91.4111 70.2167 91.5178 70.3567 91.7311 70.45C91.9444 70.5433 92.2878 70.64 92.7611 70.74C93.2944 70.8533 93.7344 70.9767 94.0811 71.11C94.4344 71.2367 94.7378 71.4433 94.9911 71.73C95.2511 72.01 95.3811 72.3933 95.3811 72.88C95.3811 73.3 95.2644 73.68 95.0311 74.02C94.7978 74.36 94.4478 74.6333 93.9811 74.84C93.5144 75.04 92.9478 75.14 92.2811 75.14ZM99.5257 75.14C98.4857 75.14 97.6757 74.8567 97.0957 74.29C96.5224 73.7233 96.2357 72.92 96.2357 71.88V68H98.2157V71.82C98.2157 72.94 98.659 73.5 99.5457 73.5C100.426 73.5 100.866 72.94 100.866 71.82V68H102.816V71.88C102.816 72.92 102.526 73.7233 101.946 74.29C101.372 74.8567 100.566 75.14 99.5257 75.14ZM110.477 75L110.457 71.29L108.657 74.31H107.777L105.987 71.39V75H104.157V68H105.787L108.247 72.04L110.647 68H112.277L112.297 75H110.477ZM119.318 73.47V75H113.698V68H119.188V69.53H115.658V70.71H118.768V72.19H115.658V73.47H119.318Z" fill="#060905"/>
<path opacity="0.5" d="M15.7212 137.474H127.279" stroke="#060905" stroke-linecap="round" stroke-linejoin="round"/>
<path opacity="0.5" d="M15.7212 150.674H127.279" stroke="#060905" stroke-linecap="round" stroke-linejoin="round"/>
<path opacity="0.5" d="M15.7212 163.885H127.279" stroke="#060905" stroke-linecap="round" stroke-linejoin="round"/>
<path opacity="0.5" d="M15.7212 177.097H127.279" stroke="#060905" stroke-linecap="round" stroke-linejoin="round"/>
<path opacity="0.5" d="M15.7212 190.296H127.279" stroke="#060905" stroke-linecap="round" stroke-linejoin="round"/>
<path opacity="0.5" d="M15.7212 203.508H127.279" stroke="#060905" stroke-linecap="round" stroke-linejoin="round"/>
<mask id="mask0" mask-type="alpha" maskUnits="userSpaceOnUse" x="41" y="0" width="470" height="470">
<circle cx="276" cy="235" r="235" fill="#FADEEE"/>
</mask>
<g mask="url(#mask0)">
<path d="M301.097 247.541C301.097 247.541 401.745 277.759 416.622 322.388C428.012 356.093 380.128 405.836 341.077 433.264L324.341 419.782L301.097 247.541Z" fill="white"/>
<path d="M378.733 388.402C374.317 383.753 376.409 374.223 379.431 367.715C379.896 366.552 380.593 365.158 381.29 363.763C382.453 361.671 383.382 359.347 384.544 357.022C385.009 357.487 385.474 357.952 386.172 358.417C391.518 363.531 397.097 368.644 403.373 371.899C403.837 371.434 404.07 370.736 404.535 370.272C398.491 367.25 392.913 362.136 387.566 357.022C386.869 356.325 386.172 355.86 385.474 355.163C390.588 343.773 394.772 330.291 387.101 320.993C383.15 316.344 375.479 313.788 365.717 313.555C365.717 313.555 365.717 313.555 365.484 313.555C357.581 313.323 347.353 317.739 337.358 321.691C336.661 319.134 337.591 313.555 339.45 310.301C345.494 299.608 350.84 284.035 348.051 274.969C347.121 271.948 345.261 269.623 342.472 268.461C335.731 265.207 318.53 271.715 305.281 277.759L305.513 279.851C319.228 273.575 335.731 267.531 341.542 270.32C343.634 271.25 345.261 273.11 345.959 275.667C348.748 284.267 343.634 299.144 337.591 309.604C335.499 313.323 334.801 317.042 335.731 320.064C328.06 323.318 320.157 327.967 312.719 334.475L312.952 336.8C320.39 330.059 328.525 325.177 336.429 321.923C338.985 327.037 342.937 325.642 343.402 325.642L344.332 329.826C344.332 329.826 339.915 328.896 337.591 324.48C347.586 320.528 357.813 315.647 365.484 315.88C365.484 315.88 365.484 315.88 365.717 315.88C375.014 316.112 382.22 318.669 385.707 322.62C392.68 330.756 388.961 343.308 384.08 354C373.852 344.703 363.16 337.032 350.375 347.492C343.867 352.838 340.612 358.649 340.38 365.158C340.148 380.731 358.046 396.305 371.295 407.463C371.528 407.695 371.76 407.927 371.993 408.16C372.457 407.695 372.922 407.23 373.387 406.765C373.155 406.533 372.69 406.3 372.457 406.068C360.37 395.608 342.007 380.034 342.24 365.158C342.24 359.347 345.494 353.768 351.537 348.887C363.392 339.356 373.155 346.562 383.15 355.628C381.988 358.184 380.825 360.741 379.663 362.833C378.966 364.228 378.269 365.39 377.804 366.785C374.317 373.991 372.225 384.218 377.339 389.797C379.431 391.889 382.453 393.284 386.404 393.516C387.101 392.819 387.566 392.354 388.264 391.656C383.15 391.424 380.36 390.029 378.733 388.402Z" fill="#583EF4"/>
<path d="M367.576 275.667C363.392 280.548 359.673 287.056 360.37 295.424C360.603 299.841 363.16 302.863 367.576 304.722C375.479 307.744 389.194 305.652 401.746 300.306C401.281 299.841 400.816 299.376 400.118 298.679C388.031 303.56 375.479 305.42 368.273 302.63C364.554 301.236 362.695 298.679 362.462 295.192C361.997 287.289 365.484 281.013 369.436 276.596C368.738 276.364 368.041 276.132 367.576 275.667Z" fill="#583EF4"/>
<path d="M301.097 247.541C301.097 247.541 401.745 277.759 416.622 322.388C428.012 356.093 380.128 405.836 341.077 433.264L324.341 419.782L301.097 247.541Z" stroke="#060905" stroke-miterlimit="10"/>
<path d="M344.796 400.722C344.796 400.722 369.9 610.154 371.063 655.016L308.535 656.643L302.956 524.382L297.378 397.933L344.796 400.722Z" fill="#FF9D00" stroke="#060905" stroke-miterlimit="10"/>
<path d="M227.18 390.262L172.323 653.156L299.47 656.643L318.53 488.353L329.455 385.613L227.18 390.262Z" fill="#FF9D00"/>
<path d="M214.628 452.092C214.628 452.092 244.148 446.281 243.916 411.879" stroke="#060905" stroke-miterlimit="10"/>
<path d="M227.18 390.262L172.323 653.157L299.47 656.644L318.53 488.354H328.99" stroke="#060905" stroke-miterlimit="10"/>
<path d="M314.114 252.655C308.303 248.471 303.189 250.563 295.751 250.563C254.143 250.563 220.206 322.621 216.255 414.669H352.932C347.121 339.357 341.31 272.413 314.114 252.655Z" fill="white"/>
<path d="M350.376 384.218C342.24 379.802 337.591 372.131 338.056 363.995C338.521 354 340.845 345.4 345.727 338.194C345.494 337.032 345.494 336.102 345.262 334.94C339.451 342.843 336.429 352.373 335.964 363.995C335.732 373.526 341.078 382.126 350.84 387.007C350.608 385.845 350.608 384.916 350.376 384.218Z" fill="#583EF4"/>
<path d="M287.151 359.347C291.799 352.838 297.843 346.562 304.816 341.216C315.276 333.08 327.828 320.761 340.38 306.814C340.148 305.884 339.916 305.187 339.916 304.257C327.596 317.971 314.811 330.756 303.654 339.356C296.216 345.167 289.707 351.908 284.826 358.882C284.129 358.882 283.664 358.882 282.967 358.882C268.323 359.347 252.516 374.688 239.035 401.186C236.478 406.533 233.688 410.949 230.899 414.668H233.688C236.245 411.182 238.57 406.998 240.894 402.349C253.911 376.78 269.252 361.903 282.967 361.439H283.199C273.204 376.547 269.717 393.051 274.599 406.3C275.761 409.322 277.388 412.344 279.48 414.901H282.269C279.945 412.111 278.085 409.09 276.691 405.603C271.809 392.818 275.528 376.547 285.756 361.671C293.659 362.601 300.865 368.179 306.908 378.872C313.882 390.727 322.715 403.976 332.71 414.901H335.731C325.271 403.743 315.974 390.029 308.768 377.71C302.492 366.785 295.286 360.741 287.151 359.347Z" fill="#583EF4"/>
<path d="M220.206 373.758C219.974 374.92 219.974 376.083 219.742 377.245C227.877 369.574 237.872 362.601 247.402 355.86C254.143 350.979 260.419 346.562 265.533 342.378C268.322 344.238 271.577 345.167 274.598 345.167C274.831 345.167 275.063 345.167 275.528 345.167C287.15 344.47 300.167 331.221 313.649 305.652C318.53 296.587 326.201 289.613 335.034 286.359C334.801 285.662 334.569 284.964 334.337 284.267C325.039 287.754 316.903 294.959 311.789 304.49C302.724 321.458 289.01 342.146 275.528 342.843C272.739 343.075 269.95 342.146 267.393 340.751C272.274 336.335 275.296 332.151 275.761 328.199C275.993 325.41 275.063 323.085 272.971 320.761C268.555 316.112 262.279 316.344 255.073 319.366C254.841 314.717 255.538 309.603 256.933 304.257C266.463 297.981 277.155 289.846 289.242 280.78C298.773 273.575 309 265.904 319.46 258.466C319.46 257.536 319.228 257.071 318.53 256.606C308.303 263.812 297.378 271.947 288.08 278.921C277.388 287.056 267.16 294.727 258.095 300.771C262.511 285.662 271.112 268.693 279.48 254.747C278.318 255.444 276.923 256.141 275.761 256.839C273.901 260.325 271.809 263.812 269.95 267.299C262.744 280.78 258.095 292.635 255.538 302.63C248.332 307.279 242.056 310.766 236.71 312.625C245.543 302.63 250.889 292.867 252.284 285.197C252.516 283.57 252.749 281.943 252.749 280.548C251.819 281.71 251.122 283.105 250.192 284.499C250.192 284.732 250.192 284.732 250.192 284.964C248.797 291.938 244.846 299.376 239.034 306.814C238.337 308.209 237.872 309.603 237.407 310.998C236.942 312.393 236.245 314.02 235.78 315.415C241.359 313.787 247.867 310.533 255.306 305.652C254.143 310.998 253.678 315.879 253.911 320.063C246.008 323.783 237.175 330.523 229.039 337.032C229.039 337.497 228.807 337.962 228.807 338.194C228.574 338.891 228.342 339.589 228.11 340.519C228.11 340.519 228.342 340.519 228.342 340.286C236.942 333.545 246.24 326.339 254.143 322.388C254.608 326.572 256.003 330.059 257.862 333.08C259.954 336.335 262.279 338.891 264.836 340.751C259.954 344.703 253.911 349.119 247.17 353.768C237.407 360.044 228.11 366.552 220.206 373.758ZM258.56 331.918C256.468 328.896 255.538 325.41 255.073 321.458C261.582 318.669 267.393 318.204 271.112 322.155C272.739 324.015 273.669 325.875 273.436 327.967C272.971 331.453 269.95 335.405 265.301 339.356C262.976 337.497 260.652 335.172 258.56 331.918Z" fill="#583EF4"/>
<path d="M352.932 414.668C347.121 339.356 341.31 272.412 314.114 252.886C308.303 248.702 303.189 250.794 295.751 250.794C254.143 250.794 220.206 322.852 216.255 414.9H352.932V414.668Z" stroke="#060905" stroke-miterlimit="10"/>
<path d="M103.518 169.905C103.518 169.905 96.3126 151.309 96.0802 148.985C96.0802 146.66 98.1722 143.638 98.8696 142.476C98.8696 142.476 101.426 138.525 102.821 137.595C104.216 136.898 105.843 134.573 105.843 134.573C105.843 134.573 106.773 133.876 105.843 132.016C104.913 130.157 101.891 122.021 103.286 117.837C104.448 113.886 108.632 115.513 110.259 120.394C111.886 125.508 117.233 136.898 118.627 139.687C120.022 142.476 121.649 141.546 121.649 140.384C121.649 139.222 121.184 128.53 121.184 125.74C121.184 122.951 124.671 123.183 126.763 128.065C128.622 132.946 149.077 193.846 149.077 193.846L115.838 201.517L103.518 169.905Z" fill="white"/>
<path d="M106.541 134.574C106.541 134.574 101.195 135.736 102.822 142.012C104.449 148.055 107.239 152.007 107.239 152.007" stroke="#060905" stroke-miterlimit="10"/>
<path d="M102.357 138.525C102.357 138.525 97.7081 141.082 99.1028 145.963C100.497 150.845 102.589 154.564 102.589 154.564" stroke="#060905" stroke-miterlimit="10"/>
<path d="M98.1732 143.87C98.1732 143.87 94.6865 144.335 96.546 151.076C98.638 157.817 115.606 201.981 115.606 201.981L148.846 193.845C148.846 193.845 129.321 136.199 127.693 131.318C126.066 126.437 122.58 122.02 121.185 125.507C119.79 129.458 122.812 142.243 120.72 142.475C118.861 142.708 117.001 137.361 115.142 133.177C113.282 128.993 109.098 116.674 105.844 115.977C101.892 115.047 99.8002 122.02 111.655 148.286" stroke="#060905" stroke-miterlimit="10"/>
<path d="M242.753 351.211C242.753 351.211 219.277 345.633 191.616 332.616C163.955 319.599 138.154 306.582 132.807 297.982C127.694 289.381 121.882 276.597 119.326 262.65C116.769 248.704 113.05 210.118 113.05 210.118L153.96 196.404C153.96 196.404 167.906 219.88 176.274 229.643C184.642 239.406 188.826 243.357 193.01 243.822C197.194 244.055 270.182 249.168 270.182 249.168C270.182 249.168 299.702 250.331 297.378 255.677C295.053 261.023 242.753 351.211 242.753 351.211Z" fill="white"/>
<path d="M252.981 322.388C253.446 325.178 254.143 327.734 255.073 329.826C255.538 329.129 256.003 328.199 256.468 327.502C255.771 325.642 255.306 323.55 255.073 321.458C257.165 320.529 259.257 319.831 261.117 319.599C261.582 318.902 262.046 317.972 262.511 317.042C260.187 317.274 257.63 317.972 255.073 319.134C254.841 314.485 255.538 309.371 256.933 304.025C263.674 299.609 271.112 294.03 279.247 288.219C280.177 286.592 281.107 284.965 282.037 283.338C273.436 289.846 265.301 295.89 257.862 300.771C262.744 283.802 272.971 264.742 282.037 249.866C281.107 249.866 280.41 249.633 279.48 249.633C276.226 254.979 272.739 261.023 269.485 267.299C262.279 280.781 257.63 292.635 255.073 302.63C247.867 307.279 241.591 310.766 236.245 312.626C245.078 302.63 250.424 292.868 251.819 285.197C252.981 278.921 251.819 273.575 248.332 269.856C245.775 267.299 243.218 265.672 240.429 264.974C245.543 258.931 250.192 253.12 252.981 247.774C252.284 247.774 251.354 247.774 250.657 247.541C247.867 252.655 243.218 258.466 238.105 264.51C232.294 263.58 225.785 265.439 218.347 267.531C205.795 270.786 190.454 274.97 170.231 269.856C169.999 269.856 169.999 269.856 169.766 269.623C173.485 265.904 176.739 261.953 179.761 257.769C183.945 252.19 188.129 247.541 192.546 243.59C191.848 243.357 190.919 243.125 190.221 242.66C186.037 246.379 182.086 251.028 178.134 256.374C174.88 260.558 171.393 264.742 167.442 268.926C161.166 266.602 156.982 262.882 155.122 257.536C150.938 245.449 159.306 227.551 166.512 215.464C166.047 214.766 165.582 214.069 165.117 213.372C157.679 225.691 148.381 244.752 153.03 258.234C154.89 263.812 159.306 267.996 165.582 270.553C155.82 280.316 144.43 289.149 132.343 296.587C132.575 297.052 133.04 297.749 133.272 298.214L133.505 298.446C145.824 290.776 157.912 281.71 167.907 271.483C168.372 271.715 168.836 271.715 169.534 271.948C190.221 277.294 206.26 273.11 218.812 269.623C225.553 267.764 231.364 266.369 236.245 266.602C224.158 281.013 210.909 297.052 218.347 310.534C220.206 313.788 222.531 315.647 225.785 316.345C226.947 316.577 228.342 316.577 229.737 316.577C222.299 324.248 213.233 331.454 203.471 337.962C204.4 338.427 205.33 338.659 206.027 339.124C216.952 331.686 226.018 323.783 233.223 316.112C239.035 314.718 246.24 311.231 254.143 306.117C252.981 311.463 252.516 316.345 252.749 320.529C244.148 324.713 234.618 331.918 225.785 338.892C223.461 340.751 221.369 342.378 219.044 344.006C219.974 344.238 220.671 344.703 221.601 344.935C223.461 343.541 225.32 342.146 227.18 340.519C235.78 333.546 244.846 326.572 252.981 322.388ZM232.061 313.788C229.969 314.253 227.877 314.253 226.018 314.02C223.461 313.555 221.369 311.928 219.974 309.371C213.233 297.052 226.482 281.246 238.105 267.299C238.105 267.066 238.337 267.066 238.337 266.834C241.127 267.531 243.683 268.926 246.24 271.483C249.262 274.737 250.424 279.154 249.262 284.965C247.635 294.03 241.127 304.025 232.061 313.788Z" fill="#583EF4"/>
<path d="M188.826 325.178C187.664 308.674 186.502 291.473 178.366 286.825C175.112 284.965 170.928 285.197 166.047 287.754C156.749 292.403 148.613 299.144 141.64 305.885C142.337 306.35 142.802 306.815 143.5 307.047C150.241 300.539 158.144 294.03 166.977 289.614C171.161 287.522 174.647 287.057 177.204 288.684C184.41 292.636 185.572 310.069 186.502 325.178C186.734 326.805 186.734 328.664 186.967 330.292C187.664 330.756 188.594 330.989 189.291 331.454C189.291 329.362 189.059 327.27 188.826 325.178Z" fill="#583EF4"/>
<path d="M115.607 232.665C124.207 230.806 132.11 230.108 136.759 232.665C139.083 233.828 140.478 235.687 140.711 238.244C141.64 244.52 131.878 251.261 118.628 258.467C118.861 259.396 118.861 260.094 119.093 260.791C133.97 252.888 144.197 245.682 142.802 238.012C142.338 234.757 140.478 232.2 137.689 230.806C132.575 228.249 124.207 228.714 115.374 230.573C115.374 231.271 115.374 231.968 115.607 232.665Z" fill="#583EF4"/>
<path d="M173.718 242.427L294.356 250.563" stroke="#060905" stroke-miterlimit="10"/>
<path d="M239.964 351.211C239.964 351.211 155.354 322.388 134.667 299.841C113.979 277.294 112.817 198.96 112.817 198.96L149.543 190.127C149.543 190.127 172.323 229.643 189.291 243.357" stroke="#060905" stroke-miterlimit="10"/>
<path d="M149.543 190.127L112.817 198.96C112.817 198.96 112.817 206.166 113.514 217.091L159.306 205.934C153.495 196.868 149.543 190.127 149.543 190.127Z" fill="#583EF4" stroke="#060905" stroke-miterlimit="10"/>
<path d="M117.931 197.565L121.418 214.301" stroke="#060905" stroke-miterlimit="10"/>
<path d="M124.905 196.171L129.089 213.14" stroke="#060905" stroke-miterlimit="10"/>
<path d="M131.878 194.312L137.921 211.048" stroke="#060905" stroke-miterlimit="10"/>
<path d="M138.619 192.684L145.127 209.188" stroke="#060905" stroke-miterlimit="10"/>
<path d="M144.662 191.29L151.636 207.794" stroke="#060905" stroke-miterlimit="10"/>
<path d="M281.706 253.005H308.204V206.051H281.706V253.005Z" fill="white" stroke="#060905" stroke-miterlimit="10"/>
<path d="M337.358 173.391C338.52 177.343 342.704 179.667 346.656 178.273C350.607 177.11 352.932 172.926 351.537 168.975C350.375 165.023 346.191 162.699 342.24 164.094C338.288 165.256 335.963 169.44 337.358 173.391Z" fill="#FF9D00"/>
<path d="M355.256 162.466C362.927 178.97 382.917 185.711 400.351 177.808C417.552 169.905 425.455 150.147 418.016 133.643C410.346 117.14 390.355 110.399 372.922 118.302C355.489 126.205 347.586 145.963 355.256 162.466Z" fill="#060905"/>
<path d="M259.489 192.684L251.586 188.965L261.814 180.365L259.489 192.684Z" fill="#FF80A4"/>
<path d="M311.092 208.955C310.859 209.653 310.859 210.35 310.627 211.047C310.627 211.745 310.627 212.442 310.395 213.372L311.092 208.955L281.106 224.762V224.529L272.041 222.437C261.814 220.113 255.538 208.723 258.095 196.868L263.441 172.927C265.998 161.304 276.69 153.401 286.918 155.726L302.491 159.212C312.719 161.537 318.995 172.927 316.438 184.781L311.092 208.955Z" fill="white"/>
<path d="M284.361 225.227L272.274 222.437C262.046 220.113 255.77 208.723 258.327 196.868L263.673 172.927C266.23 161.304 276.922 153.401 287.15 155.726L302.724 159.212C312.951 161.537 319.227 172.927 316.67 184.781L311.324 208.723C311.092 209.42 311.092 210.118 310.859 210.815C310.859 211.512 310.859 212.21 310.627 213.139" fill="white"/>
<path d="M284.361 225.227L272.274 222.437C262.046 220.113 255.77 208.723 258.327 196.868L263.673 172.927C266.23 161.304 276.922 153.401 287.15 155.726L302.724 159.212C312.951 161.537 319.227 172.927 316.67 184.781L311.324 208.723C311.092 209.42 311.092 210.118 310.859 210.815C310.859 211.512 310.859 212.21 310.627 213.139" stroke="#060905" stroke-miterlimit="10"/>
<path d="M279.014 188.732C279.014 190.592 277.155 192.219 275.295 191.987C273.435 191.987 271.808 190.127 272.041 188.267C272.041 186.408 273.9 184.781 275.76 185.013C277.619 185.013 279.014 186.64 279.014 188.732Z" fill="#060905"/>
<path d="M295.75 204.306C295.518 209.885 290.637 214.302 284.825 214.069C279.247 213.837 274.83 208.955 275.063 203.144C275.295 197.566 280.177 193.149 285.988 193.382C291.799 193.846 296.215 198.728 295.75 204.306Z" fill="#FF80A4"/>
<path d="M258.094 209.885C261.814 212.21 266.23 210.35 269.252 207.793C270.181 207.096 268.787 205.701 268.089 206.631C265.765 208.723 262.046 210.35 259.257 208.491C258.094 207.793 257.165 209.188 258.094 209.885Z" fill="#060905"/>
<path d="M309.465 203.609L307.14 196.171C307.14 196.171 282.734 190.127 264.835 164.558C246.937 138.99 257.63 125.508 267.857 123.648C278.085 121.789 286.685 146.195 286.685 146.195C286.685 146.195 281.339 130.389 292.264 129.692C303.421 129.227 310.395 151.309 310.395 151.309C310.395 151.309 348.748 167.58 337.126 204.074C337.126 204.074 330.85 225.459 307.373 226.389" fill="#060905"/>
<path d="M325.968 205.934C325.039 212.21 319.227 216.858 312.719 215.929C306.211 214.999 301.794 209.188 302.491 202.912C303.421 196.636 309.232 191.987 315.741 192.917C322.249 193.614 326.898 199.658 325.968 205.934Z" fill="white"/>
<path d="M308.768 205.236C308.768 204.539 309.232 203.144 309.697 202.214C311.092 199.89 313.416 199.425 315.973 200.122C317.135 200.355 317.6 198.495 316.438 198.263C313.416 197.565 310.162 198.03 308.303 200.587C307.373 201.982 306.908 203.609 306.675 205.004C306.908 206.398 308.768 206.398 308.768 205.236Z" fill="#060905"/>
<path d="M283.431 257.071L309.697 256.606C313.416 256.606 316.438 253.584 316.206 249.865V243.822C316.206 240.103 313.184 237.081 309.465 237.313L283.199 237.778C279.479 237.778 276.458 240.8 276.69 244.519V250.563C276.69 254.049 279.712 257.071 283.431 257.071Z" fill="#583EF4" stroke="#060905" stroke-miterlimit="10"/>
<path d="M295.399 237.317L294.469 237.331L294.775 256.855L295.705 256.84L295.399 237.317Z" fill="#060905"/>
<path d="M303.189 237.313H304.119L303.421 256.606L302.491 256.839L303.189 237.313Z" fill="#060905"/>
<path d="M286.685 237.546H287.615L286.918 257.071H285.988L286.685 237.546Z" fill="#060905"/>
<path d="M279.712 256.142L279.48 238.476C279.712 238.244 280.177 238.011 280.409 238.011L280.642 256.607C280.41 256.607 279.945 256.374 279.712 256.142Z" fill="#060905"/>
<path d="M311.789 256.374C311.557 256.374 311.092 256.607 310.86 256.607L311.789 237.546C312.022 237.546 312.487 237.779 312.719 238.011L311.789 256.374Z" fill="#060905"/>
</g>
</svg>
