<svg width="1920" height="1102" viewBox="0 0 1920 1102" fill="none" xmlns="http://www.w3.org/2000/svg">
<rect width="1920" height="1102" fill="#FFECF2"/>
<mask id="mask0" mask-type="alpha" maskUnits="userSpaceOnUse" x="0" y="0" width="1920" height="1102">
<rect width="1920" height="1102" fill="#C4C4C4"/>
</mask>
<g mask="url(#mask0)">
<g opacity="0.5">
<path d="M1225.75 271.01L1232.63 277.891C1236.43 274.095 1241.18 272.196 1246.4 272.196C1251.62 272.196 1256.6 274.332 1260.16 277.891L1267.04 271.01C1261.58 265.553 1254.23 262.468 1246.4 262.468C1238.8 262.231 1231.21 265.315 1225.75 271.01Z" fill="#FADEEE"/>
<path d="M1214.36 259.384L1221.25 266.265C1227.89 259.621 1236.91 255.825 1246.63 255.825C1256.12 255.825 1265.14 259.621 1272.02 266.265L1278.9 259.384C1270.36 250.842 1258.97 246.096 1246.63 246.096C1234.3 246.096 1222.91 250.842 1214.36 259.384Z" fill="#FADEEE"/>
<path d="M1246.63 229.962C1230.26 229.962 1214.6 236.369 1202.97 247.995L1209.86 254.876C1219.58 245.148 1232.63 239.69 1246.63 239.69C1260.63 239.69 1273.45 245.148 1283.41 254.876L1290.29 247.995C1278.43 236.369 1263.01 229.962 1246.63 229.962Z" fill="#FADEEE"/>
<path d="M1246.63 277.892C1242.12 277.892 1238.33 281.688 1238.33 286.197C1238.33 290.705 1242.12 294.501 1246.63 294.501C1251.14 294.501 1254.94 290.705 1254.94 286.197C1254.94 281.451 1251.14 277.892 1246.63 277.892Z" fill="#FADEEE"/>
<path d="M758.093 135.483L764.974 142.364C768.77 138.568 773.516 136.669 778.736 136.669C783.956 136.669 788.939 138.805 792.498 142.364L799.379 135.483C793.922 130.026 786.566 126.941 778.736 126.941C771.143 126.704 763.788 129.788 758.093 135.483Z" stroke="#583EF4" stroke-miterlimit="10"/>
<path d="M746.704 123.857L753.585 130.738C760.229 124.094 769.245 120.298 778.973 120.298C788.464 120.298 797.481 124.094 804.362 130.738L811.243 123.857C802.701 115.315 791.312 110.57 778.973 110.57C766.872 110.57 755.246 115.315 746.704 123.857Z" stroke="#583EF4" stroke-miterlimit="10"/>
<path d="M778.973 94.4354C762.601 94.4354 746.941 100.842 735.315 112.468L742.196 119.349C751.924 109.621 764.974 104.164 778.973 104.164C792.973 104.164 805.785 109.621 815.751 119.349L822.632 112.468C810.768 100.842 795.345 94.4354 778.973 94.4354Z" stroke="#583EF4" stroke-miterlimit="10"/>
<path d="M778.973 158.974C783.559 158.974 787.277 155.256 787.277 150.669C787.277 146.083 783.559 142.365 778.973 142.365C774.387 142.365 770.669 146.083 770.669 150.669C770.669 155.256 774.387 158.974 778.973 158.974Z" stroke="#583EF4" stroke-miterlimit="10"/>
<path d="M902.831 422.824V444.178" stroke="#583EF4" stroke-width="0.75" stroke-miterlimit="10" stroke-linecap="round" stroke-linejoin="round"/>
<path d="M892.154 433.501H913.508" stroke="#583EF4" stroke-width="0.75" stroke-miterlimit="10" stroke-linecap="round" stroke-linejoin="round"/>
<path d="M134.06 628.067V649.421" stroke="#FF80A4" stroke-width="0.75" stroke-miterlimit="10" stroke-linecap="round" stroke-linejoin="round"/>
<path d="M123.383 638.744H144.737" stroke="#FF80A4" stroke-width="0.75" stroke-miterlimit="10" stroke-linecap="round" stroke-linejoin="round"/>
<path d="M314.627 768.059V789.413" stroke="#FF80A4" stroke-width="0.75" stroke-miterlimit="10" stroke-linecap="round" stroke-linejoin="round"/>
<path d="M303.95 778.736H325.304" stroke="#FF80A4" stroke-width="0.75" stroke-miterlimit="10" stroke-linecap="round" stroke-linejoin="round"/>
<path d="M1554.39 597.696V619.05" stroke="#FF80A4" stroke-width="0.75" stroke-miterlimit="10" stroke-linecap="round" stroke-linejoin="round"/>
<path d="M1543.71 608.373H1565.07" stroke="#FF80A4" stroke-width="0.75" stroke-miterlimit="10" stroke-linecap="round" stroke-linejoin="round"/>
<path d="M592.949 123.857V145.212" stroke="#FF80A4" stroke-width="0.75" stroke-miterlimit="10" stroke-linecap="round" stroke-linejoin="round"/>
<path d="M582.273 134.535H603.627" stroke="#FF80A4" stroke-width="0.75" stroke-miterlimit="10" stroke-linecap="round" stroke-linejoin="round"/>
<path d="M153.991 41.0481V62.4023" stroke="#583EF4" stroke-width="0.75" stroke-miterlimit="10" stroke-linecap="round" stroke-linejoin="round"/>
<path d="M143.314 51.7252H164.668" stroke="#583EF4" stroke-width="0.75" stroke-miterlimit="10" stroke-linecap="round" stroke-linejoin="round"/>
<path d="M263.849 404.554V425.908" stroke="#FF9D00" stroke-width="0.75" stroke-miterlimit="10" stroke-linecap="round" stroke-linejoin="round"/>
<path d="M253.172 415.231H274.526" stroke="#FF9D00" stroke-width="0.75" stroke-miterlimit="10" stroke-linecap="round" stroke-linejoin="round"/>
<path d="M693.317 676.946V698.3" stroke="#FF9D00" stroke-width="0.75" stroke-miterlimit="10" stroke-linecap="round" stroke-linejoin="round"/>
<path d="M682.64 687.623H703.994" stroke="#FF9D00" stroke-width="0.75" stroke-miterlimit="10" stroke-linecap="round" stroke-linejoin="round"/>
<path d="M496.142 138.094C500.204 138.094 503.497 134.801 503.497 130.738C503.497 126.676 500.204 123.383 496.142 123.383C492.08 123.383 488.787 126.676 488.787 130.738C488.787 134.801 492.08 138.094 496.142 138.094Z" stroke="#FF9D00" stroke-width="0.75" stroke-miterlimit="10" stroke-linecap="round" stroke-linejoin="round"/>
<path d="M1478.22 610.746H1422.94V652.269H1478.22V610.746Z" stroke="white" stroke-miterlimit="10"/>
<path d="M1422.94 610.746L1450.46 636.134L1478.22 610.746" stroke="white" stroke-miterlimit="10"/>
<path d="M160.903 752.335C167.169 731.64 155.472 709.784 134.778 703.518C114.083 697.252 92.2274 708.949 85.9613 729.643C79.6952 750.338 91.3917 772.194 112.086 778.46C132.781 784.726 154.637 773.029 160.903 752.335Z" fill="#FADEEE"/>
<path d="M146.873 724.4H101.078V758.805H146.873V724.4Z" stroke="white" stroke-miterlimit="10"/>
<path d="M101.078 724.4L123.857 745.517L146.873 724.4" stroke="white" stroke-miterlimit="10"/>
<path d="M555.224 93.0117C568.983 93.0117 580.137 81.8574 580.137 68.0978C580.137 54.3383 568.983 43.184 555.224 43.184C541.464 43.184 530.31 54.3383 530.31 68.0978C530.31 81.8574 541.464 93.0117 555.224 93.0117Z" fill="#FADEEE"/>
<path d="M570.171 57.658H540.987V79.4867H570.171V57.658Z" stroke="white" stroke-miterlimit="10"/>
<path d="M540.987 57.658L555.46 71.1823L570.171 57.658" stroke="white" stroke-miterlimit="10"/>
<path d="M314.626 327.677L321.27 339.303L327.913 350.929H314.626H301.339L307.983 339.303L314.626 327.677Z" fill="#FF80A4"/>
<path d="M893.103 667.692L908.525 680.979L923.711 694.503L904.492 700.91L885.273 707.553L889.069 687.622L893.103 667.692Z" stroke="#FF80A4" stroke-miterlimit="10"/>
<path d="M39.1494 41.5223L33.9295 60.9784L28.7096 80.6717L14.2361 66.1983L0 51.9622L19.6933 46.7423L39.1494 41.5223Z" stroke="#FF80A4" stroke-miterlimit="10"/>
<path d="M1554.39 710.638L1549.88 727.722L1545.13 744.805L1532.8 732.23L1520.22 719.655L1537.3 715.147L1554.39 710.638Z" stroke="#583EF4" stroke-miterlimit="10"/>
<path d="M466.957 727.722C466.957 733.891 461.974 738.637 456.042 738.637C449.873 738.637 445.128 733.654 445.128 727.722C445.128 721.553 450.111 716.808 456.042 716.808C461.974 716.808 466.957 721.553 466.957 727.722Z" stroke="#FF80A4" stroke-miterlimit="10"/>
<path d="M860.358 15.4225C860.358 23.9642 853.477 30.845 844.936 30.845C836.394 30.845 829.513 23.9642 829.513 15.4225C829.513 6.8808 836.394 0 844.936 0C853.477 0 860.358 6.8808 860.358 15.4225Z" stroke="#FF80A4" stroke-miterlimit="10"/>
<path d="M870.087 777.313C870.087 782.77 865.579 787.041 860.359 787.041C854.902 787.041 850.631 782.533 850.631 777.313C850.631 771.856 855.139 767.585 860.359 767.585C865.816 767.585 870.087 771.856 870.087 777.313Z" fill="#FF80A4"/>
<path d="M574.68 632.338C574.68 635.66 572.07 638.269 568.748 638.269C565.426 638.269 562.816 635.66 562.816 632.338C562.816 629.016 565.426 626.406 568.748 626.406C572.07 626.406 574.68 629.016 574.68 632.338Z" fill="#FADEEE"/>
<path d="M1342.3 793.341C1351.13 789.664 1355.31 779.524 1351.63 770.693C1347.95 761.861 1337.81 757.683 1328.98 761.36C1320.15 765.037 1315.97 775.178 1319.65 784.009C1323.33 792.84 1333.47 797.018 1342.3 793.341Z" stroke="#FF80A4" stroke-miterlimit="10"/>
<path d="M1055.64 483.803C1064.02 483.803 1070.82 477.004 1070.82 468.618C1070.82 460.231 1064.02 453.432 1055.64 453.432C1047.25 453.432 1040.45 460.231 1040.45 468.618C1040.45 477.004 1047.25 483.803 1055.64 483.803Z" stroke="#583EF4" stroke-miterlimit="10"/>
<path d="M47.4544 589.865C55.0547 589.865 61.216 583.703 61.216 576.103C61.216 568.503 55.0547 562.342 47.4544 562.342C39.854 562.342 33.6927 568.503 33.6927 576.103C33.6927 583.703 39.854 589.865 47.4544 589.865Z" stroke="#583EF4" stroke-miterlimit="10"/>
<path d="M1498.15 459.364C1498.15 466.007 1492.93 471.227 1486.29 471.227C1479.65 471.227 1474.43 466.007 1474.43 459.364C1474.43 452.72 1479.65 447.5 1486.29 447.5C1492.93 447.5 1498.15 452.72 1498.15 459.364Z" fill="#FF80A4"/>
<path d="M804.362 742.908C804.362 749.551 799.142 754.771 792.499 754.771C785.855 754.771 780.635 749.551 780.635 742.908C780.635 736.264 785.855 731.044 792.499 731.044C799.142 731.044 804.362 736.264 804.362 742.908Z" stroke="#583EF4" stroke-miterlimit="10"/>
<path d="M1360.53 697.114C1360.53 697.114 1380.23 695.216 1385.45 707.554C1390.67 719.892 1392.57 731.993 1423.65 716.808" stroke="#FF9D00" stroke-miterlimit="10"/>
<path d="M64.3013 175.821C64.3013 175.821 61.6913 193.854 49.353 195.752C37.0147 197.65 25.8627 196.701 32.7437 227.784" stroke="#FF9D00" stroke-miterlimit="10"/>
<path d="M663.896 21.5922C663.896 21.5922 683.59 19.694 688.81 32.0323C694.03 44.3705 695.928 56.4716 727.011 41.286" stroke="#FF9D00" stroke-miterlimit="10"/>
<path d="M759.042 302.288C759.042 307.27 755.009 311.067 750.263 311.067C745.281 311.067 741.484 307.033 741.484 302.288C741.484 297.305 745.518 293.509 750.263 293.509C755.009 293.509 759.042 297.542 759.042 302.288Z" fill="#FF9D00"/>
<path d="M286.98 28.5953C291.865 24.8452 292.785 17.8448 289.035 12.9596C285.285 8.07436 278.284 7.1542 273.399 10.9043C268.514 14.6545 267.594 21.6548 271.344 26.5401C275.094 31.4253 282.094 32.3455 286.98 28.5953Z" stroke="#583EF4" stroke-miterlimit="10"/>
<path d="M1698.9 628.067V649.421" stroke="#FF80A4" stroke-width="0.75" stroke-miterlimit="10" stroke-linecap="round" stroke-linejoin="round"/>
<path d="M1688.23 638.744H1709.58" stroke="#FF80A4" stroke-width="0.75" stroke-miterlimit="10" stroke-linecap="round" stroke-linejoin="round"/>
<path d="M1879.47 768.059V789.413" stroke="#FF80A4" stroke-width="0.75" stroke-miterlimit="10" stroke-linecap="round" stroke-linejoin="round"/>
<path d="M1868.79 778.736H1890.15" stroke="#FF80A4" stroke-width="0.75" stroke-miterlimit="10" stroke-linecap="round" stroke-linejoin="round"/>
<path d="M1718.83 41.0481V62.4023" stroke="#583EF4" stroke-width="0.75" stroke-miterlimit="10" stroke-linecap="round" stroke-linejoin="round"/>
<path d="M1708.16 51.7251H1729.51" stroke="#583EF4" stroke-width="0.75" stroke-miterlimit="10" stroke-linecap="round" stroke-linejoin="round"/>
<path d="M1828.69 404.554V425.908" stroke="#FF9D00" stroke-width="0.75" stroke-miterlimit="10" stroke-linecap="round" stroke-linejoin="round"/>
<path d="M1818.01 415.231H1839.37" stroke="#FF9D00" stroke-width="0.75" stroke-miterlimit="10" stroke-linecap="round" stroke-linejoin="round"/>
<path d="M1725.74 752.335C1732.01 731.64 1720.31 709.784 1699.62 703.518C1678.93 697.252 1657.07 708.949 1650.8 729.643C1644.54 750.338 1656.23 772.194 1676.93 778.46C1697.62 784.726 1719.48 773.029 1725.74 752.335Z" fill="#FADEEE"/>
<path d="M1711.71 724.4H1665.92V758.805H1711.71V724.4Z" stroke="white" stroke-miterlimit="10"/>
<path d="M1665.92 724.4L1688.7 745.517L1711.71 724.4" stroke="white" stroke-miterlimit="10"/>
<path d="M1879.47 327.677L1886.11 339.303L1892.76 350.929H1879.47H1866.18L1872.82 339.303L1879.47 327.677Z" fill="#FF80A4"/>
<path d="M1603.99 41.5223L1598.77 60.9784L1593.55 80.6717L1579.08 66.1983L1564.84 51.9622L1584.54 46.7423L1603.99 41.5223Z" stroke="#FF80A4" stroke-miterlimit="10"/>
<path d="M1612.3 589.865C1619.9 589.865 1626.06 583.703 1626.06 576.103C1626.06 568.503 1619.9 562.342 1612.3 562.342C1604.7 562.342 1598.53 568.503 1598.53 576.103C1598.53 583.703 1604.7 589.865 1612.3 589.865Z" stroke="#583EF4" stroke-miterlimit="10"/>
<path d="M1629.14 175.821C1629.14 175.821 1626.53 193.854 1614.2 195.752C1601.86 197.65 1590.7 196.701 1597.59 227.784" stroke="#FF9D00" stroke-miterlimit="10"/>
<path d="M1851.82 28.5953C1856.71 24.8452 1857.63 17.8448 1853.88 12.9596C1850.13 8.07436 1843.13 7.1542 1838.24 10.9043C1833.36 14.6545 1832.44 21.6548 1836.19 26.5401C1839.94 31.4253 1846.94 32.3455 1851.82 28.5953Z" stroke="#583EF4" stroke-miterlimit="10"/>
<path d="M1225.75 1071.01L1232.63 1077.89C1236.43 1074.09 1241.18 1072.2 1246.4 1072.2C1251.62 1072.2 1256.6 1074.33 1260.16 1077.89L1267.04 1071.01C1261.58 1065.55 1254.23 1062.47 1246.4 1062.47C1238.8 1062.23 1231.21 1065.32 1225.75 1071.01Z" fill="#FADEEE"/>
<path d="M1214.36 1059.38L1221.25 1066.26C1227.89 1059.62 1236.91 1055.82 1246.63 1055.82C1256.12 1055.82 1265.14 1059.62 1272.02 1066.26L1278.9 1059.38C1270.36 1050.84 1258.97 1046.1 1246.63 1046.1C1234.3 1046.1 1222.91 1050.84 1214.36 1059.38Z" fill="#FADEEE"/>
<path d="M1246.63 1029.96C1230.26 1029.96 1214.6 1036.37 1202.97 1048L1209.86 1054.88C1219.58 1045.15 1232.63 1039.69 1246.63 1039.69C1260.63 1039.69 1273.45 1045.15 1283.41 1054.88L1290.29 1048C1278.43 1036.37 1263.01 1029.96 1246.63 1029.96Z" fill="#FADEEE"/>
<path d="M1246.63 1077.89C1242.12 1077.89 1238.33 1081.69 1238.33 1086.2C1238.33 1090.7 1242.12 1094.5 1246.63 1094.5C1251.14 1094.5 1254.94 1090.7 1254.94 1086.2C1254.94 1081.45 1251.14 1077.89 1246.63 1077.89Z" fill="#FADEEE"/>
<path d="M758.093 935.483L764.974 942.364C768.77 938.568 773.516 936.669 778.736 936.669C783.956 936.669 788.939 938.805 792.498 942.364L799.379 935.483C793.922 930.026 786.566 926.941 778.736 926.941C771.143 926.704 763.788 929.789 758.093 935.483Z" stroke="#583EF4" stroke-miterlimit="10"/>
<path d="M746.704 923.857L753.585 930.738C760.229 924.094 769.245 920.298 778.973 920.298C788.464 920.298 797.481 924.094 804.362 930.738L811.243 923.857C802.701 915.315 791.312 910.57 778.973 910.57C766.872 910.57 755.246 915.315 746.704 923.857Z" stroke="#583EF4" stroke-miterlimit="10"/>
<path d="M778.973 894.436C762.601 894.436 746.941 900.842 735.315 912.468L742.196 919.349C751.924 909.621 764.974 904.164 778.973 904.164C792.973 904.164 805.785 909.621 815.751 919.349L822.632 912.468C810.768 900.842 795.345 894.436 778.973 894.436Z" stroke="#583EF4" stroke-miterlimit="10"/>
<path d="M778.973 958.974C783.559 958.974 787.277 955.256 787.277 950.669C787.277 946.083 783.559 942.365 778.973 942.365C774.387 942.365 770.669 946.083 770.669 950.669C770.669 955.256 774.387 958.974 778.973 958.974Z" stroke="#583EF4" stroke-miterlimit="10"/>
<path d="M592.949 923.857V945.212" stroke="#FF80A4" stroke-width="0.75" stroke-miterlimit="10" stroke-linecap="round" stroke-linejoin="round"/>
<path d="M582.273 934.535H603.627" stroke="#FF80A4" stroke-width="0.75" stroke-miterlimit="10" stroke-linecap="round" stroke-linejoin="round"/>
<path d="M153.991 841.048V862.402" stroke="#583EF4" stroke-width="0.75" stroke-miterlimit="10" stroke-linecap="round" stroke-linejoin="round"/>
<path d="M143.314 851.725H164.668" stroke="#583EF4" stroke-width="0.75" stroke-miterlimit="10" stroke-linecap="round" stroke-linejoin="round"/>
<path d="M496.142 938.094C500.204 938.094 503.497 934.801 503.497 930.738C503.497 926.676 500.204 923.383 496.142 923.383C492.08 923.383 488.787 926.676 488.787 930.738C488.787 934.801 492.08 938.094 496.142 938.094Z" stroke="#FF9D00" stroke-width="0.75" stroke-miterlimit="10" stroke-linecap="round" stroke-linejoin="round"/>
<path d="M555.224 893.012C568.983 893.012 580.137 881.857 580.137 868.098C580.137 854.338 568.983 843.184 555.224 843.184C541.464 843.184 530.31 854.338 530.31 868.098C530.31 881.857 541.464 893.012 555.224 893.012Z" fill="#FADEEE"/>
<path d="M570.171 857.658H540.987V879.486H570.171V857.658Z" stroke="white" stroke-miterlimit="10"/>
<path d="M540.987 857.658L555.46 871.182L570.171 857.658" stroke="white" stroke-miterlimit="10"/>
<path d="M39.1494 841.522L33.9295 860.978L28.7096 880.672L14.2361 866.198L0 851.962L19.6933 846.742L39.1494 841.522Z" stroke="#FF80A4" stroke-miterlimit="10"/>
<path d="M860.358 815.422C860.358 823.964 853.477 830.845 844.936 830.845C836.394 830.845 829.513 823.964 829.513 815.422C829.513 806.881 836.394 800 844.936 800C853.477 800 860.358 806.881 860.358 815.422Z" stroke="#FF80A4" stroke-miterlimit="10"/>
<path d="M64.3013 975.821C64.3013 975.821 61.6913 993.854 49.353 995.752C37.0147 997.65 25.8627 996.701 32.7437 1027.78" stroke="#FF9D00" stroke-miterlimit="10"/>
<path d="M663.896 821.592C663.896 821.592 683.59 819.694 688.81 832.032C694.03 844.371 695.928 856.472 727.011 841.286" stroke="#FF9D00" stroke-miterlimit="10"/>
<path d="M759.042 1102.29C759.042 1107.27 755.009 1111.07 750.263 1111.07C745.281 1111.07 741.484 1107.03 741.484 1102.29C741.484 1097.31 745.518 1093.51 750.263 1093.51C755.009 1093.51 759.042 1097.54 759.042 1102.29Z" fill="#FF9D00"/>
<path d="M286.98 828.595C291.865 824.845 292.785 817.845 289.035 812.96C285.285 808.074 278.284 807.154 273.399 810.904C268.514 814.654 267.594 821.655 271.344 826.54C275.094 831.425 282.094 832.345 286.98 828.595Z" stroke="#583EF4" stroke-miterlimit="10"/>
<path d="M1718.83 841.048V862.402" stroke="#583EF4" stroke-width="0.75" stroke-miterlimit="10" stroke-linecap="round" stroke-linejoin="round"/>
<path d="M1708.16 851.725H1729.51" stroke="#583EF4" stroke-width="0.75" stroke-miterlimit="10" stroke-linecap="round" stroke-linejoin="round"/>
<path d="M1603.99 841.522L1598.77 860.978L1593.55 880.672L1579.08 866.198L1564.84 851.962L1584.54 846.742L1603.99 841.522Z" stroke="#FF80A4" stroke-miterlimit="10"/>
<path d="M1629.14 975.821C1629.14 975.821 1626.53 993.854 1614.2 995.752C1601.86 997.65 1590.7 996.701 1597.59 1027.78" stroke="#FF9D00" stroke-miterlimit="10"/>
<path d="M1851.82 828.595C1856.71 824.845 1857.63 817.845 1853.88 812.96C1850.13 808.074 1843.13 807.154 1838.24 810.904C1833.36 814.654 1832.44 821.655 1836.19 826.54C1839.94 831.425 1846.94 832.345 1851.82 828.595Z" stroke="#583EF4" stroke-miterlimit="10"/>
</g>
</g>
</svg>
