<svg width="572" height="744" viewBox="0 0 572 744" fill="none" xmlns="http://www.w3.org/2000/svg">
<path d="M260.365 93.1643H1V507.817H260.365V93.1643Z" fill="white" stroke="#060905" stroke-miterlimit="10"/>
<path d="M18.9883 291.221C84.1507 291.221 149.497 291.221 214.659 291.221C224.02 291.221 233.382 291.221 242.743 291.221C244.579 291.221 244.579 288.468 242.743 288.468C177.581 288.468 112.235 288.468 47.0724 288.468C37.711 288.468 28.3497 288.468 18.9883 288.468C17.1527 288.468 17.1527 291.221 18.9883 291.221Z" fill="#060905"/>
<path d="M18.9885 306.824C84.151 306.824 149.497 306.824 214.659 306.824C224.021 306.824 233.382 306.824 242.743 306.824C244.579 306.824 244.579 304.07 242.743 304.07C177.581 304.07 112.235 304.07 47.0726 304.07C37.7113 304.07 28.3499 304.07 18.9885 304.07C17.153 304.07 17.153 306.824 18.9885 306.824Z" fill="#060905"/>
<path d="M18.9885 319.856C84.151 319.856 149.497 319.856 214.659 319.856C224.021 319.856 233.382 319.856 242.743 319.856C244.579 319.856 244.579 317.103 242.743 317.103C177.581 317.103 112.235 317.103 47.0726 317.103C37.7113 317.103 28.3499 317.103 18.9885 317.103C17.153 317.103 17.153 319.856 18.9885 319.856Z" fill="#060905"/>
<path d="M18.9885 331.971C84.151 331.971 149.497 331.971 214.659 331.971C224.021 331.971 233.382 331.971 242.743 331.971C244.579 331.971 244.579 329.218 242.743 329.218C177.581 329.218 112.235 329.218 47.0726 329.218C37.7113 329.218 28.3499 329.218 18.9885 329.218C17.153 329.218 17.153 331.971 18.9885 331.971Z" fill="#060905"/>
<path d="M18.9885 344.453C84.151 344.453 149.497 344.453 214.659 344.453C224.021 344.453 233.382 344.453 242.743 344.453C244.579 344.453 244.579 341.699 242.743 341.699C177.581 341.699 112.235 341.699 47.0726 341.699C37.7113 341.699 28.3499 341.699 18.9885 341.699C17.153 341.699 17.153 344.453 18.9885 344.453Z" fill="#060905"/>
<path d="M18.9885 358.22C84.151 358.22 149.497 358.22 214.659 358.22C224.021 358.22 233.382 358.22 242.743 358.22C244.579 358.22 244.579 355.466 242.743 355.466C177.581 355.466 112.235 355.466 47.0726 355.466C37.7113 355.466 28.3499 355.466 18.9885 355.466C17.153 355.466 17.153 358.22 18.9885 358.22Z" fill="#060905"/>
<path d="M18.9885 383.183C84.151 383.183 149.497 383.183 214.659 383.183C224.021 383.183 233.382 383.183 242.743 383.183C244.579 383.183 244.579 380.43 242.743 380.43C177.581 380.43 112.235 380.43 47.0726 380.43C37.7113 380.43 28.3499 380.43 18.9885 380.43C17.153 380.43 17.153 383.183 18.9885 383.183Z" fill="#060905"/>
<path d="M18.9885 396.032C74.7896 396.032 130.591 396.032 186.392 396.032C194.468 396.032 202.545 396.032 210.805 396.032C212.64 396.032 212.64 393.278 210.805 393.278C155.004 393.278 99.2026 393.278 43.4015 393.278C35.325 393.278 27.2486 393.278 18.9885 393.278C17.153 393.278 17.153 396.032 18.9885 396.032Z" fill="#060905"/>
<path d="M18.9885 408.146C84.151 408.146 149.497 408.146 214.659 408.146C224.021 408.146 233.382 408.146 242.743 408.146C244.579 408.146 244.579 405.393 242.743 405.393C177.581 405.393 112.235 405.393 47.0726 405.393C37.7113 405.393 28.3499 405.393 18.9885 405.393C17.153 405.393 17.153 408.146 18.9885 408.146Z" fill="#060905"/>
<path d="M18.9885 420.628C62.4913 420.628 106.178 420.628 149.68 420.628C151.516 420.628 151.516 417.875 149.68 417.875C106.178 417.875 62.4913 417.875 18.9885 417.875C17.153 417.875 17.153 420.628 18.9885 420.628Z" fill="#060905"/>
<path d="M18.9885 434.395C75.8909 434.395 132.977 434.395 189.879 434.395C198.139 434.395 206.216 434.395 214.476 434.395C216.311 434.395 216.311 431.642 214.476 431.642C157.573 431.642 100.487 431.642 43.5851 431.642C35.3251 431.642 27.2486 431.642 18.9885 431.642C17.153 431.642 17.153 434.395 18.9885 434.395Z" fill="#060905"/>
<path d="M18.9885 450.731C67.2638 450.731 115.539 450.731 163.814 450.731C170.606 450.731 177.581 450.731 184.373 450.731C186.208 450.731 186.208 447.978 184.373 447.978C136.097 447.978 87.8221 447.978 39.5468 447.978C32.7552 447.978 25.7801 447.978 18.9885 447.978C17.153 447.978 17.153 450.731 18.9885 450.731Z" fill="#060905"/>
<path d="M18.9885 471.106C71.4856 471.106 123.799 471.106 176.296 471.106C184.005 471.106 191.531 471.106 199.241 471.106C201.076 471.106 201.076 468.353 199.241 468.353C146.744 468.353 94.4301 468.353 41.9331 468.353C34.2237 468.353 26.6979 468.353 18.9885 468.353C17.153 468.353 17.153 471.106 18.9885 471.106Z" fill="#060905"/>
<path d="M248.25 132.629H119.944V157.776H248.25V132.629Z" fill="#FF80A7"/>
<path d="M121.963 172.644C163.263 172.644 204.747 172.644 246.047 172.644C248.25 172.644 248.25 169.34 246.047 169.34C204.747 169.34 163.263 169.34 121.963 169.34C119.944 169.34 119.761 172.644 121.963 172.644Z" fill="#060905"/>
<path d="M121.963 188.246C163.263 188.246 204.747 188.246 246.047 188.246C248.25 188.246 248.25 184.942 246.047 184.942C204.747 184.942 163.263 184.942 121.963 184.942C119.944 184.942 119.761 188.246 121.963 188.246Z" fill="#060905"/>
<path d="M121.963 201.095C163.263 201.095 204.747 201.095 246.047 201.095C248.25 201.095 248.25 197.791 246.047 197.791C204.747 197.791 163.263 197.791 121.963 197.791C119.944 197.791 119.761 201.095 121.963 201.095Z" fill="#060905"/>
<path d="M121.963 213.21C163.263 213.21 204.747 213.21 246.047 213.21C248.25 213.21 248.25 209.906 246.047 209.906C204.747 209.906 163.263 209.906 121.963 209.906C119.944 209.906 119.761 213.21 121.963 213.21Z" fill="#060905"/>
<path d="M121.963 225.692C163.263 225.692 204.747 225.692 246.047 225.692C248.25 225.692 248.25 222.388 246.047 222.388C204.747 222.388 163.263 222.388 121.963 222.388C119.944 222.388 119.761 225.692 121.963 225.692Z" fill="#060905"/>
<path d="M121.963 239.458C163.263 239.458 204.747 239.458 246.047 239.458C248.25 239.458 248.25 236.154 246.047 236.154C204.747 236.154 163.263 236.154 121.963 236.154C119.944 236.154 119.761 239.458 121.963 239.458Z" fill="#060905"/>
<path d="M104.526 256.529L101.222 262.954L93.8793 263.872L99.2024 268.828L97.9175 275.619L104.526 272.315L110.95 275.619L109.665 268.828L114.988 263.872L107.646 262.954L104.526 256.529Z" fill="#FA8099"/>
<path d="M77.5426 256.529L74.4221 262.954L67.0798 263.872L72.4029 268.828L71.1181 275.619L77.5426 272.315L84.1506 275.619L82.8657 268.828L88.0052 263.872L80.8465 262.954L77.5426 256.529Z" fill="#FA8099"/>
<path d="M50.7435 256.529L47.4395 262.954L40.2808 263.872L45.4203 268.828L44.319 275.619L50.7435 272.315L57.1679 275.619L56.0666 268.828L61.2062 263.872L54.0474 262.954L50.7435 256.529Z" fill="#FA8099"/>
<path d="M23.9444 256.529L20.6404 262.954L13.4817 263.872L18.6213 268.828L17.3364 275.619L23.9444 272.315L30.3688 275.619L29.084 268.828L34.4071 263.872L27.0649 262.954L23.9444 256.529Z" fill="#FA8099"/>
<path d="M112.235 111.887H16.0515V250.839H112.235V111.887Z" stroke="#060905" stroke-miterlimit="10"/>
<path d="M112.235 235.97C89.2904 210.089 64.3268 210.272 64.3268 210.272C42.8507 211.741 25.9636 226.609 16.2351 237.806V250.655H112.419V235.97H112.235Z" fill="#FF9100" stroke="#040404" stroke-miterlimit="10"/>
<path d="M110.583 250.838C98.4683 225.691 82.1318 210.272 64.3269 210.272C46.5219 210.272 30.1854 225.691 18.0707 250.838H110.583Z" fill="#FF9100"/>
<path d="M30.3688 243.681C30.5523 243.13 30.7359 242.396 30.9195 241.845C30.9195 241.661 30.9195 241.294 30.9195 241.111C30.7359 240.927 30.5523 240.744 30.3688 240.744C29.8181 240.56 29.451 240.927 29.2675 241.294C29.0839 241.845 28.9004 242.579 28.7168 243.13C28.7168 243.313 28.7168 243.681 28.7168 243.864C28.9004 244.048 29.0839 244.231 29.2675 244.231C29.8181 244.415 30.1852 244.048 30.3688 243.681Z" fill="white"/>
<path d="M37.5276 237.807C37.7112 237.073 37.8947 236.522 38.2618 235.788C38.4454 235.421 38.0783 234.87 37.7112 234.687C37.1605 234.503 36.7934 234.87 36.6098 235.237C36.4263 235.971 36.2427 236.522 35.8756 237.256C35.692 237.623 36.0592 238.174 36.4263 238.358C36.9769 238.541 37.3441 238.358 37.5276 237.807Z" fill="white"/>
<path d="M39.1796 227.344C39.5467 226.61 40.0974 225.692 40.4645 224.958C40.6481 224.591 40.6481 224.04 40.0974 223.673C39.7303 223.49 39.1796 223.49 38.8125 224.04C38.4454 224.775 37.8947 225.692 37.5276 226.427C37.3441 226.794 37.3441 227.344 37.8947 227.711C38.2618 227.895 38.9961 227.895 39.1796 227.344Z" fill="white"/>
<path d="M46.1547 229.73C46.1547 230.28 46.1547 231.015 46.1547 231.565C46.1547 231.749 46.3383 232.116 46.3383 232.116C46.5218 232.3 46.7054 232.3 46.8889 232.3C47.4396 232.3 47.8067 231.932 47.8067 231.382C47.8067 230.831 47.8067 230.097 47.8067 229.546C47.8067 229.363 47.6232 228.996 47.6232 228.996C47.4396 228.812 47.2561 228.812 47.0725 228.812C46.5218 228.812 46.1547 229.179 46.1547 229.73Z" fill="white"/>
<path d="M43.7684 244.048C43.952 244.782 43.952 245.516 44.1355 246.25C44.1355 246.434 44.3191 246.617 44.5026 246.801C44.6862 246.984 45.0533 246.984 45.2369 246.801C45.4204 246.801 45.6039 246.617 45.7875 246.434V246.25C45.7875 246.067 45.7875 245.883 45.7875 245.7C45.6039 244.965 45.604 244.231 45.4204 243.497C45.4204 243.313 45.2368 243.13 45.0533 242.946C44.8697 242.763 44.5026 242.763 44.3191 242.946C44.1355 242.946 43.952 243.13 43.7684 243.313V243.497C43.7684 243.68 43.7684 243.864 43.7684 244.048Z" fill="white"/>
<path d="M53.4971 237.44C53.6806 238.174 53.6806 238.725 53.8642 239.459C53.8642 239.642 54.0477 239.826 54.2313 240.009C54.4148 240.193 54.7819 240.193 54.9655 240.009C55.1491 240.009 55.3326 239.826 55.5162 239.642C55.6998 239.459 55.6998 239.275 55.5162 238.908C55.3326 238.174 55.3326 237.623 55.1491 236.889C55.1491 236.705 54.9655 236.522 54.782 236.338C54.5984 236.155 54.2313 236.155 54.0477 236.338C53.8642 236.338 53.6806 236.522 53.4971 236.705C53.4971 237.073 53.4971 237.256 53.4971 237.44Z" fill="white"/>
<path d="M62.1241 244.231C62.3077 244.782 62.3077 245.333 62.4912 245.883C62.4912 246.067 62.6748 246.25 62.8584 246.434C63.0419 246.617 63.409 246.617 63.5926 246.434C63.7761 246.434 63.9597 246.25 64.1432 246.067C64.3268 245.883 64.3268 245.7 64.1432 245.333C63.9597 244.782 63.9597 244.231 63.7761 243.681C63.7761 243.497 63.5926 243.313 63.409 243.13C63.2254 242.946 62.8583 242.946 62.6748 243.13C62.4912 243.13 62.3077 243.313 62.1241 243.497C62.1241 243.864 62.1241 244.048 62.1241 244.231Z" fill="white"/>
<path d="M72.9539 238.357C73.1375 238.724 73.1375 239.091 73.1375 239.459V239.275C73.1375 239.459 73.1375 239.826 73.1375 240.009C73.1375 240.193 73.321 240.56 73.321 240.56C73.5046 240.743 73.6882 240.743 73.8717 240.743C74.0553 240.743 74.4224 240.743 74.4224 240.56C74.6059 240.376 74.6059 240.193 74.6059 240.009C74.6059 239.275 74.4223 238.541 74.2388 237.99C74.2388 237.807 74.0553 237.623 73.8717 237.439C73.6882 237.256 73.321 237.256 73.1375 237.439C72.9539 237.439 72.7703 237.623 72.5868 237.807C72.9539 237.99 72.9539 238.174 72.9539 238.357Z" fill="white"/>
<path d="M79.3784 243.681C79.3784 244.048 79.3784 244.231 79.562 244.598C79.562 244.782 79.562 244.782 79.562 244.965C79.562 245.149 79.7455 245.149 79.7455 245.332C79.7455 245.332 79.9291 245.516 80.1126 245.516C80.2962 245.516 80.2962 245.516 80.4798 245.516H80.6633C80.8468 245.516 81.0304 245.332 81.0304 245.332L81.214 245.149C81.214 244.965 81.3975 244.782 81.3975 244.782C81.3975 244.415 81.3975 244.231 81.214 243.864C81.214 243.681 81.214 243.68 81.214 243.497C81.214 243.313 81.0304 243.313 81.0304 243.13C81.0304 243.13 80.8468 242.946 80.6633 242.946C80.4797 242.946 80.4798 242.946 80.2962 242.946H80.1126C79.9291 242.946 79.7455 243.13 79.7455 243.13L79.562 243.313C79.3784 243.313 79.3784 243.497 79.3784 243.681Z" fill="white"/>
<path d="M81.2139 230.832C81.3974 231.566 81.3974 232.117 81.5809 232.851C81.5809 233.034 81.7645 233.218 81.9481 233.402C82.1316 233.585 82.4987 233.585 82.6823 233.402C82.8658 233.402 83.0494 233.218 83.233 233.034C83.4166 232.851 83.4166 232.667 83.233 232.3C83.0494 231.566 83.0494 231.015 82.8659 230.281C82.8659 230.098 82.6823 229.914 82.4987 229.73C82.3152 229.547 81.9481 229.547 81.7645 229.73C81.581 229.73 81.3974 229.914 81.2139 230.098C81.2139 230.465 81.2139 230.648 81.2139 230.832Z" fill="white"/>
<path d="M88.7399 240.927C88.9234 241.478 88.9234 242.212 89.1069 242.763C89.1069 242.946 89.2905 243.13 89.4741 243.313C89.6576 243.497 90.0247 243.497 90.2083 243.313C90.3918 243.313 90.5754 243.13 90.7589 242.946V242.763C90.7589 242.579 90.7589 242.395 90.7589 242.212C90.5754 241.661 90.5754 240.927 90.3919 240.376C90.3919 240.193 90.2083 240.009 90.0247 239.826C89.8412 239.642 89.4741 239.642 89.2905 239.826C89.107 239.826 88.9234 240.009 88.7399 240.193V240.376C88.7399 240.56 88.7399 240.743 88.7399 240.927Z" fill="white"/>
<path d="M90.9422 230.097C90.9422 230.097 90.9422 230.281 91.1258 230.281C90.9422 230.281 90.9422 230.281 90.9422 230.097C91.1258 230.648 91.3094 231.199 91.4929 231.566C91.4929 231.749 91.6765 231.933 91.86 232.116C92.0436 232.3 92.4107 232.3 92.5942 232.116C92.7778 232.116 92.9614 231.933 93.1449 231.749C93.3285 231.566 93.3285 231.382 93.1449 231.015C92.9614 230.281 92.7778 229.73 92.4107 228.996C92.4107 228.812 92.0436 228.629 91.86 228.629C91.6765 228.629 91.3094 228.629 91.1258 228.629C90.9422 228.812 90.7587 228.996 90.7587 229.18V229.363C90.7587 229.914 90.7587 230.097 90.9422 230.097Z" fill="white"/>
<path d="M100.12 244.415C100.304 245.149 100.304 245.883 100.487 246.617C100.487 246.801 100.671 246.985 100.854 247.168C101.038 247.352 101.405 247.352 101.589 247.168C101.772 247.168 101.956 246.985 102.139 246.801C102.323 246.617 102.323 246.434 102.139 246.067C101.956 245.333 101.956 244.598 101.772 243.864C101.772 243.681 101.589 243.497 101.405 243.313C101.222 243.13 100.854 243.13 100.671 243.313C100.487 243.313 100.304 243.497 100.12 243.681C100.12 244.048 100.12 244.231 100.12 244.415Z" fill="white"/>
<path d="M108.013 238.908C108.013 239.091 108.197 239.091 108.197 239.275C108.197 239.275 108.197 239.091 108.013 238.908C108.197 239.459 108.38 240.009 108.564 240.376C108.564 240.56 108.747 240.743 108.931 240.927C109.114 241.111 109.482 241.111 109.665 240.927C109.849 240.927 110.032 240.743 110.216 240.56V240.376C110.216 240.193 110.216 240.009 110.216 239.826C110.032 239.091 109.849 238.541 109.482 237.807C109.298 237.623 109.114 237.439 108.931 237.439C108.747 237.439 108.38 237.439 108.197 237.439C108.013 237.623 107.83 237.807 107.83 237.99C107.83 238.541 107.83 238.724 108.013 238.908Z" fill="white"/>
<path d="M100.854 229.547C100.854 229.914 101.038 230.281 101.038 230.464C101.038 230.648 101.038 230.648 101.222 230.832C101.222 231.015 101.405 231.015 101.405 231.015C101.589 231.015 101.589 231.199 101.772 231.199C101.956 231.199 101.956 231.199 102.139 231.199C102.323 231.199 102.506 231.015 102.69 230.832C102.874 230.648 102.874 230.464 102.69 230.097C102.69 229.73 102.507 229.363 102.507 229.18C102.507 228.996 102.507 228.996 102.323 228.812C102.323 228.629 102.139 228.629 102.139 228.629C101.956 228.629 101.956 228.445 101.772 228.445C101.589 228.445 101.589 228.445 101.405 228.445C101.222 228.445 101.038 228.629 100.854 228.812C100.854 228.996 100.854 229.363 100.854 229.547Z" fill="white"/>
<path d="M86.7206 222.021C86.7206 222.388 86.9042 222.755 86.9042 222.939C86.9042 223.123 86.9041 223.123 87.0877 223.306C87.0877 223.49 87.2713 223.49 87.2713 223.49C87.4548 223.49 87.4548 223.673 87.6384 223.673C87.822 223.673 87.8219 223.673 88.0055 223.673C88.189 223.673 88.3726 223.49 88.5562 223.306C88.7397 223.123 88.7397 222.939 88.5562 222.572C88.5562 222.205 88.3726 221.838 88.3726 221.654C88.3726 221.471 88.3726 221.471 88.189 221.287C88.189 221.103 88.0055 221.103 88.0055 221.103C87.8219 221.103 87.822 220.92 87.6384 220.92C87.4548 220.92 87.4548 220.92 87.2713 220.92C87.0877 220.92 86.9042 221.103 86.7206 221.287C86.7206 221.654 86.5371 221.838 86.7206 222.021Z" fill="white"/>
<path d="M18.2542 239.459C18.2542 240.009 18.2541 240.56 18.4377 240.927C18.4377 241.111 18.4377 241.294 18.6213 241.478C18.8048 241.662 18.9884 241.661 19.1719 241.661C19.3555 241.661 19.7226 241.662 19.7226 241.478C19.9062 241.294 20.0897 241.111 19.9061 240.927C19.9061 240.377 19.9062 239.826 19.7226 239.459C19.7226 239.275 19.7226 239.092 19.539 238.908C19.3555 238.725 19.1719 238.725 18.9884 238.725C18.8048 238.725 18.4377 238.725 18.4377 238.908C18.4377 238.908 18.2542 239.275 18.2542 239.459Z" fill="white"/>
<path d="M24.3115 232.667C24.3115 232.85 24.495 233.034 24.495 233.401C24.495 233.585 24.495 233.585 24.6786 233.768C24.6786 233.952 24.8621 233.952 24.8621 233.952C25.0457 233.952 25.0457 234.135 25.2292 234.135C25.4128 234.135 25.4128 234.135 25.5963 234.135H25.7799C25.9634 234.135 25.9635 233.952 26.147 233.768V233.585C26.147 233.401 26.147 233.217 26.147 233.034C26.147 232.85 25.9635 232.667 25.9635 232.3C25.9635 232.116 25.9634 232.116 25.7799 231.933C25.7799 231.749 25.5963 231.749 25.5963 231.749C25.4128 231.749 25.4128 231.565 25.2292 231.565C25.0457 231.565 25.0457 231.565 24.8621 231.565H24.6786C24.495 231.565 24.495 231.749 24.3115 231.933V232.116C24.3115 232.3 24.3115 232.483 24.3115 232.667Z" fill="white"/>
<path d="M24.4949 250.472C24.6785 249.738 24.862 248.82 25.0456 248.086C25.0456 247.902 25.0456 247.535 24.862 247.351C24.6785 247.168 24.4949 246.984 24.3114 246.984C23.7607 246.984 23.3936 247.168 23.21 247.719C23.0265 248.453 22.8429 249.371 22.6594 250.105C22.6594 250.288 22.6594 250.472 22.8429 250.655H24.3114C24.4949 250.655 24.4949 250.655 24.4949 250.472Z" fill="white"/>
<path d="M37.1604 250.288C37.1604 249.371 37.1604 248.636 37.3439 247.719C37.3439 247.168 36.9768 246.801 36.4261 246.801C35.8755 246.801 35.5084 247.168 35.5084 247.719C35.5084 248.636 35.5084 249.371 35.3248 250.288C35.3248 250.472 35.3248 250.655 35.5084 250.839H36.9768C37.1604 250.655 37.1604 250.472 37.1604 250.288Z" fill="white"/>
<path d="M55.8833 250.656C55.6997 249.921 55.5162 249.004 55.3326 248.269C55.3326 248.086 55.1491 247.902 54.9655 247.719C54.782 247.535 54.4149 247.535 54.2313 247.719C53.6806 247.902 53.4971 248.269 53.6807 248.82C53.8642 249.554 54.0477 250.289 54.0477 251.023H55.8833C55.8833 250.839 55.8833 250.656 55.8833 250.656Z" fill="white"/>
<path d="M72.5868 250.839C72.5868 250.655 72.5868 250.472 72.5868 250.288C72.4032 249.371 72.2197 248.453 72.0361 247.535C71.8526 247.168 71.4855 246.801 70.9348 246.984C70.3841 247.168 70.2006 247.535 70.3841 248.086C70.5677 249.003 70.7512 249.921 70.9348 250.839H72.5868Z" fill="white"/>
<path d="M88.7398 250.656C88.5562 249.921 88.3726 249.004 88.1891 248.269C88.1891 248.086 88.0056 247.902 87.822 247.719C87.6385 247.535 87.2713 247.535 87.0877 247.719C86.5371 247.902 86.3535 248.269 86.5371 248.82C86.7207 249.554 86.9042 250.289 86.9042 251.023H88.7398C88.7398 250.839 88.7398 250.656 88.7398 250.656Z" fill="white"/>
<path d="M64.3254 237.255L80.8454 215.045C78.0921 213.393 75.1552 212.292 72.4019 211.557L72.5854 199.443C72.9525 189.163 68.9143 186.41 64.6925 186.41H61.3885C57.1667 186.41 53.8627 190.081 54.0462 199.259L53.8627 211.924C50.3752 213.026 47.0712 214.861 43.7672 217.064L64.3254 237.255Z" fill="white" stroke="#040404" stroke-width="0.75" stroke-miterlimit="10"/>
<path d="M43.4014 217.432L65.061 241.661L83.7837 216.881C81.2139 215.229 78.6441 213.761 76.0743 212.659L65.061 229.913L50.56 213.21C47.9903 214.311 45.604 215.78 43.4014 217.432Z" fill="#FF9100" stroke="#040404" stroke-width="0.75" stroke-miterlimit="10"/>
<path d="M34.4072 173.378C34.4072 173.378 30.369 160.713 31.2868 145.478C32.7552 120.881 53.8642 119.413 61.9406 119.413C78.0936 119.413 90.7589 125.654 92.5945 140.155C94.43 154.656 89.474 174.663 88.9234 176.866C88.5562 179.436 42.8508 189.531 34.4072 173.378Z" fill="#040404"/>
<path d="M26.5141 175.214C26.3306 179.252 29.6346 182.556 33.4893 182.556C37.5275 182.74 40.8315 179.619 41.0151 175.581C41.1986 171.543 37.8946 168.239 34.0399 168.239C30.0017 168.055 26.6977 171.176 26.5141 175.214Z" fill="white" stroke="#040404" stroke-width="0.75" stroke-miterlimit="10"/>
<path d="M37.1605 176.498C37.1605 176.315 37.1605 176.131 37.1605 175.948C37.1605 175.764 37.1605 175.581 37.1605 175.397C37.1605 175.397 37.1605 175.214 37.1605 175.397V175.214C37.1605 175.03 37.1605 175.03 37.1605 174.846C37.1605 174.663 36.9769 174.479 36.9769 174.112C36.9769 173.929 36.9769 174.296 36.9769 174.112V173.929C36.9769 173.745 36.7934 173.745 36.7934 173.562C36.7934 173.562 36.7934 173.378 36.6098 173.378C36.6098 173.194 36.6098 173.378 36.6098 173.378C36.4263 173.194 36.4263 173.194 36.2427 173.011C36.2427 173.011 36.0592 173.011 36.0592 172.827C35.8756 172.827 36.0592 172.827 36.0592 172.827C35.8756 172.827 35.8756 172.644 35.6921 172.644C35.6921 172.644 35.6921 172.644 35.5085 172.644H35.325C35.1414 172.644 34.9578 172.46 34.7743 172.46C34.7743 172.46 34.5907 172.46 34.7743 172.46H34.5907C34.4072 172.46 34.4072 172.46 34.2236 172.46C34.0401 172.46 33.673 172.46 33.4894 172.46C33.1223 172.46 32.9387 172.277 32.9387 171.91C32.9387 171.542 33.1223 171.359 33.4894 171.359C35.1414 171.175 36.6098 171.726 37.7112 173.011C38.2618 173.745 38.6289 174.846 38.6289 175.764C38.6289 175.948 38.6289 176.131 38.6289 176.315C38.6289 176.682 38.4454 176.866 38.0783 176.866C37.3441 177.049 37.1605 176.682 37.1605 176.498Z" fill="#040404"/>
<path d="M97.734 176.132C97.5504 180.17 94.2464 183.291 90.2081 183.107C86.1699 182.924 83.0495 179.619 83.233 175.765C83.4166 171.727 86.7206 168.606 90.7588 168.79C94.797 168.79 97.9175 172.277 97.734 176.132Z" fill="white" stroke="#040404" stroke-width="0.75" stroke-miterlimit="10"/>
<path d="M85.9863 176.866C85.9863 175.031 86.9041 173.012 88.5561 172.277C89.4739 171.91 90.3917 171.91 91.493 172.094C91.8601 172.094 92.0436 172.461 91.8601 172.828C91.8601 173.195 91.493 173.195 91.1259 173.195C90.3917 173.012 89.6574 173.195 89.1067 173.379C89.1067 173.379 88.9232 173.562 88.9232 173.379C88.9232 173.379 88.7397 173.379 88.7397 173.562C88.5561 173.562 88.5561 173.746 88.3725 173.746C88.189 173.746 88.3725 173.746 88.3725 173.746C88.3725 173.746 88.189 173.746 88.189 173.929C88.0054 174.113 88.0054 174.113 88.0054 174.296C88.0054 174.113 88.0054 174.296 88.0054 174.296C88.0054 174.296 88.0054 174.48 87.8219 174.48C87.8219 174.664 87.6383 174.663 87.6383 174.847V175.031C87.6383 175.031 87.4548 175.214 87.6383 175.031C87.6383 175.214 87.6383 175.214 87.4548 175.398C87.4548 175.581 87.2712 175.765 87.2712 175.948V176.132C87.2712 176.132 87.2712 176.315 87.2712 176.132C87.2712 176.132 87.2712 176.132 87.2712 176.316C87.2712 176.499 87.2712 176.683 87.2712 176.866C87.0876 177.6 85.9863 177.6 85.9863 176.866Z" fill="#040404"/>
<path d="M85.0686 177.784C84.8851 188.613 75.8908 197.424 65.061 197.424H58.6365C47.8067 197.24 38.996 188.246 38.996 177.416L39.1796 156.124C39.3631 145.294 48.3574 136.483 59.1872 136.483H65.6117C76.4415 136.667 85.2521 145.661 85.2521 156.491L85.0686 177.784Z" fill="white" stroke="#040404" stroke-width="0.75" stroke-miterlimit="10"/>
<path d="M51.6614 177.233C51.4779 180.353 48.541 182.739 45.4205 182.556C42.3001 182.372 39.9138 179.435 40.0974 176.315C40.2809 173.195 43.2179 170.808 46.3383 170.992C49.6423 171.175 51.845 174.112 51.6614 177.233Z" fill="#E1ADC5"/>
<path d="M83.2329 177.233C83.0494 180.353 80.1124 182.739 76.992 182.556C73.8715 182.372 71.4853 179.435 71.6689 176.315C71.8524 173.195 74.7893 170.808 77.9097 170.992C81.2138 171.175 83.6 174.112 83.2329 177.233Z" fill="#E1ADC5"/>
<path d="M39.1796 177.783C39.1796 177.783 47.4396 179.435 52.2121 177.233C56.9846 175.03 66.3459 172.644 73.5046 177.233C80.6633 181.822 85.2522 179.435 85.2522 179.435C85.2522 179.435 84.7016 192.651 73.1375 195.772C61.5735 198.709 49.8259 197.607 44.3192 190.816C38.8125 183.841 39.1796 179.068 39.1796 177.783Z" fill="#040404"/>
<path d="M36.4263 152.453C36.4263 152.453 60.2886 148.415 70.3842 141.99C70.3842 141.99 83.2331 156.308 85.4357 158.143C87.6384 159.979 90.5753 144.193 84.1509 138.87C77.7264 133.547 55.8832 130.059 55.8832 130.059L39.3632 137.218L36.4263 152.453Z" fill="#040404"/>
<path d="M62.1243 162.181L59.5544 172.827L65.0611 172.644L62.1243 162.181Z" fill="#D56981"/>
<path d="M58.453 180.537C58.6366 182.74 60.6557 184.576 62.8583 184.576C65.2446 184.576 67.0801 182.924 67.4472 180.537H58.453Z" fill="#F9F5F4" stroke="#040404" stroke-width="0.5" stroke-miterlimit="10"/>
<path d="M50.0093 166.403C50.0093 167.871 48.7244 168.973 47.256 168.973C45.7875 168.973 44.6862 167.688 44.6862 166.219C44.6862 164.751 45.9711 163.65 47.4396 163.65C48.908 163.65 50.1929 164.935 50.0093 166.403Z" fill="#040404"/>
<path d="M78.2771 166.403C78.2771 167.871 76.9922 168.973 75.5238 168.973C74.0553 168.973 72.954 167.688 72.954 166.219C72.954 164.751 74.2389 163.65 75.7073 163.65C77.1758 163.65 78.2771 164.935 78.2771 166.403Z" fill="#040404"/>
<path d="M30.9196 229.73C26.1472 235.604 21.9254 242.762 17.8871 250.839H110.399C106.728 243.13 102.506 236.338 98.1011 230.648" stroke="#040404" stroke-miterlimit="10"/>
<path d="M262.075 53.5835H42.9094V269.996H262.075V53.5835Z" fill="white" stroke="#060905" stroke-miterlimit="10"/>
<path d="M214.168 149.583C207.928 149.583 201.503 149.032 195.262 149.583C195.079 149.583 195.079 149.583 194.895 149.583C192.876 149.583 192.876 152.703 194.895 152.703C200.035 152.703 205.174 152.703 210.497 152.703C222.796 152.703 235.277 152.703 247.576 152.703C248.31 152.703 249.044 152.703 249.962 152.703C250.145 151.602 250.329 150.5 250.329 149.583C238.214 149.583 226.1 149.583 214.168 149.583Z" fill="#060905"/>
<path d="M246.106 169.224C235.46 169.224 224.814 169.224 214.167 169.224C207.926 169.224 201.502 168.673 195.261 169.224C195.078 169.224 195.078 169.224 194.894 169.224C192.875 169.224 192.875 172.344 194.894 172.344C200.034 172.344 205.173 172.344 210.496 172.344C222.06 172.344 233.441 172.344 245.005 172.344C245.372 171.426 245.739 170.325 246.106 169.224Z" fill="#060905"/>
<path d="M239.498 185.377C231.055 185.377 222.611 185.377 214.167 185.377C207.926 185.377 201.502 184.826 195.261 185.377C195.078 185.377 195.078 185.377 194.894 185.377C192.875 185.377 192.875 188.497 194.894 188.497C200.034 188.497 205.173 188.497 210.496 188.497C219.674 188.497 228.668 188.497 237.846 188.497C238.397 187.579 238.947 186.478 239.498 185.377Z" fill="#060905"/>
<path d="M230.32 200.796C224.814 200.796 219.49 200.796 213.984 200.796C207.743 200.796 201.318 200.245 195.077 200.796C194.894 200.796 194.894 200.796 194.71 200.796C192.691 200.796 192.691 203.916 194.71 203.916C199.85 203.916 204.99 203.916 210.313 203.916C216.186 203.916 222.06 203.916 227.934 203.916C228.852 202.815 229.586 201.897 230.32 200.796Z" fill="#060905"/>
<path d="M214.167 216.398C207.926 216.398 201.502 215.847 195.261 216.398C195.078 216.398 195.078 216.398 194.894 216.398C192.875 216.398 192.875 219.519 194.894 219.519C200.034 219.519 205.173 219.519 210.496 219.519C211.598 219.519 212.515 219.519 213.617 219.519C214.718 218.417 215.819 217.316 216.921 216.398C216.003 216.398 215.085 216.398 214.167 216.398Z" fill="#060905"/>
<path d="M246.657 103.144H192.324V134.715H251.246C251.246 123.885 249.594 113.239 246.657 103.144Z" fill="#FF80A7"/>
<path d="M182.596 76.8953H61.8158V251.457H182.596V76.8953Z" stroke="#060905" stroke-miterlimit="10"/>
<path d="M182.779 232.917C153.961 200.428 122.573 200.611 122.573 200.611C95.5901 202.447 74.2976 221.17 61.9994 235.303V251.64H182.779V232.917Z" fill="#FF9100" stroke="#040404" stroke-miterlimit="10"/>
<path d="M180.576 251.64C165.341 220.068 144.783 200.611 122.389 200.611C99.9953 200.611 79.6206 219.885 64.2019 251.64H180.576Z" fill="#FF9100"/>
<path d="M79.8043 242.646C79.9878 241.911 80.3549 241.177 80.5385 240.259C80.5385 240.076 80.5385 239.709 80.3549 239.342C80.1713 239.158 79.9878 238.974 79.6207 238.791C79.07 238.607 78.5194 238.974 78.3358 239.525C78.1522 240.259 77.7851 240.994 77.6016 241.911C77.6016 242.095 77.6016 242.462 77.7851 242.829C77.9687 243.013 78.1522 243.196 78.5193 243.38C79.07 243.563 79.6207 243.196 79.8043 242.646Z" fill="white"/>
<path d="M88.7984 235.304C88.982 234.386 89.3491 233.652 89.5327 232.734C89.7162 232.183 89.3491 231.449 88.7984 231.449C88.2478 231.266 87.6971 231.633 87.5136 232.183C87.33 233.101 86.9629 233.835 86.7793 234.753C86.5958 235.304 86.9629 236.038 87.5136 236.038C88.0642 236.222 88.6149 235.854 88.7984 235.304Z" fill="white"/>
<path d="M90.8177 222.271C91.3683 221.353 91.919 220.252 92.4697 219.334C92.6532 218.783 92.6532 218.049 92.1025 217.866C91.5519 217.682 90.8176 217.682 90.6341 218.233C90.0834 219.151 89.5328 220.252 88.9821 221.17C88.7985 221.72 88.7985 222.455 89.3492 222.638C89.8999 222.822 90.6341 222.822 90.8177 222.271Z" fill="white"/>
<path d="M99.6283 225.025C99.6283 225.759 99.6283 226.493 99.6283 227.411C99.6283 227.778 99.8119 227.962 99.9954 228.145C100.179 228.329 100.546 228.512 100.73 228.512C101.28 228.512 101.831 227.962 101.831 227.411C101.831 226.677 101.831 225.942 101.831 225.025C101.831 224.658 101.647 224.474 101.464 224.29C101.28 224.107 100.913 223.923 100.73 223.923C100.179 223.923 99.6283 224.474 99.6283 225.025Z" fill="white"/>
<path d="M96.6914 243.013C96.8749 243.931 96.8749 244.848 97.0585 245.766C97.0585 245.95 97.4256 246.317 97.6092 246.5C97.7927 246.684 98.1598 246.684 98.5269 246.684C98.7105 246.684 99.0776 246.5 99.2612 246.133C99.2612 246.133 99.2612 245.95 99.4447 245.95C99.4447 245.766 99.4447 245.583 99.4447 245.399C99.2612 244.481 99.2612 243.564 99.0776 242.646C99.0776 242.462 98.7105 242.095 98.5269 241.912C98.3434 241.728 97.9763 241.728 97.6092 241.728C97.4256 241.728 97.0585 241.912 96.8749 242.279C96.8749 242.279 96.8749 242.462 96.6914 242.462C96.5078 242.646 96.5078 242.829 96.6914 243.013Z" fill="white"/>
<path d="M108.99 234.753C109.173 235.487 109.357 236.405 109.54 237.139C109.54 237.322 109.907 237.69 110.091 237.873C110.275 238.057 110.642 238.057 111.009 238.057C111.192 238.057 111.559 237.873 111.743 237.506C111.927 237.322 111.927 236.955 111.927 236.588C111.743 235.854 111.559 234.936 111.376 234.202C111.376 234.018 111.009 233.651 110.825 233.468C110.642 233.284 110.275 233.284 109.907 233.284C109.724 233.284 109.357 233.468 109.173 233.835C108.806 234.202 108.806 234.569 108.99 234.753Z" fill="white"/>
<path d="M119.819 243.38C120.003 244.114 120.187 244.848 120.187 245.399C120.187 245.582 120.554 245.949 120.737 246.133C120.921 246.316 121.288 246.316 121.655 246.316C121.839 246.316 122.206 246.133 122.389 245.766C122.573 245.582 122.573 245.215 122.573 244.848C122.389 244.114 122.206 243.38 122.206 242.829C122.206 242.645 121.839 242.278 121.655 242.095C121.471 241.911 121.104 241.911 120.737 241.911C120.554 241.911 120.187 242.095 120.003 242.462C119.819 242.829 119.636 243.196 119.819 243.38Z" fill="white"/>
<path d="M133.403 236.038C133.586 236.405 133.586 236.956 133.77 237.506C133.77 237.323 133.77 237.323 133.77 237.139C133.77 237.506 133.77 237.69 133.77 238.057C133.77 238.424 133.953 238.608 134.137 238.791C134.32 238.975 134.688 239.158 134.871 239.158C135.238 239.158 135.422 238.975 135.605 238.791C135.789 238.608 135.972 238.24 135.972 238.057C135.972 237.139 135.789 236.221 135.605 235.487C135.605 235.304 135.422 234.936 135.055 234.753C134.871 234.569 134.504 234.569 134.137 234.569C133.953 234.569 133.586 234.753 133.403 235.12C133.403 235.487 133.219 235.671 133.403 236.038Z" fill="white"/>
<path d="M141.296 242.462C141.296 242.829 141.296 243.196 141.479 243.564C141.479 243.747 141.479 243.931 141.663 243.931C141.663 244.114 141.846 244.114 141.846 244.298C142.03 244.481 142.03 244.481 142.213 244.481C142.397 244.481 142.58 244.665 142.58 244.665C142.764 244.665 142.764 244.665 142.948 244.665C143.131 244.665 143.315 244.481 143.498 244.298L143.682 244.114C143.865 243.931 143.865 243.747 143.865 243.564C143.865 243.196 143.865 242.829 143.682 242.462C143.682 242.279 143.682 242.095 143.498 242.095C143.498 241.912 143.315 241.912 143.315 241.728C143.131 241.544 143.131 241.544 142.948 241.544C142.764 241.544 142.58 241.361 142.58 241.361C142.397 241.361 142.397 241.361 142.213 241.361C142.03 241.361 141.846 241.544 141.663 241.728L141.479 241.912C141.296 242.095 141.296 242.279 141.296 242.462Z" fill="white"/>
<path d="M143.682 226.493C143.865 227.411 144.049 228.145 144.232 229.063C144.232 229.246 144.599 229.613 144.783 229.797C144.967 229.98 145.334 229.98 145.701 229.98C145.884 229.98 146.251 229.797 146.435 229.43C146.619 229.063 146.619 228.879 146.619 228.512C146.435 227.594 146.251 226.86 146.068 225.942C146.068 225.759 145.701 225.392 145.517 225.208C145.334 225.024 144.967 225.024 144.599 225.024C144.416 225.024 144.049 225.208 143.865 225.575C143.682 225.942 143.682 226.309 143.682 226.493Z" fill="white"/>
<path d="M153.227 238.975C153.41 239.709 153.41 240.443 153.594 241.361C153.594 241.545 153.961 241.912 154.144 242.095C154.328 242.279 154.695 242.279 155.062 242.279C155.246 242.279 155.613 242.095 155.796 241.728C155.796 241.728 155.796 241.545 155.98 241.545C155.98 241.361 155.98 241.178 155.98 240.994C155.796 240.26 155.796 239.526 155.613 238.608C155.613 238.424 155.246 238.057 155.062 237.874C154.879 237.69 154.512 237.69 154.144 237.69C153.961 237.69 153.594 237.874 153.41 238.241C153.41 238.241 153.41 238.424 153.227 238.424C153.227 238.608 153.227 238.791 153.227 238.975Z" fill="white"/>
<path d="M155.98 225.575C155.98 225.759 156.164 225.759 156.164 225.942C155.98 225.942 155.98 225.759 155.98 225.575C156.347 226.31 156.531 226.86 156.714 227.411C156.714 227.594 157.081 227.962 157.265 228.145C157.448 228.329 157.815 228.329 158.183 228.329C158.366 228.329 158.733 228.145 158.917 227.778C159.1 227.594 159.1 227.227 159.1 226.86C158.917 225.942 158.55 225.208 158.183 224.474C157.999 224.29 157.815 224.107 157.448 223.923C157.265 223.923 156.898 223.923 156.531 224.107C156.347 224.29 156.164 224.474 155.98 224.841C155.98 225.025 155.98 225.025 155.98 225.208C155.796 225.208 155.796 225.392 155.98 225.575Z" fill="white"/>
<path d="M167.544 243.564C167.728 244.481 167.911 245.399 168.095 246.317C168.095 246.501 168.462 246.868 168.645 247.051C168.829 247.235 169.196 247.235 169.563 247.235C169.747 247.235 170.114 247.051 170.297 246.684C170.481 246.317 170.481 246.133 170.481 245.766C170.298 244.849 170.114 243.931 169.93 243.013C169.93 242.829 169.563 242.462 169.38 242.279C169.196 242.095 168.829 242.095 168.462 242.095C168.278 242.095 167.911 242.279 167.728 242.646C167.361 243.013 167.361 243.38 167.544 243.564Z" fill="white"/>
<path d="M177.456 236.589C177.456 236.772 177.64 236.956 177.64 237.139C177.64 237.139 177.64 236.956 177.456 236.956C177.64 237.506 177.823 238.057 178.007 238.608C178.007 238.791 178.374 239.158 178.557 239.342C178.741 239.525 179.108 239.525 179.475 239.525C179.659 239.525 180.026 239.342 180.209 238.975C180.209 238.975 180.209 238.791 180.393 238.791C180.393 238.608 180.393 238.424 180.393 238.241C180.209 237.323 180.026 236.589 179.475 235.854C179.292 235.671 179.108 235.487 178.741 235.304C178.557 235.304 178.19 235.304 177.823 235.487C177.64 235.671 177.456 235.854 177.272 236.221C177.272 236.038 177.272 236.405 177.456 236.589Z" fill="white"/>
<path d="M168.462 224.84C168.645 225.208 168.645 225.575 168.829 226.125C168.829 226.309 169.013 226.309 169.013 226.493C169.013 226.676 169.196 226.676 169.38 226.86C169.563 226.86 169.563 227.043 169.747 227.043C169.93 227.043 170.114 227.043 170.114 227.043C170.297 227.043 170.665 226.86 170.848 226.493C171.032 226.309 171.032 225.942 171.032 225.575C170.848 225.208 170.848 224.841 170.665 224.29C170.665 224.106 170.481 224.106 170.481 223.923C170.481 223.739 170.297 223.739 170.114 223.556C169.93 223.556 169.93 223.372 169.747 223.372C169.563 223.372 169.38 223.372 169.38 223.372C169.196 223.372 168.829 223.556 168.645 223.923C168.462 224.29 168.278 224.473 168.462 224.84Z" fill="white"/>
<path d="M150.657 215.48C150.841 215.847 150.84 216.214 151.024 216.765C151.024 216.948 151.208 216.948 151.208 217.132C151.208 217.315 151.391 217.315 151.575 217.499C151.758 217.499 151.758 217.682 151.942 217.682C152.125 217.682 152.309 217.682 152.309 217.682C152.493 217.682 152.86 217.499 153.043 217.132C153.227 216.948 153.227 216.581 153.227 216.214C153.043 215.847 153.043 215.48 152.86 214.929C152.86 214.745 152.676 214.745 152.676 214.562C152.676 214.378 152.493 214.378 152.309 214.195C152.125 214.195 152.125 214.011 151.942 214.011C151.758 214.011 151.575 214.011 151.575 214.011C151.391 214.011 151.024 214.195 150.84 214.562C150.473 214.929 150.473 215.113 150.657 215.48Z" fill="white"/>
<path d="M64.7527 237.323C64.7527 238.057 64.7527 238.607 64.9362 239.342C64.9362 239.709 65.1198 239.892 65.3033 240.076C65.4869 240.259 65.854 240.443 66.0376 240.443C66.4047 240.443 66.5882 240.259 66.7718 240.076C66.9554 239.892 67.1389 239.525 67.1389 239.342C67.1389 238.607 67.1389 238.057 66.9554 237.323C66.9554 236.955 66.7718 236.772 66.5882 236.588C66.4047 236.405 66.0376 236.221 65.854 236.221C65.4869 236.221 65.3034 236.405 65.1198 236.588C64.7527 236.772 64.5691 236.955 64.7527 237.323Z" fill="white"/>
<path d="M72.2784 228.696C72.2784 229.063 72.462 229.247 72.462 229.614C72.462 229.797 72.6455 229.797 72.6455 229.981C72.6455 230.164 72.8291 230.164 73.0126 230.348C73.1962 230.348 73.1962 230.532 73.3798 230.532C73.5633 230.532 73.7469 230.532 73.7469 230.532C73.7469 230.532 73.9304 230.532 73.9304 230.348C74.114 230.164 74.2975 230.164 74.2975 229.981C74.2975 229.981 74.2975 229.797 74.4811 229.797C74.4811 229.614 74.4811 229.43 74.4811 229.247C74.4811 228.88 74.2975 228.696 74.2975 228.329C74.2975 228.145 74.114 228.145 74.114 227.962C74.114 227.778 73.9304 227.778 73.7469 227.595C73.5633 227.595 73.5633 227.411 73.3798 227.411C73.1962 227.411 73.0126 227.411 73.0126 227.411C73.0126 227.411 72.8291 227.411 72.8291 227.595C72.6455 227.778 72.462 227.778 72.462 227.962C72.462 227.962 72.462 228.145 72.2784 228.145C72.0949 228.329 72.0949 228.512 72.2784 228.696Z" fill="white"/>
<path d="M72.462 251.273C72.6455 250.355 73.0126 249.253 73.1962 248.336C73.1962 248.152 73.1962 247.785 73.0126 247.601C72.8291 247.418 72.6455 247.234 72.2784 247.234C71.7277 247.234 71.1771 247.601 70.9935 248.152C70.81 249.07 70.4428 250.171 70.2593 251.089C70.2593 251.273 70.2593 251.64 70.4428 251.823H72.2784C72.2784 251.456 72.462 251.273 72.462 251.273Z" fill="white"/>
<path d="M88.4314 251.09C88.4314 249.989 88.4314 249.071 88.615 247.97C88.615 247.419 88.0643 246.868 87.5136 246.868C86.963 246.868 86.4123 247.419 86.4123 247.97C86.4123 249.071 86.4123 249.989 86.2288 251.09C86.2288 251.274 86.2287 251.457 86.4123 251.641H88.2479C88.2479 251.457 88.4314 251.274 88.4314 251.09Z" fill="white"/>
<path d="M111.743 251.273C111.559 250.171 111.376 249.253 111.192 248.152C111.192 247.969 110.825 247.601 110.642 247.418C110.458 247.234 110.091 247.234 109.724 247.234C109.173 247.418 108.806 247.969 108.99 248.519C109.173 249.437 109.357 250.355 109.54 251.273H111.743C111.743 251.456 111.743 251.456 111.743 251.273Z" fill="white"/>
<path d="M132.852 251.456C132.852 251.272 132.852 251.089 132.852 250.905C132.668 249.804 132.485 248.703 132.118 247.418C131.934 246.867 131.384 246.5 130.833 246.683C130.282 246.867 129.915 247.418 130.099 247.968C130.466 249.07 130.649 250.171 130.833 251.456H132.852C132.852 251.639 132.852 251.639 132.852 251.456Z" fill="white"/>
<path d="M153.227 251.273C153.043 250.171 152.86 249.253 152.676 248.152C152.676 247.969 152.309 247.601 152.126 247.418C151.942 247.234 151.575 247.234 151.208 247.234C150.657 247.418 150.29 247.969 150.474 248.519C150.657 249.437 150.841 250.355 151.024 251.273H153.227C153.227 251.456 153.227 251.456 153.227 251.273Z" fill="white"/>
<path d="M122.389 234.57L143.315 206.486C139.827 204.467 136.339 202.998 132.668 202.08L132.852 186.845C133.403 173.996 128.263 170.509 122.94 170.509H118.902C113.578 170.509 109.357 175.281 109.724 186.662L109.54 202.631C105.318 204.1 101.097 206.302 96.8749 209.056L122.389 234.57Z" fill="white" stroke="#040404" stroke-width="0.75" stroke-miterlimit="10"/>
<path d="M96.1406 209.606L123.49 240.076L147.169 208.871C144.049 206.669 140.745 205.017 137.441 203.548L123.49 225.208L105.135 204.283C102.014 205.751 99.0775 207.587 96.1406 209.606Z" fill="#FF9100" stroke="#040404" stroke-width="0.75" stroke-miterlimit="10"/>
<path d="M84.9439 154.172C84.9439 154.172 79.8044 138.202 81.0893 119.112C83.1084 88.275 109.54 86.4395 119.636 86.4395C140.011 86.4395 155.797 94.3324 157.999 112.504C160.202 130.676 153.961 155.824 153.41 158.761C152.86 161.881 95.5902 174.546 84.9439 154.172Z" fill="#040404"/>
<path d="M75.0317 156.558C74.8481 161.514 78.8863 165.736 83.8424 165.92C88.7984 166.103 93.0201 162.065 93.2037 157.109C93.3873 152.153 89.349 147.931 84.393 147.748C79.2535 147.564 75.2152 151.419 75.0317 156.558Z" fill="white" stroke="#040404" stroke-width="0.75" stroke-miterlimit="10"/>
<path d="M88.2476 158.21C88.2476 158.026 88.2476 157.843 88.2476 157.659C88.2476 157.476 88.2476 157.292 88.2476 157.109C88.2476 157.109 88.2476 156.925 88.2476 157.109V156.925C88.2476 156.742 88.2476 156.558 88.2476 156.558C88.2476 156.191 88.0641 156.007 88.0641 155.64C88.0641 155.457 88.0641 155.824 88.0641 155.64V155.457C88.0641 155.273 87.8805 155.09 87.8805 155.09C87.8805 155.09 87.8805 154.906 87.697 154.906C87.5134 154.722 87.697 154.906 87.697 154.906C87.5134 154.722 87.5134 154.722 87.3299 154.539L87.1463 154.355C86.9628 154.172 87.3299 154.355 87.1463 154.355C87.1463 154.355 87.1463 154.355 86.9628 154.355C86.7792 154.172 86.5956 154.172 86.4121 153.988C86.4121 153.988 86.4121 153.988 86.2285 153.988C86.2285 153.988 86.2285 153.988 86.045 153.988C85.8614 153.988 85.8614 153.988 85.6779 153.805C85.4943 153.805 85.1272 153.621 84.9436 153.621C84.9436 153.621 84.7601 153.621 84.9436 153.621H84.7601C84.5765 153.621 84.393 153.621 84.393 153.621C84.0259 153.621 83.6588 153.621 83.4752 153.621C83.1081 153.621 82.741 153.254 82.741 152.887C82.741 152.52 83.1081 152.153 83.4752 152.153C85.4943 151.969 87.5134 152.52 88.7983 154.172C89.5325 155.273 89.8997 156.558 89.8997 157.659C89.8997 157.843 89.8997 158.21 89.8997 158.394C89.8997 158.761 89.5325 159.128 89.1654 159.128C88.6148 158.761 88.2476 158.577 88.2476 158.21Z" fill="#040404"/>
<path d="M164.607 157.843C164.424 162.799 160.202 166.837 155.246 166.654C150.29 166.47 146.252 162.248 146.435 157.292C146.619 152.336 150.841 148.298 155.797 148.482C160.753 148.665 164.607 152.887 164.607 157.843Z" fill="white" stroke="#040404" stroke-width="0.75" stroke-miterlimit="10"/>
<path d="M149.739 158.577C149.739 156.191 150.841 153.805 153.043 152.887C154.145 152.337 155.429 152.52 156.714 152.52C157.081 152.52 157.265 153.071 157.265 153.438C157.081 153.805 156.714 153.989 156.347 153.989C155.429 153.805 154.512 153.805 153.777 154.172C153.777 154.172 153.41 154.356 153.594 154.172C153.594 154.172 153.41 154.172 153.41 154.356C153.227 154.356 153.043 154.539 152.86 154.723C152.676 154.906 152.86 154.723 152.676 154.723L152.493 154.906C152.309 155.09 152.309 155.09 152.125 155.273C152.309 155.09 152.125 155.273 152.125 155.273C152.125 155.273 152.125 155.457 151.942 155.457C151.942 155.641 151.758 155.824 151.758 155.824C151.758 155.824 151.758 156.008 151.575 156.008C151.575 156.008 151.391 156.375 151.575 156.008C151.575 156.191 151.391 156.191 151.391 156.375C151.391 156.558 151.208 156.925 151.208 157.109C151.208 157.293 151.208 157.293 151.208 157.476C151.208 157.476 151.208 157.66 151.208 157.476V157.66C151.208 157.843 151.208 158.21 151.208 158.394C151.208 159.495 149.739 159.495 149.739 158.577Z" fill="#040404"/>
<path d="M148.638 159.862C148.454 173.445 137.257 184.642 123.49 184.458H115.414C101.831 184.275 90.634 173.078 90.8175 159.311L91.0011 132.512C91.1846 118.929 102.382 107.732 116.148 107.916H124.225C137.808 108.099 149.005 119.296 148.821 133.063L148.638 159.862Z" fill="white" stroke="#040404" stroke-width="0.75" stroke-miterlimit="10"/>
<path d="M106.603 159.128C106.236 163.166 102.749 166.103 98.7105 165.736C94.6723 165.368 91.7354 161.881 92.1025 157.843C92.4696 153.804 95.9572 150.867 99.9954 151.235C104.034 151.602 106.971 155.089 106.603 159.128Z" fill="#FA8099"/>
<path d="M146.252 159.128C145.885 163.166 142.397 166.103 138.359 165.736C134.321 165.368 131.384 161.881 131.751 157.843C132.118 153.804 135.605 150.867 139.644 151.235C143.682 151.602 146.619 155.089 146.252 159.128Z" fill="#FA8099"/>
<path d="M91.0014 159.862C91.0014 159.862 101.281 162.065 107.338 159.128C113.395 156.374 125.143 153.254 133.953 159.128C142.948 165.001 148.638 161.881 148.638 161.881C148.638 161.881 147.904 178.585 133.403 182.256C118.902 186.11 104.217 184.642 97.2423 176.015C90.4507 167.571 90.8178 161.33 91.0014 159.862Z" fill="#040404"/>
<path d="M87.5138 127.923C87.5138 127.923 117.433 122.783 130.099 114.707C130.099 114.707 146.252 132.879 149.005 135.082C151.758 137.284 155.43 117.46 147.353 110.852C139.277 104.244 111.927 99.6553 111.927 99.6553L91.0013 108.65L87.5138 127.923Z" fill="#040404"/>
<path d="M119.636 140.221L116.332 153.437H123.307L119.636 140.221Z" fill="#FA8099"/>
<path d="M115.047 163.35C115.414 166.103 117.8 168.306 120.737 168.489C123.674 168.489 126.06 166.287 126.427 163.533L115.047 163.35Z" fill="#F9F5F4" stroke="#040404" stroke-width="0.5" stroke-miterlimit="10"/>
<path d="M104.584 145.361C104.584 147.197 102.932 148.665 101.097 148.481C99.2612 148.481 97.7928 146.829 97.9763 144.994C97.9763 143.158 99.6283 141.69 101.464 141.873C103.116 142.057 104.584 143.525 104.584 145.361Z" fill="#040404"/>
<path d="M140.011 145.361C140.011 147.197 138.359 148.665 136.523 148.481C134.688 148.481 133.219 146.829 133.403 144.994C133.403 143.158 135.055 141.69 136.89 141.873C138.542 142.057 140.011 143.525 140.011 145.361Z" fill="#040404"/>
<path d="M80.5384 225.024C74.6646 232.367 69.1579 241.361 64.2019 251.456H180.576C175.804 241.728 170.664 233.101 165.158 225.942" stroke="#040404" stroke-miterlimit="10"/>
<path d="M470.778 622.423L500.514 655.463L529.333 636.74L499.046 599.662L470.778 622.423Z" fill="white" stroke="#6A3EF3" stroke-miterlimit="10"/>
<path d="M474.816 618.935L506.021 652.159" stroke="#6A3EF3" stroke-miterlimit="10"/>
<path d="M481.057 614.164L512.262 647.204" stroke="#6A3EF3" stroke-miterlimit="10"/>
<path d="M486.38 608.84L517.034 643.532" stroke="#6A3EF3" stroke-miterlimit="10"/>
<path d="M491.887 604.802L522.908 639.677" stroke="#6A3EF3" stroke-miterlimit="10"/>
<path d="M488.583 740.633L571 668.679L526.579 621.505L490.235 657.849L505.654 678.04L488.583 740.633Z" fill="white" stroke="#060905" stroke-miterlimit="10"/>
<path d="M494.824 698.967L509.692 705.759" stroke="#070707" stroke-miterlimit="10"/>
<path d="M498.862 688.137L513.73 695.112" stroke="#070707" stroke-miterlimit="10"/>
<path d="M503.084 681.529C503.084 681.529 474.266 691.441 472.614 682.447C469.677 667.763 503.084 681.529 503.084 681.529Z" stroke="#070707" stroke-miterlimit="10"/>
<path d="M480.507 665.192L504.002 681.345" stroke="#070707" stroke-miterlimit="10"/>
<path d="M516.3 671.983C521.256 677.49 529.516 677.857 534.839 672.901C540.346 667.945 540.713 659.685 535.757 654.362C530.801 648.855 522.541 648.488 517.218 653.444C511.895 658.216 511.528 666.476 516.3 671.983Z" fill="#FF9100"/>
<path d="M462.518 645.001L517.034 599.663L479.772 520.917L459.765 413.17L390.38 422.348L408.369 553.04L462.518 645.001Z" fill="white" stroke="#060905" stroke-miterlimit="10"/>
<path d="M392.767 641.33V685.75L426.725 691.257L429.111 643.349L392.767 641.33Z" fill="white" stroke="#6A3EF3" stroke-miterlimit="10"/>
<path d="M398.09 641.514L399.191 687.036" stroke="#6A3EF3" stroke-miterlimit="10"/>
<path d="M405.983 642.064L407.084 687.402" stroke="#6A3EF3" stroke-miterlimit="10"/>
<path d="M413.325 641.697L413.141 687.953" stroke="#6A3EF3" stroke-miterlimit="10"/>
<path d="M420.117 642.431L419.933 689.054" stroke="#6A3EF3" stroke-miterlimit="10"/>
<path d="M327.054 741.185L436.453 742.653L434.801 678.042L383.589 680.795L381.57 705.942L327.054 741.185Z" fill="white" stroke="#060905" stroke-miterlimit="10"/>
<path d="M359.543 714.385L365.968 729.437" stroke="#070707" stroke-miterlimit="10"/>
<path d="M369.639 709.061L376.247 724.113" stroke="#070707" stroke-miterlimit="10"/>
<path d="M377.348 706.859C377.348 706.859 349.264 695.112 354.037 687.035C361.746 674.37 377.348 706.859 377.348 706.859Z" stroke="#070707" stroke-miterlimit="10"/>
<path d="M371.291 679.693L378.082 707.41" stroke="#070707" stroke-miterlimit="10"/>
<path d="M393.501 708.695C393.501 716.037 399.375 721.911 406.717 721.911C414.059 721.911 419.933 716.037 419.933 708.695C419.933 701.353 414.059 695.479 406.717 695.479C399.375 695.479 393.501 701.353 393.501 708.695Z" fill="#FF9100"/>
<path d="M462.518 418.676L445.631 658.767H373.31L360.278 414.821L462.518 418.676Z" fill="white" stroke="#060905" stroke-miterlimit="10"/>
<path d="M419.75 459.61C410.388 461.445 398.641 459.61 391.849 452.451C385.057 445.292 383.222 433.177 384.14 423.816C384.323 421.981 387.077 421.981 386.893 423.816C385.975 431.893 387.444 441.438 391.849 448.229C397.539 456.489 409.47 458.875 418.832 457.04C420.851 456.673 421.585 459.426 419.75 459.61Z" fill="#060905"/>
<path d="M284.469 295.51L300.255 280.275C300.255 280.275 285.019 264.856 282.083 261.552C278.962 258.248 274.924 255.495 271.436 258.799C267.949 262.103 264.828 274.401 267.949 278.072C271.069 281.56 284.469 295.51 284.469 295.51Z" fill="white"/>
<path d="M280.247 299.548L299.704 272.382L355.138 291.472L405.799 235.12L433.333 323.043C408.002 349.843 365.968 370.217 348.713 364.711C328.889 358.47 289.608 310.378 289.608 310.378L280.247 299.548Z" fill="#6A3EF3" stroke="#060905" stroke-miterlimit="10"/>
<path d="M312.92 278.073L289.425 310.746C283.735 304.321 280.064 299.732 280.064 299.732L299.521 272.566L312.92 278.073Z" fill="white" stroke="#060905" stroke-miterlimit="10"/>
<path d="M297.318 275.319L309.8 282.478" stroke="#060905" stroke-miterlimit="10"/>
<path d="M293.647 280.643L305.394 288.535" stroke="#060905" stroke-miterlimit="10"/>
<path d="M289.609 286.333L300.989 294.593" stroke="#060905" stroke-miterlimit="10"/>
<path d="M285.937 291.656L296.583 300.65" stroke="#060905" stroke-miterlimit="10"/>
<path d="M283 295.51L293.28 305.422" stroke="#060905" stroke-miterlimit="10"/>
<path d="M370.373 281.376L375.88 282.294L381.386 283.212L379.367 278.072L377.532 272.749L373.861 277.154L370.373 281.376Z" stroke="white" stroke-width="0.5" stroke-miterlimit="10"/>
<path d="M374.228 302.669L379.918 302.852L385.425 303.036L382.855 298.08L380.102 293.124L377.165 297.896L374.228 302.669Z" stroke="white" stroke-width="0.5" stroke-miterlimit="10"/>
<path d="M349.081 359.387H354.771L360.277 359.571L357.708 354.615L354.954 349.659L352.017 354.615L349.081 359.387Z" stroke="white" stroke-width="0.5" stroke-miterlimit="10"/>
<path d="M332.928 337.545L330.174 342.501L327.421 347.457L333.111 347.273L338.618 347.09L335.865 342.317L332.928 337.545Z" stroke="white" stroke-width="0.5" stroke-miterlimit="10"/>
<path d="M314.755 323.226L319.528 326.347L324.3 329.284L324.484 323.777L324.851 318.087L319.711 320.657L314.755 323.226Z" stroke="white" stroke-width="0.5" stroke-miterlimit="10"/>
<path d="M347.979 307.074L349.631 312.397L351.283 317.904L355.138 313.682L358.809 309.46L353.486 308.359L347.979 307.074Z" stroke="white" stroke-width="0.5" stroke-miterlimit="10"/>
<path d="M335.681 288.352L334.947 293.858L334.396 299.548L339.536 297.346L344.675 295.143L340.27 291.656L335.681 288.352Z" stroke="white" stroke-width="0.5" stroke-miterlimit="10"/>
<path d="M363.581 289.453L361.379 294.593L359.176 299.732L364.683 299.182L370.373 298.447L367.069 294.042L363.581 289.453Z" stroke="white" stroke-width="0.5" stroke-miterlimit="10"/>
<path d="M295.666 312.948L300.989 314.6L306.312 316.068L305.027 310.561L303.742 305.238L299.704 309.093L295.666 312.948Z" stroke="white" stroke-width="0.5" stroke-miterlimit="10"/>
<path d="M385.241 268.527L390.748 268.711L396.438 268.894L393.685 263.938L391.115 258.982L388.178 263.755L385.241 268.527Z" stroke="white" stroke-width="0.5" stroke-miterlimit="10"/>
<path d="M356.79 408.581L358.626 420.329C359.176 423.816 361.746 426.57 365.05 426.937C374.779 428.222 395.52 430.608 413.693 430.608C431.497 430.608 452.239 427.854 461.417 425.285C464.354 424.367 466.924 421.981 467.291 418.493L468.576 409.132C469.31 404.176 465.822 399.77 461.417 399.77L364.132 399.036C359.543 399.036 356.056 403.625 356.79 408.581Z" fill="white" stroke="#060905" stroke-miterlimit="10"/>
<path d="M461.233 425.101L460.499 399.771" stroke="#060905" stroke-miterlimit="10"/>
<path d="M452.973 427.12L452.056 399.771" stroke="#060905" stroke-miterlimit="10"/>
<path d="M445.631 428.222L444.53 399.771" stroke="#060905" stroke-miterlimit="10"/>
<path d="M435.719 399.771L437.004 429.323" stroke="#060905" stroke-miterlimit="10"/>
<path d="M424.889 399.587L425.991 430.057" stroke="#060905" stroke-miterlimit="10"/>
<path d="M415.344 430.057L414.794 399.403" stroke="#060905" stroke-miterlimit="10"/>
<path d="M405.616 399.403V430.424" stroke="#060905" stroke-miterlimit="10"/>
<path d="M395.337 399.036V429.874" stroke="#060905" stroke-miterlimit="10"/>
<path d="M386.526 399.036L386.893 429.323" stroke="#060905" stroke-miterlimit="10"/>
<path d="M378.266 399.036L379.184 428.589" stroke="#060905" stroke-miterlimit="10"/>
<path d="M369.823 399.036L371.107 427.671" stroke="#060905" stroke-miterlimit="10"/>
<path d="M365.05 426.937L362.48 399.036" stroke="#060905" stroke-miterlimit="10"/>
<path d="M361.93 410.783C358.442 409.131 354.955 406.745 354.955 403.808C356.056 310.195 381.387 235.304 412.408 235.304C443.429 235.304 468.576 310.195 469.861 403.808C469.126 407.296 466.557 409.315 462.885 410.783C439.574 420.512 384.507 421.98 361.93 410.783Z" fill="#6A3EF3" stroke="#060905" stroke-miterlimit="10"/>
<path d="M395.337 272.015L398.457 276.604L401.761 281.193L403.964 276.053L406.35 270.914L400.844 271.464L395.337 272.015Z" stroke="white" stroke-width="0.5" stroke-miterlimit="10"/>
<path d="M376.982 284.68L380.102 289.269L383.406 293.858L385.792 288.902L388.178 283.763L382.488 284.313L376.982 284.68Z" stroke="white" stroke-width="0.5" stroke-miterlimit="10"/>
<path d="M410.756 293.858L410.021 299.365L409.471 304.872L414.61 302.669L419.75 300.466L415.161 297.162L410.756 293.858Z" stroke="white" stroke-width="0.5" stroke-miterlimit="10"/>
<path d="M428.01 311.112L432.599 314.233L437.188 317.537L437.555 311.847L438.106 306.34L432.966 308.726L428.01 311.112Z" stroke="white" stroke-width="0.5" stroke-miterlimit="10"/>
<path d="M369.088 319.372L374.595 318.455L380.102 317.537L376.614 313.131L372.943 308.91L371.108 314.049L369.088 319.372Z" stroke="white" stroke-width="0.5" stroke-miterlimit="10"/>
<path d="M407.268 326.898L412.041 330.019L416.63 333.139L416.997 327.449L417.364 321.942L412.408 324.329L407.268 326.898Z" stroke="white" stroke-width="0.5" stroke-miterlimit="10"/>
<path d="M432.232 332.772L434.251 337.912L436.087 343.235L439.758 338.829L443.245 334.608L437.739 333.69L432.232 332.772Z" stroke="white" stroke-width="0.5" stroke-miterlimit="10"/>
<path d="M383.039 332.038L387.444 335.342L392.033 338.646L392.584 333.139L393.318 327.449L388.178 329.835L383.039 332.038Z" stroke="white" stroke-width="0.5" stroke-miterlimit="10"/>
<path d="M410.022 350.026L408.553 355.533L407.268 361.04L412.591 359.388L418.098 357.919L414.06 354.065L410.022 350.026Z" stroke="white" stroke-width="0.5" stroke-miterlimit="10"/>
<path d="M432.599 352.229L432.232 357.919L432.048 363.426L437.004 360.856L441.96 358.286L437.371 355.166L432.599 352.229Z" stroke="white" stroke-width="0.5" stroke-miterlimit="10"/>
<path d="M426.909 388.573L425.44 394.08L424.155 399.403L429.478 397.935L434.985 396.466L430.947 392.428L426.909 388.573Z" stroke="white" stroke-width="0.5" stroke-miterlimit="10"/>
<path d="M448.201 400.504L448.752 406.194L449.303 411.701L453.892 408.397L458.48 405.093L453.341 402.89L448.201 400.504Z" stroke="white" stroke-width="0.5" stroke-miterlimit="10"/>
<path d="M422.136 407.479L421.769 412.986L421.402 418.676L426.541 416.107L431.497 413.72L426.908 410.6L422.136 407.479Z" stroke="white" stroke-width="0.5" stroke-miterlimit="10"/>
<path d="M389.83 362.691L385.792 366.73L381.937 370.768L387.444 372.236L392.767 373.521L391.299 368.198L389.83 362.691Z" stroke="white" stroke-width="0.5" stroke-miterlimit="10"/>
<path d="M364.683 346.355L367.62 351.128L370.373 356.084L373.127 351.128L376.063 346.355H370.373H364.683Z" stroke="white" stroke-width="0.5" stroke-miterlimit="10"/>
<path d="M387.444 313.498L392.767 315.15L398.09 316.619L396.805 311.296L395.52 305.789L391.482 309.644L387.444 313.498Z" stroke="white" stroke-width="0.5" stroke-miterlimit="10"/>
<path d="M390.564 253.843L396.255 254.026L401.761 254.21L399.192 249.254L396.622 244.298L393.501 249.07L390.564 253.843Z" stroke="white" stroke-width="0.5" stroke-miterlimit="10"/>
<path d="M337.333 336.628L353.302 321.576L257.67 220.437L242.802 236.589L337.333 336.628Z" fill="#988F9A" stroke="#060905" stroke-miterlimit="10"/>
<path d="M352.385 316.619L466.189 435.379C471.145 440.703 471.696 448.228 467.291 452.45L461.784 457.773C457.379 461.995 449.853 461.077 444.713 455.754L333.295 335.892L352.385 316.619Z" fill="#FF9100" stroke="#060905" stroke-miterlimit="10"/>
<path d="M34.4657 154.172C30.7945 126.822 35.1999 99.4722 47.4982 74.6921C72.0947 24.9484 128.263 -4.97121 183.146 2.00392C210.863 5.49149 236.377 17.0555 257.119 35.7782C277.677 54.1338 292.178 79.4646 298.052 106.447C303.559 132.329 301.54 160.229 291.444 184.826C280.614 211.258 261.892 233.652 237.662 248.887C191.773 277.889 129.364 275.135 86.2285 241.912C80.3547 237.323 74.848 232.55 69.7085 227.227C50.9857 207.036 38.1368 181.338 34.4657 154.172ZM92.2858 218.417C93.5707 219.518 94.8556 220.619 96.1405 221.721C96.3241 221.721 96.5076 221.904 96.6912 222.088C97.2418 222.638 97.9761 223.005 98.5267 223.556C103.483 227.411 108.806 230.715 114.313 233.652C116.699 234.937 119.085 236.038 121.471 237.323C121.655 237.323 123.49 238.241 123.857 238.424C125.51 239.158 127.161 239.709 128.813 240.26C134.32 242.279 140.194 243.747 145.884 245.032C146.618 245.216 147.536 245.399 148.27 245.399C148.454 245.399 149.005 245.583 149.372 245.583C150.473 245.766 151.574 245.95 152.676 245.95C155.796 246.317 158.917 246.501 162.221 246.684C165.158 246.868 167.911 246.868 170.848 246.684C172.316 246.684 173.785 246.501 175.07 246.501C175.804 246.501 176.722 246.317 177.456 246.317C177.639 246.317 178.374 246.133 178.924 246.133C184.431 245.399 190.121 244.481 195.444 243.013C198.198 242.279 200.951 241.545 203.704 240.627C204.439 240.443 205.173 240.076 205.907 239.893C206.091 239.893 206.458 239.709 206.641 239.525C208.11 238.975 209.395 238.424 210.863 237.873C216.553 235.487 222.06 232.55 227.383 229.246C228.484 228.512 229.586 227.778 230.687 227.044C231.421 226.493 231.972 226.126 232.706 225.575C232.89 225.575 232.89 225.392 233.073 225.208C235.643 223.189 238.213 221.17 240.599 219.151C245.372 214.929 249.593 210.524 253.815 205.751C253.999 205.568 253.999 205.568 254.182 205.384C254.733 204.65 255.284 204.099 255.651 203.365C256.385 202.264 257.303 201.162 258.037 200.244C259.873 197.491 261.708 194.738 263.36 191.984C264.829 189.415 266.297 186.845 267.582 184.275C268.316 182.99 268.867 181.705 269.417 180.42C269.417 180.237 269.601 180.237 269.601 180.053V179.87C269.968 178.952 270.335 178.034 270.702 177.116C272.905 171.61 274.741 165.919 276.025 160.229C276.393 158.761 276.576 157.476 276.943 156.007C277.127 155.457 277.127 154.723 277.31 154.172C277.31 154.172 277.494 153.254 277.494 152.703C277.494 152.153 277.677 151.235 277.677 151.235C277.677 150.684 277.861 149.95 277.861 149.399C278.045 147.747 278.228 146.279 278.412 144.627C278.962 138.57 278.962 132.512 278.595 126.455C278.595 125.904 278.595 125.17 278.412 124.619C278.412 124.619 278.412 123.702 278.228 123.151C278.228 122.6 278.045 121.682 278.045 121.682C278.045 121.132 277.861 120.398 277.861 119.847C277.494 116.726 276.76 113.606 276.209 110.486C275.658 107.732 274.924 104.795 274.006 102.042C273.639 100.757 273.272 99.6557 272.905 98.3709C272.721 97.6366 272.354 96.9024 272.171 96.1682C272.171 95.9846 271.987 95.8011 271.987 95.434C271.987 95.434 271.987 95.2504 271.804 95.0668C269.601 89.3766 267.031 84.0535 263.911 78.7304C262.442 76.1606 260.79 73.5908 259.138 71.2046C258.588 70.4703 258.221 69.9197 257.67 69.1854C257.67 69.0019 257.486 69.0019 257.303 68.8183C256.201 67.5334 255.284 66.065 254.182 64.7801C250.144 59.8241 245.922 55.2352 241.15 51.197C240.048 50.0956 238.947 49.1778 237.662 48.26C237.479 48.0765 237.479 48.0765 237.295 47.8929C236.744 47.5258 236.194 46.9752 235.643 46.6081C233.073 44.7725 230.504 42.9369 227.934 41.1014C222.978 37.7974 217.655 35.044 212.148 32.4742C211.964 32.4742 209.762 31.3729 209.211 31.1893C207.926 30.6387 206.458 30.088 205.173 29.7209C202.236 28.6195 199.115 27.7018 195.995 26.784C193.242 26.0498 190.488 25.3155 187.551 24.7649C186.45 24.5813 185.349 24.3978 184.064 24.2142C183.697 24.2142 183.33 24.0307 183.146 24.0307C182.228 23.8471 181.311 23.8471 180.393 23.6635C174.519 22.9293 168.645 22.7458 162.771 22.9293C160.018 22.9293 157.265 23.1129 154.511 23.48C154.144 23.48 153.777 23.48 153.594 23.6635C152.859 23.8471 151.942 23.8471 151.207 24.0307C149.555 24.2142 148.087 24.5813 146.435 24.7649C140.378 25.8662 134.504 27.3347 128.813 29.3538C128.263 29.5373 126.611 30.2716 126.244 30.2716C124.959 30.8222 123.674 31.3729 122.389 31.9236C119.636 33.2085 116.699 34.4933 113.945 35.9618C111.376 37.4302 108.806 38.8987 106.236 40.3671C104.951 41.1014 103.666 42.0191 102.565 42.7534C102.014 43.1205 101.464 43.4876 100.913 43.8547C100.729 44.0383 100.546 44.0383 100.546 44.2218C100.362 44.2218 100.362 44.4054 100.179 44.5889C95.0392 48.6272 90.2667 52.6654 85.6778 57.4378C83.4751 59.6405 81.456 61.8432 79.6205 64.2294C79.4369 64.413 79.4369 64.413 79.2533 64.5965C78.8862 65.1472 78.3356 65.6979 77.9685 66.2486C76.8671 67.717 75.7658 69.1854 74.6644 70.6539C71.1769 75.6099 68.0564 80.7495 65.4866 86.2562C64.936 87.3575 64.3853 88.4588 63.8346 89.7437C63.8346 89.5602 62.9168 92.13 62.5497 92.4971C61.4484 95.2504 60.3471 98.1873 59.4293 101.124C58.5115 103.878 57.7773 106.631 57.043 109.384C56.6759 110.853 56.3088 112.138 56.1253 113.606C55.9417 114.34 55.7582 115.258 55.7582 115.992C55.7582 116.176 55.5746 116.91 55.5746 117.461C54.6568 123.151 54.2897 128.841 54.2897 134.531C54.2897 137.468 54.2897 140.222 54.4733 143.159C54.4733 144.443 54.6568 145.728 54.8404 147.013C54.8404 147.197 54.8404 147.38 54.8404 147.564C55.024 148.482 55.0239 149.399 55.2075 150.317C56.1253 156.375 57.4102 162.248 59.0622 168.122C59.4293 169.591 59.98 170.876 60.3471 172.344C60.5306 172.895 61.4484 175.097 61.4484 175.281C62.5498 178.034 63.8347 180.971 65.1196 183.724C67.6893 189.231 70.8098 194.554 74.2974 199.51C74.6645 200.061 75.0315 200.612 75.3987 201.162C75.3987 201.346 75.5822 201.346 75.7658 201.529C76.6836 202.814 77.6013 203.916 78.5191 205.2C80.5383 207.77 82.7409 210.156 84.9436 212.543C87.6969 214.195 89.8996 216.397 92.2858 218.417Z" fill="#988F9A" stroke="#060905" stroke-miterlimit="10"/>
<path d="M248.125 262.837C248.125 262.837 245.372 257.331 245.372 256.046C245.372 254.761 250.878 248.337 253.448 246.134C256.018 243.931 260.24 241.545 261.892 241.361C263.544 241.178 263.544 244.482 264.462 243.748C265.379 243.197 268.5 242.279 269.234 243.564C270.152 244.849 269.234 247.786 269.234 247.786C269.234 247.786 270.519 247.786 271.987 247.969C273.456 248.337 273.823 249.621 273.823 250.906C273.823 252.191 273.639 252.191 274.557 253.109C275.659 253.843 275.475 256.046 275.291 258.799C274.924 261.553 270.519 277.889 271.07 278.807C271.62 279.725 279.88 287.25 281.716 289.27C283.368 291.289 283.184 294.226 282.634 293.858C282.083 293.308 274.374 285.966 267.949 284.314C261.525 282.845 257.303 278.807 256.018 276.604C254.917 274.402 248.125 262.837 248.125 262.837Z" fill="white"/>
<path d="M261.157 272.015C261.157 272.015 269.601 253.66 273.456 253.292C277.31 252.925 275.842 257.881 274.006 267.243L271.253 277.522" stroke="#060905" stroke-miterlimit="10"/>
<path d="M257.119 266.325C257.119 266.325 264.645 253.843 265.379 252.925C266.297 252.008 269.05 247.602 271.987 248.153C274.924 248.704 273.639 253.843 273.639 253.843" stroke="#060905" stroke-miterlimit="10"/>
<path d="M250.511 260.084C250.511 260.084 262.259 243.748 266.297 242.83C270.335 242.096 270.519 245.216 268.867 249.071" stroke="#060905" stroke-miterlimit="10"/>
<path d="M263.177 245.032C263.177 245.032 265.746 239.892 259.322 241.911C255.1 243.196 246.106 253.292 245.372 256.045C244.637 258.615 252.53 269.445 254.916 274.401C257.303 279.357 261.892 283.579 269.601 284.496C273.456 284.864 278.779 290.187 283.368 295.51" stroke="#060905" stroke-miterlimit="10"/>
<path d="M439.757 391.143C439.757 391.143 381.387 406.562 369.455 402.34C359.543 398.852 388.545 395.181 388.545 395.181C388.545 395.181 368.171 399.77 366.151 395.732C364.132 391.694 387.628 388.94 387.628 388.94C387.628 388.94 363.765 392.795 363.215 389.124C362.664 385.453 387.077 382.883 387.077 382.883C387.077 382.883 362.847 387.105 362.113 382.883C361.379 378.478 386.159 376.091 386.159 376.091C386.159 376.091 370.557 375.724 371.475 372.42C372.392 368.933 403.964 371.135 428.744 363.977C453.891 356.634 439.757 391.143 439.757 391.143Z" fill="white"/>
<path d="M385.792 383.801C381.937 384.535 365.417 388.573 362.48 383.985C360.828 381.048 363.949 379.579 366.151 378.661C370.006 377.009 381.387 373.705 385.608 375.174C388.729 376.275 382.121 376.642 383.406 376.459C381.937 376.826 379.551 376.275 377.899 375.908C375.146 375.541 372.76 375.357 370.924 373.155C370.74 372.971 370.74 372.604 370.74 372.237C372.576 369.117 377.899 369.484 381.02 369.3C387.628 368.749 394.419 368.566 401.027 368.015C412.224 367.097 423.972 364.711 434.801 361.958C435.719 361.774 436.086 363.059 435.169 363.243C424.522 365.996 413.142 368.382 402.128 369.3C395.52 369.851 388.729 370.034 382.121 370.585C381.02 370.769 378.633 370.401 377.716 370.952C373.494 372.971 375.329 373.705 378.083 374.44C380.469 375.174 383.222 374.99 385.608 374.99C386.526 374.99 386.526 376.275 385.608 376.459C380.836 376.826 376.064 377.377 371.291 378.478C370.373 378.661 368.721 378.845 367.804 379.396C366.335 379.396 365.601 380.13 365.784 381.782C364.683 383.617 365.05 384.352 367.253 383.801C371.291 385.637 381.57 382.883 385.241 382.333C386.343 382.333 386.71 383.617 385.792 383.801Z" fill="#060905"/>
<path d="M386.71 389.859C383.773 390.409 381.019 390.776 378.083 391.144C374.044 391.694 369.272 392.796 365.417 391.878C363.582 391.511 361.746 390.409 362.48 388.39C363.582 384.903 370.19 384.352 373.127 384.168C374.044 384.168 374.044 385.453 373.127 385.637C371.658 385.82 359.911 388.39 365.601 390.776C367.62 391.511 371.107 390.776 373.127 390.593C377.532 390.226 382.121 389.492 386.526 388.757C387.26 388.39 387.627 389.675 386.71 389.859Z" fill="#060905"/>
<path d="M386.159 396.467C382.121 397.201 377.899 397.752 373.861 398.119C371.658 398.302 367.436 398.669 365.784 396.65C362.297 392.429 374.411 390.409 376.063 390.042C376.981 389.859 377.348 391.144 376.431 391.327C373.861 391.878 370.557 392.245 368.354 393.713C365.968 395.182 367.436 396.1 369.639 396.467C374.962 397.385 381.019 395.916 386.159 394.998C386.71 394.815 387.077 396.283 386.159 396.467Z" fill="#060905"/>
<path d="M376.614 397.751C375.329 397.935 367.62 398.853 367.62 400.321C367.436 403.258 374.228 403.074 375.696 403.258C382.671 403.442 389.463 402.157 396.255 400.872C410.388 397.935 425.991 395.916 439.39 390.593C440.124 390.225 440.492 391.51 439.757 391.877C430.212 395.732 419.383 397.201 409.287 399.403C401.027 401.239 392.583 403.442 384.14 404.176C381.57 404.359 366.886 406.746 366.151 401.239C365.601 397.201 373.677 397.017 376.063 396.65C377.165 396.283 377.532 397.568 376.614 397.751Z" fill="#060905"/>
<path d="M416.813 289.27L419.383 237.69C419.383 237.69 532.82 285.599 530.251 349.66C527.681 413.904 437.738 393.897 437.738 393.897L429.478 361.407L462.518 343.969C441.96 300.283 416.813 289.27 416.813 289.27Z" fill="#6A3EF3"/>
<path d="M429.478 361.407L477.386 336.076" stroke="#070707" stroke-miterlimit="10"/>
<path d="M462.519 343.97C462.519 343.97 451.872 324.513 440.125 308.91C440.125 308.91 432.232 298.631 428.561 295.511" stroke="#070707" stroke-miterlimit="10"/>
<path d="M453.524 396.283C444.163 395.366 437.738 394.081 437.738 394.081L429.478 361.591L443.612 354.065L453.524 396.283Z" fill="white" stroke="#060905" stroke-miterlimit="10"/>
<path d="M452.056 390.226H436.821" stroke="#060905" stroke-miterlimit="10"/>
<path d="M450.22 381.965L435.169 383.984" stroke="#060905" stroke-miterlimit="10"/>
<path d="M448.018 372.787L432.966 375.54" stroke="#060905" stroke-miterlimit="10"/>
<path d="M445.631 361.958L430.947 367.098" stroke="#060905" stroke-miterlimit="10"/>
<path d="M419.383 237.875C419.383 237.875 532.82 285.783 530.251 349.844C527.681 414.089 437.738 394.081 437.738 394.081" stroke="#060905" stroke-miterlimit="10"/>
<path d="M438.84 250.906L437.555 256.413L436.086 261.92L441.593 260.268L446.916 258.799L442.878 254.761L438.84 250.906Z" stroke="white" stroke-width="0.5" stroke-miterlimit="10"/>
<path d="M422.503 280.276L425.624 284.865L428.928 289.453L431.314 284.314L433.7 279.174L428.01 279.725L422.503 280.276Z" stroke="white" stroke-width="0.5" stroke-miterlimit="10"/>
<path d="M412.408 257.698L415.528 262.287L418.832 266.876L421.219 261.92L423.605 256.78L417.915 257.331L412.408 257.698Z" stroke="white" stroke-width="0.5" stroke-miterlimit="10"/>
<path d="M445.631 277.889L450.037 281.376L454.626 284.864L455.36 279.174L456.094 273.667L450.954 275.87L445.631 277.889Z" stroke="white" stroke-width="0.5" stroke-miterlimit="10"/>
<path d="M446.916 306.525L452.423 307.626L457.93 308.727L456.094 303.404L454.258 298.081L450.587 302.303L446.916 306.525Z" stroke="white" stroke-width="0.5" stroke-miterlimit="10"/>
<path d="M477.57 280.275L474.083 284.681L470.411 288.903L475.918 289.82L481.425 290.922L479.589 285.599L477.57 280.275Z" stroke="white" stroke-width="0.5" stroke-miterlimit="10"/>
<path d="M471.88 309.461L477.386 310.562L482.893 311.663L481.058 306.34L479.222 301.017L475.551 305.239L471.88 309.461Z" stroke="white" stroke-width="0.5" stroke-miterlimit="10"/>
<path d="M499.046 314.417L504.186 312.214L509.325 309.828L504.736 306.524L500.148 303.403L499.597 308.91L499.046 314.417Z" stroke="white" stroke-width="0.5" stroke-miterlimit="10"/>
<path d="M461.417 332.038L466.924 333.14L472.431 334.425L470.595 329.101L468.943 323.778L465.088 327.817L461.417 332.038Z" stroke="white" stroke-width="0.5" stroke-miterlimit="10"/>
<path d="M515.199 343.97L520.706 345.071L526.212 346.356L524.56 340.85L522.908 335.526L519.054 339.748L515.199 343.97Z" stroke="white" stroke-width="0.5" stroke-miterlimit="10"/>
<path d="M497.211 360.856H502.717H508.407L505.471 355.9L502.717 351.128L499.964 356.084L497.211 360.856Z" stroke="white" stroke-width="0.5" stroke-miterlimit="10"/>
<path d="M498.496 376.275L499.23 381.782L500.148 387.289L504.553 383.801L508.775 380.314L503.635 378.295L498.496 376.275Z" stroke="white" stroke-width="0.5" stroke-miterlimit="10"/>
<path d="M468.025 350.027L470.595 354.983L473.165 359.939L476.102 355.167L479.222 350.394L473.532 350.211L468.025 350.027Z" stroke="white" stroke-width="0.5" stroke-miterlimit="10"/>
<path d="M470.778 375.724L475.184 379.212L479.589 382.699L480.323 377.009L481.058 371.502L475.918 373.705L470.778 375.724Z" stroke="white" stroke-width="0.5" stroke-miterlimit="10"/>
<path d="M448.385 364.16L452.79 367.648L457.195 370.952L457.93 365.445L458.664 359.938L453.524 361.958L448.385 364.16Z" stroke="white" stroke-width="0.5" stroke-miterlimit="10"/>
<path d="M466.924 390.777L463.253 386.371L459.765 382.149L457.746 387.289L455.91 392.612L461.417 391.694L466.924 390.777Z" stroke="white" stroke-width="0.5" stroke-miterlimit="10"/>
<path d="M499.046 339.197L497.945 333.69L497.027 328.184L492.622 331.855L488.4 335.342L493.723 337.361L499.046 339.197Z" stroke="white" stroke-width="0.5" stroke-miterlimit="10"/>
<path d="M376.614 203.732L369.823 202.264L376.064 193.82L376.614 203.732Z" fill="#FA8099"/>
<path d="M390.197 170.325L402.679 169.774C410.939 169.407 417.914 176.933 418.281 186.294L419.016 205.568C419.016 206.118 419.016 206.669 419.016 207.22C419.199 207.77 419.199 208.321 419.383 209.055L419.75 220.803V221.537L420.117 233.285C420.301 237.507 416.997 241.178 412.591 241.361L407.635 241.545C403.413 241.728 399.742 238.424 399.559 234.019L399.192 223.74L392.033 223.923C383.773 224.291 376.798 216.765 376.431 207.403L375.696 188.13C375.513 178.585 381.937 170.692 390.197 170.325Z" fill="white" stroke="black" stroke-miterlimit="10"/>
<path d="M384.14 195.656C383.589 196.941 384.14 198.593 385.425 199.143C386.71 199.694 388.362 199.143 388.912 197.858C389.463 196.573 388.912 194.922 387.627 194.371C386.343 193.82 384.874 194.371 384.14 195.656Z" fill="black"/>
<path d="M377.715 211.809C379 212.176 380.102 211.625 380.652 210.524C380.836 210.157 381.019 209.79 381.019 209.239C381.019 208.872 381.019 208.872 381.019 208.688C381.019 207.771 382.488 207.771 382.488 208.688C382.488 209.606 382.121 210.707 381.57 211.442C380.652 212.91 379 213.461 377.165 213.094C376.614 212.91 376.981 211.625 377.715 211.809Z" fill="#070707"/>
<path d="M369.272 149.584C376.614 146.096 387.995 162.8 387.995 162.8C387.995 162.8 380.836 151.786 389.096 149.216C397.356 146.647 407.084 162.065 407.084 162.065C407.084 162.065 439.39 166.838 437.738 196.757C437.738 196.757 437.371 214.195 419.566 219.518L418.465 200.612L416.446 199.144L414.61 205.201C414.61 205.201 407.635 206.669 403.046 195.656C395.52 194.004 385.058 190.149 374.779 181.339C356.607 165.553 361.93 153.255 369.272 149.584Z" fill="black"/>
<path d="M430.396 204.467C430.212 209.79 425.807 213.828 420.484 213.828C415.161 213.645 410.939 209.423 411.123 204.1C411.306 198.777 415.712 194.738 421.035 194.738C426.174 194.738 430.396 199.144 430.396 204.467Z" fill="white"/>
<path d="M414.427 205.385C414.427 204.1 414.794 202.631 415.345 201.53C416.629 199.144 419.199 198.41 421.953 198.593C423.421 198.777 423.421 200.979 421.953 200.796C419.934 200.612 418.098 200.979 417.18 202.815C416.813 203.549 416.629 204.467 416.629 205.201C416.813 206.853 414.61 206.853 414.427 205.385Z" fill="black"/>
<path d="M396.622 210.708C393.074 210.708 390.197 207.831 390.197 204.283C390.197 200.735 393.074 197.859 396.622 197.859C400.17 197.859 403.046 200.735 403.046 204.283C403.046 207.831 400.17 210.708 396.622 210.708Z" fill="#FA8099"/>
<path d="M423.238 247.787L396.805 247.42C394.052 247.42 391.849 245.217 392.033 242.464L392.217 234.02C392.217 231.267 394.419 229.064 397.173 229.248L423.605 229.615C426.358 229.615 428.561 231.818 428.377 234.571L428.194 243.015C428.194 245.584 425.991 247.787 423.238 247.787Z" fill="white"/>
<path d="M423.238 247.787L396.805 247.42C394.052 247.42 391.849 245.217 392.033 242.464L392.217 234.02C392.217 231.267 394.419 229.064 397.173 229.248L423.605 229.615C426.358 229.615 428.561 231.818 428.377 234.571L428.194 243.015C428.194 245.584 425.991 247.787 423.238 247.787Z" stroke="#060905" stroke-miterlimit="10"/>
<path d="M396.989 229.063V247.419" stroke="#060905" stroke-miterlimit="10"/>
<path d="M403.413 229.063V247.419" stroke="#060905" stroke-miterlimit="10"/>
<path d="M409.838 229.063V247.419" stroke="#060905" stroke-miterlimit="10"/>
<path d="M416.262 229.063V247.419" stroke="#060905" stroke-miterlimit="10"/>
<path d="M422.687 229.063V247.419" stroke="#060905" stroke-miterlimit="10"/>
</svg>
