<svg width="370" height="330" viewBox="0 0 370 330" fill="none" xmlns="http://www.w3.org/2000/svg">
<path d="M110.34 266.757L84.4048 310.341C81.182 315.866 73.0485 315.866 69.8257 310.341L43.8904 266.757L77.0385 233.609L110.34 266.757Z" fill="#FFD8C5"/>
<path d="M350.51 284.713H19.4898C8.74741 284.713 0 275.965 0 265.223V70.785C0 60.0426 8.74741 51.2952 19.4898 51.2952H350.51C361.253 51.2952 370 60.0426 370 70.785V265.223C370 275.965 361.253 284.713 350.51 284.713Z" fill="#FFD8C5"/>
<path d="M239.096 293.307L213.314 276.272C213.314 276.272 192.289 305.891 208.557 315.713C224.824 325.534 239.096 293.307 239.096 293.307Z" fill="#71D2C1"/>
<path d="M196.433 301.747C203.032 296.683 209.631 291.465 216.23 286.401C219.299 284.099 215.002 279.956 212.086 282.257C205.487 287.322 198.888 292.54 192.289 297.604C189.22 299.906 193.364 304.049 196.433 301.747Z" fill="#71D2C1"/>
<path d="M226.512 323.693C228.2 317.401 230.041 311.262 232.19 305.124C233.111 302.361 228.814 301.287 227.893 303.896C225.744 310.034 223.903 316.173 222.215 322.465C221.448 325.227 225.744 326.455 226.512 323.693Z" fill="#71D2C1"/>
<path d="M215.462 328.45C218.225 323.232 220.22 317.861 221.448 312.029C222.061 309.267 217.764 308.039 217.151 310.802C216.076 316.173 214.235 321.237 211.626 326.148C210.398 328.757 214.235 331.059 215.462 328.45Z" fill="#71D2C1"/>
<path d="M208.403 311.109C206.562 316.173 204.413 321.237 201.804 325.995C200.423 328.603 204.26 330.752 205.641 328.296C208.403 323.079 210.705 317.861 212.7 312.336C213.774 309.574 209.477 308.346 208.403 311.109Z" fill="#71D2C1"/>
<path d="M196.28 323.386C202.572 315.866 205.794 306.351 208.71 297.144C209.631 294.381 205.334 293.307 204.413 295.916C201.804 304.356 198.889 313.257 193.21 320.163C191.369 322.465 194.438 325.688 196.28 323.386Z" fill="#71D2C1"/>
<path d="M128.295 120.354C128.295 120.354 120.008 135.393 127.528 153.041C132.746 165.472 129.063 172.685 129.063 172.685L184.923 176.061C184.923 176.061 187.993 155.497 179.859 147.056C170.805 137.695 167.582 121.428 167.582 121.428" fill="#3A3144"/>
<path d="M114.023 257.089L109.88 284.559H205.948C205.948 284.559 202.725 251.565 193.364 243.585" fill="#3A3144"/>
<path d="M162.365 142.368L138.837 145.869L142.565 170.915L166.092 167.413L162.365 142.368Z" fill="#71D2C1"/>
<path d="M157.3 148.131C152.543 159.18 141.186 161.635 141.186 161.635L138.884 147.824C138.884 147.67 160.676 140.15 157.3 148.131Z" fill="#3A3144"/>
<path d="M205.641 253.867L204.873 247.882C203.646 239.595 203.492 231.308 204.26 222.867L205.794 206.907C206.101 203.531 206.255 200.155 205.948 196.932C204.566 179.437 195.666 165.472 177.403 166.086L129.983 167.313C117.092 167.62 109.88 173.605 105.583 183.274C103.588 187.571 102.82 192.328 102.974 197.085C103.588 220.105 103.895 237.446 104.048 250.184C104.201 257.55 110.033 263.381 117.399 263.535L198.735 264.149C204.873 263.995 205.794 264.456 205.948 260.772C206.101 258.471 205.948 256.169 205.641 253.867Z" fill="#3EB7B2"/>
<path d="M238.482 302.361L204.72 284.252C213.16 268.599 220.066 249.263 219.606 242.817C215.309 235.298 191.522 214.273 167.582 196.932L189.988 165.779C190.601 166.239 204.413 176.214 218.992 188.338C248.15 212.739 254.289 224.095 256.591 232.075C262.576 253.867 245.848 288.549 238.482 302.361Z" fill="#3EB7B2"/>
<path d="M132.132 119.74L130.444 129.408C127.988 129.562 129.523 119.28 129.523 119.28" fill="#3A3144"/>
<path d="M142.721 155.65C154.691 156.878 165.28 147.977 166.508 136.007L167.275 128.18C168.196 118.512 161.136 109.765 151.315 108.844L150.241 108.691C140.572 107.77 131.825 114.829 130.904 124.651L129.523 139.69C128.756 147.67 134.741 154.883 142.721 155.65Z" fill="#71D2C1"/>
<path d="M125.84 133.091C126.3 136.928 130.751 141.685 135.048 140.304L136.736 130.943C136.582 130.175 129.37 128.948 128.756 128.948C126.454 129.408 125.533 131.096 125.84 133.091Z" fill="#71D2C1"/>
<path d="M154.845 115.75C154.845 115.289 144.562 124.497 130.751 122.809C119.241 121.428 143.028 101.324 157.76 110.839C157.76 110.839 167.582 114.215 168.196 124.037C168.656 133.859 165.127 137.235 165.127 137.235L163.592 132.784V128.334C163.438 128.18 155.151 125.572 154.845 115.75Z" fill="#3A3144"/>
<path d="M144.716 140.304C143.642 138.923 141.8 138.769 140.572 140.151C139.959 140.918 141.033 141.992 141.647 141.225C142.107 140.611 142.874 140.457 143.488 141.071C143.949 141.839 145.176 141.071 144.716 140.304Z" fill="#3A3144"/>
<path d="M147.632 143.066C146.404 144.141 145.023 144.908 143.335 145.061C142.414 145.215 142.721 146.596 143.795 146.443C145.637 146.136 147.325 145.368 148.706 143.987C149.32 143.527 148.245 142.452 147.632 143.066Z" fill="#3A3144"/>
<path d="M151.468 138.769C152.231 138.769 152.849 138.151 152.849 137.388C152.849 136.625 152.231 136.007 151.468 136.007C150.706 136.007 150.087 136.625 150.087 137.388C150.087 138.151 150.706 138.769 151.468 138.769Z" fill="#3A3144"/>
<path d="M152.696 130.329C151.929 130.175 151.008 130.022 150.241 130.022C149.32 130.022 149.32 131.557 150.241 131.557C151.008 131.557 151.622 131.557 152.389 131.71C153.31 132.017 153.77 130.482 152.696 130.329Z" fill="#3A3144"/>
<path d="M136.429 138.155C137.192 138.155 137.81 137.537 137.81 136.774C137.81 136.011 137.192 135.393 136.429 135.393C135.666 135.393 135.048 136.011 135.048 136.774C135.048 137.537 135.666 138.155 136.429 138.155Z" fill="#3A3144"/>
<path d="M137.657 129.562C136.889 129.408 135.969 129.255 135.201 129.255C134.28 129.255 134.28 130.789 135.201 130.789C135.969 130.789 136.582 130.789 137.35 130.943C138.27 131.25 138.577 129.715 137.657 129.562Z" fill="#3A3144"/>
<path d="M171.572 133.552C171.112 137.388 166.661 142.146 162.364 140.764L160.676 131.403C160.829 130.636 168.042 129.408 168.656 129.408C170.958 130.022 171.725 131.71 171.572 133.552Z" fill="#71D2C1"/>
<path d="M64.915 48.2259L95.6076 51.909C95.6076 51.909 101.132 15.9986 82.2563 14.6174C63.3803 13.0828 64.915 48.2259 64.915 48.2259Z" fill="#71D2C1"/>
<path d="M99.7512 21.0629C96.068 28.5826 92.5384 36.1023 88.8553 43.7754C87.1672 47.1516 92.3849 50.2209 93.9196 46.8447C97.6027 39.325 101.132 31.8053 104.815 24.1321C106.504 20.6025 101.286 17.5332 99.7512 21.0629Z" fill="#71D2C1"/>
<path d="M62.7664 15.5382C63.9942 21.8302 65.0684 28.2756 65.9892 34.5676C66.4496 37.33 70.5931 36.2557 70.2861 33.3399C69.3654 26.8945 68.2911 20.6025 67.0634 14.3105C66.4496 11.5481 62.1526 12.7759 62.7664 15.5382Z" fill="#71D2C1"/>
<path d="M70.4397 6.33016C70.2862 12.1618 70.9001 17.9934 72.4347 23.6715C73.202 26.4339 77.499 25.2061 76.7317 22.4438C75.3505 17.0726 74.7366 11.8548 74.8901 6.33016C74.8901 3.41436 70.4397 3.41436 70.4397 6.33016Z" fill="#71D2C1"/>
<path d="M84.5583 19.0678C83.9445 13.3897 83.6375 7.86499 83.791 2.18685C83.791 -0.728951 79.3406 -0.728951 79.3406 2.18685C79.1871 7.86499 79.494 13.3897 80.1079 19.0678C80.4148 21.8302 84.8652 21.8302 84.5583 19.0678Z" fill="#71D2C1"/>
<path d="M89.776 2.18695C87.6275 11.8551 89.0087 21.6768 90.5433 31.1915C91.0037 33.9538 95.3007 32.8796 94.8403 29.9638C93.4591 21.3699 92.078 12.1621 94.073 3.41466C94.8403 0.652319 90.5433 -0.575387 89.776 2.18695Z" fill="#71D2C1"/>
<path d="M166.047 165.932C166.047 165.932 166.815 176.061 173.874 182.967C181.087 189.872 205.948 176.061 180.012 147.056" fill="#3A3144"/>
<path d="M107.578 204.912C102.974 196.471 79.8009 153.348 75.0436 138.155C70.1328 123.269 64.6081 58.0475 62.92 38.4042L101.132 35.335C104.202 73.3939 109.112 119.126 111.414 126.646C114.177 135.24 130.444 166.853 141.186 186.65L107.578 204.912Z" fill="#3EB7B2"/>
<path d="M190.448 217.343C193.824 220.258 197.354 222.714 201.037 225.016C201.804 225.476 202.572 224.248 201.804 223.788C198.121 221.639 194.745 219.184 191.522 216.422C190.755 215.654 189.681 216.729 190.448 217.343Z" fill="#3A3144"/>
<path d="M80.2612 34.1073C81.9493 31.345 84.5582 29.35 87.6275 28.2757C88.5482 27.9688 88.0879 26.5876 87.1671 26.8945C83.7909 28.1223 80.8751 30.4242 79.0335 33.4935C78.4197 34.1073 79.8008 34.8746 80.2612 34.1073Z" fill="#3A3144"/>
</svg>
