<svg width="370" height="268" viewBox="0 0 370 268" fill="none" xmlns="http://www.w3.org/2000/svg">
<path d="M110.34 216.462L84.4048 260.046C81.182 265.571 73.0485 265.571 69.8257 260.046L43.8904 216.462L77.0385 183.314L110.34 216.462Z" fill="#FFD8C5"/>
<path d="M350.51 234.418H19.4898C8.74741 234.418 0 225.67 0 214.928V20.4898C0 9.7474 8.74741 1 19.4898 1H350.51C361.253 1 370 9.7474 370 20.4898V214.928C370 225.67 361.253 234.418 350.51 234.418Z" fill="#FFD8C5"/>
<path d="M46.8667 44.5757L74.9851 53.4557C74.9851 53.4557 85.912 19.1606 68.5747 14.4144C51.2374 9.66819 46.8667 44.5757 46.8667 44.5757Z" fill="#71D2C1"/>
<path d="M83.4351 24.2127C78.773 30.9492 74.2565 37.8389 69.5944 44.5754C67.5547 47.6375 72.3625 50.6995 74.4022 47.6375C79.0643 40.9009 83.5808 34.0113 88.2429 27.2747C90.4283 24.0596 85.6204 21.1506 83.4351 24.2127Z" fill="#71D2C1"/>
<path d="M50.0719 11.9644C50.2175 18.3948 50.2176 24.8251 49.9262 31.2554C49.7805 34.1644 54.0055 34.1644 54.1512 31.2554C54.4426 24.8251 54.4426 18.3948 54.2969 11.9644C54.1512 9.05547 49.9262 9.05547 50.0719 11.9644Z" fill="#71D2C1"/>
<path d="M58.8134 4.15596C57.7935 9.97388 57.3564 15.6387 57.7935 21.4566C57.9392 24.2125 62.1643 24.3656 62.0186 21.4566C61.5815 16.098 61.8729 10.7394 62.8927 5.38078C63.3298 2.62492 59.2504 1.4001 58.8134 4.15596Z" fill="#71D2C1"/>
<path d="M69.8858 18.8541C70.1772 13.4955 70.76 8.13685 71.7798 2.77824C72.3626 0.0223838 68.2832 -1.20244 67.7005 1.55342C66.6806 7.21824 65.9522 13.0362 65.6608 18.8541C65.5151 21.763 69.7401 21.763 69.8858 18.8541Z" fill="#71D2C1"/>
<path d="M77.6074 3.54365C73.9651 12.5767 73.5281 22.5284 73.5281 32.174C73.5281 35.0829 77.7531 35.0829 77.7531 32.174C77.8988 23.4471 78.0445 14.1078 81.2497 5.8402C82.4152 3.08434 78.773 0.940896 77.6074 3.54365Z" fill="#71D2C1"/>
<path d="M304.012 72.1347L279.39 55.4464C279.39 55.4464 297.164 24.3665 311.879 35.2368C326.594 46.1071 304.012 72.1347 304.012 72.1347Z" fill="#71D2C1"/>
<path d="M289.734 27.8877C287.84 36.0022 285.946 44.1166 283.906 52.2311C283.032 55.9056 288.423 57.4366 289.297 53.7621C291.191 45.6477 293.085 37.5332 295.125 29.4187C295.999 25.7443 290.608 24.2132 289.734 27.8877Z" fill="#71D2C1"/>
<path d="M322.806 45.1881C317.998 49.1688 313.336 53.4557 308.82 57.7426C306.78 59.7329 309.839 62.795 311.879 60.9577C316.395 56.6708 321.058 52.384 325.865 48.4033C327.905 46.566 324.846 43.3509 322.806 45.1881Z" fill="#71D2C1"/>
<path d="M322.369 33.5523C319.164 37.8392 315.521 41.6667 311.296 44.8819C309.111 46.566 311.151 50.3936 313.482 48.7095C317.998 45.3412 322.077 41.3605 325.428 36.7674C327.031 34.4709 324.117 31.4088 322.369 33.5523Z" fill="#71D2C1"/>
<path d="M310.568 40.2887C314.501 36.4611 317.998 32.3274 321.349 27.8874C323.097 25.7439 320.038 22.5288 318.289 24.6722C314.939 29.1122 311.296 33.246 307.508 37.0736C305.614 39.217 308.528 42.2791 310.568 40.2887Z" fill="#71D2C1"/>
<path d="M309.985 19.0076C306.051 27.2751 299.35 33.5524 292.939 39.5234C290.899 41.3606 293.959 44.5758 295.999 42.7386C302.7 36.4613 309.694 29.8779 313.773 21.4572C314.939 18.7014 311.296 16.4048 309.985 19.0076Z" fill="#71D2C1"/>
<path d="M176.823 107.348C187.123 107.348 195.472 98.5739 195.472 87.7507C195.472 76.9274 187.123 68.1534 176.823 68.1534C166.524 68.1534 158.175 76.9274 158.175 87.7507C158.175 98.5739 166.524 107.348 176.823 107.348Z" fill="#3A3144"/>
<path d="M122.189 206.559L118.255 233.964H209.458C209.458 233.964 206.399 201.047 197.511 193.086" fill="#3A3144"/>
<path d="M168.096 92.261L145.76 95.7542L149.299 120.741L171.635 117.248L168.096 92.261Z" fill="#71D2C1"/>
<path d="M163.274 97.8555C158.758 108.879 147.976 111.329 147.976 111.329L145.791 97.5493C145.791 97.3962 166.479 90.0472 163.274 97.8555Z" fill="#3A3144"/>
<path d="M209.167 203.344L208.438 197.372C207.273 189.105 207.127 180.837 207.856 172.417L209.312 156.494C209.604 153.126 209.749 149.757 209.458 146.542C208.147 129.088 199.697 115.156 182.36 115.768L137.487 117.146C125.249 117.453 118.401 123.424 114.322 133.069C112.428 137.356 111.699 142.102 111.845 146.848C112.573 173.795 112.865 192.779 113.01 205.946C113.01 209.927 116.07 213.142 119.858 213.142L202.756 213.908C208.584 213.755 209.458 214.214 209.604 210.539C209.604 207.937 209.458 205.64 209.167 203.344Z" fill="#1CA591"/>
<path d="M139.526 69.5315L137.924 79.177C135.593 79.3301 137.05 69.0721 137.05 69.0721" fill="#3A3144"/>
<path d="M149.433 105.511C160.797 106.736 170.85 97.8555 172.015 85.9135L172.744 78.1052C173.618 68.4597 166.916 59.7328 157.592 58.8142L156.572 58.6611C147.394 57.7425 139.089 64.7852 138.215 74.5838L136.904 89.4348C136.175 97.5493 141.857 104.592 149.433 105.511Z" fill="#71D2C1"/>
<path d="M133.407 82.8516C133.844 86.6791 138.069 91.4253 142.149 90.0474L143.751 80.7081C143.606 79.9426 136.758 78.7178 136.175 78.7178C133.99 79.1771 133.262 80.8612 133.407 82.8516Z" fill="#71D2C1"/>
<path d="M160.943 65.5507C160.943 65.0914 151.182 74.2776 138.069 72.5935C127.142 71.2155 149.725 51.159 163.711 60.6514C163.711 60.6514 173.035 64.0197 173.618 73.8183C174.055 83.6169 170.704 86.9852 170.704 86.9852L169.247 82.5452V78.1052C169.102 77.9521 161.234 75.3493 160.943 65.5507Z" fill="#3A3144"/>
<path d="M151.327 90.0473C150.307 88.6693 148.559 88.5162 147.394 89.8942C146.811 90.6597 147.831 91.7314 148.413 90.9659C148.851 90.3535 149.579 90.2004 150.162 90.8128C150.599 91.5783 151.91 90.8128 151.327 90.0473Z" fill="#3A3144"/>
<path d="M154.095 92.8031C152.93 93.8748 151.619 94.6403 150.016 94.7934C149.142 94.9465 149.433 96.3245 150.453 96.1713C152.201 95.8651 153.804 95.0996 155.115 93.7217C155.698 93.2624 154.824 92.1907 154.095 92.8031Z" fill="#3A3144"/>
<path d="M157.738 88.6694C158.462 88.6694 159.049 88.0525 159.049 87.2915C159.049 86.5305 158.462 85.9136 157.738 85.9136C157.013 85.9136 156.426 86.5305 156.426 87.2915C156.426 88.0525 157.013 88.6694 157.738 88.6694Z" fill="#3A3144"/>
<path d="M159.049 80.0954C158.32 79.9423 157.446 79.7892 156.718 79.7892C155.844 79.7892 155.844 81.3202 156.718 81.3202C157.446 81.3202 158.029 81.3202 158.758 81.4733C159.486 81.7795 159.923 80.2485 159.049 80.0954Z" fill="#3A3144"/>
<path d="M143.46 87.9039C144.184 87.9039 144.771 87.287 144.771 86.526C144.771 85.765 144.184 85.1481 143.46 85.1481C142.736 85.1481 142.149 85.765 142.149 86.526C142.149 87.287 142.736 87.9039 143.46 87.9039Z" fill="#3A3144"/>
<path d="M144.771 79.3301C144.043 79.177 143.168 79.0239 142.44 79.0239C141.566 79.0239 141.566 80.555 142.44 80.555C143.168 80.555 143.751 80.555 144.48 80.7081C145.208 81.0143 145.645 79.6363 144.771 79.3301Z" fill="#3A3144"/>
<path d="M176.823 83.4637C176.386 87.2913 172.161 92.0375 168.082 90.6596L166.479 81.3203C166.625 80.5548 173.472 79.33 174.055 79.33C176.24 79.7893 176.969 81.4734 176.823 83.4637Z" fill="#71D2C1"/>
<path d="M128.017 155.728C110.679 155.728 85.9119 153.738 69.3031 143.939C54.1512 135.059 45.7011 114.697 43.5158 81.4732C42.2045 60.6511 43.8071 41.9725 43.8071 41.207L80.0843 44.5753C80.0843 44.7284 78.773 60.1918 79.7929 77.1863C81.2498 103.52 86.6404 110.103 87.2231 110.716C100.481 118.218 131.513 118.065 144.625 116.84L148.122 154.963C146.082 154.963 138.361 155.728 128.017 155.728Z" fill="#1CA591"/>
<path d="M175.949 153.432C176.241 153.432 177.552 153.279 179.3 152.666L167.79 116.381C170.559 115.462 172.307 115.309 179.446 115.003C216.16 113.013 226.941 110.104 230.001 108.42C236.557 103.367 261.324 72.4403 280.555 46.4127L309.257 69.8375C298.913 83.7699 264.238 130.16 250.397 139.959C238.596 148.533 215.14 151.288 181.194 153.126C179.009 153.279 176.532 153.432 175.949 153.432Z" fill="#1CA591"/>
<path d="M112.428 138.428C111.408 143.633 111.117 148.992 111.554 154.35C111.699 155.269 113.011 155.269 113.011 154.35C112.428 149.145 112.719 143.939 113.739 138.887C113.885 137.815 112.573 137.509 112.428 138.428Z" fill="#3A3144"/>
<path d="M204.359 152.82C205.524 152.054 206.981 151.748 208.438 151.901C209.312 152.054 209.749 150.676 208.875 150.523C207.127 150.217 205.379 150.523 203.776 151.595C202.756 152.054 203.485 153.279 204.359 152.82Z" fill="#3A3144"/>
<path d="M301.244 41.2074C301.972 44.5757 301.826 47.944 300.661 51.3122C300.369 52.2309 301.681 52.5371 301.972 51.7715C303.138 48.2502 303.283 44.5757 302.555 40.9012C302.409 39.9826 301.098 40.2888 301.244 41.2074Z" fill="#3A3144"/>
<path d="M62.1642 34.9299C63.9125 32.4802 66.2436 30.643 69.0117 29.5713C69.8858 29.265 69.4488 27.734 68.5746 28.1933C65.5151 29.4181 62.8927 31.5616 60.853 34.3175C60.4159 34.9299 61.7271 35.5423 62.1642 34.9299Z" fill="#3A3144"/>
</svg>
