<svg width="370" height="273" viewBox="0 0 370 273" fill="none" xmlns="http://www.w3.org/2000/svg">
<path d="M110.34 225.153L84.4048 268.737C81.1821 274.261 73.0485 274.261 69.8258 268.737L43.8905 225.153L77.0386 191.852L110.34 225.153Z" fill="#B2EEE6"/>
<path d="M350.51 242.955H19.4898C8.74741 242.955 0 234.207 0 223.465V29.1805C0 18.4381 8.74741 9.69067 19.4898 9.69067H350.51C361.253 9.69067 370 18.4381 370 29.1805V223.618C370 234.207 361.253 242.955 350.51 242.955Z" fill="#B2EEE6"/>
<path d="M177.557 215.485L173.414 242.955H269.482C269.482 242.955 266.259 209.96 256.898 201.98" fill="#F97171"/>
<path d="M228.005 100.157L200.437 101.888L202.294 131.447L229.862 129.716L228.005 100.157Z" fill="#71D2C1"/>
<path d="M220.834 104.838C216.076 115.887 204.72 118.342 204.72 118.342L202.418 104.531C202.418 104.531 224.21 97.0111 220.834 104.838Z" fill="#3A3144"/>
<path d="M269.175 212.109L268.407 206.124C267.18 197.837 267.026 189.55 267.793 181.109L269.328 165.149C269.635 161.773 269.788 158.397 269.482 155.174C268.1 137.679 259.199 123.714 240.937 124.328L193.671 125.709C180.78 126.016 173.567 132.001 169.27 141.669C167.275 145.966 166.508 150.724 166.661 155.481C167.275 179.114 167.582 196.763 167.735 209.5C167.889 216.252 173.413 221.777 180.166 221.931L262.422 222.544C268.561 222.391 269.482 222.851 269.635 219.168C269.635 216.713 269.482 214.411 269.175 212.109Z" fill="white"/>
<path d="M195.666 76.6005L193.978 86.2687C191.522 86.4222 193.057 76.1401 193.057 76.1401" fill="#3A3144"/>
<path d="M206.255 112.511C218.225 113.739 228.814 104.838 230.041 92.8676L230.809 85.041C231.73 75.3728 224.67 66.6254 214.849 65.7046L213.774 65.5512C204.106 64.6304 195.359 71.6897 194.438 81.5114L193.057 96.3973C192.289 104.531 198.121 111.744 206.255 112.511Z" fill="#71D2C1"/>
<path d="M189.374 89.7983C189.834 93.6349 194.285 98.3922 198.582 97.0111L200.27 87.6498C200.116 86.8825 192.903 85.6548 192.29 85.6548C189.988 86.2686 189.067 87.9567 189.374 89.7983Z" fill="#71D2C1"/>
<path d="M235.106 90.4123C234.645 94.2489 230.195 99.0062 225.898 97.6251L224.21 88.2638C224.363 87.4965 231.576 86.2688 232.19 86.2688C234.492 86.7292 235.259 88.4173 235.106 90.4123Z" fill="#71D2C1"/>
<path d="M195.512 78.2885C195.512 78.2885 192.29 98.0853 195.819 99.7734C198.121 101.001 197.047 97.4714 205.641 98.8526C209.324 99.4664 211.319 97.4714 215.002 99.9268C228.507 108.521 224.056 78.5954 224.056 78.5954L229.581 83.0459C229.581 83.0459 234.032 111.437 218.839 119.11C207.482 124.788 189.22 120.031 189.988 104.991C191.062 84.5805 193.057 77.8281 193.057 77.8281" fill="#3A3144"/>
<path d="M218.378 72.4571C218.378 71.9967 208.096 81.2045 194.285 79.5164C182.775 78.1353 206.562 58.0316 221.294 67.5463C221.294 67.5463 231.116 70.9225 231.73 80.7442C232.343 90.5658 228.66 93.942 228.66 93.942L228.2 90.5658L228.353 86.2688C228.046 86.2688 218.685 82.4323 218.378 72.4571Z" fill="#3A3144"/>
<path d="M208.25 97.1646C207.175 95.7835 205.334 95.63 204.106 97.0112C203.492 97.7785 204.567 98.8527 205.18 98.0854C205.641 97.4716 206.408 97.3181 207.022 97.9319C207.482 98.5458 208.71 97.9319 208.25 97.1646Z" fill="#3A3144"/>
<path d="M211.165 99.9268C209.938 101.001 208.557 101.768 206.869 101.922C205.948 102.075 206.255 103.456 207.329 103.303C209.17 102.996 210.859 102.229 212.24 100.848C212.854 100.234 211.779 99.313 211.165 99.9268Z" fill="white"/>
<path d="M215.002 95.63C215.765 95.63 216.383 95.0116 216.383 94.2488C216.383 93.486 215.765 92.8677 215.002 92.8677C214.239 92.8677 213.621 93.486 213.621 94.2488C213.621 95.0116 214.239 95.63 215.002 95.63Z" fill="#3A3144"/>
<path d="M216.23 87.1895C215.462 87.036 214.542 86.8826 213.774 86.8826C212.854 86.8826 212.854 88.4172 213.774 88.4172C214.542 88.4172 215.156 88.4172 215.923 88.5707C216.844 88.7241 217.304 87.343 216.23 87.1895Z" fill="#3A3144"/>
<path d="M199.963 94.8627C200.725 94.8627 201.344 94.2443 201.344 93.4815C201.344 92.7187 200.725 92.1003 199.963 92.1003C199.2 92.1003 198.581 92.7187 198.581 93.4815C198.581 94.2443 199.2 94.8627 199.963 94.8627Z" fill="#3A3144"/>
<path d="M201.19 86.4222C200.423 86.2687 199.502 86.1152 198.735 86.1152C197.814 86.1152 197.814 87.6499 198.735 87.6499C199.502 87.6499 200.116 87.6499 200.883 87.8033C201.804 87.9568 202.111 86.5756 201.19 86.4222Z" fill="#3A3144"/>
<path d="M60.618 97.7786L85.479 79.363C85.479 79.363 64.7615 49.4377 50.029 61.4078C35.2965 73.378 60.618 97.7786 60.618 97.7786Z" fill="#71D2C1"/>
<path d="M67.2169 54.3487C69.8258 62.3288 72.2812 70.3089 74.8901 78.2889C76.1178 81.9721 81.796 80.4374 80.5682 76.7543C77.9594 68.7742 75.504 60.7941 72.8951 52.814C71.8208 49.1309 65.9892 50.6656 67.2169 54.3487Z" fill="#71D2C1"/>
<path d="M36.6777 75.68C41.742 79.3631 46.8063 83.0462 51.7171 87.0363C53.8656 88.8778 57.0883 85.6551 54.9398 83.8135C49.7221 79.67 44.5043 75.68 38.9796 71.8434C36.5242 70.1553 34.3757 73.9919 36.6777 75.68Z" fill="#71D2C1"/>
<path d="M35.9104 63.7096C39.747 68.0065 44.3509 71.8431 49.2617 74.9124C51.7171 76.447 53.8656 72.6104 51.5637 71.0758C46.9598 68.16 42.8163 64.6303 39.1331 60.6403C37.1381 58.4918 33.9154 61.5611 35.9104 63.7096Z" fill="#71D2C1"/>
<path d="M54.7864 63.0959C50.4894 59.4127 46.3459 55.5762 42.6628 51.4327C40.6678 49.2842 37.5985 52.5069 39.4401 54.6554C43.2766 58.7989 47.2667 62.7889 51.5637 66.3186C53.8656 68.1602 56.9349 64.9374 54.7864 63.0959Z" fill="#71D2C1"/>
<path d="M47.1132 47.4426C52.0241 55.8831 59.8507 62.1751 67.5239 68.0067C69.8258 69.6948 71.9743 65.8582 69.8258 64.1701C62.7665 58.7989 55.5537 52.9673 50.9498 45.2941C49.5687 42.6853 45.7321 44.9872 47.1132 47.4426Z" fill="#71D2C1"/>
<path d="M349.436 54.5018L319.818 46.0613C319.818 46.0613 328.718 10.7647 346.674 16.9033C364.629 22.7349 349.436 54.5018 349.436 54.5018Z" fill="#71D2C1"/>
<path d="M322.119 16.4429C322.58 24.8833 322.887 33.1704 323.347 41.6108C323.501 45.4474 329.486 45.4474 329.332 41.6108C328.872 33.1704 328.565 24.8833 328.105 16.4429C327.798 12.6063 321.966 12.6063 322.119 16.4429Z" fill="#71D2C1"/>
<path d="M360.485 22.8884C356.802 28.2596 353.426 33.6308 350.05 39.3089C348.515 41.7644 352.505 44.0663 353.886 41.6109C357.109 36.0862 360.639 30.5615 364.322 25.1903C366.01 22.7349 362.173 20.433 360.485 22.8884Z" fill="#71D2C1"/>
<path d="M356.495 12.4528C354.5 17.5171 351.738 22.2745 348.515 26.5714C346.827 28.8734 350.664 31.0219 352.352 28.8734C355.881 24.2695 358.644 19.2052 360.792 13.6805C361.866 10.9182 357.569 9.69048 356.495 12.4528Z" fill="#71D2C1"/>
<path d="M346.674 22.1213C349.589 17.057 352.045 11.8392 354.193 6.31454C355.268 3.70567 350.971 2.47796 349.896 5.08684C347.901 10.1511 345.446 15.0619 342.837 19.8193C341.456 22.2747 345.292 24.5767 346.674 22.1213Z" fill="#71D2C1"/>
<path d="M340.075 1.55707C338.54 10.6114 333.629 18.745 328.872 26.4181C327.337 28.8735 331.174 31.022 332.708 28.7201C337.773 20.74 342.837 12.2995 344.372 2.78478C344.832 0.0224364 340.535 -1.20527 340.075 1.55707Z" fill="#71D2C1"/>
<path d="M198.581 163.614C182.775 163.614 151.008 162.54 133.513 155.174C112.949 146.273 64.1477 102.382 54.6329 93.7884L80.4148 65.3977C105.583 88.4172 138.884 115.734 148.552 119.877C158.835 124.328 187.993 125.555 205.487 125.248L206.408 163.614C205.027 163.614 202.265 163.614 198.581 163.614Z" fill="white"/>
<path d="M236.027 163.614L234.031 125.248C250.299 124.328 279.917 117.882 289.739 104.531C293.729 98.3924 306.466 65.0909 315.827 37.7744L352.045 50.2049C345.446 69.5413 329.025 115.734 320.738 126.937C297.105 159.471 242.319 163.154 236.027 163.614Z" fill="white"/>
<path d="M167.122 142.283C165.433 148.728 164.973 155.174 165.587 161.773C165.74 162.693 167.122 162.693 167.122 161.773C166.508 155.327 166.968 148.882 168.656 142.59C168.656 141.669 167.275 141.362 167.122 142.283Z" fill="#3A3144"/>
<path d="M265.031 160.698C266.566 159.624 268.1 158.703 269.635 157.629C270.402 157.169 269.635 155.788 268.868 156.401C267.333 157.476 265.798 158.396 264.264 159.471C263.496 159.931 264.264 161.312 265.031 160.698Z" fill="#3A3144"/>
<path d="M60.4645 63.4027C58.316 68.0066 57.8556 72.9175 59.0834 77.9818C59.3903 78.9025 60.7715 78.4421 60.4645 77.5214C59.3903 72.9175 59.6972 68.467 61.6922 64.1701C62.1526 63.2493 60.9249 62.6354 60.4645 63.4027Z" fill="#3A3144"/>
<path d="M337.312 26.8786C340.995 29.9479 340.075 34.8587 339 39.0022C338.847 39.923 340.228 40.3834 340.382 39.4626C341.456 34.8587 342.377 29.334 338.233 25.8044C337.619 25.1905 336.545 26.2648 337.312 26.8786Z" fill="#3A3144"/>
</svg>
