<svg width="219" height="50" viewBox="0 0 219 50" fill="none" xmlns="http://www.w3.org/2000/svg">
<path d="M19.991 18.4786C14.7099 21.0562 9.97682 24.5552 5.99109 28.7889V10.3974L19.991 18.4786ZM0 49.9945C0 49.9945 0 50.0069 0 49.9945C2.35407 41.8136 7.09959 34.6288 13.4269 29.262L25.4091 49.9945H32.3343L18.2846 25.6883C23.0052 22.6998 28.3485 20.6204 34.078 19.674L0 0V49.9945Z" fill="white"/>
<path d="M40.5418 21.1064H49.9955V28.6025H22.2697L20.9993 26.3985C26.7786 23.1112 33.4422 21.1936 40.5418 21.1064Z" fill="white"/>
<path d="M30.02 42.498L34.367 49.9941H49.712V42.498H30.02Z" fill="white"/>
<path d="M3.98962 0L16.9806 7.5085H49.9999V0H3.98962Z" fill="white"/>
<path d="M61.4485 8.31045H66.0791C68.1055 8.31045 69.6174 8.69831 70.6148 9.47404C71.6122 10.2339 72.1108 11.5479 72.1108 13.416C72.1108 14.635 71.9288 15.6324 71.5647 16.4081C71.2164 17.168 70.6069 17.7221 69.7362 18.0704L72.4196 27.5454H68.905L66.6016 18.7353H64.9393V27.5454H61.4485V8.31045ZM66.0554 16.5506C67.0528 16.5506 67.7572 16.3211 68.1689 15.862C68.5963 15.4028 68.81 14.6509 68.81 13.606C68.81 12.5928 68.6201 11.8566 68.2401 11.3975C67.876 10.9384 67.2111 10.7089 66.2454 10.7089H64.9393V16.5506H66.0554ZM78.7017 27.7591C77.1819 27.7591 76.0658 27.3396 75.3534 26.5005C74.641 25.6457 74.2848 24.3871 74.2848 22.7248V18.6403C74.2848 16.9622 74.641 15.7036 75.3534 14.8646C76.0816 14.0255 77.1977 13.606 78.7017 13.606C80.2532 13.606 81.3455 14.0414 81.9788 14.9121C82.6279 15.7828 82.9524 17.0968 82.9524 18.8541V20.825H77.4906V23.5322C77.4906 24.1971 77.5856 24.68 77.7756 24.9807C77.9814 25.2815 78.298 25.4319 78.7255 25.4319C79.1371 25.4319 79.4299 25.2895 79.6041 25.0045C79.7941 24.7037 79.8891 24.2525 79.8891 23.6509V22.4873H82.9287V23.4372C82.9287 24.8462 82.5724 25.9227 81.86 26.6668C81.1476 27.395 80.0949 27.7591 78.7017 27.7591ZM79.8891 19.234V17.9279C79.8891 17.2155 79.802 16.7089 79.6278 16.4081C79.4537 16.0915 79.145 15.9332 78.7017 15.9332C78.2426 15.9332 77.926 16.0994 77.7518 16.4319C77.5777 16.7643 77.4906 17.3818 77.4906 18.2841V19.234H79.8891ZM85.144 13.8197H88.2548V15.0308C89.173 14.0651 90.2496 13.5823 91.4844 13.5823C92.0385 13.5823 92.5134 13.7247 92.9092 14.0097C93.305 14.2788 93.5979 14.6904 93.7878 15.2445C94.7377 14.1363 95.8934 13.5823 97.2549 13.5823C98.0148 13.5823 98.6243 13.8593 99.0834 14.4134C99.5583 14.9675 99.7958 15.767 99.7958 16.8118V27.5454H96.7087V17.1205C96.7087 16.6139 96.6216 16.2577 96.4475 16.0519C96.2892 15.8461 96.0438 15.7432 95.7113 15.7432C95.458 15.7432 95.1731 15.8145 94.8564 15.9569C94.5557 16.0994 94.2786 16.2973 94.0253 16.5506V16.8118V27.5454H90.962V17.1205C90.962 16.6139 90.8749 16.2577 90.7007 16.0519C90.5266 15.8461 90.2733 15.7432 89.9408 15.7432C89.6875 15.7432 89.4105 15.8145 89.1097 15.9569C88.8089 16.0994 88.5239 16.2973 88.2548 16.5506V27.5454H85.144V13.8197ZM106.345 27.7591C104.872 27.7591 103.772 27.3554 103.044 26.548C102.315 25.7248 101.951 24.5375 101.951 22.986V18.3791C101.951 16.8277 102.315 15.6482 103.044 14.8408C103.772 14.0176 104.872 13.606 106.345 13.606C107.817 13.606 108.917 14.0176 109.645 14.8408C110.389 15.6482 110.761 16.8277 110.761 18.3791V22.986C110.761 24.5375 110.389 25.7248 109.645 26.548C108.917 27.3554 107.817 27.7591 106.345 27.7591ZM106.368 25.5269C106.859 25.5269 107.184 25.337 107.342 24.957C107.5 24.5612 107.579 23.9834 107.579 23.2235V18.1654C107.579 17.4055 107.5 16.8277 107.342 16.4319C107.184 16.0361 106.859 15.8382 106.368 15.8382C105.862 15.8382 105.529 16.0361 105.371 16.4319C105.213 16.8277 105.133 17.4055 105.133 18.1654V23.2235C105.133 23.9834 105.213 24.5612 105.371 24.957C105.529 25.337 105.862 25.5269 106.368 25.5269ZM116.961 27.7116C115.711 27.7116 114.824 27.4108 114.302 26.8093C113.795 26.2077 113.542 25.3132 113.542 24.1259V15.9332H112.164V13.8197H113.542V9.71151H116.795V13.8197H118.861V15.9332H116.795V23.8409C116.795 24.3 116.89 24.6325 117.08 24.8383C117.286 25.0441 117.602 25.147 118.03 25.147C118.426 25.147 118.758 25.1153 119.027 25.052V27.5454C118.394 27.6562 117.705 27.7116 116.961 27.7116ZM121.094 8.31045H129.168V10.7801H124.585V16.3131H128.194V18.7591H124.585V25.147H129.215V27.5454H121.094V8.31045ZM131.038 13.8197H134.148V15.0308C135.067 14.0651 136.143 13.5823 137.378 13.5823C137.932 13.5823 138.407 13.7247 138.803 14.0097C139.199 14.2788 139.491 14.6904 139.681 15.2445C140.631 14.1363 141.787 13.5823 143.148 13.5823C143.908 13.5823 144.518 13.8593 144.977 14.4134C145.452 14.9675 145.689 15.767 145.689 16.8118V27.5454H142.602V17.1205C142.602 16.6139 142.515 16.2577 142.341 16.0519C142.183 15.8461 141.937 15.7432 141.605 15.7432C141.352 15.7432 141.067 15.8145 140.75 15.9569C140.449 16.0994 140.172 16.2973 139.919 16.5506V16.8118V27.5454H136.856V17.1205C136.856 16.6139 136.768 16.2577 136.594 16.0519C136.42 15.8461 136.167 15.7432 135.834 15.7432C135.581 15.7432 135.304 15.8145 135.003 15.9569C134.703 16.0994 134.418 16.2973 134.148 16.5506V27.5454H131.038V13.8197ZM148.082 13.8197H151.312V14.8646C152.183 14.0255 153.117 13.606 154.114 13.606C155.222 13.606 156.006 14.0651 156.465 14.9833C156.924 15.9015 157.154 16.9701 157.154 18.1891V22.8435C157.154 24.3158 156.893 25.5032 156.37 26.4056C155.864 27.3079 155.056 27.7591 153.948 27.7591C153.061 27.7591 152.183 27.3475 151.312 26.5243V32.0573H148.082V13.8197ZM152.737 25.5032C153.196 25.5032 153.505 25.2815 153.663 24.8383C153.837 24.395 153.924 23.7697 153.924 22.9623V18.0229C153.924 17.3105 153.837 16.7564 153.663 16.3606C153.489 15.9649 153.172 15.767 152.713 15.767C152.238 15.767 151.771 15.9649 151.312 16.3606V25.0282C151.755 25.3449 152.23 25.5032 152.737 25.5032ZM159.59 8.31045H162.796V27.5454H159.59V8.31045ZM169.515 27.7591C168.043 27.7591 166.942 27.3554 166.214 26.548C165.486 25.7248 165.122 24.5375 165.122 22.986V18.3791C165.122 16.8277 165.486 15.6482 166.214 14.8408C166.942 14.0176 168.043 13.606 169.515 13.606C170.987 13.606 172.087 14.0176 172.816 14.8408C173.56 15.6482 173.932 16.8277 173.932 18.3791V22.986C173.932 24.5375 173.56 25.7248 172.816 26.548C172.087 27.3554 170.987 27.7591 169.515 27.7591ZM169.539 25.5269C170.029 25.5269 170.354 25.337 170.512 24.957C170.671 24.5612 170.75 23.9834 170.75 23.2235V18.1654C170.75 17.4055 170.671 16.8277 170.512 16.4319C170.354 16.0361 170.029 15.8382 169.539 15.8382C169.032 15.8382 168.7 16.0361 168.541 16.4319C168.383 16.8277 168.304 17.4055 168.304 18.1654V23.2235C168.304 23.9834 168.383 24.5612 168.541 24.957C168.7 25.337 169.032 25.5269 169.539 25.5269ZM176.261 28.9465C177.116 28.9465 177.717 28.8673 178.066 28.709C178.43 28.5665 178.612 28.2816 178.612 27.8541C178.612 27.5692 178.446 26.7618 178.113 25.4319L175.097 13.8197H178.232L180.013 22.891L181.556 13.8197H184.667L181.461 28.0916C181.192 29.2473 180.678 30.0626 179.918 30.5375C179.174 31.0283 178.161 31.2737 176.878 31.2737H176.261V28.9465ZM190.317 27.7591C188.797 27.7591 187.681 27.3396 186.968 26.5005C186.256 25.6457 185.9 24.3871 185.9 22.7248V18.6403C185.9 16.9622 186.256 15.7036 186.968 14.8646C187.697 14.0255 188.813 13.606 190.317 13.606C191.868 13.606 192.96 14.0414 193.594 14.9121C194.243 15.7828 194.567 17.0968 194.567 18.8541V20.825H189.106V23.5322C189.106 24.1971 189.201 24.68 189.39 24.9807C189.596 25.2815 189.913 25.4319 190.34 25.4319C190.752 25.4319 191.045 25.2895 191.219 25.0045C191.409 24.7037 191.504 24.2525 191.504 23.6509V22.4873H194.544V23.4372C194.544 24.8462 194.187 25.9227 193.475 26.6668C192.763 27.395 191.71 27.7591 190.317 27.7591ZM191.504 19.234V17.9279C191.504 17.2155 191.417 16.7089 191.243 16.4081C191.069 16.0915 190.76 15.9332 190.317 15.9332C189.858 15.9332 189.541 16.0994 189.367 16.4319C189.193 16.7643 189.106 17.3818 189.106 18.2841V19.234H191.504ZM200.915 27.7591C199.395 27.7591 198.279 27.3396 197.566 26.5005C196.854 25.6457 196.498 24.3871 196.498 22.7248V18.6403C196.498 16.9622 196.854 15.7036 197.566 14.8646C198.295 14.0255 199.411 13.606 200.915 13.606C202.466 13.606 203.558 14.0414 204.192 14.9121C204.841 15.7828 205.165 17.0968 205.165 18.8541V20.825H199.703V23.5322C199.703 24.1971 199.798 24.68 199.988 24.9807C200.194 25.2815 200.511 25.4319 200.938 25.4319C201.35 25.4319 201.643 25.2895 201.817 25.0045C202.007 24.7037 202.102 24.2525 202.102 23.6509V22.4873H205.142V23.4372C205.142 24.8462 204.785 25.9227 204.073 26.6668C203.361 27.395 202.308 27.7591 200.915 27.7591ZM202.102 19.234V17.9279C202.102 17.2155 202.015 16.7089 201.841 16.4081C201.667 16.0915 201.358 15.9332 200.915 15.9332C200.455 15.9332 200.139 16.0994 199.965 16.4319C199.791 16.7643 199.703 17.3818 199.703 18.2841V19.234H202.102ZM211.085 27.7591C209.929 27.7591 208.98 27.4504 208.235 26.833C207.491 26.2156 206.961 25.3132 206.644 24.1259L209.043 23.1997C209.407 24.7354 210.072 25.5032 211.038 25.5032C211.402 25.5032 211.679 25.4082 211.869 25.2182C212.075 25.0282 212.177 24.767 212.177 24.4346C212.177 24.0705 212.067 23.738 211.845 23.4372C211.623 23.1206 211.228 22.7248 210.658 22.2499L209.019 20.825C208.323 20.2551 207.808 19.701 207.476 19.1628C207.143 18.6245 206.977 17.9675 206.977 17.1918C206.977 16.1153 207.341 15.2524 208.069 14.6034C208.813 13.9385 209.747 13.606 210.871 13.606C211.948 13.606 212.827 13.9305 213.507 14.5796C214.188 15.2129 214.631 16.0757 214.837 17.168L212.724 18.0704C212.597 17.4372 212.383 16.9226 212.082 16.5269C211.798 16.1153 211.425 15.9094 210.966 15.9094C210.634 15.9094 210.365 16.0123 210.159 16.2182C209.969 16.424 209.874 16.6852 209.874 17.0018C209.874 17.2551 209.985 17.5242 210.206 17.8092C210.428 18.0942 210.761 18.4266 211.204 18.8066L212.866 20.3264C213.579 20.9438 214.125 21.5375 214.505 22.1074C214.9 22.6615 215.098 23.3343 215.098 24.1259C215.098 25.2815 214.718 26.176 213.958 26.8093C213.214 27.4425 212.257 27.7591 211.085 27.7591Z" fill="white"/>
<path d="M64.0141 44.6367H63.3109V35.3112H60.0681V34.6559H67.2568V35.3112H64.0141V44.6367ZM73.7492 44.6367V39.8238C73.7492 39.0774 73.5921 38.5358 73.2781 38.199C72.9641 37.8577 72.4771 37.687 71.8172 37.687C70.9297 37.687 70.2788 37.9123 69.8647 38.3628C69.4551 38.8089 69.2503 39.5348 69.2503 40.5406V44.6367H68.5744V34.0141H69.2503V37.3934L69.2161 38.3424H69.2639C69.5415 37.8963 69.892 37.5732 70.3152 37.373C70.7385 37.1727 71.2642 37.0726 71.8923 37.0726C73.5762 37.0726 74.4182 37.976 74.4182 39.7828V44.6367H73.7492ZM79.8182 44.7733C78.7396 44.7733 77.8976 44.441 77.2923 43.7765C76.6915 43.1121 76.3911 42.1813 76.3911 40.9844C76.3911 39.801 76.6824 38.8544 77.265 38.1444C77.8475 37.4298 78.6326 37.0726 79.6202 37.0726C80.4941 37.0726 81.1836 37.3775 81.6888 37.9874C82.194 38.5972 82.4466 39.4256 82.4466 40.4723V41.0185H77.1011C77.1102 42.038 77.3469 42.8162 77.8111 43.3533C78.2799 43.8903 78.9489 44.1588 79.8182 44.1588C80.2415 44.1588 80.6124 44.1293 80.931 44.0701C81.2541 44.0109 81.6615 43.8835 82.153 43.6878V44.3022C81.7343 44.4843 81.3474 44.6071 80.9924 44.6709C80.6374 44.7391 80.246 44.7733 79.8182 44.7733ZM79.6202 37.6733C78.9057 37.6733 78.3322 37.91 77.8999 38.3833C77.4675 38.8521 77.2149 39.5302 77.1421 40.4177H81.7297C81.7297 39.5575 81.5431 38.8862 81.1699 38.4038C80.7967 37.9168 80.2802 37.6733 79.6202 37.6733ZM94.2638 40.9161C94.2638 42.1267 93.9703 43.0734 93.3832 43.7561C92.7961 44.4342 91.9859 44.7733 90.9528 44.7733C90.302 44.7733 89.7285 44.6162 89.2325 44.3022C88.7364 43.9882 88.3563 43.5376 88.0924 42.9505C87.8284 42.3634 87.6964 41.6852 87.6964 40.9161C87.6964 39.7055 87.99 38.7634 88.5771 38.0898C89.1642 37.4116 89.9698 37.0726 90.9938 37.0726C92.0133 37.0726 92.812 37.4162 93.39 38.1034C93.9726 38.7861 94.2638 39.7237 94.2638 40.9161ZM88.4064 40.9161C88.4064 41.9356 88.6294 42.732 89.0754 43.3055C89.526 43.8744 90.1609 44.1588 90.9801 44.1588C91.7993 44.1588 92.432 43.8744 92.878 43.3055C93.3286 42.732 93.5538 41.9356 93.5538 40.9161C93.5538 39.8921 93.3263 39.0979 92.8712 38.5335C92.4206 37.9692 91.7857 37.687 90.9665 37.687C90.1472 37.687 89.5146 37.9692 89.0686 38.5335C88.6271 39.0933 88.4064 39.8875 88.4064 40.9161ZM96.9058 37.2159V42.022C96.9058 42.7684 97.0628 43.3123 97.3769 43.6537C97.6909 43.9904 98.1779 44.1588 98.8378 44.1588C99.7208 44.1588 100.369 43.9358 100.783 43.4898C101.202 43.0438 101.412 42.3179 101.412 41.312V37.2159H102.081V44.6367H101.507L101.384 43.6127H101.343C100.861 44.3864 100.003 44.7733 98.7696 44.7733C97.0811 44.7733 96.2368 43.8698 96.2368 42.063V37.2159H96.9058ZM106.525 44.1725C106.953 44.1725 107.326 44.1361 107.644 44.0633V44.6094C107.317 44.7186 106.939 44.7733 106.511 44.7733C105.856 44.7733 105.371 44.598 105.057 44.2476C104.748 43.8971 104.593 43.3464 104.593 42.5955V37.803H103.494V37.4071L104.593 37.0999L104.934 35.4205H105.282V37.2159H107.46V37.803H105.282V42.4999C105.282 43.0688 105.382 43.4898 105.583 43.7629C105.783 44.036 106.097 44.1725 106.525 44.1725ZM113.85 42.7047C113.85 43.3692 113.597 43.8812 113.092 44.2408C112.587 44.5958 111.87 44.7733 110.942 44.7733C109.95 44.7733 109.162 44.6208 108.58 44.3159V43.5854C109.326 43.9586 110.114 44.1452 110.942 44.1452C111.675 44.1452 112.23 44.0246 112.608 43.7834C112.99 43.5376 113.181 43.2122 113.181 42.8071C113.181 42.4339 113.029 42.1199 112.724 41.865C112.423 41.6101 111.927 41.3598 111.235 41.1141C110.494 40.8455 109.972 40.6157 109.672 40.4246C109.372 40.2288 109.144 40.0104 108.989 39.7692C108.839 39.5234 108.764 39.2253 108.764 38.8749C108.764 38.3196 108.996 37.8804 109.46 37.5573C109.929 37.2341 110.582 37.0726 111.42 37.0726C112.221 37.0726 112.981 37.2228 113.7 37.5231L113.447 38.1376C112.719 37.8372 112.043 37.687 111.42 37.687C110.814 37.687 110.334 37.7871 109.979 37.9874C109.624 38.1876 109.447 38.4652 109.447 38.8202C109.447 39.2071 109.583 39.5166 109.856 39.7487C110.134 39.9808 110.673 40.2402 111.474 40.527C112.143 40.7682 112.63 40.9866 112.935 41.1823C113.24 41.3735 113.468 41.5919 113.618 41.8377C113.773 42.0835 113.85 42.3725 113.85 42.7047ZM117.721 44.1725C118.149 44.1725 118.522 44.1361 118.84 44.0633V44.6094C118.513 44.7186 118.135 44.7733 117.707 44.7733C117.052 44.7733 116.567 44.598 116.253 44.2476C115.944 43.8971 115.789 43.3464 115.789 42.5955V37.803H114.69V37.4071L115.789 37.0999L116.13 35.4205H116.478V37.2159H118.656V37.803H116.478V42.4999C116.478 43.0688 116.579 43.4898 116.779 43.7629C116.979 44.036 117.293 44.1725 117.721 44.1725ZM124.951 44.6367L124.78 43.4625H124.725C124.352 43.9404 123.967 44.2794 123.572 44.4797C123.18 44.6754 122.716 44.7733 122.179 44.7733C121.451 44.7733 120.884 44.5867 120.479 44.2135C120.074 43.8403 119.871 43.3237 119.871 42.6638C119.871 41.9401 120.172 41.378 120.772 40.9775C121.378 40.577 122.252 40.3654 123.394 40.3426L124.807 40.3017V39.8101C124.807 39.1047 124.664 38.5722 124.377 38.2127C124.09 37.8531 123.628 37.6733 122.991 37.6733C122.304 37.6733 121.592 37.8645 120.854 38.2468L120.602 37.6597C121.416 37.2774 122.222 37.0862 123.019 37.0862C123.833 37.0862 124.441 37.2979 124.841 37.7211C125.246 38.1444 125.449 38.8043 125.449 39.7009V44.6367H124.951ZM122.22 44.1588C123.012 44.1588 123.635 43.9336 124.09 43.483C124.55 43.0279 124.78 42.3975 124.78 41.5919V40.8615L123.483 40.9161C122.441 40.9661 121.696 41.13 121.25 41.4076C120.809 41.6807 120.588 42.1085 120.588 42.6911C120.588 43.1553 120.729 43.5171 121.011 43.7765C121.298 44.0314 121.701 44.1588 122.22 44.1588ZM130.617 37.803H128.869V44.6367H128.193V37.803H126.814V37.4071L128.193 37.1545V36.581C128.193 35.6708 128.359 35.004 128.692 34.5808C129.028 34.153 129.577 33.939 130.337 33.939C130.747 33.939 131.156 34.0005 131.566 34.1234L131.409 34.7105C131.045 34.5967 130.683 34.5398 130.323 34.5398C129.795 34.5398 129.42 34.6968 129.197 35.0109C128.978 35.3203 128.869 35.8255 128.869 36.5264V37.2159H130.617V37.803ZM134.808 37.803H133.061V44.6367H132.385V37.803H131.006V37.4071L132.385 37.1545V36.581C132.385 35.6708 132.551 35.004 132.883 34.5808C133.22 34.153 133.769 33.939 134.529 33.939C134.938 33.939 135.348 34.0005 135.757 34.1234L135.6 34.7105C135.236 34.5967 134.874 34.5398 134.515 34.5398C133.987 34.5398 133.612 34.6968 133.389 35.0109C133.17 35.3203 133.061 35.8255 133.061 36.5264V37.2159H134.808V37.803ZM136.925 44.6367H136.249V37.2159H136.925V44.6367ZM136.153 35.1542C136.153 34.7173 136.297 34.4988 136.583 34.4988C136.725 34.4988 136.834 34.5557 136.911 34.6695C136.993 34.7833 137.034 34.9449 137.034 35.1542C137.034 35.359 136.993 35.5206 136.911 35.6389C136.834 35.7573 136.725 35.8164 136.583 35.8164C136.297 35.8164 136.153 35.5957 136.153 35.1542ZM144.585 44.6367V39.8238C144.585 39.0774 144.428 38.5358 144.113 38.199C143.799 37.8577 143.312 37.687 142.653 37.687C141.765 37.687 141.114 37.9123 140.7 38.3628C140.29 38.8089 140.086 39.5348 140.086 40.5406V44.6367H139.41V37.2159H139.983L140.113 38.2331H140.154C140.636 37.4594 141.494 37.0726 142.728 37.0726C144.412 37.0726 145.254 37.976 145.254 39.7828V44.6367H144.585ZM153.446 37.2159V37.687L151.91 37.7826C152.319 38.2923 152.524 38.8521 152.524 39.462C152.524 40.1765 152.285 40.7568 151.807 41.2028C151.334 41.6443 150.697 41.865 149.896 41.865C149.559 41.865 149.322 41.8514 149.186 41.8241C148.917 41.9651 148.713 42.1313 148.571 42.3224C148.43 42.5136 148.36 42.7161 148.36 42.93C148.36 43.1667 148.449 43.3396 148.626 43.4488C148.808 43.5581 149.111 43.6127 149.534 43.6127H150.831C151.637 43.6127 152.253 43.7765 152.681 44.1042C153.109 44.4274 153.323 44.9075 153.323 45.5447C153.323 46.3275 153.004 46.9305 152.367 47.3538C151.735 47.7816 150.831 47.9955 149.657 47.9955C148.724 47.9955 148 47.8158 147.486 47.4562C146.976 47.0967 146.721 46.596 146.721 45.9543C146.721 45.4446 146.878 45.0213 147.192 44.6845C147.511 44.3477 147.941 44.1179 148.483 43.995C148.26 43.8994 148.08 43.7652 147.943 43.5922C147.811 43.4147 147.745 43.2122 147.745 42.9846C147.745 42.4885 148.062 42.0516 148.694 41.6739C148.262 41.4964 147.925 41.2187 147.684 40.841C147.443 40.4587 147.322 40.0218 147.322 39.5302C147.322 38.7884 147.557 38.1944 148.025 37.7484C148.499 37.2979 149.136 37.0726 149.937 37.0726C150.424 37.0726 150.802 37.1204 151.07 37.2159H153.446ZM147.438 45.8929C147.438 46.9123 148.196 47.4221 149.712 47.4221C151.659 47.4221 152.633 46.8008 152.633 45.5583C152.633 45.1123 152.481 44.7892 152.176 44.5889C151.871 44.3887 151.377 44.2885 150.695 44.2885H149.479C148.119 44.2885 147.438 44.8233 147.438 45.8929ZM148.005 39.5302C148.005 40.1037 148.178 40.5497 148.524 40.8683C148.874 41.1823 149.341 41.3394 149.923 41.3394C150.542 41.3394 151.015 41.1823 151.343 40.8683C151.675 40.5543 151.841 40.0991 151.841 39.5029C151.841 38.8703 151.671 38.397 151.329 38.0829C150.993 37.7644 150.519 37.6051 149.909 37.6051C149.318 37.6051 148.851 37.7757 148.51 38.1171C148.173 38.4539 148.005 38.9249 148.005 39.5302ZM161.57 44.7733C160.509 44.7733 159.679 44.4387 159.078 43.7697C158.477 43.1007 158.177 42.1677 158.177 40.9707C158.177 39.7419 158.489 38.7861 159.112 38.1034C159.736 37.4162 160.589 37.0726 161.672 37.0726C162.314 37.0726 162.928 37.1841 163.515 37.4071L163.331 38.0078C162.689 37.7939 162.132 37.687 161.658 37.687C160.748 37.687 160.059 37.9692 159.59 38.5335C159.121 39.0933 158.887 39.9012 158.887 40.957C158.887 41.9583 159.121 42.7434 159.59 43.3123C160.059 43.8767 160.714 44.1588 161.556 44.1588C162.23 44.1588 162.855 44.0382 163.433 43.797V44.4251C162.96 44.6572 162.339 44.7733 161.57 44.7733ZM171.394 40.9161C171.394 42.1267 171.1 43.0734 170.513 43.7561C169.926 44.4342 169.116 44.7733 168.083 44.7733C167.432 44.7733 166.858 44.6162 166.362 44.3022C165.866 43.9882 165.486 43.5376 165.222 42.9505C164.958 42.3634 164.826 41.6852 164.826 40.9161C164.826 39.7055 165.12 38.7634 165.707 38.0898C166.294 37.4116 167.099 37.0726 168.124 37.0726C169.143 37.0726 169.942 37.4162 170.52 38.1034C171.102 38.7861 171.394 39.7237 171.394 40.9161ZM165.536 40.9161C165.536 41.9356 165.759 42.732 166.205 43.3055C166.656 43.8744 167.291 44.1588 168.11 44.1588C168.929 44.1588 169.562 43.8744 170.008 43.3055C170.458 42.732 170.684 41.9356 170.684 40.9161C170.684 39.8921 170.456 39.0979 170.001 38.5335C169.55 37.9692 168.915 37.687 168.096 37.687C167.277 37.687 166.644 37.9692 166.198 38.5335C165.757 39.0933 165.536 39.8875 165.536 40.9161ZM182.719 44.6367V39.7692C182.719 39.0455 182.578 38.5176 182.296 38.1853C182.014 37.8531 181.582 37.687 180.999 37.687C180.239 37.687 179.677 37.8963 179.313 38.3151C178.949 38.7338 178.767 39.3914 178.767 40.288V44.6367H178.077V39.5644C178.077 38.3128 177.504 37.687 176.357 37.687C175.578 37.687 175.012 37.9145 174.657 38.3697C174.302 38.8202 174.124 39.5439 174.124 40.5406V44.6367H173.448V37.2159H174.008L174.152 38.2331H174.193C174.397 37.8645 174.689 37.58 175.066 37.3798C175.444 37.175 175.861 37.0726 176.316 37.0726C177.485 37.0726 178.236 37.5118 178.569 38.3902H178.596C178.837 37.9669 179.16 37.6415 179.565 37.4139C179.975 37.1863 180.439 37.0726 180.958 37.0726C181.768 37.0726 182.376 37.2888 182.781 37.7211C183.186 38.1535 183.388 38.8407 183.388 39.7828V44.6367H182.719ZM188.966 44.7733C187.824 44.7733 186.991 44.3454 186.467 43.4898H186.419L186.44 44.0633C186.458 44.4001 186.467 44.7687 186.467 45.1692V47.9955H185.791V37.2159H186.365L186.495 38.2741H186.536C187.045 37.4731 187.86 37.0726 188.98 37.0726C189.981 37.0726 190.743 37.4025 191.267 38.0625C191.794 38.7178 192.058 39.6736 192.058 40.9297C192.058 42.1495 191.781 43.0961 191.226 43.7697C190.675 44.4387 189.922 44.7733 188.966 44.7733ZM188.952 44.1725C189.712 44.1725 190.299 43.8903 190.714 43.326C191.132 42.7616 191.342 41.972 191.342 40.957C191.342 38.777 190.554 37.687 188.98 37.687C188.115 37.687 187.48 37.9259 187.075 38.4038C186.67 38.8771 186.467 39.6508 186.467 40.7249V40.9434C186.467 42.104 186.661 42.9323 187.048 43.4284C187.439 43.9245 188.074 44.1725 188.952 44.1725ZM198.626 44.6367L198.455 43.4625H198.401C198.027 43.9404 197.643 44.2794 197.247 44.4797C196.855 44.6754 196.391 44.7733 195.854 44.7733C195.126 44.7733 194.559 44.5867 194.154 44.2135C193.749 43.8403 193.547 43.3237 193.547 42.6638C193.547 41.9401 193.847 41.378 194.448 40.9775C195.053 40.577 195.927 40.3654 197.069 40.3426L198.483 40.3017V39.8101C198.483 39.1047 198.339 38.5722 198.052 38.2127C197.766 37.8531 197.304 37.6733 196.667 37.6733C195.979 37.6733 195.267 37.8645 194.53 38.2468L194.277 37.6597C195.092 37.2774 195.897 37.0862 196.694 37.0862C197.509 37.0862 198.116 37.2979 198.517 37.7211C198.922 38.1444 199.124 38.8043 199.124 39.7009V44.6367H198.626ZM195.895 44.1588C196.687 44.1588 197.311 43.9336 197.766 43.483C198.225 43.0279 198.455 42.3975 198.455 41.5919V40.8615L197.158 40.9161C196.116 40.9661 195.372 41.13 194.926 41.4076C194.484 41.6807 194.264 42.1085 194.264 42.6911C194.264 43.1553 194.405 43.5171 194.687 43.7765C194.974 44.0314 195.376 44.1588 195.895 44.1588ZM206.709 44.6367V39.8238C206.709 39.0774 206.552 38.5358 206.238 38.199C205.924 37.8577 205.437 37.687 204.777 37.687C203.889 37.687 203.239 37.9123 202.824 38.3628C202.415 38.8089 202.21 39.5348 202.21 40.5406V44.6367H201.534V37.2159H202.108L202.237 38.2331H202.278C202.761 37.4594 203.619 37.0726 204.852 37.0726C206.536 37.0726 207.378 37.976 207.378 39.7828V44.6367H206.709ZM208.538 37.2159H209.235L210.805 41.3803C211.283 42.6592 211.586 43.5217 211.713 43.9677H211.754C211.945 43.3806 212.257 42.5045 212.689 41.3394L214.259 37.2159H214.956L211.631 45.8382C211.363 46.5391 211.137 47.0125 210.955 47.2582C210.773 47.504 210.559 47.6883 210.313 47.8112C210.072 47.9341 209.779 47.9955 209.433 47.9955C209.173 47.9955 208.884 47.9477 208.566 47.8522V47.2651C208.83 47.3379 209.114 47.3743 209.419 47.3743C209.651 47.3743 209.856 47.3197 210.034 47.2104C210.211 47.1012 210.37 46.9305 210.511 46.6984C210.657 46.4709 210.823 46.1068 211.01 45.6061C211.201 45.11 211.324 44.7869 211.378 44.6367L208.538 37.2159Z" fill="white"/>
</svg>
