<svg width="470" height="470" viewBox="0 0 470 470" fill="none" xmlns="http://www.w3.org/2000/svg">
<circle cx="235" cy="235" r="235" fill="#FFECF2"/>
<mask id="mask0" mask-type="alpha" maskUnits="userSpaceOnUse" x="0" y="0" width="470" height="470">
<circle cx="235" cy="235" r="235" fill="#FADEEE"/>
</mask>
<g mask="url(#mask0)">
<path d="M75.4514 313.464L256.005 401.285L343.423 219.301L384.385 125.63L194.763 58L109.356 238.509L75.4514 313.464Z" fill="white" stroke="#060905" stroke-miterlimit="10"/>
<path d="M293.292 104.824L233.324 233.01L140.993 198.297L200.961 70.111L293.292 104.824Z" fill="white" stroke="#060905"/>
<path d="M141.288 197.961L141.066 198.437L141.552 198.636L231.739 235.533L232.179 235.713L232.381 235.282L293.042 105.74L293.271 105.252L292.767 105.061L201.373 70.3529L200.939 70.188L200.743 70.6088L141.288 197.961ZM294.677 104.154L232.393 237.329L139.512 198.938L200.514 68.7707L294.677 104.154Z" fill="#060905" stroke="#060905"/>
<path d="M202.985 180.058C211.045 183.102 217.161 189.772 221.451 199.102C225.661 208.254 228.098 219.934 228.883 233.154L145.032 199.807C166.79 181.886 186.982 174.013 202.985 180.058Z" fill="white" stroke="#060905"/>
<path d="M230.201 234.414L229.468 234.124L229.435 233.608C228.561 219.898 225.86 207.981 221.418 198.749C216.976 189.515 210.775 182.933 202.891 179.971C187.264 174.1 167.868 180.883 145.679 198.923L145.198 198.725C167.923 180.2 187.992 173.655 203.343 179.433C218.954 185.309 228.438 203.523 230.134 232.099L230.201 234.414ZM143.937 199.763C144.319 199.445 144.701 199.13 145.083 198.819V199.423V199.647V200.695L143.535 200.082L143.927 199.771L143.927 199.771L143.937 199.763ZM210.309 226.534L145.088 200.697L145.85 200.074L210.309 226.534Z" fill="#060905" stroke="#060905"/>
<path d="M197.89 138.092C197.4 134.445 197.654 130.735 198.637 127.189C199.62 123.642 201.311 120.331 203.608 117.455C211.515 107.315 234.251 109.013 236.306 110.621C239.846 112.688 243.517 114.524 247.295 116.115C248.803 116.676 250.186 117.53 251.363 118.628C252.54 119.725 253.488 121.045 254.152 122.511C254.816 123.977 255.184 125.56 255.234 127.168C255.284 128.777 255.014 130.379 254.442 131.883C250.645 143.587 239.746 154.888 238.54 156.541C237.334 158.194 198.873 153.057 197.89 138.092Z" fill="#060905"/>
<path d="M210.881 182.42L210.881 182.42L210.877 182.429C210.204 183.978 208.981 185.223 207.443 185.923C205.909 186.621 204.17 186.726 202.563 186.219L199.99 185.288C199.27 184.998 198.62 184.561 198.079 184.005C197.536 183.448 197.116 182.783 196.845 182.053C196.575 181.323 196.461 180.545 196.509 179.768C196.558 178.991 196.769 178.233 197.128 177.543L197.134 177.532L197.139 177.52L202.991 164.745L202.991 164.745L202.995 164.736C203.668 163.187 204.891 161.942 206.429 161.242C207.963 160.544 209.701 160.438 211.308 160.945L213.838 161.877C214.562 162.163 215.218 162.597 215.764 163.152C216.311 163.707 216.736 164.372 217.01 165.102C217.284 165.832 217.402 166.612 217.356 167.391C217.31 168.169 217.102 168.93 216.743 169.623L216.738 169.633L216.733 169.644L210.881 182.42Z" fill="white" stroke="#060905"/>
<path d="M196.503 177.318L196.507 177.31L196.511 177.303L202.586 164.483L202.586 164.483L202.591 164.472C203.358 162.753 204.73 161.376 206.447 160.602C208.16 159.831 210.096 159.714 211.889 160.275L214.424 161.209L214.424 161.209L214.429 161.211C215.229 161.495 215.957 161.952 216.561 162.549C217.165 163.146 217.63 163.868 217.924 164.664C218.233 165.51 218.37 166.41 218.327 167.309C218.284 168.209 218.062 169.092 217.674 169.905L217.674 169.905L217.671 169.911L211.775 182.731L211.775 182.731L211.772 182.738C211.013 184.454 209.649 185.829 207.94 186.603C206.234 187.374 204.305 187.492 202.519 186.934L199.984 186L199.9 185.969H199.811H199.6C198.832 185.637 198.138 185.155 197.558 184.551C196.956 183.924 196.49 183.178 196.191 182.361C195.891 181.545 195.764 180.675 195.818 179.807C195.872 178.938 196.105 178.091 196.503 177.318ZM213.929 161.703L213.921 161.7L213.913 161.697L211.233 160.759L211.226 160.757L211.218 160.754C209.592 160.241 207.834 160.345 206.28 161.047C204.725 161.748 203.484 162.998 202.794 164.557L202.794 164.557L202.792 164.56L197.215 177.366C196.848 178.087 196.635 178.876 196.588 179.684C196.541 180.497 196.664 181.31 196.949 182.073C197.233 182.836 197.674 183.531 198.242 184.114C198.811 184.697 199.494 185.155 200.25 185.459L200.257 185.462L200.264 185.464L202.81 186.402L202.822 186.407L202.835 186.411C204.461 186.913 206.214 186.804 207.765 186.104C209.315 185.404 210.556 184.162 211.255 182.611C211.255 182.61 211.256 182.61 211.256 182.61L217.106 169.792L217.11 169.785L217.112 169.778C217.436 169.01 217.602 168.184 217.602 167.351C217.602 166.521 217.437 165.699 217.117 164.933C216.844 164.202 216.42 163.537 215.872 162.981C215.322 162.423 214.66 161.987 213.929 161.703Z" fill="#060905" stroke="#060905"/>
<path d="M188.271 138.21L188.282 138.192L188.292 138.172C188.979 136.72 190.186 135.578 191.675 134.972C193.159 134.367 194.816 134.34 196.32 134.894C197.006 135.19 197.622 135.629 198.127 136.18C198.635 136.734 199.02 137.39 199.255 138.104C199.491 138.818 199.572 139.574 199.493 140.322C199.414 141.069 199.178 141.792 198.798 142.441L198.788 142.459L198.78 142.477C198.084 143.924 196.876 145.06 195.389 145.666C193.907 146.269 192.254 146.302 190.749 145.757C190.063 145.461 189.448 145.023 188.943 144.472C188.435 143.918 188.05 143.262 187.815 142.548C187.579 141.834 187.498 141.078 187.577 140.33C187.656 139.582 187.892 138.86 188.271 138.21Z" fill="white" stroke="#060905"/>
<path d="M187.746 138.014L187.75 138.006L187.754 137.997C188.546 136.36 189.915 135.074 191.599 134.386C193.278 133.701 195.15 133.659 196.857 134.269C197.628 134.609 198.32 135.106 198.888 135.729C199.46 136.356 199.895 137.096 200.163 137.901C200.431 138.706 200.528 139.558 200.446 140.403C200.364 141.248 200.106 142.066 199.689 142.805L199.682 142.817L199.675 142.831C198.876 144.462 197.505 145.743 195.823 146.43C194.145 147.115 192.273 147.161 190.564 146.559C189.801 146.247 189.114 145.775 188.549 145.175C187.982 144.573 187.552 143.857 187.288 143.074C187.024 142.243 186.928 141.368 187.007 140.5C187.085 139.63 187.336 138.785 187.746 138.014ZM196.386 134.777L196.289 134.632L196.122 134.579C194.591 134.089 192.935 134.166 191.455 134.795C189.979 135.423 188.776 136.559 188.066 137.997C187.668 138.734 187.428 139.547 187.361 140.382C187.294 141.218 187.402 142.058 187.678 142.85C187.91 143.592 188.304 144.272 188.832 144.843C189.362 145.415 190.013 145.862 190.737 146.151L190.745 146.154L190.753 146.157C192.304 146.714 194.006 146.677 195.531 146.052C197.051 145.43 198.288 144.269 199.004 142.791C199.388 142.108 199.625 141.353 199.701 140.573C199.777 139.788 199.687 138.995 199.438 138.247C199.188 137.498 198.784 136.81 198.252 136.228C197.754 135.682 197.153 135.24 196.485 134.927L196.386 134.777Z" fill="#060905" stroke="#060905"/>
<path d="M196.291 139.477V139.325C196.696 139.712 196.987 140.203 197.133 140.744C197.262 141.531 197.15 142.339 196.812 143.062L196.777 143.138L196.296 142.102C196.298 142.011 196.297 141.92 196.291 141.828V141.398V141.398V141.398V141.398V141.398V141.398V141.398V141.398V141.398V141.398V141.398V141.398V141.398V141.398V141.398V141.398V141.398V141.398V141.398V141.398V141.398V141.398V141.398V141.398V141.398V141.398V141.398V141.398V141.398V141.398V141.398V141.398V141.398V141.398V141.398V141.398V141.398V141.398V141.398V141.398V141.398V141.398V141.397V141.397V141.397V141.397V141.397V141.397V141.397V141.397V141.397V141.397V141.397V141.397V141.397V141.397V141.397V141.397V141.397V141.397V141.397V141.397V141.397V141.397V141.397V141.397V141.397V141.397V141.397V141.397V141.397V141.397V141.397V141.397V141.397V141.396V141.396V141.396V141.396V141.396V141.396V141.396V141.396V141.396V141.396V141.396V141.396V141.396V141.396V141.396V141.396V141.396V141.396V141.395V141.395V141.395V141.395V141.395V141.395V141.395V141.395V141.395V141.395V141.395V141.395V141.395V141.394V141.394V141.394V141.394V141.394V141.394V141.394V141.394V141.394V141.394V141.394V141.393V141.393V141.393V141.393V141.393V141.393V141.393V141.393V141.393V141.392V141.392V141.392V141.392V141.392V141.392V141.392V141.392V141.391V141.391V141.391V141.391V141.391V141.391V141.391V141.391V141.39V141.39V141.39V141.39V141.39V141.39V141.389V141.389V141.389V141.389V141.389V141.389V141.389V141.388V141.388V141.388V141.388V141.388V141.387V141.387V141.387V141.387V141.387V141.387V141.386V141.386V141.386V141.386V141.386V141.385V141.385V141.385V141.385V141.385V141.384V141.384V141.384V141.384V141.383V141.383V141.383V141.383V141.383V141.382V141.382V141.382V141.382V141.381V141.381V141.381V141.381V141.38V141.38V141.38V141.38V141.379V141.379V141.379V141.379V141.378V141.378V141.378V141.377V141.377V141.377V141.377V141.376V141.376V141.376V141.375V141.375V141.375V141.374V141.374V141.374V141.374V141.373V141.373V141.373V141.372V141.372V141.372V141.371V141.371V141.371V141.37V141.37V141.37V141.369V141.369V141.368V141.368V141.368V141.367V141.367V141.367V141.366V141.366V141.365V141.365V141.365V141.364V141.364V141.364V141.363V141.363V141.362V141.362V141.361V141.361V141.361V141.36V141.36V141.359V141.359V141.359V141.358V141.358V141.357V141.357V141.356V141.356V141.355V141.355V141.354V141.354V141.354V141.353V141.353V141.352V141.352V141.351V141.351V141.35V141.35V141.349V141.349V141.348V141.348V141.347V141.347V141.346V141.346V141.345V141.344V141.344V141.343V141.343V141.342V141.342V141.341V141.341V141.34V141.339V141.339V141.338V141.338V141.337V141.337V141.336V141.335V141.335V141.334V141.334V141.333V141.332V141.332V141.331V141.331V141.33V141.329V141.329V141.328V141.327V141.327V141.326V141.325V141.325V141.324V141.323V141.323V141.322V141.321V141.321V141.32V141.319V141.319V141.318V141.317V141.317V141.316V141.315V141.314V141.314V141.313V141.312V141.311V141.311V141.31V141.309V141.308V141.308V141.307V141.306V141.305V141.305V141.304V141.303V141.302V141.302V141.301V141.3V141.299V141.298V141.297V141.297V141.296V141.295V141.294V141.293V141.293V141.292V141.291V141.29V141.289V141.288V141.287V141.287V141.286V141.285V141.284V141.283V141.282V141.281V141.28V141.279V141.278V141.278V141.277V141.276V141.275V141.274V141.273V141.272V141.271V141.27V141.269V141.268V141.267V141.266V141.265V141.264V141.263V141.262V141.261V141.26V141.259V141.258V141.257V141.256V141.255V141.254V141.253V141.252V141.251V141.25V141.249V141.248V141.247V141.246V141.245V141.243V141.242V141.241V141.24V141.239V141.238V141.237V141.236V141.235V141.233V141.232V141.231V141.23V141.229V141.228V141.227V141.225V141.224V141.223V141.222V141.221V141.219V141.218V141.217V141.216V141.215V141.213V141.212V141.211V141.21V141.208V141.207V141.206V141.205V141.203V141.202V141.201V141.2V141.198V141.197V141.196V141.194V141.193V141.192V141.19V141.189V141.188V141.187V141.185V141.184V141.182V141.181V141.18V141.178V141.177V141.176V141.174V141.173V141.171V141.17V141.169V141.167V141.166V141.164V141.163V141.161V141.16V141.159V141.157V141.156V141.155C196.312 140.93 196.312 140.704 196.291 140.48V140.48V140.479V140.479V140.478V140.478V140.477V140.477V140.476V140.476V140.475V140.474V140.474V140.473V140.473V140.472V140.472V140.471V140.471V140.47V140.47V140.469V140.468V140.468V140.467V140.467V140.466V140.465V140.465V140.464V140.464V140.463V140.462V140.462V140.461V140.461V140.46V140.459V140.459V140.458V140.457V140.457V140.456V140.455V140.455V140.454V140.453V140.453V140.452V140.451V140.451V140.45V140.449V140.449V140.448V140.447V140.447V140.446V140.445V140.445V140.444V140.443V140.442V140.442V140.441V140.44V140.44V140.439V140.438V140.437V140.437V140.436V140.435V140.434V140.434V140.433V140.432V140.431V140.431V140.43V140.429V140.428V140.428V140.427V140.426V140.425V140.424V140.424V140.423V140.422V140.421V140.421V140.42V140.419V140.418V140.417V140.417V140.416V140.415V140.414V140.413V140.412V140.412V140.411V140.41V140.409V140.408V140.408V140.407V140.406V140.405V140.404V140.403V140.403V140.402V140.401V140.4V140.399V140.398V140.397V140.397V140.396V140.395V140.394V140.393V140.392V140.391V140.391V140.39V140.389V140.388V140.387V140.386V140.385V140.384V140.384V140.383V140.382V140.381V140.38V140.379V140.378V140.377V140.376V140.376V140.375V140.374V140.373V140.372V140.371V140.37V140.369V140.368V140.367V140.367V140.366V140.365V140.364V140.363V140.362V140.361V140.36V140.359V140.358V140.357V140.357V140.356V140.355V140.354V140.353V140.352V140.351V140.35V140.349V140.348V140.347V140.346V140.345V140.344V140.344V140.343V140.342V140.341V140.34V140.339V140.338V140.337V140.336V140.335V140.334V140.333V140.332V140.331V140.33V140.33V140.329V140.328V140.327V140.326V140.325V140.324V140.323V140.322V140.321V140.32V140.319V140.318V140.317V140.316V140.315V140.314V140.314V140.313V140.312V140.311V140.31V140.309V140.308V140.307V140.306V140.305V140.304V140.303V140.302V140.301V140.3V140.299V140.298V140.298V140.297V140.296V140.295V140.294V140.293V140.292V140.291V140.29V140.289V140.288V140.287V140.286V140.285V140.284V140.283V140.283V140.282V140.281V140.28V140.279V140.278V140.277V140.276V140.275V140.274V140.273V140.272V140.271V140.27V140.27V140.269V140.268V140.267V140.266V140.265V140.264V140.263V140.262V140.261V140.26V140.259V140.259V140.258V140.257V140.256V140.255V140.254V140.253V140.252V140.251V140.25V140.25V140.249V140.248V140.247V140.246V140.245V140.244V140.243V140.242V140.241V140.241V140.24V140.239V140.238V140.237V140.236V140.235V140.234V140.234V140.233V140.232V140.231V140.23V140.229V140.228V140.228V140.227V140.226V140.225V140.224V140.223V140.222V140.222V140.221V140.22V140.219V140.218V140.217V140.217V140.216V140.215V140.214V140.213V140.212V140.212V140.211V140.21V140.209V140.208V140.208V140.207V140.206V140.205V140.204V140.204V140.203V140.202V140.201V140.2V140.2V140.199V140.198V140.197V140.196V140.196V140.195V140.194V140.193V140.193V140.192V140.191V140.19V140.19V140.189V140.188V140.187V140.187V140.186V140.185V140.184V140.184V140.183V140.182V140.181V140.181V140.18V140.179V140.179V140.178V140.177V140.177V140.176V140.175V140.174V140.174V140.173V140.172V140.172V140.171V140.17V140.17V140.169V140.168V140.168V140.167V140.166V140.166V140.165V140.165V140.164V140.163V140.163V140.162V140.161V140.161V140.16V140.16V140.159V140.158V140.158V140.157V140.157V140.156V140.155V140.155V140.154V140.154V140.153V140.153V140.152V140.151V140.151V140.15V140.15V140.149V140.149V140.148V140.148V140.147V140.147V140.147V140.147V140.147V140.147V140.147V140.147V140.147V140.147V140.147V140.147V140.147V140.147V140.147V140.146V140.146V140.146V140.146V140.146V140.146V140.146V140.146V140.146V140.146V140.145V140.145V140.145V140.145V140.145V140.145V140.145V140.144V140.144V140.144V140.144V140.144V140.144V140.143V140.143V140.143V140.143V140.143V140.142V140.142V140.142V140.142V140.141V140.141V140.141V140.141V140.14V140.14V140.14V140.14V140.139V140.139V140.139V140.139V140.138V140.138V140.138V140.138V140.137V140.137V140.137V140.136V140.136V140.136V140.135V140.135V140.135V140.134V140.134V140.134V140.133V140.133V140.133V140.132V140.132V140.132V140.131V140.131V140.13V140.13V140.13V140.129V140.129V140.128V140.128V140.128V140.127V140.127V140.126V140.126V140.126V140.125V140.125V140.124V140.124V140.123V140.123V140.123V140.122V140.122V140.121V140.121V140.12V140.12V140.119V140.119V140.118V140.118V140.117V140.117V140.116V140.116V140.115V140.115V140.114V140.114V140.113V140.113V140.112V140.112V140.111V140.111V140.11V140.11V140.109V140.108V140.108V140.107V140.107V140.106V140.106V140.105V140.105V140.104V140.103V140.103V140.102V140.102V140.101V140.1V140.1V140.099V140.099V140.098V140.097V140.097V140.096V140.096V140.095V140.094V140.094V140.093V140.092V140.092V140.091V140.091V140.09V140.089V140.089V140.088V140.087V140.087V140.086V140.085V140.085V140.084V140.083V140.083V140.082V140.081V140.081V140.08V140.079V140.079V140.078V140.077V140.076V140.076V140.075V140.074V140.074V140.073V140.072V140.072V140.071V140.07V140.069V140.069V140.068V140.067V140.066V140.066V140.065V140.064V140.063V140.063V140.062V140.061V140.06V140.06V140.059V140.058V140.057V140.057V140.056V140.055V140.054V140.054V140.053V140.052V140.051V140.051V140.05V140.049V140.048V140.047V140.047V140.046V140.045V140.044V140.043V140.043V140.042V140.041V140.04V140.039V140.039V140.038V140.037V140.036V140.035V140.035V140.034V140.033V140.032V140.031V140.03V140.03V140.029V140.028V140.027V140.026V140.025V140.025V140.024V140.023V140.022V140.021V140.02V140.02V140.019V140.018V140.017V140.016V140.015V140.014V140.014V140.013V140.012V140.011V140.01V140.009V140.008V140.007V140.007V140.006V140.005V140.004V140.003V140.002V140.001V140V140V139.999V139.998V139.997V139.996V139.995V139.994V139.993V139.993V139.992V139.991V139.99V139.989V139.988V139.987V139.986V139.985V139.984V139.984V139.983V139.982V139.981V139.98V139.979V139.978V139.977V139.976V139.975V139.974V139.974V139.973V139.972V139.971V139.97V139.969V139.968V139.967V139.966V139.965V139.964V139.964V139.963V139.962V139.961V139.96V139.959V139.958V139.957V139.956V139.955V139.954V139.953V139.952V139.952V139.951V139.95V139.949V139.948V139.947V139.946V139.945V139.944V139.943V139.942V139.941V139.94V139.939V139.939V139.938V139.937V139.936V139.935V139.934V139.933V139.932V139.931V139.93V139.929V139.928V139.927V139.926V139.925V139.925V139.924V139.923V139.922V139.921V139.92V139.919V139.918V139.917V139.916V139.915V139.914V139.913V139.912V139.911V139.91V139.91V139.909V139.908V139.907V139.906V139.905V139.904V139.903V139.902V139.901V139.9V139.899V139.898V139.897V139.897V139.896V139.895V139.894V139.893V139.892V139.891V139.89V139.889V139.888V139.887V139.886V139.885V139.884V139.884V139.883V139.882V139.881V139.88V139.879V139.878V139.877V139.876V139.875V139.874V139.873V139.872V139.872V139.871V139.87V139.869V139.868V139.867V139.866V139.865V139.864V139.863V139.862V139.862V139.861V139.86V139.859V139.858V139.857V139.856V139.855V139.854V139.853V139.852V139.852V139.851V139.85V139.849V139.848V139.847V139.846V139.845V139.844V139.844V139.843V139.842V139.841V139.84V139.839V139.838V139.837V139.836V139.836V139.835V139.834V139.833V139.832V139.831V139.83V139.83V139.829V139.828V139.827V139.826V139.825V139.824V139.823V139.823V139.822V139.821V139.82V139.819V139.818V139.818V139.817V139.816V139.815V139.814V139.813V139.812V139.812V139.811V139.81V139.809V139.808V139.807V139.807V139.806V139.805V139.804V139.803V139.803V139.802V139.801V139.8V139.799V139.798V139.798V139.797V139.796V139.795V139.794V139.794V139.793V139.792V139.791V139.791V139.79V139.477ZM194.795 138.537C194.986 138.577 195.171 138.635 195.35 138.709H195.202L194.706 138.544C194.709 138.541 194.714 138.539 194.718 138.537C194.735 138.529 194.754 138.527 194.772 138.532L194.784 138.535L194.795 138.537ZM194.702 138.617C194.702 138.617 194.702 138.617 194.702 138.615C194.702 138.617 194.702 138.617 194.702 138.617Z" fill="#060905" stroke="#060905"/>
<path d="M246.863 161.068L246.852 161.087L246.843 161.107C246.155 162.561 244.949 163.707 243.462 164.32C241.98 164.931 240.324 164.97 238.816 164.43C238.133 164.124 237.522 163.679 237.021 163.124C236.516 162.564 236.133 161.905 235.898 161.189C235.663 160.472 235.581 159.714 235.657 158.964C235.733 158.214 235.965 157.488 236.338 156.833L236.347 156.818L236.355 156.802C237.05 155.355 238.258 154.219 239.745 153.613C241.227 153.01 242.881 152.977 244.385 153.522C245.071 153.818 245.687 154.256 246.192 154.807C246.7 155.361 247.084 156.017 247.32 156.731C247.555 157.445 247.636 158.201 247.557 158.949C247.479 159.697 247.242 160.419 246.863 161.068Z" fill="white" stroke="#060905"/>
<path d="M235.81 156.595L235.814 156.589L235.817 156.582C236.616 154.951 237.987 153.67 239.669 152.983C241.347 152.298 243.219 152.252 244.928 152.854C245.691 153.166 246.378 153.637 246.943 154.237C247.509 154.839 247.939 155.556 248.204 156.338C248.467 157.177 248.562 158.059 248.483 158.935C248.405 159.812 248.154 160.665 247.745 161.446L247.741 161.453L247.738 161.46C246.946 163.097 245.577 164.384 243.893 165.071C242.212 165.757 240.338 165.798 238.629 165.186C237.86 164.873 237.169 164.396 236.604 163.788C236.037 163.178 235.61 162.452 235.353 161.66C235.091 160.827 234.996 159.952 235.074 159.083C235.153 158.213 235.403 157.368 235.81 156.595ZM238.801 164.599L238.803 164.6C240.372 165.216 242.116 165.215 243.685 164.597C245.25 163.98 246.524 162.793 247.251 161.275C247.634 160.535 247.866 159.726 247.932 158.895C247.999 158.062 247.898 157.224 247.636 156.431C247.399 155.691 247.002 155.012 246.475 154.442C245.947 153.872 245.3 153.424 244.58 153.13L244.399 153.056L244.216 153.124L244.019 153.198C242.535 152.757 240.942 152.847 239.514 153.454C238.034 154.083 236.831 155.226 236.128 156.672C235.757 157.377 235.532 158.148 235.465 158.942C235.398 159.736 235.492 160.536 235.74 161.294C235.972 162.037 236.367 162.72 236.896 163.291C237.425 163.864 238.076 164.31 238.801 164.599Z" fill="#060905" stroke="#060905"/>
<path d="M239.587 157.389L239.213 157.125C239.368 156.965 239.536 156.815 239.715 156.68C239.851 156.576 239.992 156.481 240.139 156.396V156.407V156.449C240.04 156.575 239.949 156.706 239.866 156.843C239.744 157.009 239.651 157.195 239.589 157.391C239.589 157.391 239.589 157.391 239.589 157.391C239.588 157.391 239.588 157.391 239.587 157.39C239.587 157.39 239.587 157.389 239.587 157.389Z" fill="#060905" stroke="#060905"/>
<path d="M235.055 158.328C233.084 162.626 229.598 166.046 225.262 167.933C220.927 169.821 216.048 170.043 211.559 168.557L206.601 166.592C204.546 165.726 202.695 164.44 201.167 162.816C199.638 161.193 198.466 159.268 197.726 157.164C196.986 155.061 196.693 152.826 196.868 150.604C197.042 148.381 197.68 146.219 198.739 144.257L207.003 126.702C208.99 122.407 212.486 118.992 216.826 117.106C221.166 115.22 226.048 114.994 230.544 116.472L235.636 118.438C237.691 119.304 239.542 120.59 241.07 122.213C242.598 123.837 243.77 125.762 244.511 127.865C245.251 129.968 245.543 132.203 245.369 134.426C245.194 136.649 244.557 138.811 243.498 140.773L235.055 158.328Z" fill="white"/>
<path d="M252.566 129.158C251.229 125.374 249.079 121.928 246.267 119.063C255.201 102.178 215.401 75.8678 213.123 104.054C213.123 104.054 201.553 92.1275 195.523 98.7832C180.961 114.998 220.717 136.797 240.192 124.915C241.522 125.946 242.534 127.331 243.11 128.912C243.687 130.492 243.806 132.204 243.453 133.849C241.711 140.236 236.976 154.129 236.976 154.129C238.329 152.289 239.823 150.556 241.443 148.947C244.347 146.49 253.191 132.553 252.566 129.158Z" fill="#060905"/>
<path d="M202.134 137.065C202.489 140.628 204.068 143.959 206.601 146.49C210.621 149.974 214.284 146.982 218.215 148.366C219.993 148.729 221.672 149.471 223.137 150.543C224.602 151.615 225.818 152.99 226.702 154.575C228.668 158.372 235.636 153.593 240.55 146.982C245.463 140.37 235.591 162.124 227.908 166.591C224.698 168.521 221.023 169.541 217.277 169.541C213.531 169.541 209.856 168.521 206.645 166.591C203.565 165.26 200.978 162.997 199.248 160.121C197.518 157.246 196.731 153.901 196.997 150.555C198.016 145.824 199.748 141.276 202.134 137.065Z" fill="#060905"/>
<path d="M220.599 147.337L217.379 146.166L221.868 140.409L220.599 147.337Z" fill="#060905" stroke="#060905"/>
<path d="M213.234 155.166C212.976 154.564 212.913 153.901 213.046 153.269L219.22 155.617C218.774 156.15 218.194 156.56 217.534 156.801C216.688 157.109 215.762 157.12 214.908 156.832C214.156 156.514 213.556 155.917 213.234 155.166Z" fill="white" stroke="#060905"/>
<path d="M211.085 138.016L211.074 138.033L211.065 138.051C210.838 138.516 210.448 138.879 209.968 139.072C209.497 139.262 208.972 139.274 208.493 139.105C208.292 139.005 208.112 138.865 207.965 138.693C207.813 138.516 207.699 138.309 207.631 138.086C207.563 137.862 207.542 137.627 207.57 137.395C207.598 137.163 207.673 136.939 207.791 136.738L207.799 136.725L207.806 136.711C208.039 136.254 208.432 135.898 208.911 135.712C209.384 135.528 209.907 135.522 210.383 135.695C210.584 135.792 210.763 135.928 210.91 136.096C211.061 136.269 211.174 136.472 211.242 136.692C211.309 136.911 211.33 137.142 211.303 137.37C211.276 137.598 211.202 137.818 211.085 138.016Z" fill="#060905" stroke="#060905"/>
<path d="M233.558 146.495L233.546 146.514L233.536 146.535C233.31 146.988 232.925 147.342 232.454 147.527C231.988 147.711 231.471 147.718 231.001 147.546C230.795 147.452 230.611 147.317 230.46 147.149C230.306 146.977 230.189 146.775 230.118 146.555C230.047 146.336 230.023 146.103 230.048 145.874C230.072 145.644 230.145 145.422 230.261 145.223L230.27 145.207L230.278 145.191C230.505 144.727 230.896 144.363 231.375 144.17C231.849 143.979 232.375 143.968 232.856 144.139C233.062 144.235 233.246 144.373 233.396 144.544C233.55 144.72 233.665 144.926 233.733 145.15C233.801 145.374 233.821 145.609 233.791 145.841C233.761 146.073 233.681 146.296 233.558 146.495Z" fill="#060905" stroke="#060905"/>
<path d="M189.623 177.723L189.623 177.723L189.627 177.714L190.119 176.732L190.126 176.716L190.133 176.7C191.061 174.467 192.794 172.665 194.989 171.65C197.18 170.637 199.67 170.483 201.969 171.218L212.901 175.367L212.904 175.369C213.953 175.758 214.906 176.368 215.7 177.156C216.494 177.944 217.111 178.893 217.508 179.939C217.906 180.984 218.076 182.103 218.006 183.22C217.936 184.336 217.628 185.425 217.103 186.413L217.095 186.429L217.088 186.444C215.996 188.894 214.032 190.849 211.578 191.93C209.125 193.01 206.358 193.14 203.815 192.295L193.819 188.769C192.776 188.374 191.829 187.762 191.04 186.974C190.249 186.184 189.635 185.236 189.238 184.192C188.841 183.148 188.67 182.031 188.736 180.916C188.803 179.801 189.105 178.712 189.623 177.723Z" fill="white" stroke="#060905"/>
<path d="M188.503 178.489L188.51 178.475L188.517 178.46L190.17 174.887L190.17 174.887L190.172 174.881C191.077 172.859 192.695 171.24 194.716 170.335C196.734 169.431 199.013 169.301 201.121 169.967L214.505 175.053C215.463 175.436 216.33 176.017 217.047 176.759C217.766 177.501 218.32 178.387 218.671 179.359C219.023 180.331 219.165 181.366 219.087 182.396C219.01 183.427 218.715 184.429 218.222 185.338L218.216 185.349L218.21 185.361L216.915 188.086L216.912 188.093L216.909 188.099C215.922 190.337 214.143 192.131 211.914 193.136C209.688 194.139 207.171 194.285 204.845 193.546L192.22 188.773C191.262 188.39 190.395 187.809 189.677 187.068C188.959 186.325 188.405 185.439 188.054 184.467C187.702 183.495 187.56 182.46 187.638 181.43C187.715 180.399 188.01 179.397 188.503 178.489ZM200.747 170.546L200.735 170.541L200.722 170.537C198.792 169.926 196.706 170.043 194.857 170.867C193.01 171.69 191.528 173.162 190.691 175.003L189 178.61C188.557 179.465 188.297 180.403 188.236 181.365C188.176 182.33 188.318 183.297 188.654 184.203C188.989 185.11 189.511 185.937 190.185 186.63L190.543 186.281L190.185 186.63C190.858 187.323 191.67 187.868 192.567 188.229L192.567 188.229L192.576 188.232L205.173 193.012L205.189 193.018L205.206 193.023C207.378 193.678 209.713 193.528 211.784 192.601C213.853 191.674 215.52 190.033 216.479 187.978C216.479 187.977 216.479 187.977 216.479 187.976L217.77 185.261C218.207 184.408 218.464 183.473 218.524 182.515C218.583 181.555 218.444 180.592 218.114 179.689C217.784 178.785 217.271 177.959 216.607 177.263C215.942 176.567 215.141 176.016 214.254 175.645L214.246 175.641L214.237 175.638L200.747 170.546Z" fill="#060905" stroke="#060905"/>
<mask id="path-26-inside-1" fill="white">
<path d="M188.733 184.772C188.864 185.093 189.013 185.406 189.18 185.71L196.416 170.21C196.06 170.287 195.715 170.407 195.389 170.567L188.733 184.772Z"/>
</mask>
<path d="M188.733 184.772C188.864 185.093 189.013 185.406 189.18 185.71L196.416 170.21C196.06 170.287 195.715 170.407 195.389 170.567L188.733 184.772Z" fill="#060905"/>
<path d="M188.733 184.772L187.828 184.348L187.642 184.744L187.807 185.149L188.733 184.772ZM189.18 185.71L188.303 186.192L189.252 187.918L190.086 186.133L189.18 185.71ZM196.416 170.21L197.322 170.633L198.175 168.807L196.205 169.232L196.416 170.21ZM195.389 170.567L194.948 169.67L194.632 169.825L194.483 170.143L195.389 170.567ZM187.807 185.149C187.952 185.506 188.118 185.854 188.303 186.192L190.056 185.228C189.908 184.959 189.775 184.68 189.659 184.395L187.807 185.149ZM190.086 186.133L197.322 170.633L195.51 169.787L188.274 185.287L190.086 186.133ZM196.205 169.232C195.77 169.326 195.347 169.473 194.948 169.67L195.83 171.465C196.083 171.34 196.351 171.247 196.627 171.187L196.205 169.232ZM194.483 170.143L187.828 184.348L189.639 185.196L196.294 170.991L194.483 170.143Z" fill="#060905" mask="url(#path-26-inside-1)"/>
<mask id="path-28-inside-2" fill="white">
<path d="M190.833 187.675C191.045 187.852 191.287 187.988 191.547 188.077L199.99 170.21H199.141L190.833 187.675Z"/>
</mask>
<path d="M190.833 187.675C191.045 187.852 191.287 187.988 191.547 188.077L199.99 170.21H199.141L190.833 187.675Z" fill="#060905"/>
<path d="M190.833 187.675L189.93 187.246L189.596 187.948L190.193 188.445L190.833 187.675ZM191.547 188.077L191.222 189.023L192.069 189.315L192.451 188.505L191.547 188.077ZM199.99 170.21L200.894 170.637L201.568 169.21H199.99V170.21ZM199.141 170.21V169.21H198.509L198.238 169.78L199.141 170.21ZM190.193 188.445C190.498 188.698 190.847 188.894 191.222 189.023L191.873 187.132C191.726 187.082 191.591 187.005 191.472 186.906L190.193 188.445ZM192.451 188.505L200.894 170.637L199.086 169.783L190.643 187.65L192.451 188.505ZM199.99 169.21H199.141V171.21H199.99V169.21ZM198.238 169.78L189.93 187.246L191.736 188.105L200.044 170.639L198.238 169.78Z" fill="#060905" mask="url(#path-28-inside-2)"/>
<mask id="path-30-inside-3" fill="white">
<path d="M194.049 189.194L194.808 189.462L203.34 171.193L202.581 170.925L194.049 189.194Z"/>
</mask>
<path d="M194.049 189.194L194.808 189.462L203.34 171.193L202.581 170.925L194.049 189.194Z" fill="#060905"/>
<path d="M194.049 189.194L193.143 188.771L192.676 189.77L193.716 190.137L194.049 189.194ZM194.808 189.462L194.475 190.405L195.331 190.707L195.714 189.885L194.808 189.462ZM203.34 171.193L204.246 171.616L204.713 170.617L203.673 170.25L203.34 171.193ZM202.581 170.925L202.914 169.982L202.058 169.68L201.675 170.501L202.581 170.925ZM193.716 190.137L194.475 190.405L195.141 188.519L194.382 188.251L193.716 190.137ZM195.714 189.885L204.246 171.616L202.434 170.769L193.902 189.039L195.714 189.885ZM203.673 170.25L202.914 169.982L202.248 171.868L203.007 172.136L203.673 170.25ZM201.675 170.501L193.143 188.771L194.955 189.617L203.487 171.348L201.675 170.501Z" fill="#060905" mask="url(#path-30-inside-3)"/>
<mask id="path-32-inside-4" fill="white">
<path d="M197.846 190.579L198.605 190.892L207.137 172.622L206.377 172.354L197.846 190.579Z"/>
</mask>
<path d="M197.846 190.579L198.605 190.892L207.137 172.622L206.377 172.354L197.846 190.579Z" fill="#060905"/>
<path d="M197.846 190.579L196.94 190.155L196.495 191.104L197.465 191.504L197.846 190.579ZM198.605 190.892L198.224 191.816L199.107 192.18L199.511 191.315L198.605 190.892ZM207.137 172.622L208.043 173.045L208.509 172.046L207.47 171.679L207.137 172.622ZM206.377 172.354L206.71 171.411L205.856 171.109L205.472 171.93L206.377 172.354ZM197.465 191.504L198.224 191.816L198.986 189.967L198.226 189.654L197.465 191.504ZM199.511 191.315L208.043 173.045L206.231 172.199L197.699 190.468L199.511 191.315ZM207.47 171.679L206.71 171.411L206.045 173.297L206.804 173.565L207.47 171.679ZM205.472 171.93L196.94 190.155L198.751 191.003L207.283 172.778L205.472 171.93Z" fill="#060905" mask="url(#path-32-inside-4)"/>
<mask id="path-34-inside-5" fill="white">
<path d="M201.062 191.785L201.777 192.098L210.308 173.828L209.594 173.56L201.062 191.785Z"/>
</mask>
<path d="M201.062 191.785L201.777 192.098L210.308 173.828L209.594 173.56L201.062 191.785Z" fill="#060905"/>
<path d="M201.062 191.785L200.156 191.361L199.721 192.29L200.661 192.701L201.062 191.785ZM201.777 192.098L201.376 193.014L202.27 193.405L202.683 192.521L201.777 192.098ZM210.308 173.828L211.215 174.251L211.672 173.271L210.66 172.891L210.308 173.828ZM209.594 173.56L209.945 172.623L209.08 172.299L208.688 173.136L209.594 173.56ZM200.661 192.701L201.376 193.014L202.177 191.181L201.463 190.869L200.661 192.701ZM202.683 192.521L211.215 174.251L209.402 173.405L200.871 191.674L202.683 192.521ZM210.66 172.891L209.945 172.623L209.243 174.496L209.957 174.764L210.66 172.891ZM208.688 173.136L200.156 191.361L201.968 192.209L210.499 173.984L208.688 173.136Z" fill="#060905" mask="url(#path-34-inside-5)"/>
<mask id="path-36-inside-6" fill="white">
<path d="M204.501 193.125L205.261 193.393L213.793 175.123L213.078 174.855L204.501 193.125Z"/>
</mask>
<path d="M204.501 193.125L205.261 193.393L213.793 175.123L213.078 174.855L204.501 193.125Z" fill="#060905"/>
<path d="M204.501 193.125L203.596 192.7L203.127 193.7L204.169 194.068L204.501 193.125ZM205.261 193.393L204.928 194.336L205.783 194.638L206.167 193.816L205.261 193.393ZM213.793 175.123L214.699 175.546L215.156 174.567L214.144 174.187L213.793 175.123ZM213.078 174.855L213.429 173.919L212.565 173.595L212.173 174.43L213.078 174.855ZM204.169 194.068L204.928 194.336L205.594 192.45L204.834 192.182L204.169 194.068ZM206.167 193.816L214.699 175.546L212.887 174.7L204.355 192.97L206.167 193.816ZM214.144 174.187L213.429 173.919L212.727 175.792L213.442 176.06L214.144 174.187ZM212.173 174.43L203.596 192.7L205.407 193.55L213.983 175.28L212.173 174.43Z" fill="#060905" mask="url(#path-36-inside-6)"/>
<mask id="path-38-inside-7" fill="white">
<path d="M207.628 193.974H208.477L216.562 176.687L215.937 176.195L207.628 193.974Z"/>
</mask>
<path d="M207.628 193.974H208.477L216.562 176.687L215.937 176.195L207.628 193.974Z" fill="#060905"/>
<path d="M207.628 193.974L206.722 193.55L206.057 194.974H207.628V193.974ZM208.477 193.974V194.974H209.113L209.383 194.397L208.477 193.974ZM216.562 176.687L217.468 177.11L217.805 176.391L217.18 175.9L216.562 176.687ZM215.937 176.195L216.555 175.409L215.564 174.631L215.031 175.772L215.937 176.195ZM207.628 194.974H208.477V192.974H207.628V194.974ZM209.383 194.397L217.468 177.11L215.656 176.263L207.571 193.55L209.383 194.397ZM217.18 175.9L216.555 175.409L215.319 176.982L215.944 177.473L217.18 175.9ZM215.031 175.772L206.722 193.55L208.534 194.397L216.843 176.619L215.031 175.772Z" fill="#060905" mask="url(#path-38-inside-7)"/>
<mask id="path-40-inside-8" fill="white">
<path d="M211.068 193.706L212.095 193.348L218.528 179.501C218.528 179.143 218.215 178.875 218.081 178.563L211.068 193.706Z"/>
</mask>
<path d="M211.068 193.706L212.095 193.348L218.528 179.501C218.528 179.143 218.215 178.875 218.081 178.563L211.068 193.706Z" fill="#060905"/>
<path d="M211.068 193.706L210.161 193.285L209.17 195.425L211.397 194.65L211.068 193.706ZM212.095 193.348L212.424 194.293L212.824 194.154L213.002 193.77L212.095 193.348ZM218.528 179.501L219.435 179.922L219.528 179.722V179.501H218.528ZM218.081 178.563L219 178.169L218.116 176.107L217.174 178.142L218.081 178.563ZM211.397 194.65L212.424 194.293L211.767 192.404L210.739 192.761L211.397 194.65ZM213.002 193.77L219.435 179.922L217.621 179.08L211.188 192.927L213.002 193.77ZM219.528 179.501C219.528 179.026 219.318 178.667 219.201 178.482C219.166 178.427 219.053 178.256 219.048 178.249C219.03 178.221 219.018 178.202 219.01 178.187C219.002 178.173 219 178.167 219 178.169L217.162 178.957C217.228 179.112 217.308 179.242 217.367 179.333C217.396 179.379 217.427 179.424 217.45 179.458C217.474 179.495 217.492 179.522 217.508 179.548C217.582 179.664 217.528 179.618 217.528 179.501H219.528ZM217.174 178.142L210.161 193.285L211.975 194.126L218.989 178.983L217.174 178.142Z" fill="#060905" mask="url(#path-40-inside-8)"/>
<path d="M353.876 144.48L292.411 121.386L296.029 113.211L357.539 136.35L353.876 144.48Z" fill="#FF9D00"/>
<path d="M360.087 156.16L360.087 156.16L360.096 156.163C360.79 156.41 361.016 157.092 360.843 157.72C360.757 158.03 360.584 158.272 360.375 158.403C360.182 158.524 359.914 158.579 359.547 158.441L288.616 131.64C288.615 131.64 288.614 131.64 288.614 131.64C287.93 131.375 287.705 130.682 287.874 130.06C287.957 129.753 288.126 129.517 288.329 129.39C288.517 129.273 288.782 129.218 289.152 129.358C289.152 129.358 289.152 129.358 289.152 129.358L360.087 156.16Z" fill="#060905" stroke="#060905"/>
<path d="M284.73 139.99L284.73 139.99C284.362 139.851 284.098 139.907 283.911 140.026C283.706 140.156 283.536 140.398 283.452 140.712C283.281 141.351 283.511 142.052 284.191 142.315C284.192 142.316 284.193 142.316 284.193 142.316L356.149 169.383C356.149 169.383 356.15 169.384 356.15 169.384C356.532 169.524 356.806 169.467 356.999 169.346C357.209 169.215 357.38 168.973 357.463 168.662C357.632 168.032 357.4 167.327 356.693 167.059L284.73 139.99ZM284.73 139.99L356.692 167.059L284.73 139.99Z" fill="#060905" stroke="#060905"/>
<path d="M277.761 154.165L277.847 154.197L318.451 169.563L277.761 154.165ZM277.761 154.165H277.67M277.761 154.165H277.67M277.67 154.165H277.589C276.94 153.876 276.736 153.209 276.896 152.618C276.978 152.314 277.148 152.078 277.357 151.95C277.55 151.831 277.826 151.775 278.21 151.917C278.21 151.917 278.211 151.917 278.211 151.917L318.991 167.283L318.991 167.283M277.67 154.165L318.991 167.283M318.991 167.283L319 167.286M318.991 167.283L319 167.286M319 167.286C319.694 167.532 319.92 168.214 319.747 168.843M319 167.286L319.747 168.843M319.747 168.843C319.661 169.152 319.488 169.395 319.279 169.526M319.747 168.843L319.279 169.526M319.279 169.526C319.086 169.647 318.819 169.702 318.451 169.563L319.279 169.526Z" fill="#060905" stroke="#060905"/>
<path d="M328.993 189.262L328.993 189.262L271.816 167.732C271.816 167.732 271.816 167.731 271.816 167.731C271.11 167.464 270.889 166.773 271.06 166.155C271.145 165.85 271.317 165.612 271.525 165.484C271.717 165.365 271.987 165.311 272.356 165.451L272.357 165.451L329.533 186.937C329.533 186.937 329.533 186.937 329.533 186.937C330.236 187.203 330.462 187.903 330.288 188.537C330.203 188.85 330.029 189.093 329.82 189.224C329.628 189.346 329.36 189.401 328.993 189.262Z" fill="#060905" stroke="#060905"/>
<path d="M264.762 185.255L264.848 185.287L334.484 211.551C334.485 211.551 334.485 211.552 334.486 211.552C334.869 211.693 335.145 211.637 335.339 211.519C335.547 211.391 335.717 211.155 335.799 210.851C335.966 210.237 335.739 209.541 335.028 209.272L264.762 185.255ZM264.762 185.255H264.671H264.546C263.905 184.968 263.702 184.297 263.869 183.687C263.955 183.374 264.129 183.131 264.337 182.999C264.53 182.878 264.797 182.823 265.165 182.961L265.165 182.962L335.027 209.272L264.762 185.255Z" fill="#060905" stroke="#060905"/>
<path d="M259.968 196.353L260.156 196.316L258.553 195.696C257.868 195.431 257.642 194.739 257.811 194.115C257.894 193.809 258.063 193.573 258.267 193.446C258.454 193.329 258.719 193.274 259.089 193.414L259.091 193.414L330.561 220.216C330.561 220.216 330.561 220.216 330.561 220.216C331.264 220.482 331.49 221.182 331.316 221.816C331.23 222.128 331.057 222.372 330.848 222.503C330.655 222.624 330.388 222.68 330.021 222.541L330.019 222.54L259.968 196.353Z" fill="#060905" stroke="#060905"/>
<path d="M252.341 209.408C252.34 209.408 252.34 209.408 252.34 209.408C251.634 209.141 251.413 208.45 251.585 207.832C251.67 207.527 251.842 207.289 252.049 207.161C252.242 207.042 252.511 206.988 252.881 207.128L252.881 207.128L299.515 224.638C299.516 224.638 299.516 224.638 299.516 224.638C300.222 224.905 300.443 225.597 300.271 226.214C300.186 226.519 300.014 226.757 299.807 226.885C299.614 227.004 299.345 227.058 298.975 226.919L298.974 226.918L252.341 209.408Z" fill="#060905" stroke="#060905"/>
<path d="M254.806 263.239L138.876 216.376L138.893 216.293C138.202 216.01 137.984 215.303 138.158 214.678C138.243 214.37 138.413 214.137 138.612 214.016C138.793 213.905 139.049 213.855 139.407 214.002L139.409 214.003L255.326 260.95L255.326 260.95L255.337 260.954C256.041 261.22 256.266 261.921 256.093 262.548C256.007 262.857 255.835 263.094 255.63 263.22C255.442 263.334 255.177 263.387 254.807 263.239C254.807 263.239 254.807 263.239 254.806 263.239Z" fill="#060905" stroke="#060905"/>
<path d="M131.038 228.762L131.567 228.978L249.181 277.043L249.19 277.046L249.19 277.046C249.549 277.201 249.802 277.153 249.979 277.046C250.175 276.928 250.345 276.696 250.431 276.384C250.606 275.75 250.384 275.034 249.697 274.752L131.038 228.762ZM131.038 228.762C130.769 228.417 130.701 227.949 130.816 227.522C130.9 227.212 131.068 226.982 131.264 226.864C131.443 226.757 131.703 226.707 132.077 226.864L132.076 226.864L132.082 226.867L249.696 274.752L131.038 228.762Z" fill="#060905" stroke="#060905"/>
<path d="M244.288 288.018L244.291 288.019C244.983 288.302 245.212 289.022 245.042 289.661C244.958 289.974 244.788 290.211 244.588 290.335C244.406 290.448 244.145 290.501 243.776 290.354C243.775 290.354 243.774 290.353 243.773 290.353L126.071 241.347V241.297L125.756 241.172C125.043 240.886 124.818 240.167 124.987 239.531C125.071 239.218 125.241 238.98 125.44 238.856C125.62 238.744 125.873 238.692 126.229 238.837C126.229 238.837 126.23 238.838 126.23 238.838L244.288 288.018Z" fill="#060905" stroke="#060905"/>
<path d="M239.184 303.803L239.182 303.802L121.123 253.55C121.123 253.55 121.122 253.55 121.122 253.55C120.761 253.394 120.619 253.176 120.572 252.972C120.52 252.749 120.568 252.467 120.73 252.192C121.06 251.632 121.732 251.284 122.43 251.567C122.431 251.568 122.432 251.568 122.433 251.569L240.488 301.864L240.494 301.866C240.852 302.013 240.991 302.224 241.037 302.422C241.088 302.642 241.041 302.923 240.878 303.199C240.548 303.76 239.879 304.103 239.184 303.803Z" fill="#060905" stroke="#060905"/>
<path d="M116.484 263.068L116.113 262.902C116.009 262.789 115.952 262.668 115.926 262.552C115.872 262.32 115.921 262.034 116.081 261.76C116.405 261.201 117.06 260.871 117.729 261.167C117.729 261.167 117.73 261.167 117.73 261.167L181.248 289.576L181.254 289.579C181.613 289.734 181.758 289.954 181.806 290.162C181.859 290.391 181.811 290.676 181.651 290.951C181.325 291.51 180.676 291.835 180.01 291.525L180.004 291.522L116.484 263.068Z" fill="#060905" stroke="#060905"/>
<path d="M111.581 272.945L111.185 272.756C111.09 272.647 111.038 272.532 111.012 272.419C110.958 272.181 111.008 271.891 111.168 271.614C111.493 271.05 112.141 270.727 112.806 271.035C112.806 271.035 112.807 271.035 112.808 271.035L151.755 289.571L151.755 289.571L151.763 289.575C152.125 289.739 152.274 289.968 152.323 290.185C152.376 290.421 152.326 290.709 152.165 290.982C151.84 291.534 151.184 291.859 150.488 291.527L111.581 272.945Z" fill="#060905" stroke="#060905"/>
<path d="M202.134 316.904C202.134 316.904 269.585 234.802 304.874 207.643C321.759 194.555 331.675 199.826 324.35 214.343C317.824 226.536 310.356 238.2 302.015 249.23C289.463 265.802 285.085 274.156 292.545 273.441C303.355 272.369 343.691 219.301 343.691 219.301L365.356 170.612C365.356 170.612 373.888 236.053 364.15 259.951C354.412 283.849 280.395 347.101 259.758 367.604C239.12 388.107 190.833 349.111 202.134 316.904Z" fill="#FFF1F9" stroke="#060905" stroke-miterlimit="10"/>
<path d="M197.166 299.313L289.723 355.637C274.204 408.196 253.37 459.036 227.543 507.371L52.9458 438.375C82.042 412.863 118.017 378.18 146.788 349.802C161.276 335.512 173.94 322.819 182.982 313.698C187.503 309.138 191.118 305.471 193.603 302.943C194.846 301.68 195.806 300.701 196.455 300.038C196.763 299.725 197.001 299.482 197.166 299.313Z" fill="white" stroke="#060905"/>
<path d="M227.774 508C253.793 459.414 274.749 408.281 290.311 355.409L197.086 298.679C197.086 298.679 110.383 387.437 52 438.539" fill="#FF80A4"/>
<path d="M227.774 508C253.793 459.414 274.749 408.281 290.311 355.409L197.086 298.679C197.086 298.679 110.383 387.437 52 438.539" stroke="#060905" stroke-miterlimit="10"/>
<path d="M270.299 414.864L153.578 342.366" stroke="#060905" stroke-miterlimit="10"/>
<path d="M203.141 332.08L203.124 332.088L203.106 332.097C201.44 332.977 199.515 333.237 197.675 332.829C195.84 332.422 194.209 331.377 193.071 329.881C192.601 329.177 192.291 328.38 192.162 327.544C192.032 326.703 192.089 325.844 192.328 325.028C192.568 324.211 192.984 323.458 193.547 322.82C194.11 322.183 194.807 321.677 195.588 321.339L195.605 321.331L195.623 321.322C197.289 320.441 199.214 320.182 201.054 320.59C202.889 320.997 204.52 322.041 205.658 323.538C206.128 324.241 206.438 325.039 206.567 325.875C206.697 326.716 206.64 327.575 206.4 328.391C206.161 329.207 205.745 329.961 205.182 330.598C204.619 331.236 203.922 331.742 203.141 332.08Z" fill="#FF9D00" stroke="#060905"/>
</g>
</svg>


