<svg width="464" height="500" viewBox="0 0 464 500" fill="none" xmlns="http://www.w3.org/2000/svg">
<path d="M215.378 108.209L16.2099 223.269C6.17812 229.019 0 239.724 0 251.285V467.641C0 485.503 14.4972 500 32.3587 500H430.756C448.617 500 463.114 485.503 463.114 467.641V251.285C463.114 239.724 456.936 229.019 446.904 223.208L247.675 108.209C237.766 102.459 225.41 102.459 215.378 108.209Z" fill="#F99192"/>
<path d="M231.421 455.285C311.183 455.285 375.842 426.694 375.842 391.424C375.842 356.155 311.183 327.563 231.421 327.563C151.66 327.563 87 356.155 87 391.424C87 426.694 151.66 455.285 231.421 455.285Z" fill="#F97171"/>
<path d="M244.25 471.862C223.575 449.474 209.75 422.315 203.022 391.118C197.822 366.956 196.966 340.348 200.514 312.148C206.386 265.109 222.412 229.264 223.085 227.796L267.678 247.982L245.412 237.889L267.739 247.92C267.617 248.226 253.731 279.484 248.96 319.428C242.965 369.648 253.486 409.714 280.218 438.647L244.25 471.862Z" fill="#3A3144"/>
<path d="M208.099 327.624L232.383 351.542L208.588 387.509C208.588 387.509 204.123 385.43 204.612 376.927C205.163 368.424 205.53 353.254 195.314 345.18" fill="#F97171"/>
<path d="M208.099 327.624L195.314 345.18C201.37 349.951 203.694 357.23 204.49 364.143L222.168 341.571L208.099 327.624Z" fill="#E25959"/>
<path d="M157.144 41.1676L179.899 45.8776C179.899 45.8776 182.958 16.1493 170.112 16.2104C155.799 16.2716 157.144 41.1676 157.144 41.1676Z" fill="#3EB7B2"/>
<path d="M180.939 15.7822C180.266 18.6572 179.532 21.5321 178.615 24.4071C178.187 25.7528 177.697 27.1597 177.208 28.5055C176.78 29.7288 176.413 31.2581 175.618 32.298C175.923 31.9921 176.229 31.6863 176.474 31.4416C176.352 31.5028 176.29 31.5639 176.168 31.6251C176.596 31.5028 176.963 31.3804 177.392 31.3193C177.269 31.3193 177.147 31.3193 177.086 31.3193C177.514 31.4416 177.881 31.5639 178.309 31.6251C178.676 31.8698 177.881 30.9522 177.881 30.8911C177.697 30.5852 177.575 30.3405 177.453 29.9735C177.269 29.2395 177.453 28.4443 177.759 27.7714C178.309 26.4869 179.41 25.3246 180.756 24.9576C183.814 24.2236 182.53 19.4524 179.471 20.2476C176.29 21.0428 173.844 23.8566 172.865 26.915C172.376 28.5055 172.314 30.2794 172.926 31.8086C173.477 33.2767 174.639 35.3564 176.168 35.9681C180.144 37.5585 181.49 31.0134 182.407 28.4443C183.692 24.7129 184.793 20.9204 185.649 17.1279C186.383 14.0083 181.612 12.7237 180.939 15.7822Z" fill="#3EB7B2"/>
<path d="M172.131 8.01372C171.581 13.2743 172.07 18.5349 173.66 23.5508C174.394 25.814 177.942 24.8353 177.208 22.5721C175.679 17.862 175.251 12.9684 175.801 8.01372C176.046 5.68928 172.376 5.68928 172.131 8.01372Z" fill="#3EB7B2"/>
<path d="M166.075 6.54564C165.647 11.745 165.953 16.9445 166.993 22.0827C167.482 24.4071 170.969 23.4284 170.541 21.104C169.562 16.2716 169.317 11.378 169.745 6.54564C169.929 4.16003 166.259 4.2212 166.075 6.54564Z" fill="#3EB7B2"/>
<path d="M159.836 7.58544C159.469 13.3354 160.019 19.0241 161.487 24.5906C162.099 26.8538 165.647 25.8751 165.035 23.6118C163.628 18.3513 163.139 13.0295 163.506 7.58544C163.628 5.19983 159.958 5.26099 159.836 7.58544Z" fill="#3EB7B2"/>
<path d="M154.881 16.1492C155.126 21.7768 156.533 27.4044 157.94 32.8485C158.551 35.1117 162.099 34.1942 161.487 31.8697C160.142 26.7315 158.796 21.4709 158.551 16.1492C158.49 13.7636 154.82 13.7636 154.881 16.1492Z" fill="#3EB7B2"/>
<path d="M176.413 21.6545C175.067 23.0002 173.966 24.5295 173.048 26.181C172.681 26.8539 173.721 27.4656 174.088 26.7927C174.945 25.2023 176.046 23.7954 177.269 22.5109C177.82 21.9604 176.963 21.104 176.413 21.6545Z" fill="#3A3144"/>
<path d="M306.276 34.6837L284.316 42.391C284.316 42.391 277.343 13.3355 290.066 11.6839C304.318 9.84886 306.276 34.6837 306.276 34.6837Z" fill="#3EB7B2"/>
<path d="M274.774 14.3143C276.119 17.9233 277.649 21.4711 279.361 24.9578C280.218 26.6705 281.074 28.3833 282.053 30.0348C282.97 31.6252 284.5 33.0933 286.518 32.2369C287.986 31.5641 288.904 29.6066 289.332 28.1386C289.821 26.487 289.638 24.7131 289.026 23.1227C287.68 19.7584 284.683 17.3116 281.135 16.8834C279.851 16.6999 278.688 18.1068 278.688 19.3302C278.688 20.7982 279.789 21.5934 281.135 21.7769C283.766 22.0828 286.029 26.4258 283.888 28.2609C284.438 28.0162 285.05 27.7716 285.601 27.5269C285.478 27.5269 285.356 27.5269 285.295 27.588C285.723 27.7104 286.09 27.8327 286.518 27.8939C286.702 28.1997 286.64 28.0774 286.335 27.5269C286.151 27.221 285.968 26.854 285.784 26.5482C285.417 25.8753 285.05 25.2024 284.683 24.5296C284.071 23.3674 283.46 22.144 282.909 20.9206C281.686 18.3515 280.585 15.7212 279.606 13.0297C278.383 10.0936 273.673 11.317 274.774 14.3143Z" fill="#3EB7B2"/>
<path d="M283.46 4.52703C284.622 9.17591 284.805 13.9471 283.949 18.6572C283.521 20.9816 287.069 21.9603 287.497 19.6359C288.476 14.253 288.292 8.87007 287.008 3.54832C286.457 1.28505 282.909 2.26376 283.46 4.52703Z" fill="#3EB7B2"/>
<path d="M289.271 2.26385C290.311 7.03507 290.678 11.9286 290.372 16.8222C290.188 19.2078 293.859 19.1466 294.042 16.8222C294.409 11.6228 293.981 6.36221 292.819 1.28514C292.329 -0.978133 288.781 0.000578837 289.271 2.26385Z" fill="#3EB7B2"/>
<path d="M295.632 2.50849C296.672 7.83024 296.856 13.2132 296.183 18.5961C295.877 20.9205 299.547 20.9205 299.853 18.5961C300.587 12.9073 300.342 7.15737 299.18 1.52978C298.691 -0.794659 295.143 0.184053 295.632 2.50849Z" fill="#3EB7B2"/>
<path d="M301.566 9.84886C302.055 15.2929 301.382 20.8594 300.771 26.3035C300.465 28.6279 304.135 28.6279 304.441 26.3035C305.114 20.8594 305.786 15.2929 305.236 9.84886C304.991 7.52442 301.321 7.46325 301.566 9.84886Z" fill="#3EB7B2"/>
<path d="M283.827 18.8409C285.234 19.9419 286.518 21.2265 287.558 22.6334C288.047 23.2451 289.087 22.6334 288.598 22.0217C287.436 20.4924 286.151 19.1467 284.683 17.9845C284.071 17.4951 283.215 18.3515 283.827 18.8409Z" fill="#3A3144"/>
<path d="M262.539 172.498L249.082 145.033C270.43 134.573 281.991 114.326 283.398 84.9038C284.56 60.7418 278.321 39.3937 278.26 39.2102L307.56 30.3406C307.866 31.3805 315.267 56.1541 314.044 85.4543C312.27 126.744 294.47 156.839 262.539 172.498Z" fill="#B2EEE6"/>
<path d="M220.21 94.6909C220.21 94.6909 209.2 98.8504 208.527 118.119C207.854 137.387 204.673 148.52 204.673 148.52H212.258L212.809 143.076L213.971 148.52H220.638L219.782 127.233" fill="#3A3144"/>
<path d="M223.758 255.811C242.609 255.811 257.891 239.489 257.891 219.354C257.891 199.22 242.609 182.897 223.758 182.897C204.907 182.897 189.625 199.22 189.625 219.354C189.625 239.489 204.907 255.811 223.758 255.811Z" fill="#385A7D"/>
<path d="M238.5 152.007L219.048 150.111C219.354 146.685 219.415 141.486 219.415 136.47C219.415 132.738 219.415 129.191 219.598 126.193L239.173 127.111C239.05 129.619 239.05 132.922 239.05 136.47C238.928 141.975 238.928 147.664 238.5 152.007Z" fill="#3EB7B2"/>
<path d="M224.492 133.35C225.287 134.573 235.87 136.653 238.867 136.776L239.112 123.991C239.112 123.991 223.391 131.698 224.492 133.35Z" fill="#3A3144"/>
<path d="M227.612 134.757C236.359 134.757 243.455 127.661 243.455 118.914V107.475C243.455 99.9515 237.338 93.8958 229.875 93.8958H227.673C220.149 93.8958 214.093 100.013 214.093 107.475V121.116C214.032 128.64 220.088 134.757 227.612 134.757Z" fill="#3EB7B2"/>
<path d="M228.774 119.22C227.856 118.058 226.205 118.302 225.471 119.465C225.043 120.137 226.082 120.749 226.511 120.076C226.878 119.465 227.489 119.526 227.918 120.076C228.407 120.688 229.263 119.832 228.774 119.22Z" fill="#3A3144"/>
<path d="M231.343 121.3C229.875 122.401 228.223 123.012 226.327 123.074C225.532 123.074 225.532 124.297 226.327 124.297C228.407 124.236 230.303 123.624 231.954 122.34C232.566 121.911 232.016 120.81 231.343 121.3Z" fill="#3A3144"/>
<path d="M233.606 117.201C234.181 117.201 234.646 116.681 234.646 116.039C234.646 115.397 234.181 114.877 233.606 114.877C233.032 114.877 232.566 115.397 232.566 116.039C232.566 116.681 233.032 117.201 233.606 117.201Z" fill="#3A3144"/>
<path d="M220.7 117.201C221.274 117.201 221.739 116.681 221.739 116.039C221.739 115.397 221.274 114.877 220.7 114.877C220.125 114.877 219.66 115.397 219.66 116.039C219.66 116.681 220.125 117.201 220.7 117.201Z" fill="#3A3144"/>
<path d="M235.258 110.901C234.585 110.779 233.912 110.779 233.239 110.779C232.444 110.84 232.444 112.063 233.239 112.002C233.79 111.941 234.401 111.941 234.952 112.063C235.258 112.124 235.625 112.002 235.686 111.635C235.747 111.329 235.564 110.901 235.258 110.901Z" fill="#3A3144"/>
<path d="M222.045 110.595C221.372 110.534 220.761 110.595 220.088 110.778C219.292 110.962 219.66 112.124 220.394 111.941C220.944 111.818 221.495 111.757 222.045 111.818C222.84 111.88 222.84 110.656 222.045 110.595Z" fill="#3A3144"/>
<path d="M210.178 111.88C209.628 115.122 211.891 120.199 215.561 120.199L216.54 111.146C216.601 110.534 213.91 109.372 213.481 109.31C211.524 109.005 210.484 110.167 210.178 111.88Z" fill="#3EB7B2"/>
<path d="M247.247 111.88C247.797 115.122 245.534 120.199 241.864 120.199L240.885 111.146C240.824 110.534 243.516 109.372 243.944 109.31C245.901 109.005 246.941 110.167 247.247 111.88Z" fill="#3EB7B2"/>
<path d="M265.108 141.914L196.354 142.77C192.745 142.831 189.748 145.584 189.442 149.193L184.242 206.386C184.487 210.362 187.851 213.482 191.95 213.666L255.199 216.174C259.297 216.357 262.906 213.482 263.518 209.567L272.755 150.906C273.489 146.257 269.941 142.097 265.108 141.914Z" fill="#B2EEE6"/>
<path d="M235.747 100.686C235.747 100.686 225.043 110.962 214.216 109.494C214.093 109.494 213.971 109.372 213.91 109.31C213.42 108.087 210.913 101.236 217.641 96.159C225.104 90.5926 237.827 93.6511 240.763 98.1776C240.763 98.1776 244.678 111.023 242.782 117.201C242.904 117.14 235.564 107.475 235.747 100.686Z" fill="#3A3144"/>
<path d="M235.747 100.686C235.747 100.686 236.359 106.374 240.824 114.877C245.29 123.379 238.5 130.353 238.5 130.353L239.05 148.459H251.284V143.81L252.63 148.459H262.172C262.172 148.459 254.648 136.47 253.425 123.93C251.284 102.459 242.904 99.2175 239.05 96.3425" fill="#3A3144"/>
<path d="M187.056 170.969C143.993 124.542 152.19 40.4949 152.557 36.947L182.958 40.1278C182.897 40.8619 175.862 114.021 209.444 150.172L187.056 170.969Z" fill="#B2EEE6"/>
<path d="M188.463 362.613C187.484 361.757 163.995 340.898 142.158 314.351C108.086 272.878 96.4642 239.907 106.618 213.543C111.695 200.392 121.727 190.727 134.817 186.323C150.66 181.001 170.296 183.326 194.947 193.357C211.585 200.147 227.122 209.078 237.276 215.378C236.97 215.195 236.298 215.195 235.747 215.44C235.197 215.684 234.646 215.929 234.157 216.174L263.335 212.259C263.702 215.073 265.047 217.947 266.393 220.761C268.901 226.083 273.122 235.075 269.023 245.902C266.515 252.508 261.561 257.646 255.015 260.46C240.946 266.516 224.614 265.17 211.402 256.974C204.428 252.631 190.665 244.495 176.535 238.745C163.384 233.362 155.554 232.445 152.128 232.567C152.006 235.075 152.801 240.213 156.594 248.288C161.243 258.197 169.011 269.88 179.716 282.909C199.045 306.521 220.699 325.789 220.944 325.973L188.463 362.613Z" fill="#385A7D"/>
<path d="M446.965 294.287L247.736 409.286C237.705 415.097 225.348 415.097 215.378 409.286L16.1487 294.287C6.17812 288.476 0 277.832 0 266.21V467.58C0 485.442 14.4972 499.939 32.3587 499.939H430.756C448.617 499.939 463.114 485.442 463.114 467.58V266.21C463.175 277.832 456.997 288.476 446.965 294.287Z" fill="#FFD8C5"/>
<path d="M257.218 52.3005L228.529 80.989L195.681 48.1409C187.79 40.2501 187.79 27.4045 195.681 19.4524C203.572 11.5616 216.418 11.5616 224.37 19.4524L257.218 52.3005Z" fill="#F97171"/>
<path d="M228.529 80.9891L199.841 52.3006L232.689 19.4526C240.58 11.5617 253.425 11.5617 261.377 19.4526C269.268 27.3434 269.268 40.189 261.377 48.1411L228.529 80.9891Z" fill="#F97171"/>
<path d="M203.144 361.635C204.612 360.228 206.508 359.616 208.527 359.677C208.894 359.677 208.894 359.065 208.527 359.065C206.386 358.943 204.306 359.677 202.716 361.206C202.41 361.451 202.899 361.94 203.144 361.635Z" fill="#FFECE5"/>
<path d="M204.061 365.855C205.652 364.815 207.426 364.204 209.322 364.02C209.689 363.959 209.689 363.347 209.322 363.409C207.303 363.592 205.468 364.265 203.756 365.366C203.45 365.55 203.756 366.039 204.061 365.855Z" fill="#FFECE5"/>
<path d="M204.673 370.259C206.386 369.525 208.16 369.036 209.995 368.669C210.362 368.608 210.24 367.996 209.811 368.057C207.915 368.363 206.141 368.914 204.367 369.709C204 369.892 204.306 370.443 204.673 370.259Z" fill="#FFECE5"/>
<path d="M189.258 154.882C187.913 161.794 186.873 168.767 186.016 175.741C185.955 176.536 187.179 176.536 187.24 175.741C188.035 168.89 189.075 162.039 190.421 155.188C190.543 154.454 189.381 154.087 189.258 154.882Z" fill="#3A3144"/>
<path d="M262.295 173.844C265.109 171.581 268.228 169.746 271.593 168.461C272.327 168.155 272.021 166.993 271.287 167.299C267.739 168.706 264.436 170.602 261.5 172.988C260.827 173.477 261.683 174.334 262.295 173.844Z" fill="#3A3144"/>
</svg>
