<svg width="570" height="437" viewBox="0 0 570 437" fill="none" xmlns="http://www.w3.org/2000/svg">
<path d="M205.708 206.266C203.05 202.013 201.322 193.773 202.12 185.799C203.05 177.824 203.316 165.73 193.215 165.198C183.247 164.667 179.792 184.735 179.26 189.121C178.729 193.374 160.786 196.032 146.566 191.646C132.212 187.261 105.631 182.077 93.9353 185.001C82.2397 187.925 86.4927 198.159 86.4927 198.159C78.3855 203.874 87.2901 211.051 87.2901 211.051C79.05 218.493 88.2204 226.335 94.0683 227.132C93.9354 227.929 93.8024 228.594 94.0683 229.524C95.6631 238.163 131.415 234.973 151.749 244.011C172.216 253.048 186.304 291.192 186.304 291.192L228.967 240.024C228.967 240.024 208.366 210.519 205.708 206.266Z" fill="white"/>
<path d="M136.465 207.196C136.465 207.196 95.663 203.608 87.4229 211.183C79.1828 218.626 88.3532 226.467 94.201 227.265" stroke="#060905" stroke-miterlimit="10"/>
<path d="M136.465 198.159C136.465 198.159 105.631 189.918 90.3469 196.165C76.126 202.013 87.423 211.05 87.423 211.05" stroke="#060905" stroke-miterlimit="10"/>
<path d="M86.6255 198.159C86.6255 198.159 82.2397 187.925 94.0682 185.001C105.764 182.077 132.478 187.128 146.831 191.646C161.185 196.032 178.994 193.507 179.526 189.121C180.058 184.868 183.513 164.667 193.481 165.198C203.449 165.73 203.183 177.824 202.386 185.799C201.455 193.773 203.316 202.013 205.974 206.266C208.632 210.519 229.232 240.024 229.232 240.024L186.437 291.192C186.437 291.192 172.349 253.048 151.882 244.011C131.414 234.973 95.6631 238.163 94.2011 229.524C92.6062 220.885 108.289 216.898 132.345 219.689" stroke="#060905" stroke-miterlimit="10"/>
<path d="M169.425 273.117L233.618 236.037C233.618 236.037 289.305 336.513 361.074 362.429L275.616 394.858L207.037 390.472C207.037 390.339 179.792 332.924 169.425 273.117Z" fill="#FF9D00"/>
<g opacity="0.3">
<path opacity="0.3" d="M169.425 273.117L233.618 236.037C233.618 236.037 289.305 336.513 361.074 362.429L275.616 394.858L207.037 390.472C207.037 390.339 179.792 332.924 169.425 273.117Z" fill="white"/>
</g>
<path d="M360.543 362.296C360.144 362.163 359.612 361.897 359.214 361.765V363.226L360.543 362.695V362.296Z" fill="white"/>
<path d="M332.633 352.727V373.327L333.962 372.796V352.727H340.208C339.411 352.328 338.746 351.797 337.949 351.398H334.094V349.006C333.696 348.74 333.164 348.474 332.765 348.208V351.531H307.514V328.937C307.115 328.538 306.583 328.14 306.184 327.741V351.531H280.933V325.083H303.261C302.729 324.684 302.33 324.152 301.799 323.754H280.933V302.09C280.534 301.559 280.002 301.027 279.604 300.628V323.887H254.352V297.438H276.813C276.414 297.04 276.015 296.508 275.749 296.109H254.485V269.661H255.282C254.485 268.598 253.82 267.535 253.155 266.605V268.332H227.904V241.884H237.074C236.808 241.353 236.542 240.954 236.277 240.555H227.904V239.758L224.315 241.884H226.575V268.332H201.323V255.042L199.994 255.839V268.332H178.33L176.071 269.661H199.994V296.109H174.742V270.459L173.413 271.256V292.521C173.811 294.382 174.343 296.242 174.742 298.103V297.173H199.994V323.621H181.786C181.919 324.019 182.051 324.551 182.184 324.95H199.994V351.398H191.222C191.355 351.797 191.488 352.328 191.753 352.727H200.126V374.125C200.525 375.188 201.057 376.251 201.456 377.314V352.727H226.707V379.175H201.987C202.12 379.574 202.386 380.105 202.519 380.504H226.309V391.668L227.638 391.801V380.504H252.89V393.396L254.219 393.529V380.637H279.471V393.529L280.8 392.997V380.637H306.052V383.428L307.381 382.896V380.637H313.494L316.95 379.308H307.248V352.86H332.633V352.727ZM226.442 351.398H201.19V324.95H226.442V351.398ZM226.442 323.621H201.19V297.173H226.442V323.621ZM226.442 295.844H201.19V269.396H226.442V295.844ZM253.023 379.175H227.771V352.727H253.023V379.175ZM253.023 351.398H227.771V324.95H253.023V351.398ZM253.023 323.621H227.771V297.173H253.023V323.621ZM253.023 295.844H227.771V269.396H253.023V295.844ZM279.471 379.175H254.219V352.727H279.471V379.175ZM279.471 351.398H254.219V324.95H279.471V351.398ZM306.052 379.175H280.8V352.727H306.052V379.175Z" fill="white"/>
<path d="M169.425 273.117L233.618 236.037C233.618 236.037 289.305 336.513 361.074 362.429L275.616 394.858L207.037 390.472C207.037 390.339 179.792 332.924 169.425 273.117Z" stroke="#060905" stroke-miterlimit="10"/>
<path d="M175.14 298.9L248.238 260.358" stroke="#060905" stroke-miterlimit="10"/>
<path d="M236.277 254.377C236.277 257.434 233.884 259.827 230.828 259.827C227.771 259.827 225.378 257.434 225.378 254.377C225.378 251.321 227.771 248.928 230.828 248.928C233.884 248.928 236.277 251.321 236.277 254.377Z" fill="#060905"/>
<path d="M441.215 294.913C441.215 294.913 458.359 340.101 395.495 356.049C332.631 371.998 258.603 369.207 258.603 369.207C258.603 369.207 251.028 369.34 251.559 349.537C251.958 329.867 251.161 290.926 276.413 247.865C301.797 204.804 317.48 189.121 330.372 184.203C334.891 182.476 365.858 179.95 383.002 189.785C415.032 208.658 439.753 252.251 441.215 294.913Z" fill="#FF9D00"/>
<g opacity="0.3">
<path opacity="0.3" d="M441.215 294.913C441.215 294.913 458.359 340.101 395.495 356.049C332.631 371.998 258.603 369.207 258.603 369.207C258.603 369.207 251.028 369.34 251.559 349.537C251.958 329.867 251.161 290.926 276.413 247.865C301.797 204.804 317.48 189.121 330.372 184.203C334.891 182.476 365.858 179.95 383.002 189.785C415.032 208.658 439.753 252.251 441.215 294.913Z" fill="white"/>
</g>
<path d="M421.678 319.634H442.013C442.145 319.235 442.278 318.703 442.411 318.305H421.811V291.856H441.348C441.348 291.458 441.348 290.926 441.215 290.527H421.811V264.079H436.563C436.431 263.681 436.298 263.149 436.165 262.75H421.811V236.302H425.399C425.134 235.904 424.868 235.372 424.735 234.973H421.944V230.056C421.545 229.391 421.014 228.594 420.615 227.929V235.106H395.363V208.658H405.995C405.597 208.259 405.198 207.728 404.799 207.329H395.496V198.557C395.097 198.159 394.566 197.893 394.167 197.494V207.329H368.915V184.868C368.516 184.735 367.985 184.735 367.586 184.602V207.329H342.334V183.007C341.935 183.007 341.404 183.007 341.005 183.14V207.462H315.753V194.437C315.354 194.836 314.823 195.235 314.424 195.633V207.329H303.924C303.526 207.728 303.26 208.259 302.861 208.658H314.424V235.106H289.172V227.929C288.773 228.594 288.242 229.258 287.843 229.923V235.106H284.387C284.122 235.505 283.856 236.036 283.59 236.435H287.71V262.883H268.838C268.572 263.282 268.439 263.814 268.173 264.212H287.71V290.66H262.458V278.167C262.059 279.496 261.528 280.692 261.129 282.022V290.66H258.471C258.338 291.059 258.205 291.591 258.072 291.989H260.996V318.437H253.155C253.155 318.836 253.022 319.368 253.022 319.766H261.129V346.215H251.693C251.693 346.613 251.693 347.145 251.693 347.544H261.129V369.473C261.528 369.473 261.927 369.473 262.458 369.473V347.544H287.71V369.34C288.109 369.34 288.64 369.34 289.039 369.34V347.544H314.291V368.144C314.69 368.144 315.221 368.144 315.62 368.011V347.411H340.872V365.752C341.271 365.752 341.802 365.619 342.201 365.619V347.411H367.453V362.03C367.852 361.897 368.383 361.897 368.782 361.764V347.411H394.034V356.581C394.433 356.448 394.964 356.315 395.363 356.315V347.544H418.621C419.817 346.879 420.881 346.215 421.944 345.55V319.634H421.678ZM287.577 346.082H262.325V319.634H287.577V346.082ZM287.577 318.305H262.325V291.856H287.577V318.305ZM314.158 346.082H288.906V319.634H314.158V346.082ZM314.158 318.305H288.906V291.856H314.158V318.305ZM314.158 290.527H288.906V264.079H314.158V290.527ZM314.158 262.75H288.906V236.302H314.158V262.75ZM340.606 346.082H315.354V319.634H340.606V346.082ZM340.606 318.305H315.354V291.856H340.606V318.305ZM340.606 290.527H315.354V264.079H340.606V290.527ZM340.606 262.75H315.354V236.302H340.606V262.75ZM340.606 234.973H315.354V208.525H340.606V234.973ZM367.187 346.082H341.935V319.634H367.187V346.082ZM367.187 318.305H341.935V291.856H367.187V318.305ZM367.187 290.527H341.935V264.079H367.187V290.527ZM367.187 262.75H341.935V236.302H367.187V262.75ZM367.187 234.973H341.935V208.525H367.187V234.973ZM393.768 346.082H368.516V319.634H393.768V346.082ZM393.768 318.305H368.516V291.856H393.768V318.305ZM393.768 290.527H368.516V264.079H393.768V290.527ZM393.768 262.75H368.516V236.302H393.768V262.75ZM393.768 234.973H368.516V208.525H393.768V234.973ZM420.349 346.082H395.097V319.634H420.349V346.082ZM420.349 318.305H395.097V291.856H420.349V318.305ZM420.349 290.527H395.097V264.079H420.349V290.527ZM420.349 262.75H395.097V236.302H420.349V262.75Z" fill="white"/>
<path d="M325.721 184.336C325.721 184.336 239.2 257.7 253.022 366.283" stroke="#060905" stroke-miterlimit="10"/>
<path d="M385.129 341.962L390.047 410.673L308.178 402.433C308.178 402.433 300.203 400.041 294.09 406.155C287.843 412.268 287.976 415.591 287.444 417.585C286.913 419.711 285.185 427.419 281.464 431.54C277.875 435.66 274.819 435.527 272.16 432.869C269.502 430.21 269.502 430.21 269.502 430.21C269.502 430.21 268.439 429.679 267.11 431.008C265.781 432.337 262.06 433.932 260.066 431.274C258.073 428.483 257.94 428.881 257.94 428.881C257.94 428.881 257.275 427.685 256.212 428.881C255.016 429.945 250.098 431.938 247.573 428.881C245.048 425.825 243.985 423.698 243.985 423.698C243.985 423.698 243.187 423.432 241.725 424.097C240.13 424.761 233.884 426.223 230.428 418.781C226.973 411.338 229.099 400.041 230.428 392.598C231.757 385.156 238.137 369.074 243.985 362.562C249.7 356.05 260.598 348.474 272.028 346.613C283.457 344.753 315.089 343.424 328.512 343.158C341.935 342.626 385.129 341.962 385.129 341.962Z" fill="white"/>
<path d="M281.464 382.365C281.464 382.365 269.502 403.496 267.243 415.192C265.116 426.888 271.629 435.128 275.483 434.862C279.337 434.596 284.653 430.742 287.046 419.445C289.438 408.148 297.014 402.433 302.728 402.3C308.31 402.167 394.433 411.338 394.433 411.338" stroke="#060905" stroke-miterlimit="10"/>
<path d="M266.446 379.574C266.446 379.574 256.478 402.3 255.547 414.129C254.617 425.958 259.933 432.603 262.591 432.869C265.249 433.267 269.104 429.413 269.104 429.413" stroke="#060905" stroke-miterlimit="10"/>
<path d="M253.421 371.201C253.421 371.201 242.656 392.598 241.991 404.958C241.327 417.319 243.719 426.09 248.504 429.28C253.288 432.47 257.94 427.818 257.94 427.818" stroke="#060905" stroke-miterlimit="10"/>
<path d="M387.389 341.962C387.389 341.962 305.519 342.626 279.071 345.417C252.623 348.208 241.194 362.695 235.213 377.447C229.232 392.2 227.239 411.604 230.694 418.249C236.675 429.679 243.586 422.901 243.586 422.901" stroke="#060905" stroke-miterlimit="10"/>
<path d="M393.901 248.928C393.901 248.928 439.886 289.331 433.507 315.513C427.127 341.696 322 339.17 322 339.17V413.597C322 413.597 368.117 412.534 407.59 417.717C453.841 423.831 526.54 406.686 533.85 351.929C541.16 297.173 496.371 198.158 374.896 181.678L393.901 248.928Z" fill="#FF9D00"/>
<g opacity="0.3">
<path opacity="0.3" d="M393.901 248.928C393.901 248.928 439.886 289.331 433.507 315.513C427.127 341.696 322 339.17 322 339.17V413.597C322 413.597 368.117 412.534 407.59 417.717C453.841 423.831 526.54 406.686 533.85 351.929C541.16 297.173 496.371 198.158 374.896 181.678L393.901 248.928Z" fill="white"/>
</g>
<path d="M527.736 346.082V319.633H532.654C532.521 319.235 532.521 318.703 532.388 318.304H527.736V300.096C527.338 298.767 526.806 297.571 526.407 296.242V318.304H501.155V291.856H524.812C524.679 291.458 524.414 290.926 524.281 290.527H501.155V264.079H510.592C510.326 263.681 510.06 263.149 509.794 262.75H501.155V250.523C500.757 249.991 500.225 249.327 499.826 248.795V262.617H474.574V236.169H488.662C488.264 235.771 487.732 235.239 487.333 234.84H474.574V223.41C474.176 223.012 473.644 222.746 473.245 222.347V235.106H447.993V208.658H453.575C452.778 208.259 452.113 207.728 451.316 207.329H447.993V205.468C447.595 205.202 447.063 204.937 446.664 204.804V207.462H421.412V193.374C421.014 193.241 420.482 193.108 420.083 192.842V207.462H394.831V185.533C394.433 185.4 393.901 185.4 393.502 185.267V207.462H381.807L382.206 208.791H393.502V235.239H389.648L390.047 236.568H393.502V248.662L393.635 249.061C393.635 249.061 394.034 249.46 394.831 250.124V236.435H420.083V262.883H407.59C407.989 263.282 408.388 263.813 408.786 264.212H419.95V277.901C420.349 278.566 420.881 279.098 421.28 279.762V264.212H446.531V290.66H428.058C428.323 291.059 428.456 291.591 428.722 291.989H446.531V318.437H432.045C431.779 318.836 431.513 319.368 431.114 319.766H446.531V346.214H421.28V327.076C420.881 327.342 420.349 327.475 419.95 327.741V346.347H394.699V334.652C394.3 334.785 393.768 334.785 393.37 334.918V346.347H368.118V337.709C367.719 337.709 367.187 337.841 366.789 337.841V346.214H341.537V339.038C341.138 339.038 340.606 339.038 340.208 339.038V346.082H321.468V347.411H340.208V373.859H321.468V375.188H340.208V401.636H321.468V402.965H340.208V413.464C340.606 413.464 341.138 413.464 341.537 413.464V402.965H366.789V414.129C367.187 414.129 367.719 414.129 368.118 414.129V402.832H393.37V415.989C393.768 415.989 394.3 416.122 394.699 416.122V402.832H419.95V418.515C420.349 418.515 420.881 418.515 421.28 418.515V402.699H446.531V417.451C446.93 417.451 447.462 417.318 447.86 417.318V402.965H473.112V411.869C473.511 411.736 474.043 411.604 474.441 411.471V403.098H494.643C495.44 402.699 496.238 402.167 497.035 401.769H474.441V375.321H499.693V400.174C500.092 399.908 500.624 399.642 501.022 399.376V375.188H525.477C526.274 373.992 526.939 372.662 527.603 371.466V347.411H534.116C534.116 347.012 534.249 346.48 534.249 346.082H527.736ZM420.349 234.973H395.097V208.525H420.349V234.973ZM367.187 401.636H341.935V375.188H367.187V401.636ZM367.187 373.859H341.935V347.411H367.187V373.859ZM393.768 401.636H368.516V375.188H393.768V401.636ZM393.768 373.859H368.516V347.411H393.768V373.859ZM420.349 401.636H395.097V375.188H420.349V401.636ZM420.349 373.859H395.097V347.411H420.349V373.859ZM446.797 401.636H421.545V375.188H446.797V401.636ZM446.797 373.859H421.545V347.411H446.797V373.859ZM446.797 262.75H421.545V236.302H446.797V262.75ZM446.797 234.973H421.545V208.525H446.797V234.973ZM473.378 401.636H448.126V375.188H473.378V401.636ZM473.378 373.859H448.126V347.411H473.378V373.859ZM473.378 346.082H448.126V319.633H473.378V346.082ZM473.378 318.304H448.126V291.856H473.378V318.304ZM473.378 290.527H448.126V264.079H473.378V290.527ZM473.378 262.75H448.126V236.302H473.378V262.75ZM499.959 373.859H474.707V347.411H499.959V373.859ZM499.959 346.082H474.707V319.633H499.959V346.082ZM499.959 318.304H474.707V291.856H499.959V318.304ZM499.959 290.527H474.707V264.079H499.959V290.527ZM526.407 373.859H501.155V347.411H526.407V373.859ZM526.407 346.082H501.155V319.633H526.407V346.082Z" fill="white"/>
<path d="M393.901 248.928C393.901 248.928 439.886 289.331 433.507 315.513C427.127 341.696 322 339.17 322 339.17V413.597C322 413.597 368.117 412.534 407.59 417.717C453.841 423.831 526.54 406.686 533.85 351.929C541.16 297.173 496.371 198.158 374.896 181.678" stroke="#060905" stroke-miterlimit="10"/>
<path d="M341.271 399.376C341.271 402.433 338.879 404.825 335.822 404.825C332.765 404.825 330.373 402.433 330.373 399.376C330.373 396.32 332.765 393.927 335.822 393.927C338.879 393.927 341.271 396.32 341.271 399.376Z" fill="#060905"/>
<path d="M348.847 338.772V413.464" stroke="#060905" stroke-miterlimit="10"/>
<path d="M390.712 120.941C390.712 129.713 383.535 136.757 374.763 136.757C365.991 136.757 358.814 129.713 358.814 120.941C358.814 112.169 365.991 105.125 374.763 105.125C383.535 105.125 390.712 112.169 390.712 120.941Z" stroke="#060905" stroke-width="2" stroke-miterlimit="10"/>
<path d="M321.335 71.8989H341.271C354.561 71.8989 365.46 84.2591 365.46 99.4102V130.377C365.46 131.307 365.46 132.105 365.327 132.902C365.593 133.833 365.725 134.763 365.725 135.693V154.566V155.629V174.501C365.725 181.412 360.143 186.994 353.232 186.994H345.258C338.347 186.994 332.765 181.412 332.765 174.501V157.888H321.202C307.912 157.888 297.014 145.528 297.014 130.377V99.4102C297.279 84.2591 308.045 71.8989 321.335 71.8989Z" fill="white" stroke="#060905" stroke-miterlimit="10"/>
<path d="M360.277 120.409L356.555 96.0877C356.555 96.0877 289.438 104.461 267.642 71.899C245.846 39.3373 268.838 26.3127 279.869 28.1733C290.9 30.034 303.925 45.8497 303.925 45.8497C303.925 45.8497 293.558 31.7617 303.925 29.6353C314.292 27.3759 325.588 38.1412 331.569 49.1723C331.569 49.1723 375.826 45.0522 390.845 71.899C405.863 98.7458 393.636 117.751 366.257 145.395L364.397 129.978L360.277 120.409Z" fill="#060905"/>
<path d="M354.296 125.194C354.296 131.573 349.113 136.624 342.866 136.624C336.487 136.624 331.436 131.44 331.436 125.194C331.436 118.814 336.62 113.764 342.866 113.764C349.113 113.631 354.296 118.814 354.296 125.194Z" fill="#FF80A4"/>
<path d="M300.071 116.024C299.406 116.024 298.742 116.156 298.077 116.289V128.251C298.077 129.979 297.944 131.706 298.21 133.434C298.742 133.567 299.539 133.567 300.071 133.567C304.855 133.567 308.842 129.713 308.842 124.795C308.71 119.878 304.855 116.024 300.071 116.024Z" fill="#FF80A4"/>
<path d="M333.563 109.112C333.563 111.372 331.702 113.232 329.443 113.232C327.183 113.232 325.323 111.372 325.323 109.112C325.323 106.853 327.183 104.992 329.443 104.992C331.702 104.992 333.563 106.853 333.563 109.112Z" fill="#060905"/>
<path d="M306.849 108.581C306.849 110.441 305.254 112.036 303.393 112.036C301.532 112.036 299.938 110.441 299.938 108.581C299.938 106.72 301.532 105.125 303.393 105.125C305.254 104.992 306.849 106.587 306.849 108.581Z" fill="#060905"/>
<path d="M310.703 125.194C310.703 125.194 312.696 131.175 317.082 131.573C321.468 131.972 324.791 127.187 325.057 123.466L310.703 125.194Z" fill="white"/>
<path d="M310.304 125.327C311.367 128.251 313.627 131.706 316.949 131.972C321.734 132.504 325.057 127.586 325.455 123.333C325.455 123.067 325.19 122.801 325.057 122.934C320.272 123.466 315.487 124.131 310.703 124.662C310.171 124.795 310.171 125.592 310.703 125.592C314.956 125.061 319.608 123.865 323.993 123.998C325.455 123.998 325.057 123.732 324.259 125.327C323.063 127.985 321.202 130.909 317.88 131.174C314.557 131.307 312.165 127.985 311.102 125.061C310.969 124.529 310.171 124.795 310.304 125.327Z" fill="#060905"/>
<path d="M350.176 106.72C350.176 115.492 343.796 122.669 335.955 122.669C328.114 122.669 321.734 115.492 321.734 106.72C321.734 97.9483 328.114 90.7715 335.955 90.7715C343.796 90.7715 350.176 97.9483 350.176 106.72Z" stroke="#505050" stroke-miterlimit="10"/>
<path d="M312.165 104.727C312.165 112.568 306.849 118.947 300.469 118.947C293.957 118.947 288.774 112.568 288.774 104.727C288.774 96.8852 294.09 90.5057 300.469 90.5057C306.849 90.5057 312.165 96.8852 312.165 104.727Z" stroke="#505050" stroke-miterlimit="10"/>
<path d="M316.285 105.125V118.947L308.975 114.561L316.285 105.125Z" fill="#FF80A4"/>
<path d="M311.766 108.979C311.766 108.979 317.88 106.72 322 110.176" stroke="#505050" stroke-miterlimit="10"/>
<path d="M350.176 107.252L369.447 111.372" stroke="#505050" stroke-miterlimit="10"/>
<path d="M390.712 120.941C390.712 129.713 383.535 136.757 374.763 136.757C365.991 136.757 358.814 129.713 358.814 120.941C358.814 112.169 365.991 105.125 374.763 105.125C383.535 105.125 390.712 112.169 390.712 120.941Z" fill="white"/>
<path d="M366.789 122.934C366.656 121.472 366.922 119.745 367.586 118.416C369.181 114.694 372.769 113.631 376.624 113.897C377.288 113.897 377.288 112.834 376.624 112.834C372.769 112.435 368.915 113.498 367.055 117.219C366.124 118.947 365.726 121.074 365.858 122.934C365.726 123.732 366.789 123.732 366.789 122.934Z" fill="#060905"/>
<path d="M379.149 193.773H321.867C319.741 193.773 318.146 192.045 318.146 190.051V180.216C318.146 178.09 319.874 176.495 321.867 176.495H379.149C381.276 176.495 382.871 178.223 382.871 180.216V190.051C382.871 192.045 381.276 193.773 379.149 193.773Z" fill="#FF9D00"/>
<path opacity="0.3" d="M379.149 193.773H321.867C319.741 193.773 318.146 192.045 318.146 190.051V180.216C318.146 178.09 319.874 176.495 321.867 176.495H379.149C381.276 176.495 382.871 178.223 382.871 180.216V190.051C382.871 192.045 381.276 193.773 379.149 193.773Z" fill="white"/>
<path d="M331.436 184.735C331.436 186.463 330.107 187.792 328.379 187.792C326.652 187.792 325.323 186.463 325.323 184.735C325.323 183.007 326.652 181.678 328.379 181.678C330.107 181.678 331.436 183.007 331.436 184.735Z" fill="#060905"/>
<path d="M368.517 193.773V180.748H382.87V180.084C382.87 179.818 382.87 179.552 382.738 179.419H368.384V176.362H367.055V179.419H341.803V176.362H340.474V179.419H317.88C317.88 179.685 317.747 179.818 317.747 180.084V180.748H340.341V193.773H341.67V180.748H366.922V193.773H368.517Z" fill="white"/>
<path d="M379.149 193.773H321.867C319.741 193.773 318.146 192.045 318.146 190.051V180.216C318.146 178.09 319.874 176.495 321.867 176.495H379.149C381.276 176.495 382.871 178.223 382.871 180.216V190.051C382.871 192.045 381.276 193.773 379.149 193.773Z" stroke="#060905" stroke-miterlimit="10"/>
<path d="M513.914 372.53C500.491 372.53 489.593 383.428 489.593 396.851C489.593 410.275 500.491 421.173 513.914 421.173C527.338 421.173 538.236 410.275 538.236 396.851C538.236 383.428 527.338 372.53 513.914 372.53ZM513.914 412.401C505.408 412.401 498.497 405.49 498.497 396.984C498.497 388.478 505.408 381.567 513.914 381.567C522.42 381.567 529.331 388.478 529.331 396.984C529.331 405.49 522.42 412.401 513.914 412.401Z" fill="white" stroke="#060905" stroke-miterlimit="10"/>
<path d="M507.136 436.058H455.569C451.316 436.058 447.728 432.603 447.728 428.217V366.416C447.728 362.163 451.183 358.575 455.569 358.575H507.136C511.389 358.575 514.978 362.03 514.978 366.416V428.217C514.845 432.603 511.389 436.058 507.136 436.058Z" fill="white" stroke="#060905" stroke-miterlimit="10"/>
<path d="M487.2 419.445H475.372C469.524 419.445 464.74 414.66 464.74 408.813V407.617C464.74 401.769 469.524 396.984 475.372 396.984H487.2C493.048 396.984 497.833 401.769 497.833 407.617V408.813C497.966 414.66 493.181 419.445 487.2 419.445Z" fill="#FF80A4"/>
<path d="M470.587 425.293H469.391C467.53 425.293 466.068 423.831 466.068 421.97V414.66C466.068 412.8 467.53 411.338 469.391 411.338H470.587C472.448 411.338 473.91 412.8 473.91 414.66V421.97C473.91 423.831 472.448 425.293 470.587 425.293Z" fill="#FF80A4"/>
<path d="M493.048 425.692H491.852C489.991 425.692 488.53 424.23 488.53 422.369V415.059C488.53 413.199 489.991 411.737 491.852 411.737H493.048C494.909 411.737 496.371 413.199 496.371 415.059V422.369C496.371 424.23 494.909 425.692 493.048 425.692Z" fill="#FF80A4"/>
<path d="M472.581 403.098C471.518 398.313 470.587 393.396 470.189 388.345C469.524 379.175 474.043 374.922 483.479 376.251C488.529 376.916 490.656 369.207 485.605 368.543C476.169 367.214 464.872 369.473 462.347 380.238C460.619 387.947 463.012 397.383 464.739 405.091C466.068 410.275 473.777 408.148 472.581 403.098Z" fill="#FF80A4"/>
<path d="M491.055 403.895C491.32 403.497 492.915 404.028 493.447 404.161C496.637 405.224 508.997 408.015 508.066 418.648C507.535 425.692 503.548 428.483 500.225 429.679C499.029 430.078 498.099 428.616 499.029 427.685C500.225 426.622 501.421 425.16 502.086 423.565C503.946 419.445 500.225 416.123 490.124 411.338C489.46 411.072 489.858 406.421 490.39 405.889L491.055 403.895Z" fill="#FF80A4"/>
<path d="M483.08 370.802C483.08 371.334 482.682 371.732 482.15 371.732C481.618 371.732 481.22 371.334 481.22 370.802C481.22 370.27 481.618 369.872 482.15 369.872C482.682 369.872 483.08 370.27 483.08 370.802Z" fill="#060905"/>
<path d="M482.017 373.859C482.416 375.454 484.409 376.118 485.871 376.118C486.004 376.118 486.004 375.985 485.871 375.852C484.542 375.852 482.549 375.321 482.15 373.726C482.283 373.726 482.017 373.859 482.017 373.859Z" fill="#060905"/>
<path d="M479.758 402.035C479.758 402.832 478.694 403.497 477.498 403.497C476.302 403.497 475.239 402.832 475.239 402.035C475.239 401.237 476.302 400.573 477.498 400.573C478.694 400.573 479.758 401.237 479.758 402.035Z" fill="#FF80A4"/>
<path d="M483.878 404.56C483.878 404.958 483.346 405.357 482.549 405.357C481.884 405.357 481.22 404.958 481.22 404.56C481.22 404.161 481.751 403.762 482.549 403.762C483.346 403.762 483.878 404.161 483.878 404.56Z" fill="#FF80A4"/>
<path d="M488.13 400.041C488.13 400.573 486.934 401.104 485.605 401.104C484.276 401.104 483.08 400.573 483.08 400.041C483.08 399.51 484.276 398.978 485.605 398.978C486.934 398.978 488.13 399.51 488.13 400.041Z" fill="#FF80A4"/>
<path d="M490.656 403.762C491.316 403.762 491.852 403.465 491.852 403.098C491.852 402.731 491.316 402.433 490.656 402.433C489.995 402.433 489.459 402.731 489.459 403.098C489.459 403.465 489.995 403.762 490.656 403.762Z" fill="#FF80A4"/>
<g opacity="0.6">
<path opacity="0.6" d="M479.758 402.035C479.758 402.832 478.694 403.497 477.498 403.497C476.302 403.497 475.239 402.832 475.239 402.035C475.239 401.237 476.302 400.573 477.498 400.573C478.694 400.573 479.758 401.237 479.758 402.035Z" fill="white"/>
<path opacity="0.6" d="M483.878 404.56C483.878 404.958 483.346 405.357 482.549 405.357C481.884 405.357 481.22 404.958 481.22 404.56C481.22 404.161 481.751 403.762 482.549 403.762C483.346 403.762 483.878 404.161 483.878 404.56Z" fill="white"/>
<path opacity="0.6" d="M488.13 400.041C488.13 400.573 486.934 401.104 485.605 401.104C484.276 401.104 483.08 400.573 483.08 400.041C483.08 399.51 484.276 398.978 485.605 398.978C486.934 398.978 488.13 399.51 488.13 400.041Z" fill="white"/>
<path opacity="0.6" d="M490.656 403.762C491.316 403.762 491.852 403.465 491.852 403.098C491.852 402.731 491.316 402.433 490.656 402.433C489.995 402.433 489.459 402.731 489.459 403.098C489.459 403.465 489.995 403.762 490.656 403.762Z" fill="white"/>
</g>
<path d="M508.332 333.987C507.535 349.404 484.277 349.537 484.277 333.987C484.277 318.438 507.402 318.57 508.332 333.987C508.465 335.848 511.389 335.848 511.389 333.987C510.991 325.88 504.877 318.969 496.371 318.969C488.264 318.969 481.353 325.747 481.353 333.987C481.353 341.829 487.732 348.607 495.574 348.873C504.345 349.271 510.858 342.36 511.256 333.987C511.389 331.994 508.332 331.994 508.332 333.987Z" fill="#E1E1E1"/>
<path d="M566.943 286.939C566.412 304.482 552.058 318.172 534.515 318.172C517.237 318.172 502.219 304.482 502.086 286.939C501.953 269.395 517.37 255.706 534.515 255.706C552.058 255.706 566.545 269.395 566.943 286.939C566.943 288.8 570 288.932 570 286.939C569.07 255.175 527.869 240.821 507.269 265.275C486.403 289.996 509.927 325.614 540.495 320.697C557.241 318.039 569.468 303.818 570 286.939C570 285.078 567.076 285.078 566.943 286.939Z" fill="#E1E1E1"/>
<path d="M74.6642 436.59L215.41 436.855C230.03 436.855 237.605 425.559 232.289 411.471L195.342 313.786C190.026 299.831 173.944 288.401 159.325 288.401L18.5783 288.135C3.9588 288.135 -3.61678 299.432 1.69942 313.52L38.514 411.072C43.8302 425.16 60.0446 436.59 74.6642 436.59Z" fill="#060905"/>
<path d="M95.9289 354.72C97.5238 360.967 103.903 366.017 110.15 366.017C116.396 366.017 119.985 360.967 118.39 354.853C116.795 348.607 110.416 343.556 104.169 343.556C97.9225 343.423 94.2012 348.474 95.9289 354.72Z" fill="white"/>
<path d="M172.216 436.723L314.026 436.988C315.886 436.988 317.348 435.526 317.348 433.666V419.312C317.348 417.451 315.886 415.989 314.026 415.989L172.216 415.724C170.356 415.724 168.894 417.186 168.894 419.046V433.4C168.894 435.261 170.356 436.723 172.216 436.723Z" fill="#060905"/>
<path d="M106.679 1H209.273C215.566 1 221.601 3.49984 226.05 7.94957C230.5 12.3993 233 18.4344 233 24.7273V127.128L208.911 104.967H106.727C100.434 104.967 94.3993 102.467 89.9496 98.017C85.4998 93.5673 83 87.5321 83 81.2393V24.7273C83 18.4428 85.4932 12.4149 89.9325 7.96658C94.3719 3.51823 100.395 1.01276 106.679 1Z" fill="white" stroke="#060905" stroke-miterlimit="10"/>
<path d="M112.92 66.296L113.45 67.144L114.13 66.719L113.863 65.9628L112.92 66.296ZM111.032 67.032L110.809 66.0571L110.803 66.0586L111.032 67.032ZM103.48 65.624L102.806 66.3628H102.806L103.48 65.624ZM101.656 54.84H102.656V53.84H101.656V54.84ZM99.128 54.84H98.128V55.84H99.128V54.84ZM99.128 50.296V49.296H98.128V50.296H99.128ZM101.656 50.296V51.296H102.656V50.296H101.656ZM101.656 45.784V44.784H100.656V45.784H101.656ZM107.736 45.784H108.736V44.784H107.736V45.784ZM107.736 50.296H106.736V51.296H107.736V50.296ZM111.704 50.296H112.704V49.296H111.704V50.296ZM111.704 54.84V55.84H112.704V54.84H111.704ZM107.736 54.84V53.84H106.736V54.84H107.736ZM108.216 62.072L107.466 62.7336L107.487 62.757L107.509 62.7791L108.216 62.072ZM111.416 62.04L112.359 61.7068L111.927 60.4835L110.854 61.2131L111.416 62.04ZM112.39 65.448C111.994 65.6954 111.475 65.905 110.809 66.0571L111.255 68.0069C112.082 67.8177 112.822 67.5366 113.45 67.144L112.39 65.448ZM110.803 66.0586C110.161 66.2097 109.46 66.288 108.696 66.288V68.288C109.596 68.288 110.453 68.1957 111.261 68.0054L110.803 66.0586ZM108.696 66.288C106.59 66.288 105.126 65.7724 104.154 64.8852L102.806 66.3628C104.266 67.6943 106.279 68.288 108.696 68.288V66.288ZM104.154 64.8852C103.209 64.023 102.656 62.6789 102.656 60.664H100.656C100.656 63.0438 101.319 65.0063 102.806 66.3628L104.154 64.8852ZM102.656 60.664V54.84H100.656V60.664H102.656ZM101.656 53.84H99.128V55.84H101.656V53.84ZM100.128 54.84V50.296H98.128V54.84H100.128ZM99.128 51.296H101.656V49.296H99.128V51.296ZM102.656 50.296V45.784H100.656V50.296H102.656ZM101.656 46.784H107.736V44.784H101.656V46.784ZM106.736 45.784V50.296H108.736V45.784H106.736ZM107.736 51.296H111.704V49.296H107.736V51.296ZM110.704 50.296V54.84H112.704V50.296H110.704ZM111.704 53.84H107.736V55.84H111.704V53.84ZM106.736 54.84V60.6H108.736V54.84H106.736ZM106.736 60.6C106.736 61.3923 106.944 62.1418 107.466 62.7336L108.966 61.4104C108.848 61.2768 108.736 61.045 108.736 60.6H106.736ZM107.509 62.7791C108.066 63.3363 108.783 63.584 109.56 63.584V61.584C109.228 61.584 109.049 61.4904 108.923 61.3649L107.509 62.7791ZM109.56 63.584C110.445 63.584 111.264 63.3527 111.978 62.8669L110.854 61.2131C110.501 61.4526 110.083 61.584 109.56 61.584V63.584ZM110.473 62.3732L111.977 66.6292L113.863 65.9628L112.359 61.7068L110.473 62.3732ZM131.744 51.288L131.043 52.0009L131.049 52.0066L131.744 51.288ZM133.729 67V68H134.729V67H133.729ZM127.649 67H126.649V68H127.649V67ZM122.272 55.544L121.543 54.8601L121.537 54.8662L121.532 54.8725L122.272 55.544ZM121.345 67V68H122.345V67H121.345ZM115.264 67H114.264V68H115.264V67ZM115.264 43.256V42.256H114.264V43.256H115.264ZM121.345 43.256H122.345V42.256H121.345V43.256ZM121.345 51.256H120.345V53.5608L122.028 51.9863L121.345 51.256ZM123.681 49.848L123.344 48.9063L123.681 49.848ZM126.561 50.368C128.504 50.368 129.962 50.9377 131.043 52.0009L132.446 50.5751C130.924 49.0783 128.927 48.368 126.561 48.368V50.368ZM131.049 52.0066C132.11 53.0329 132.729 54.6584 132.729 57.08H134.729C134.729 54.3389 134.025 52.1031 132.44 50.5694L131.049 52.0066ZM132.729 57.08V67H134.729V57.08H132.729ZM133.729 66H127.649V68H133.729V66ZM128.649 67V58.072H126.649V67H128.649ZM128.649 58.072C128.649 56.7808 128.394 55.6272 127.717 54.7824C127.006 53.8955 125.97 53.52 124.801 53.52V55.52C125.53 55.52 125.918 55.7365 126.156 56.0336C126.428 56.3728 126.649 56.9952 126.649 58.072H128.649ZM124.801 53.52C123.515 53.52 122.395 53.951 121.543 54.8601L123.002 56.2279C123.43 55.7716 123.996 55.52 124.801 55.52V53.52ZM121.532 54.8725C120.681 55.8105 120.345 57.1195 120.345 58.616H122.345C122.345 57.3818 122.626 56.6428 123.013 56.2155L121.532 54.8725ZM120.345 58.616V67H122.345V58.616H120.345ZM121.345 66H115.264V68H121.345V66ZM116.264 67V43.256H114.264V67H116.264ZM115.264 44.256H121.345V42.256H115.264V44.256ZM120.345 43.256V51.256H122.345V43.256H120.345ZM122.028 51.9863C122.584 51.4658 123.243 51.0661 124.017 50.7897L123.344 48.9063C122.326 49.2699 121.428 49.8089 120.661 50.5257L122.028 51.9863ZM124.017 50.7897C124.797 50.5111 125.642 50.368 126.561 50.368V48.368C125.431 48.368 124.356 48.5449 123.344 48.9063L124.017 50.7897ZM151.53 51.352L150.872 52.1053L150.878 52.1105L151.53 51.352ZM153.802 67V68H154.802V67H153.802ZM148.138 67H147.138V68H148.138V67ZM148.138 64.76H149.138L147.25 64.2994L148.138 64.76ZM139.53 66.584L139.098 67.4861L139.53 66.584ZM137.29 64.696L136.434 65.2138L136.442 65.2271L136.451 65.2402L137.29 64.696ZM138.442 58.136L139.022 58.9507L139.031 58.9441L138.442 58.136ZM147.722 56.76V57.76H148.782L148.72 56.702L147.722 56.76ZM141.514 54.424L141.801 55.3818L141.812 55.3786L141.823 55.375L141.514 54.424ZM139.338 55.512L138.442 55.9564L138.989 57.0581L139.956 56.2983L139.338 55.512ZM137.29 51.384L136.735 50.5519L136.003 51.0401L136.394 51.8284L137.29 51.384ZM140.778 49.912L141.02 50.8822L141.031 50.8795L140.778 49.912ZM146.57 62.936L147.109 63.7783L146.57 62.936ZM147.722 61.432L148.664 61.7664L148.722 61.6042V61.432H147.722ZM147.722 59.928H148.722V58.928H147.722V59.928ZM143.05 62.968L142.43 63.7529L143.05 62.968ZM144.938 50.368C147.679 50.368 149.605 50.9984 150.872 52.1052L152.188 50.5988C150.426 49.0602 147.956 48.368 144.938 48.368V50.368ZM150.878 52.1105C152.1 53.1606 152.802 54.8407 152.802 57.368H154.802C154.802 54.4766 153.989 52.1461 152.181 50.5935L150.878 52.1105ZM152.802 57.368V67H154.802V57.368H152.802ZM153.802 66H148.138V68H153.802V66ZM149.138 67V64.76H147.138V67H149.138ZM147.25 64.2994C146.606 65.5411 145.329 66.288 143.018 66.288V68.288C145.784 68.288 147.92 67.3495 149.025 65.2206L147.25 64.2994ZM143.018 66.288C141.789 66.288 140.78 66.0734 139.961 65.6819L139.098 67.4861C140.242 68.0332 141.559 68.288 143.018 68.288V66.288ZM139.961 65.6819C139.12 65.2794 138.526 64.7637 138.129 64.1518L136.451 65.2402C137.078 66.207 137.977 66.9499 139.098 67.4861L139.961 65.6819ZM138.145 64.1782C137.757 63.5363 137.554 62.8007 137.554 61.944H135.554C135.554 63.1353 135.841 64.2344 136.434 65.2138L138.145 64.1782ZM137.554 61.944C137.554 60.6008 138.046 59.6455 139.022 58.9507L137.862 57.3213C136.321 58.4185 135.554 60.0019 135.554 61.944H137.554ZM139.031 58.9441C140.036 58.2112 141.723 57.76 144.266 57.76V55.76C141.561 55.76 139.364 56.2262 137.853 57.3279L139.031 58.9441ZM144.266 57.76H147.722V55.76H144.266V57.76ZM148.72 56.702C148.653 55.555 148.218 54.5659 147.321 53.8952C146.464 53.2547 145.323 53.008 144.042 53.008V55.008C145.107 55.008 145.753 55.22 146.123 55.4968C146.453 55.7434 146.683 56.1303 146.723 56.818L148.72 56.702ZM144.042 53.008C143.097 53.008 142.15 53.1657 141.205 53.473L141.823 55.375C142.584 55.1276 143.323 55.008 144.042 55.008V53.008ZM141.226 53.4662C140.274 53.752 139.431 54.1669 138.72 54.7257L139.956 56.2983C140.439 55.9185 141.047 55.608 141.801 55.3818L141.226 53.4662ZM140.234 55.0676L138.186 50.9396L136.394 51.8284L138.442 55.9564L140.234 55.0676ZM137.844 52.216C138.691 51.6519 139.743 51.2016 141.02 50.8821L140.535 48.9419C139.082 49.3051 137.809 49.8361 136.735 50.5519L137.844 52.216ZM141.031 50.8795C142.338 50.5377 143.639 50.368 144.938 50.368V48.368C143.463 48.368 141.991 48.561 140.525 48.9445L141.031 50.8795ZM144.714 64.448C145.587 64.448 146.397 64.2339 147.109 63.7783L146.031 62.0937C145.676 62.3208 145.249 62.448 144.714 62.448V64.448ZM147.109 63.7783C147.85 63.3041 148.364 62.6132 148.664 61.7664L146.779 61.0976C146.61 61.5735 146.357 61.8852 146.031 62.0937L147.109 63.7783ZM148.722 61.432V59.928H146.722V61.432H148.722ZM147.722 58.928H145.098V60.928H147.722V58.928ZM145.098 58.928C144.134 58.928 143.236 59.082 142.553 59.5344C141.798 60.0348 141.442 60.8074 141.442 61.688H143.442C143.442 61.3952 143.528 61.2879 143.658 61.2016C143.861 61.0674 144.291 60.928 145.098 60.928V58.928ZM141.442 61.688C141.442 62.5157 141.776 63.2361 142.43 63.7529L143.669 62.1831C143.513 62.0599 143.442 61.9269 143.442 61.688H141.442ZM142.43 63.7529C143.066 64.2552 143.866 64.448 144.714 64.448V62.448C144.154 62.448 143.844 62.3208 143.669 62.1831L142.43 63.7529ZM174.119 51.288L173.418 52.0009L173.424 52.0066L174.119 51.288ZM176.104 67V68H177.104V67H176.104ZM170.023 67H169.023V68H170.023V67ZM164.647 55.544L163.918 54.8601L163.912 54.8662L163.907 54.8725L164.647 55.544ZM163.719 67V68H164.719V67H163.719ZM157.639 67H156.639V68H157.639V67ZM157.639 49.656V48.656H156.639V49.656H157.639ZM163.432 49.656H164.432V48.656H163.432V49.656ZM163.432 51.544H162.431V54.0117L164.149 52.2401L163.432 51.544ZM165.864 49.944L166.224 50.8768L166.233 50.8733L166.242 50.8695L165.864 49.944ZM168.936 50.368C170.879 50.368 172.337 50.9377 173.418 52.0009L174.821 50.5751C173.299 49.0783 171.302 48.368 168.936 48.368V50.368ZM173.424 52.0066C174.485 53.0329 175.104 54.6584 175.104 57.08H177.104C177.104 54.3389 176.4 52.1031 174.815 50.5694L173.424 52.0066ZM175.104 57.08V67H177.104V57.08H175.104ZM176.104 66H170.023V68H176.104V66ZM171.023 67V58.072H169.023V67H171.023ZM171.023 58.072C171.023 56.7808 170.769 55.6272 170.092 54.7824C169.381 53.8955 168.345 53.52 167.175 53.52V55.52C167.905 55.52 168.293 55.7365 168.531 56.0336C168.803 56.3728 169.023 56.9952 169.023 58.072H171.023ZM167.175 53.52C165.89 53.52 164.77 53.951 163.918 54.8601L165.377 56.2279C165.805 55.7716 166.371 55.52 167.175 55.52V53.52ZM163.907 54.8725C163.056 55.8105 162.72 57.1195 162.72 58.616H164.719C164.719 57.3818 165.001 56.6428 165.388 56.2155L163.907 54.8725ZM162.72 58.616V67H164.719V58.616H162.72ZM163.719 66H157.639V68H163.719V66ZM158.639 67V49.656H156.639V67H158.639ZM157.639 50.656H163.432V48.656H157.639V50.656ZM162.431 49.656V51.544H164.432V49.656H162.431ZM164.149 52.2401C164.729 51.6427 165.416 51.1888 166.224 50.8768L165.503 49.0112C164.433 49.4246 163.5 50.0373 162.714 50.8479L164.149 52.2401ZM166.242 50.8695C167.05 50.5391 167.944 50.368 168.936 50.368V48.368C167.709 48.368 166.555 48.5809 165.485 49.0185L166.242 50.8695ZM187.793 60.92L188.574 60.2953L187.869 59.4151L187.079 60.2192L187.793 60.92ZM186.001 62.744L185.287 62.0432L185.001 62.335V62.744H186.001ZM186.001 67V68H187.001V67H186.001ZM179.921 67H178.921V68H179.921V67ZM179.921 43.256V42.256H178.921V43.256H179.921ZM186.001 43.256H187.001V42.256H186.001V43.256ZM186.001 55.704H185.001V58.0743L186.699 56.4203L186.001 55.704ZM192.209 49.656V48.656H191.802L191.511 48.9397L192.209 49.656ZM199.409 49.656L200.127 50.3522L201.772 48.656H199.409V49.656ZM192.209 57.08L191.491 56.3838L190.882 57.0114L191.423 57.6985L192.209 57.08ZM200.017 67V68H202.076L200.803 66.3815L200.017 67ZM192.657 67L191.876 67.6247L192.176 68H192.657V67ZM187.079 60.2192L185.287 62.0432L186.714 63.4448L188.506 61.6208L187.079 60.2192ZM185.001 62.744V67H187.001V62.744H185.001ZM186.001 66H179.921V68H186.001V66ZM180.921 67V43.256H178.921V67H180.921ZM179.921 44.256H186.001V42.256H179.921V44.256ZM185.001 43.256V55.704H187.001V43.256H185.001ZM186.699 56.4203L192.907 50.3723L191.511 48.9397L185.303 54.9877L186.699 56.4203ZM192.209 50.656H199.409V48.656H192.209V50.656ZM198.691 48.9598L191.491 56.3838L192.927 57.7762L200.127 50.3522L198.691 48.9598ZM191.423 57.6985L199.231 67.6185L200.803 66.3815L192.995 56.4615L191.423 57.6985ZM200.017 66H192.657V68H200.017V66ZM193.438 66.3753L188.574 60.2953L187.012 61.5447L191.876 67.6247L193.438 66.3753ZM203.281 66.808L203.045 67.7799L203.052 67.7815L203.059 67.7831L203.281 66.808ZM199.888 65.496L198.973 65.0944L198.626 65.8859L199.358 66.344L199.888 65.496ZM201.713 61.336L202.24 60.4867L201.26 59.8774L200.797 60.9344L201.713 61.336ZM204.529 62.52L204.264 63.4843L204.273 63.4868L204.281 63.489L204.529 62.52ZM209.84 62.648L210.269 63.5517L210.278 63.5472L210.288 63.5424L209.84 62.648ZM209.713 60.952L209.384 61.8965L209.408 61.9049L209.433 61.912L209.713 60.952ZM207.344 60.472L207.48 59.4812L207.467 59.4795L207.344 60.472ZM203.793 59.8L203.515 60.7607L203.521 60.7623L203.793 59.8ZM201.297 58.264L200.569 58.95L201.297 58.264ZM201.232 52.184L202.023 52.7966L202.03 52.7871L201.232 52.184ZM204.113 50.136L204.476 51.0677L204.484 51.0645L204.113 50.136ZM212.433 49.752L212.635 48.7727V48.7727L212.433 49.752ZM215.536 50.84L216.451 51.2442L216.818 50.4146L216.028 49.969L215.536 50.84ZM213.713 54.968L213.227 55.8422L214.184 56.3742L214.627 55.3722L213.713 54.968ZM206.608 54.04L207.038 54.9429L207.056 54.9347L207.073 54.9258L206.608 54.04ZM206.673 55.768L206.344 56.7125L206.363 56.719L206.381 56.7247L206.673 55.768ZM209.104 56.248L208.955 57.2368L208.957 57.237L209.104 56.248ZM212.657 56.984L212.94 56.025V56.025L212.657 56.984ZM215.089 58.52L214.35 59.1948L214.361 59.2058L214.371 59.2165L215.089 58.52ZM215.153 64.536L215.943 65.1486L215.95 65.1391L215.153 64.536ZM212.209 66.552L211.856 65.6163L211.851 65.6183L212.209 66.552ZM207.568 66.288C206.192 66.288 204.837 66.1363 203.502 65.8329L203.059 67.7831C204.54 68.1197 206.044 68.288 207.568 68.288V66.288ZM203.516 65.8362C202.171 65.51 201.151 65.1056 200.418 64.648L199.358 66.344C200.333 66.9531 201.574 67.4234 203.045 67.7799L203.516 65.8362ZM200.804 65.8976L202.628 61.7376L200.797 60.9344L198.973 65.0944L200.804 65.8976ZM201.185 62.1853C202.071 62.7363 203.102 63.1654 204.264 63.4843L204.793 61.5557C203.779 61.2772 202.933 60.9171 202.24 60.4867L201.185 62.1853ZM204.281 63.489C205.446 63.7858 206.606 63.936 207.76 63.936V61.936C206.781 61.936 205.787 61.8088 204.776 61.551L204.281 63.489ZM207.76 63.936C208.755 63.936 209.645 63.8469 210.269 63.5517L209.412 61.7443C209.225 61.8331 208.729 61.936 207.76 61.936V63.936ZM210.288 63.5424C210.955 63.2089 211.48 62.6136 211.48 61.752H209.48C209.48 61.7543 209.48 61.7438 209.486 61.7257C209.492 61.7072 209.5 61.6921 209.507 61.6828C209.519 61.6656 209.503 61.6987 209.393 61.7536L210.288 63.5424ZM211.48 61.752C211.48 61.313 211.324 60.8989 211.01 60.5715C210.719 60.2681 210.347 60.0953 209.993 59.992L209.433 61.912C209.507 61.9337 209.551 61.9535 209.572 61.9653C209.593 61.9768 209.586 61.9765 209.567 61.9565C209.546 61.9346 209.52 61.8991 209.502 61.8521C209.484 61.8059 209.48 61.769 209.48 61.752H211.48ZM210.041 60.0075C209.451 59.8022 208.578 59.632 207.48 59.4813L207.209 61.4627C208.287 61.6107 208.993 61.7604 209.384 61.8965L210.041 60.0075ZM207.467 59.4795C206.114 59.3129 204.983 59.0971 204.064 58.8377L203.521 60.7623C204.565 61.0575 205.802 61.2897 207.222 61.4645L207.467 59.4795ZM204.07 58.8393C203.287 58.613 202.609 58.1982 202.024 57.578L200.569 58.95C201.392 59.8232 202.378 60.4323 203.515 60.7607L204.07 58.8393ZM202.024 57.578C201.544 57.0687 201.241 56.2983 201.241 55.128H199.241C199.241 56.6457 199.641 57.966 200.569 58.95L202.024 57.578ZM201.241 55.128C201.241 54.2339 201.501 53.4695 202.023 52.7966L200.442 51.5714C199.641 52.6052 199.241 53.8035 199.241 55.128H201.241ZM202.03 52.7871C202.557 52.0909 203.35 51.5067 204.476 51.0677L203.749 49.2043C202.358 49.7466 201.231 50.5278 200.435 51.5809L202.03 52.7871ZM204.484 51.0645C205.617 50.6111 207.01 50.368 208.688 50.368V48.368C206.825 48.368 205.168 48.6369 203.741 49.2075L204.484 51.0645ZM208.688 50.368C209.879 50.368 211.059 50.489 212.23 50.7313L212.635 48.7727C211.331 48.503 210.015 48.368 208.688 48.368V50.368ZM212.23 50.7313C213.397 50.9726 214.327 51.3058 215.045 51.711L216.028 49.969C215.082 49.4355 213.943 49.0434 212.635 48.7727L212.23 50.7313ZM214.622 50.4358L212.798 54.5638L214.627 55.3722L216.451 51.2442L214.622 50.4358ZM214.198 54.0938C212.511 53.1563 210.679 52.688 208.72 52.688V54.688C210.346 54.688 211.842 55.0731 213.227 55.8422L214.198 54.0938ZM208.72 52.688C207.719 52.688 206.814 52.8036 206.144 53.1542L207.073 54.9258C207.299 54.8071 207.802 54.688 208.72 54.688V52.688ZM206.179 53.1371C205.532 53.4449 204.937 54.0135 204.937 54.904H206.937C206.937 54.9181 206.934 54.9426 206.924 54.9715C206.914 55.0004 206.901 55.0203 206.894 55.0299C206.887 55.0384 206.89 55.0323 206.912 55.0155C206.935 54.9984 206.975 54.973 207.038 54.9429L206.179 53.1371ZM204.937 54.904C204.937 55.326 205.071 55.7341 205.359 56.0725C205.632 56.3932 205.991 56.5896 206.344 56.7125L207.001 54.8235C206.935 54.8006 206.897 54.7805 206.879 54.7693C206.862 54.7586 206.867 54.7588 206.882 54.7755C206.897 54.7938 206.914 54.8206 206.925 54.8524C206.93 54.8672 206.933 54.8799 206.935 54.8895C206.937 54.899 206.937 54.9041 206.937 54.904H204.937ZM206.381 56.7247C206.947 56.8969 207.82 57.0655 208.955 57.2368L209.254 55.2592C208.127 55.0892 207.379 54.9378 206.964 54.8113L206.381 56.7247ZM208.957 57.237C210.36 57.4464 211.495 57.6834 212.373 57.943L212.94 56.025C211.941 55.7299 210.708 55.4762 209.252 55.259L208.957 57.237ZM212.373 57.943C213.131 58.167 213.786 58.5777 214.35 59.1948L215.827 57.8452C215.025 56.9689 214.059 56.3557 212.94 56.025L212.373 57.943ZM214.371 59.2165C214.843 59.7031 215.145 60.4463 215.145 61.592H217.145C217.145 60.0923 216.742 58.7876 215.806 57.8235L214.371 59.2165ZM215.145 61.592C215.145 62.4605 214.886 63.2304 214.355 63.9329L215.95 65.1391C216.742 64.0923 217.145 62.8995 217.145 61.592H215.145ZM214.362 63.9234C213.842 64.5942 213.033 65.1724 211.856 65.6163L212.561 67.4877C213.987 66.9503 215.14 66.1845 215.943 65.1486L214.362 63.9234ZM211.851 65.6183C210.715 66.0535 209.297 66.288 207.568 66.288V68.288C209.467 68.288 211.142 68.0318 212.566 67.4857L211.851 65.6183Z" fill="black"/>
</svg>

