<svg width="470" height="470" viewBox="0 0 470 470" fill="none" xmlns="http://www.w3.org/2000/svg">
<circle cx="235" cy="235" r="235" fill="#FFECF2"/>
<mask id="mask0" mask-type="alpha" maskUnits="userSpaceOnUse" x="0" y="0" width="470" height="470">
<circle cx="235" cy="235" r="235" fill="#C4C4C4"/>
</mask>
<g mask="url(#mask0)">
<path d="M99.1378 291.876L141.5 267.697L194.634 335.018L159.244 371.286L99.1378 291.876Z" fill="#FADEEE" stroke="#060905" stroke-miterlimit="10"/>
<path d="M81.3938 470C116.005 432.903 171.284 369.531 171.284 369.531L103.818 283.102L-22 353.493L81.3938 470Z" fill="#FF80A4" stroke="#060905" stroke-miterlimit="10"/>
<path d="M152.321 374.406C150.744 375.408 148.833 375.742 147.01 375.335C145.186 374.929 143.598 373.814 142.596 372.237C141.594 370.659 141.26 368.749 141.667 366.925C142.074 365.101 143.188 363.513 144.766 362.511C145.547 362.015 146.418 361.678 147.329 361.518C148.24 361.359 149.174 361.38 150.077 361.582C150.981 361.783 151.835 362.161 152.592 362.692C153.35 363.224 153.995 363.9 154.491 364.681C154.987 365.462 155.324 366.333 155.484 367.244C155.643 368.156 155.622 369.089 155.42 369.993C155.219 370.896 154.842 371.75 154.31 372.507C153.778 373.265 153.102 373.91 152.321 374.406Z" fill="#FF9D00" stroke="#060905" stroke-miterlimit="10"/>
<path d="M139.16 390.346C137.996 391.1 136.636 391.492 135.25 391.474C133.863 391.456 132.514 391.027 131.371 390.243C130.228 389.458 129.343 388.353 128.827 387.066C128.311 385.78 128.188 384.369 128.473 383.012C128.758 381.656 129.438 380.414 130.428 379.443C131.418 378.472 132.673 377.817 134.035 377.558C135.396 377.3 136.804 377.451 138.081 377.991C139.357 378.532 140.445 379.439 141.207 380.597C141.716 381.37 142.067 382.237 142.239 383.147C142.412 384.056 142.403 384.991 142.213 385.898C142.022 386.804 141.655 387.663 141.131 388.427C140.607 389.19 139.937 389.843 139.16 390.346Z" fill="#FF9D00" stroke="#060905" stroke-miterlimit="10"/>
<path d="M125.266 405.507C124.109 406.245 122.76 406.625 121.388 406.6C120.016 406.574 118.682 406.144 117.553 405.364C116.424 404.583 115.551 403.487 115.042 402.212C114.534 400.937 114.413 399.54 114.695 398.197C114.977 396.854 115.65 395.624 116.628 394.661C117.606 393.699 118.847 393.046 120.194 392.786C121.542 392.525 122.936 392.668 124.203 393.197C125.469 393.725 126.551 394.616 127.314 395.757C127.836 396.527 128.198 397.393 128.378 398.306C128.557 399.218 128.551 400.157 128.36 401.067C128.169 401.977 127.797 402.839 127.265 403.602C126.734 404.365 126.054 405.012 125.266 405.507Z" fill="#FF9D00" stroke="#060905" stroke-miterlimit="10"/>
<path d="M324.449 178.245C324.449 178.245 359.889 131.984 365.787 135.055C371.686 138.126 360.133 158.259 343.851 176.831" fill="#FFF1F9"/>
<path d="M324.449 178.245C324.449 178.245 359.889 131.984 365.787 135.055C371.686 138.126 360.133 158.259 343.851 176.831" stroke="#583EF4" stroke-width="0.75" stroke-miterlimit="10"/>
<path d="M334.882 159.136C334.882 159.136 360.182 123.111 370.906 126.914C385.53 132.081 352.431 167.569 342.096 179.074C331.762 190.578 324.303 171.567 334.882 159.136Z" fill="#FFF1F9" stroke="#060905" stroke-miterlimit="10"/>
<path d="M311.483 219.632C311.483 219.632 317.82 198.573 318.941 193.113C320.063 187.653 327.765 166.497 327.765 166.497C327.765 166.497 328.057 165.473 328.447 163.913C329.57 159.977 330.192 155.916 330.3 151.824C329.91 147.827 325.425 146.413 320.55 149.338C315.675 152.263 297.249 188.336 297.249 188.336L235.973 283.101L316.748 305.477C316.748 305.477 324.06 285.587 328.155 276.228C332.249 266.868 345.119 238.546 347.995 232.648C350.871 226.749 348.58 211.004 346.825 202.083C345.07 193.162 342.486 172.249 342.486 172.249L331.372 162.5" fill="#FFF1F9"/>
<path d="M311.483 219.632C311.483 219.632 317.82 198.573 318.941 193.113C320.063 187.653 327.765 166.497 327.765 166.497C327.765 166.497 328.057 165.473 328.447 163.913C329.57 159.977 330.192 155.916 330.3 151.824C329.91 147.827 325.425 146.413 320.55 149.338C315.675 152.263 297.249 188.336 297.249 188.336L235.973 283.101L316.748 305.477C316.748 305.477 324.06 285.587 328.155 276.228C332.249 266.868 345.119 238.546 347.995 232.648C350.871 226.749 348.58 211.004 346.825 202.083C345.07 193.162 342.486 172.249 342.486 172.249L331.372 162.5" stroke="#583EF4" stroke-width="0.75" stroke-miterlimit="10"/>
<path d="M335.59 82.6806L160.616 69.217C147.919 68.2401 136.834 77.7409 135.857 90.4378L114.918 362.572C113.941 375.268 123.442 386.353 136.139 387.33L311.113 400.794C323.81 401.771 334.895 392.27 335.872 379.573L356.811 107.439C357.788 94.7424 348.287 83.6576 335.59 82.6806Z" fill="#060905"/>
<path d="M342.035 104.314L154.306 90.1329L134.775 348.685L322.503 362.866L342.035 104.314Z" fill="white"/>
<path d="M317.88 116.031L177.708 105.885L164.183 292.733L304.356 302.879L317.88 116.031Z" fill="white"/>
<path d="M305.633 304.453L162.656 294.118L176.403 104.392L319.38 114.776L305.633 304.453ZM165.679 291.535L303.001 301.284L316.358 117.359L178.889 107.415L165.679 291.535Z" fill="#060905"/>
<path d="M298.711 302.503C283.014 268.38 261.662 247.272 236.996 245.468C212.33 243.665 189.37 261.701 169.773 293.192L298.711 302.503Z" fill="white"/>
<path d="M300.417 303.722L167.97 293.972L168.896 292.461C189.565 259.361 213.013 242.787 237.045 244.444C261.078 246.102 283.063 266.137 299.686 302.064L300.417 303.722ZM171.626 292.266L297.005 301.284C280.821 267.161 260.103 248.149 236.899 246.492C213.695 244.834 191.612 260.677 171.626 292.266Z" fill="#060905"/>
<path d="M208.869 194.381C206.425 190.11 204.898 185.378 204.386 180.484C203.874 175.591 204.388 170.644 205.895 165.961C211.062 150.167 241.773 143.927 245.283 145.292C250.962 146.576 256.707 147.552 262.491 148.217C267.022 148.514 271.29 150.449 274.5 153.659C277.711 156.87 279.645 161.138 279.943 165.668C280.869 181.999 272.289 200.377 271.558 202.96C270.827 205.544 217.887 213.1 208.869 194.381Z" fill="#060905"/>
<path d="M228.53 226.368L227.363 244.807C227.049 249.777 230.823 254.062 235.794 254.376L239.589 254.616C244.559 254.931 248.844 251.156 249.158 246.185L250.325 227.747C250.639 222.776 246.865 218.492 241.894 218.177L238.099 217.937C233.129 217.623 228.844 221.397 228.53 226.368Z" fill="white"/>
<path d="M235.631 255.413C232.992 255.225 230.534 254.004 228.791 252.014C227.047 250.024 226.16 247.426 226.32 244.786L227.49 226.262C227.666 223.601 228.887 221.118 230.887 219.355C232.888 217.593 235.505 216.693 238.166 216.853H241.968C243.294 216.921 244.591 217.259 245.781 217.845C246.972 218.432 248.03 219.256 248.891 220.266C249.775 221.245 250.451 222.394 250.879 223.642C251.306 224.891 251.475 226.213 251.377 227.529L250.207 246.053C250.031 248.714 248.81 251.197 246.81 252.959C244.809 254.722 242.192 255.622 239.531 255.461H235.729L235.631 255.413ZM241.92 219.242L238.069 218.998C237.027 218.926 235.982 219.06 234.992 219.394C234.003 219.728 233.09 220.255 232.306 220.944C231.522 221.633 230.882 222.47 230.423 223.408C229.965 224.346 229.697 225.366 229.635 226.408L228.465 244.883C228.344 246.973 229.047 249.026 230.423 250.603C231.8 252.18 233.739 253.154 235.826 253.317L239.628 253.56C241.729 253.694 243.797 252.989 245.378 251.6C246.959 250.211 247.924 248.251 248.062 246.151L249.232 227.675C249.291 226.624 249.136 225.572 248.776 224.583C248.415 223.595 247.857 222.689 247.136 221.923C246.485 221.155 245.69 220.523 244.795 220.063C243.9 219.603 242.923 219.324 241.92 219.242Z" fill="#060905"/>
<path d="M195.609 197.988C195.43 199.697 195.76 201.422 196.557 202.944C197.355 204.467 198.584 205.721 200.091 206.547C201.598 207.374 203.316 207.737 205.028 207.591C206.741 207.445 208.372 206.797 209.718 205.727C211.063 204.658 212.063 203.214 212.591 201.579C213.119 199.943 213.153 198.188 212.687 196.533C212.222 194.879 211.278 193.398 209.974 192.278C208.67 191.158 207.065 190.448 205.359 190.237C204.208 190.095 203.04 190.183 201.924 190.497C200.808 190.811 199.765 191.345 198.858 192.066C197.95 192.788 197.195 193.683 196.637 194.7C196.08 195.717 195.73 196.835 195.609 197.988Z" fill="white"/>
<path d="M203.604 208.664H203.263C201.986 208.533 200.747 208.151 199.617 207.541C198.488 206.93 197.49 206.102 196.682 205.105C195.862 204.114 195.245 202.971 194.869 201.741C194.493 200.511 194.363 199.219 194.488 197.939C194.609 196.647 194.987 195.393 195.6 194.249C196.212 193.105 197.047 192.094 198.055 191.277C199.063 190.46 200.224 189.852 201.469 189.489C202.715 189.127 204.021 189.016 205.31 189.165C207.896 189.391 210.286 190.635 211.954 192.623C213.623 194.612 214.433 197.181 214.207 199.767C213.98 202.353 212.736 204.743 210.748 206.411C208.759 208.08 206.19 208.89 203.604 208.664ZM204.871 191.358C202.887 191.208 200.922 191.836 199.393 193.11C197.864 194.384 196.892 196.204 196.682 198.183C196.57 199.184 196.664 200.198 196.957 201.162C197.251 202.126 197.737 203.02 198.388 203.789C199.169 204.789 200.186 205.579 201.348 206.088C202.511 206.597 203.781 206.809 205.045 206.705C206.31 206.601 207.529 206.185 208.592 205.493C209.656 204.801 210.531 203.856 211.138 202.742C211.746 201.628 212.067 200.381 212.073 199.112C212.078 197.844 211.769 196.593 211.171 195.474C210.574 194.355 209.708 193.402 208.651 192.7C207.594 191.999 206.379 191.571 205.115 191.456L204.871 191.358Z" fill="#060905"/>
<path d="M208.138 200.425C208.138 200.425 208.138 200.084 208.138 199.889V199.304C208.117 199.175 208.117 199.043 208.138 198.914C208.138 198.622 208.138 198.329 208.138 198.085C208.138 197.842 208.138 198.085 208.138 198.085L207.894 197.647L207.553 197.208L207.114 196.916H206.821H206.139H205.749H204.774C204.687 196.916 204.6 196.898 204.52 196.863C204.439 196.828 204.367 196.777 204.308 196.713C204.248 196.649 204.203 196.573 204.174 196.491C204.145 196.408 204.134 196.32 204.14 196.233C204.147 196.143 204.17 196.056 204.21 195.975C204.251 195.895 204.306 195.823 204.374 195.764C204.442 195.705 204.521 195.66 204.606 195.632C204.692 195.604 204.782 195.593 204.872 195.599C205.811 195.541 206.75 195.721 207.602 196.121C208.454 196.521 209.191 197.13 209.746 197.89C210.355 198.94 210.658 200.139 210.624 201.352C210.624 201.352 210.624 201.839 210.624 202.083C210.624 202.326 210.331 202.765 209.941 202.716C209.849 202.718 209.758 202.699 209.674 202.661C209.59 202.623 209.515 202.567 209.455 202.498C209.395 202.428 209.35 202.346 209.325 202.258C209.299 202.169 209.293 202.076 209.308 201.985L208.138 200.425Z" fill="#060905"/>
<path d="M285.549 205.739C285.34 207.441 284.635 209.044 283.52 210.348C282.405 211.651 280.931 212.598 279.282 213.068C277.633 213.539 275.881 213.513 274.247 212.993C272.612 212.474 271.167 211.485 270.091 210.149C269.016 208.813 268.358 207.189 268.199 205.482C268.041 203.774 268.39 202.057 269.202 200.546C270.014 199.036 271.253 197.798 272.765 196.987C274.276 196.177 275.993 195.829 277.701 195.989C278.863 196.098 279.991 196.439 281.019 196.991C282.047 197.543 282.953 198.296 283.685 199.205C284.417 200.114 284.959 201.161 285.279 202.283C285.599 203.405 285.691 204.58 285.549 205.739Z" fill="white"/>
<path d="M276.384 214.513H276.092C274.806 214.389 273.558 214.01 272.42 213.399C271.282 212.788 270.276 211.958 269.462 210.955C268.607 209.979 267.956 208.843 267.546 207.613C267.135 206.382 266.975 205.082 267.073 203.789C267.213 202.514 267.602 201.28 268.22 200.156C268.837 199.033 269.67 198.042 270.67 197.24C271.671 196.439 272.82 195.842 274.051 195.486C275.283 195.129 276.572 195.018 277.847 195.161C280.419 195.412 282.786 196.674 284.428 198.67C285.239 199.665 285.847 200.81 286.215 202.039C286.583 203.269 286.704 204.559 286.572 205.836C286.302 208.309 285.096 210.586 283.202 212.199C281.308 213.812 278.869 214.64 276.384 214.513ZM277.603 197.208C275.621 197.07 273.663 197.703 272.137 198.974C270.61 200.246 269.635 202.058 269.413 204.033C269.236 206.046 269.857 208.048 271.143 209.608C272.429 211.167 274.276 212.159 276.287 212.368C278.303 212.587 280.324 211.996 281.906 210.726C283.487 209.455 284.499 207.609 284.72 205.593C284.897 203.579 284.276 201.577 282.99 200.017C281.704 198.458 279.857 197.466 277.847 197.257L277.603 197.208Z" fill="#060905"/>
<path d="M271.51 205.446C271.521 204.316 271.87 203.215 272.513 202.285C273.156 201.355 274.063 200.639 275.117 200.23C276.252 199.937 277.443 199.937 278.578 200.23C278.664 200.252 278.744 200.292 278.813 200.346C278.882 200.401 278.939 200.47 278.981 200.548C279.022 200.626 279.047 200.711 279.053 200.799C279.059 200.888 279.047 200.976 279.017 201.059C278.951 201.228 278.825 201.366 278.663 201.447C278.5 201.528 278.314 201.546 278.139 201.498C277.309 201.274 276.435 201.274 275.604 201.498H275.361H274.873C274.748 201.599 274.633 201.713 274.532 201.839L274.288 202.229V202.619C274.267 202.862 274.267 203.107 274.288 203.35C274.282 203.464 274.282 203.578 274.288 203.691C274.261 203.918 274.261 204.147 274.288 204.374C274.288 205.203 272.923 205.105 272.923 204.374L271.51 205.446Z" fill="#060905"/>
<path d="M215.027 176.388L212.921 201.894C211.84 214.987 221.578 226.478 234.672 227.559L242.299 228.189C255.393 229.27 266.884 219.532 267.965 206.439L270.071 180.933C271.152 167.839 261.414 156.348 248.32 155.267L240.693 154.637C227.599 153.556 216.108 163.294 215.027 176.388Z" fill="white"/>
<path d="M242.261 229.235L234.559 228.601C228.001 228.043 221.933 224.907 217.683 219.881C213.434 214.855 211.351 208.349 211.891 201.79L213.987 176.246C214.259 172.994 215.174 169.827 216.681 166.932C218.187 164.036 220.254 161.469 222.762 159.38C227.773 155.138 234.252 153.037 240.799 153.53L248.501 154.164C255.057 154.735 261.123 157.873 265.377 162.894C269.631 167.915 271.73 174.414 271.217 180.975L269.121 206.519C268.55 213.084 265.405 219.158 260.373 223.413C255.341 227.669 248.83 229.762 242.261 229.235ZM240.116 155.626C234.136 155.207 228.23 157.154 223.671 161.047C219.112 164.941 216.264 170.469 215.742 176.441L213.646 201.985C213.188 207.967 215.114 213.887 219.005 218.453C222.895 223.02 228.434 225.862 234.413 226.359L242.115 226.993C248.096 227.451 254.016 225.525 258.583 221.634C263.149 217.744 265.991 212.205 266.489 206.226L268.633 180.683C269.066 174.707 267.13 168.801 263.245 164.24C259.359 159.68 253.836 156.831 247.867 156.309L240.165 155.675L240.116 155.626Z" fill="#060905"/>
<path d="M276.092 162.792C272.32 158.443 267.754 154.853 262.637 152.214C265.562 127.499 200.143 108.633 211.55 145.389C211.55 145.389 190.296 134.47 185.811 145.389C174.94 171.469 238.166 184.387 257.958 162.061C260.115 162.812 262.044 164.102 263.563 165.808C265.081 167.515 266.139 169.581 266.635 171.81C267.61 180.634 268.487 200.084 268.487 200.084C269.404 197.206 270.579 194.416 271.997 191.748C274.093 187.897 278.578 166.887 276.092 162.792Z" fill="#060905"/>
<path d="M213.744 191.553C216.084 196.062 219.809 199.701 224.371 201.936C231.39 204.91 234.656 199.743 240.555 200.084C243.134 199.891 245.725 200.223 248.172 201.061C250.619 201.899 252.87 203.225 254.789 204.959C259.372 209.053 265.952 200.425 269.121 190.334C272.29 180.244 270.291 211.442 262.54 219.973C254.789 228.504 245.722 229.722 234.608 227.87C229.902 227.34 225.447 225.475 221.767 222.495C218.087 219.515 215.337 215.545 213.841 211.052C212.752 204.601 212.719 198.015 213.744 191.553Z" fill="#060905"/>
<path d="M241.676 185.752L237.63 198.085L244.211 198.524L241.676 185.752Z" fill="#060905"/>
<path d="M235.729 207.396C235.763 208.743 236.295 210.03 237.221 211.009C238.147 211.987 239.402 212.589 240.745 212.698C242.088 212.807 243.424 212.415 244.496 211.598C245.568 210.782 246.3 209.598 246.551 208.274L235.729 207.396Z" fill="white"/>
<path d="M226.857 189.603C226.759 190.45 226.329 191.223 225.662 191.753C224.995 192.283 224.145 192.527 223.298 192.431C222.481 192.298 221.747 191.856 221.248 191.197C220.748 190.537 220.522 189.711 220.616 188.889C220.711 188.067 221.118 187.313 221.753 186.783C222.389 186.254 223.204 185.989 224.029 186.045C224.87 186.155 225.636 186.587 226.163 187.252C226.691 187.916 226.94 188.759 226.857 189.603Z" fill="#060905"/>
<path d="M260.639 192.041C260.541 192.887 260.112 193.66 259.444 194.19C258.777 194.72 257.927 194.964 257.081 194.868C256.663 194.82 256.26 194.689 255.893 194.484C255.527 194.278 255.205 194.001 254.946 193.67C254.688 193.339 254.498 192.96 254.387 192.555C254.276 192.149 254.247 191.726 254.302 191.309C254.344 190.894 254.469 190.491 254.67 190.125C254.87 189.759 255.142 189.437 255.469 189.178C255.797 188.919 256.173 188.728 256.575 188.617C256.977 188.506 257.398 188.476 257.812 188.531C258.229 188.573 258.633 188.698 259.002 188.898C259.37 189.098 259.695 189.369 259.958 189.695C260.221 190.022 260.417 190.397 260.534 190.8C260.651 191.202 260.686 191.624 260.639 192.041Z" fill="#060905"/>
<path d="M229.371 234.368L249.403 235.818C252.24 236.023 254.879 237.347 256.74 239.498C258.6 241.649 259.53 244.452 259.325 247.288L259.051 251.081C258.931 252.651 258.502 254.182 257.791 255.587C257.079 256.992 256.097 258.243 254.902 259.268C253.707 260.293 252.321 261.073 250.825 261.563C249.328 262.053 247.749 262.244 246.179 262.124L227.46 260.769C224.623 260.563 221.984 259.239 220.123 257.088C218.263 254.937 217.333 252.135 217.538 249.298L217.89 244.436C217.992 243.031 218.369 241.66 219 240.401C219.632 239.143 220.505 238.02 221.57 237.099C222.636 236.178 223.872 235.475 225.208 235.032C226.545 234.588 227.956 234.412 229.361 234.514L229.371 234.368Z" fill="white"/>
<path d="M246.258 263.164L227.296 261.799C224.195 261.574 221.309 260.129 219.272 257.781C217.234 255.432 216.21 252.372 216.425 249.27L216.815 244.103C216.926 242.57 217.338 241.073 218.028 239.699C218.718 238.325 219.672 237.101 220.836 236.095C221.999 235.09 223.35 234.325 224.809 233.842C226.269 233.359 227.81 233.168 229.343 233.281L249.573 234.744C252.661 234.968 255.534 236.408 257.563 238.747C259.591 241.086 260.61 244.134 260.395 247.223L260.103 251.22C259.979 252.914 259.523 254.567 258.76 256.084C257.997 257.601 256.943 258.953 255.657 260.063C254.371 261.172 252.879 262.017 251.266 262.549C249.654 263.081 247.952 263.29 246.258 263.164ZM229.197 235.377C226.665 235.228 224.175 236.071 222.255 237.727C220.334 239.384 219.135 241.723 218.911 244.249L218.57 249.417C218.423 251.98 219.292 254.497 220.99 256.423C222.687 258.349 225.076 259.527 227.637 259.702L246.6 261.067C249.42 261.284 252.212 260.383 254.373 258.559C256.535 256.735 257.892 254.134 258.153 251.318L258.445 247.321C258.582 244.797 257.733 242.319 256.078 240.41C254.423 238.5 252.091 237.307 249.573 237.084L229.197 235.377Z" fill="#060905"/>
<path d="M220.373 257.411L221.397 258.435L223.054 235.962C222.63 236.21 222.222 236.487 221.836 236.791L220.373 257.411Z" fill="#060905"/>
<path d="M224.907 260.19C225.248 260.339 225.61 260.437 225.979 260.482L227.881 234.354H226.759L224.907 260.19Z" fill="#060905"/>
<path d="M231.768 234.513L229.854 260.962L230.972 261.043L232.887 234.594L231.768 234.513Z" fill="#060905"/>
<path d="M237.493 234.901L235.578 261.35L236.696 261.431L238.611 234.982L237.493 234.901Z" fill="#060905"/>
<path d="M242.325 235.23L240.41 261.68L241.528 261.761L243.443 235.311L242.325 235.23Z" fill="#060905"/>
<path d="M247.526 235.613L245.612 262.063L246.73 262.144L248.644 235.694L247.526 235.613Z" fill="#060905"/>
<path d="M250.109 262.286L251.23 261.993L253.034 236.986L252.01 236.303L250.109 262.286Z" fill="#060905"/>
<path d="M254.155 260.385C254.581 260.12 254.988 259.827 255.374 259.508L256.885 239.472C256.552 239.106 256.194 238.764 255.813 238.449L254.155 260.385Z" fill="#060905"/>
<path d="M294.957 313.812L289.351 323.074L278.091 323.903L285.647 331.947L283.014 342.379L293.349 338.089L302.952 343.743L301.782 333.019L310.362 326.097L299.296 323.757L294.957 313.812Z" fill="#FF9D00"/>
<path d="M253.716 310.985L248.062 320.296L236.801 321.076L244.357 329.119L241.725 339.6L252.059 335.261L261.662 340.916L260.492 330.24L269.072 323.269L258.055 320.978L253.716 310.985Z" fill="#FF9D00"/>
<path d="M212.428 308.206L206.822 317.468L195.561 318.248L203.117 326.341L200.484 336.773L210.77 332.434L220.422 338.137L219.252 327.413L227.783 320.491L216.766 318.151L212.428 308.206Z" fill="#FF9D00"/>
<path d="M171.187 305.379L165.532 314.69L154.271 315.47L161.827 323.513L159.195 333.945L169.53 329.655L179.133 335.31L177.963 324.585L186.542 317.663L175.477 315.372L171.187 305.379Z" fill="#FF9D00"/>
<path d="M288.815 69.928L275.409 68.9043C276.046 65.5366 275.966 62.0724 275.173 58.7378C274.381 55.4033 272.894 52.2734 270.81 49.5524C268.726 46.8315 266.091 44.5807 263.078 42.947C260.065 41.3133 256.741 40.3334 253.324 40.0714C249.907 39.8093 246.472 40.2709 243.245 41.426C240.018 42.5812 237.071 44.4039 234.597 46.7753C232.122 49.1466 230.175 52.0131 228.884 55.1878C227.592 58.3625 226.984 61.774 227.1 65.1994L213.743 64.1757C209.416 64.1747 205.248 65.8087 202.074 68.7505C198.901 71.6922 196.956 75.7244 196.629 80.0394C196.302 84.3544 197.618 88.6336 200.313 92.0196C203.007 95.4057 206.882 97.6486 211.16 98.2991L286.134 104.149C288.467 104.504 290.848 104.373 293.129 103.766C295.41 103.158 297.54 102.087 299.388 100.619C301.236 99.1503 302.761 97.3166 303.868 95.2322C304.974 93.1478 305.639 90.8574 305.821 88.5043C306.003 86.1513 305.697 83.786 304.923 81.5565C304.148 79.327 302.923 77.2811 301.322 75.5468C299.721 73.8124 297.78 72.427 295.62 71.477C293.459 70.5269 291.126 70.0328 288.766 70.0255L288.815 69.928ZM252.254 54.6212C255.569 55.0009 258.631 56.5773 260.866 59.0545C263.101 61.5317 264.355 64.7394 264.392 68.0756L238.215 66.0282C238.769 62.7455 240.5 59.777 243.084 57.6777C245.668 55.5783 248.927 54.4918 252.254 54.6212Z" fill="white" stroke="#060905" stroke-miterlimit="10"/>
<path d="M332.639 208.127C332.639 208.127 327.765 205.69 330.251 197.549C332.737 189.408 343.608 168.301 354.625 171.079C365.642 173.858 342.243 211.296 332.639 208.127Z" fill="#FFF1F9" stroke="#060905" stroke-miterlimit="10"/>
<path d="M337.709 227.578C337.709 227.578 332.834 225.433 335.467 218.267C338.099 211.101 347.897 192.675 358.086 195.014C368.274 197.354 346.727 230.405 337.709 227.578Z" fill="#FFF1F9" stroke="#060905" stroke-miterlimit="10"/>
<path d="M339.756 244.152C339.756 244.152 334.053 243.128 336.539 236.694C338.001 232.891 344.826 223.385 351.797 224.702C358.768 226.018 353.016 244.834 339.756 244.152Z" fill="#FFF1F9" stroke="#060905" stroke-miterlimit="10"/>
</g>
</svg>
